<svg width="221" height="257" viewBox="0 0 221 257" fill="none" xmlns="http://www.w3.org/2000/svg">
<path d="M51.9764 177.289C41.996 145.948 54.392 112.875 80.2397 95.1803C80.9347 95.7271 81.7918 96.0898 82.6681 96.208C56.837 113.068 44.2762 145.734 54.1523 176.526C65.9507 213.521 105.578 233.912 142.573 222.114C179.568 210.315 200 170.79 188.161 133.693C178.45 103.308 149.847 84.1296 119.482 84.8381C120.315 84.264 120.922 83.4262 121.285 82.5691C151.979 82.6737 180.441 102.382 190.276 133.073C202.426 171.227 181.389 212.181 143.235 224.331C105.08 236.481 64.1264 215.444 51.9764 177.289Z" fill="white"/>
<path d="M90.2374 94.4421C60.9752 109.261 45.9171 143.649 56.2682 175.905C67.6739 211.639 106.117 231.445 141.851 220.039C177.585 208.634 197.391 170.191 185.985 134.457C175.634 102.2 143.447 82.9364 110.982 87.8096L117.999 85.5575C118.507 85.3515 119.016 85.1455 119.483 84.8379C149.848 84.1293 178.45 103.308 188.161 133.693C199.96 170.688 179.569 210.315 142.573 222.114C105.578 233.912 65.9512 213.521 54.1528 176.526C44.2768 145.734 56.8375 113.068 82.6686 96.2078C83.4433 96.3672 84.3801 96.3426 85.1933 96.013L90.2374 94.4421Z" fill="white"/>
<path d="M99.6535 59.8556C98.3517 55.7676 94.0031 53.5062 89.9151 54.808C85.8271 56.1098 83.5657 60.4584 84.8675 64.5464C85.8589 67.5767 88.5977 69.6621 91.6746 69.9536L87.7899 71.173C85.4219 70.0024 83.5182 67.9336 82.6504 65.2083C80.9971 59.9609 83.9042 54.2854 89.1516 52.6321C94.3989 50.9788 100.074 53.8859 101.728 59.1333C102.596 61.8586 102.282 64.5893 100.969 66.8969L97.084 68.1162C99.6007 66.1495 100.585 63.0287 99.6535 59.8556Z" fill="white"/>
<path d="M84.7661 64.5874C83.4643 60.4994 85.7257 56.1508 89.8137 54.849C93.9017 53.5472 98.2504 55.8086 99.5522 59.8966C100.544 62.9269 99.4993 66.1905 97.1255 68.2177L91.4716 70.0358C88.4963 69.7031 85.7988 67.7194 84.7661 64.5874ZM93.8839 67.5196C96.8125 66.5694 98.387 63.4459 97.4779 60.6189C96.5689 57.7919 93.4042 56.1158 90.5772 57.0249C87.6486 57.9751 86.0741 61.0986 86.9832 63.9256C87.9334 66.8542 90.9552 68.4699 93.8839 67.5196Z" fill="white"/>
<path d="M119.44 79.7665L115.576 67.6042C115.101 66.1398 113.447 65.2716 111.983 65.7467L98.2542 70.1272C99.4109 69.185 100.384 68.0807 101.07 66.8555L111.016 63.6532C113.843 62.7441 116.865 64.3598 117.732 67.0851L121.533 78.7997C121.926 80.0607 121.871 81.3849 121.387 82.5277C120.552 82.5111 119.717 82.4945 118.822 82.6208C119.47 81.8846 119.75 80.8242 119.44 79.7665Z" fill="white"/>
<path d="M91.8875 72.2337L78.5658 76.4494C77.1015 76.9245 76.2332 78.5783 76.7083 80.0426L80.5725 92.205C80.7592 92.9577 81.3525 93.5457 82.0668 93.8479C81.3964 94.238 80.7673 94.7297 80.0969 95.1197C79.2591 94.5125 78.6438 93.5784 78.3334 92.5207L74.7165 80.9682C73.8074 78.1412 75.4231 75.1194 78.1484 74.2516L87.6871 71.2141C89.0139 71.8598 90.4617 72.2198 91.8875 72.2337Z" fill="white"/>
<path d="M100.401 90.3224C103.981 89.2266 107.542 88.3753 111.124 87.8702L90.3791 94.5027C93.4671 92.7777 96.8216 91.4182 100.401 90.3224Z" fill="white"/>
<path d="M119.484 84.8381C116.53 84.8515 113.558 85.1095 110.566 85.6119L117.583 83.3599C117.989 83.1951 118.456 82.8874 118.822 82.621C119.657 82.6376 120.451 82.5525 121.388 82.5278C120.923 83.4261 120.316 84.264 119.484 84.8381Z" fill="white"/>
<path d="M84.2666 94.0213L89.4123 92.4092C87.0551 93.6012 84.8407 94.8538 82.7087 96.3096C81.8324 96.1914 80.9753 95.8287 80.2803 95.2819C80.9094 94.7902 81.5798 94.4002 82.2502 94.0101C82.7804 94.1503 83.5139 94.208 84.2666 94.0213Z" fill="white"/>
<path d="M110.564 85.6119C113.555 85.1094 116.528 84.8515 119.481 84.838C119.014 85.1457 118.547 85.4533 117.998 85.5577L110.981 87.8097C107.399 88.3148 103.838 89.1661 100.258 90.2619C96.6786 91.3577 93.3653 92.8189 90.1344 94.4834L84.9887 96.0955C84.1343 96.3235 83.3403 96.4086 82.464 96.2903C84.6372 94.9362 86.8104 93.582 89.1676 92.3899L110.564 85.6119Z" fill="white"/>
<path d="M91.8873 72.234C90.4615 72.2201 89.0137 71.86 87.7885 71.1731L91.5716 69.9949C92.5496 70.0719 93.588 70.0061 94.6045 69.5941C95.6622 69.2838 96.4947 68.7097 97.3272 68.1356L101.11 66.9574C100.423 68.1826 99.4919 69.3886 98.294 70.2291L91.8873 72.234Z" fill="white"/>
<path d="M94.6043 69.5942C93.5466 69.9045 92.5493 70.072 91.5713 69.995L97.2253 68.1769C96.434 68.8526 95.5603 69.325 94.6043 69.5942Z" fill="white"/>
<path d="M116.613 81.2667C117.02 81.1019 117.303 80.6322 117.138 80.2256L113.48 68.5715C113.315 68.1649 112.845 67.8819 112.439 68.0467L79.5315 78.5433C79.1248 78.7081 78.8418 79.1779 79.0066 79.5845L82.7664 91.1974C82.9312 91.604 83.401 91.887 83.8076 91.7222L88.5055 90.1732C86.3516 91.2829 84.2388 92.4942 82.1673 93.8072C81.453 93.5049 80.9613 92.8758 80.673 92.1642L76.8088 80.0018C76.3337 78.5375 77.1003 76.925 78.6663 76.4087L91.988 72.193C93.0677 72.2288 94.2078 72.1218 95.3671 71.7702C96.5265 71.4187 97.5018 70.9051 98.3947 70.1881L112.123 65.8076C113.587 65.3325 115.2 66.0991 115.716 67.6651L119.58 79.8275C119.891 80.8852 119.61 81.9456 118.921 82.5801C116.009 82.6952 113.138 82.912 110.146 83.4144L116.613 81.2667Z" fill="white"/>
<path d="M89.4128 92.4094L84.2671 94.0215C83.5143 94.2082 82.7808 94.1505 82.2094 93.9087C84.281 92.5957 86.3937 91.3844 88.5477 90.2747L110.004 83.3538C112.894 82.8925 115.867 82.6346 118.779 82.5195C118.455 82.8876 118.089 83.154 117.54 83.2584L110.523 85.5104C106.839 86.0568 103.279 86.908 99.5972 88.045C96.0999 89.3441 92.6437 90.7449 89.4128 92.4094Z" fill="white"/>
<path d="M99.6373 88.1465C103.217 87.0507 106.879 86.1582 110.563 85.6119L89.4117 92.4092C92.6426 90.7447 96.0988 89.3439 99.6373 88.1465Z" fill="white"/>
<path d="M95.2652 71.8111C94.1058 72.1626 92.9657 72.2696 91.8861 72.2338L98.2928 70.229C97.3999 70.9459 96.4245 71.4595 95.2652 71.8111Z" fill="white"/>
<path d="M91.1575 54.6598L87.2952 51.8463C83.2488 48.8706 62.7751 34.5638 55.2471 40.8103C52.67 42.9199 52.0735 46.1203 53.6144 49.0463C58.0531 57.662 73.8248 59.1993 86.5393 55.8214L91.1575 54.6598ZM58.8869 43.9507C61.9171 42.9592 70.1997 45.8749 80.4957 52.5901C67.5918 54.6245 59.4247 50.2419 57.6585 47.0522C57.1037 45.9752 57.2219 45.0989 58.2165 44.3407C58.3786 44.1567 58.5819 44.0743 58.8869 43.9507Z" fill="white"/>
<path d="M87.8202 55.775L92.2324 54.1051C104.554 49.4662 116.544 39.0444 115.136 29.4372C114.611 26.0993 112.32 23.9507 108.999 23.64C99.2189 22.8698 90.9145 46.4732 89.2657 51.1653L87.8202 55.775ZM107.941 28.3294C108.246 28.2058 108.49 28.225 108.735 28.2443C109.957 28.3406 110.551 28.9285 110.699 30.1703C111.204 33.7527 107.107 42.0407 95.3813 47.8582C99.8302 36.3505 104.869 29.2192 107.941 28.3294Z" fill="white"/>
<path d="M89.1466 54.7607C88.5119 54.9635 87.7284 54.2858 87.3966 53.2472C87.0648 52.2086 87.3104 51.2022 87.9451 50.9995C88.5798 50.7967 89.3633 51.4743 89.6951 52.5129C90.0269 53.5516 89.7814 54.5579 89.1466 54.7607Z" fill="white"/>
<path d="M152.635 146.378C151.38 146.689 150.154 146.1 149.623 145.033L143.057 146.608L148.882 150.267L148.14 151.358L141.174 147.075L137.746 147.872L143.572 151.531L142.829 152.622L135.863 148.339L132.436 149.136L138.261 152.795L137.519 153.886L130.553 149.603L129.093 149.899C129.563 152.274 129.166 154.705 128.021 156.748L129.196 157.456L137.221 155.585L137.532 156.841L130.847 158.366L133.862 160.204L141.887 158.333L142.199 159.588L135.514 161.113L138.528 162.951L146.554 161.08L146.865 162.335L140.18 163.861L145.971 167.435C146.817 166.599 148.225 166.423 149.282 167.08C150.576 167.839 150.974 169.552 150.181 170.762C149.423 172.056 147.709 172.454 146.5 171.662C145.444 171.004 145.013 169.698 145.348 168.576L139.557 165.001L141.082 171.686L139.826 171.998L137.956 163.973L134.941 162.135L136.466 168.82L135.211 169.131L133.34 161.106L130.325 159.269L131.85 165.954L130.595 166.265L128.724 158.24L127.549 157.532C126.25 159.44 124.286 160.927 121.929 161.685L122.274 163.025L129.241 167.307L128.498 168.398L122.673 164.739L123.47 168.166L130.436 172.448L129.694 173.539L123.868 169.879L124.665 173.307L131.631 177.589L130.889 178.679L125.064 175.02L126.639 181.586C127.828 181.598 128.953 182.425 129.264 183.68C129.56 185.14 128.666 186.587 127.241 186.968C125.782 187.263 124.334 186.369 123.954 184.944C123.642 183.689 124.231 182.463 125.299 181.932L123.723 175.366L120.064 181.191L118.974 180.449L123.256 173.483L122.459 170.056L118.8 175.881L117.71 175.139L121.992 168.172L121.195 164.745L117.536 170.571L116.446 169.828L120.728 162.862L120.417 161.607C118.007 161.991 115.576 161.595 113.533 160.449L112.825 161.624L114.696 169.649L113.44 169.961L111.915 163.276L110.077 166.291L111.948 174.316L110.693 174.627L109.168 167.942L107.33 170.957L109.201 178.982L107.946 179.293L106.421 172.608L102.846 178.399C103.682 179.245 103.858 180.654 103.201 181.71C102.442 183.004 100.729 183.403 99.5193 182.61C98.225 181.851 97.8266 180.138 98.6194 178.928C99.277 177.872 100.583 177.442 101.705 177.776L105.28 171.985L98.5947 173.51L98.2833 172.255L106.308 170.384L108.146 167.369L101.461 168.894L101.15 167.639L109.175 165.768L111.012 162.753L104.327 164.279L104.016 163.023L112.041 161.152L112.749 159.977C110.807 158.593 109.405 156.595 108.732 154.204L107.307 154.584L103.024 161.55L101.849 160.842L105.474 154.932L102.047 155.729L97.7642 162.695L96.589 161.987L100.214 156.077L96.7865 156.874L92.4216 164.367L91.2464 163.659L94.8712 157.749L88.3054 159.324C88.2938 160.513 87.4667 161.638 86.2112 161.949C84.7862 162.329 83.3385 161.436 82.924 159.926C82.5438 158.501 83.4374 157.053 84.9472 156.639C86.2026 156.327 87.4282 156.916 87.9596 157.984L94.5254 156.408L88.6153 152.784L89.3233 151.608L96.2895 155.891L99.7167 155.094L93.8066 151.469L94.5146 150.294L101.481 154.576L104.908 153.779L98.9979 150.155L99.7059 148.979L106.672 153.262L108.131 152.966C107.747 150.556 108.178 148.211 109.358 146.252L108.029 145.409L100.004 147.28L99.6924 146.024L106.343 144.414L103.328 142.577L95.3032 144.448L94.9918 143.192L101.642 141.582L98.6278 139.745L90.6026 141.616L90.7172 140.681L97.3679 139.071L91.5768 135.497C90.7314 136.333 89.3225 136.509 88.2664 135.851C86.9721 135.093 86.5737 133.379 87.3665 132.17C88.1249 130.876 89.8385 130.477 91.048 131.27C92.1041 131.928 92.5346 133.233 92.2 134.356L97.9911 137.93L96.3812 131.28L97.6367 130.968L99.5076 138.993L102.522 140.831L100.912 134.18L102.168 133.869L104.039 141.894L107.053 143.732L105.443 137.081L106.699 136.77L108.57 144.795L109.983 145.604C111.317 143.78 113.195 142.328 115.502 141.689L115.138 140.06L108.172 135.778L108.88 134.603L114.79 138.227L113.993 134.8L107.027 130.518L107.735 129.343L113.645 132.967L112.899 129.421L105.933 125.139L106.641 123.963L112.466 127.623L110.891 121.057C109.702 121.045 108.577 120.218 108.265 118.963C107.885 117.538 108.779 116.09 110.289 115.675C111.714 115.295 113.161 116.189 113.576 117.699C113.887 118.954 113.298 120.18 112.231 120.711L113.806 127.277L117.431 121.367L118.606 122.075L114.324 129.041L115.036 132.502L118.61 126.711L119.785 127.419L115.503 134.386L116.3 137.813L119.925 131.903L121.1 132.611L116.818 139.577L117.182 141.206C119.592 140.821 121.938 141.252 123.947 142.313L124.79 140.984L122.919 132.959L124.174 132.648L125.784 139.298L127.452 136.352L125.581 128.327L126.837 128.016L128.447 134.666L130.284 131.652L128.413 123.627L129.669 123.315L131.279 129.966L134.853 124.175C134.017 123.329 133.841 121.92 134.498 120.864C135.257 119.57 136.97 119.172 138.18 119.964C139.474 120.723 139.873 122.436 139.08 123.646C138.422 124.702 137.116 125.133 135.994 124.798L132.419 130.589L139.07 128.979L139.382 130.235L131.356 132.105L129.519 135.12L136.169 133.51L136.481 134.766L128.456 136.637L126.618 139.651L133.269 138.041L133.752 139.721L125.727 141.592L124.883 142.92C126.792 144.219 128.159 146.132 128.968 148.371L130.427 148.075L134.709 141.109L135.8 141.851L132.141 147.677L135.653 146.846L139.935 139.879L141.025 140.622L137.366 146.447L140.794 145.65L145.076 138.684L146.166 139.426L142.507 145.252L149.073 143.676C149.085 142.487 149.912 141.363 151.167 141.051C152.627 140.756 154.074 141.649 154.454 143.074C155.038 144.515 154.06 145.997 152.635 146.378ZM128.397 149.885L123.256 151.08C123.361 151.827 123.263 152.558 122.96 153.273L127.457 156.089C128.383 154.233 128.798 152.091 128.397 149.885ZM126.834 157.229L122.337 154.413C121.881 154.993 121.272 155.437 120.509 155.747L121.704 160.887C123.807 160.232 125.636 158.899 126.834 157.229ZM120.449 161.199L119.253 156.058C118.507 156.163 117.741 155.98 117.027 155.677L114.211 160.174C116.101 161.185 118.243 161.6 120.449 161.199ZM113.155 159.517L115.971 155.02C115.391 154.564 114.912 153.87 114.722 153.157L109.581 154.353C110.152 156.49 111.45 158.234 113.155 159.517ZM109.27 153.097L114.411 151.902C114.425 151.205 114.523 150.475 114.86 149.845L110.398 147.113C109.403 148.799 108.988 150.941 109.27 153.097ZM111.106 145.938L115.602 148.754C116.093 148.259 116.617 147.849 117.296 147.575L116.1 142.434C113.963 143.004 112.219 144.303 111.106 145.938ZM117.271 142.157L118.466 147.297C119.128 147.227 119.859 147.325 120.455 147.577L123.271 143.08C121.5 142.12 119.392 141.79 117.271 142.157ZM124.446 143.788L121.715 148.251C122.175 148.656 122.704 149.231 122.945 149.825L128.086 148.629C127.38 146.645 126.081 144.902 124.446 143.788Z" fill="white"/>
</svg>
