<svg width="103" height="227" viewBox="0 0 103 227" fill="none" xmlns="http://www.w3.org/2000/svg">
<mask id="mask0_386:3386" style="mask-type:alpha" maskUnits="userSpaceOnUse" x="26" y="11" width="86" height="206">
<rect x="26" y="11.0002" width="86" height="205" fill="#C4C4C4"/>
</mask>
<g mask="url(#mask0_386:3386)">
<path d="M30.2583 165.473C20.278 134.132 32.6739 101.059 58.5216 83.3639C59.2166 83.9107 60.0737 84.2734 60.95 84.3916C35.119 101.252 22.5582 133.918 32.4342 164.71C44.2326 201.705 83.8594 222.096 120.855 210.297C157.85 198.499 178.282 158.974 166.443 121.877C156.731 91.4916 128.129 72.3132 97.764 73.0217C98.5965 72.4476 99.2037 71.6098 99.5664 70.7527C130.261 70.8573 158.723 90.566 168.558 121.256C180.708 159.411 159.671 200.365 121.517 212.515C83.3619 224.665 42.4083 203.628 30.2583 165.473Z" fill="white"/>
<path d="M68.5194 82.6257C39.2572 97.4441 24.199 131.832 34.5502 164.089C45.9559 199.823 84.3987 219.629 120.133 208.223C155.867 196.817 175.673 158.375 164.267 122.64C153.916 90.384 121.729 71.12 89.2644 75.9932L96.281 73.7411C96.7893 73.5351 97.2975 73.3291 97.7646 73.0215C128.13 72.3129 156.732 91.4914 166.443 121.877C178.242 158.872 157.851 198.499 120.855 210.297C83.86 222.096 44.2332 201.705 32.4348 164.709C22.5587 133.917 35.1195 101.251 60.9506 84.3914C61.7253 84.5508 62.6621 84.5262 63.4753 84.1966L68.5194 82.6257Z" fill="white"/>
<path d="M77.9355 48.0392C76.6337 43.9512 72.2851 41.6898 68.1971 42.9916C64.1091 44.2933 61.8477 48.642 63.1495 52.73C64.1409 55.7603 66.8797 57.8457 69.9566 58.1372L66.0719 59.3566C63.7039 58.186 61.8002 56.1172 60.9324 53.3919C59.2791 48.1445 62.1862 42.469 67.4336 40.8157C72.6809 39.1624 78.3564 42.0695 80.0097 47.3169C80.8776 50.0422 80.5641 52.7729 79.2507 55.0804L75.366 56.2998C77.8827 54.3331 78.8665 51.2123 77.9355 48.0392Z" fill="white"/>
<path d="M63.0481 52.771C61.7463 48.683 64.0077 44.3344 68.0957 43.0326C72.1837 41.7308 76.5323 43.9922 77.8341 48.0802C78.8256 51.1105 77.7813 54.3741 75.4075 56.4013L69.7535 58.2194C66.7783 57.8867 64.0807 55.903 63.0481 52.771ZM72.1659 55.7032C75.0945 54.7529 76.669 51.6295 75.7599 48.8025C74.8508 45.9755 71.6862 44.2994 68.8592 45.2085C65.9306 46.1587 64.3561 49.2822 65.2652 52.1091C66.2154 55.0378 69.2372 56.6535 72.1659 55.7032Z" fill="white"/>
<path d="M97.7219 67.9501L93.8577 55.7878C93.3826 54.3234 91.7289 53.4551 90.2645 53.9303L76.5362 58.3108C77.6929 57.3686 78.6655 56.2643 79.3524 55.0391L89.2977 51.8368C92.1247 50.9277 95.1465 52.5434 96.0144 55.2687L99.8154 66.9833C100.208 68.2443 100.153 69.5685 99.6694 70.7113C98.8343 70.6947 97.9991 70.6781 97.1035 70.8044C97.7519 70.0682 98.0322 69.0078 97.7219 67.9501Z" fill="white"/>
<path d="M70.1694 60.4173L56.8476 64.633C55.3833 65.1081 54.515 66.7619 54.9902 68.2262L58.8543 80.3886C59.0411 81.1413 59.6344 81.7293 60.3487 82.0315C59.6783 82.4216 59.0491 82.9133 58.3788 83.3033C57.5409 82.6961 56.9256 81.762 56.6153 80.7043L52.9983 69.1518C52.0893 66.3248 53.7049 63.303 56.4303 62.4352L65.969 59.3977C67.2958 60.0434 68.7436 60.4034 70.1694 60.4173Z" fill="white"/>
<path d="M78.6833 78.506C82.263 77.4102 85.8235 76.5589 89.406 76.0538L68.661 82.6863C71.749 80.9613 75.1035 79.6018 78.6833 78.506Z" fill="white"/>
<path d="M97.7656 73.0217C94.8123 73.0351 91.8398 73.2931 88.848 73.7955L95.8646 71.5435C96.2712 71.3787 96.7383 71.071 97.1037 70.8046C97.9388 70.8211 98.7328 70.7361 99.6696 70.7114C99.2052 71.6097 98.598 72.4476 97.7656 73.0217Z" fill="white"/>
<path d="M62.5486 82.2049L67.6943 80.5928C65.337 81.7848 63.1226 83.0374 60.9907 84.4932C60.1143 84.375 59.2572 84.0122 58.5622 83.4655C59.1914 82.9738 59.8617 82.5837 60.5321 82.1937C61.0623 82.3339 61.7958 82.3916 62.5486 82.2049Z" fill="white"/>
<path d="M88.8456 73.7955C91.8374 73.293 94.8099 73.0351 97.7632 73.0216C97.2961 73.3293 96.8291 73.6369 96.2796 73.7413L89.263 75.9933C85.6805 76.4984 82.12 77.3497 78.5403 78.4455C74.9605 79.5413 71.6472 81.0025 68.4163 82.667L63.2706 84.2791C62.4162 84.5071 61.6223 84.5922 60.7459 84.4739C62.9191 83.1198 65.0923 81.7656 67.4495 80.5735L88.8456 73.7955Z" fill="white"/>
<path d="M70.1691 60.4175C68.7433 60.4037 67.2956 60.0436 66.0704 59.3567L69.8534 58.1785C70.8314 58.2555 71.8699 58.1897 72.8864 57.7777C73.9441 57.4674 74.7766 56.8933 75.609 56.3192L79.3921 55.141C78.7052 56.3662 77.7737 57.5722 76.5759 58.4127L70.1691 60.4175Z" fill="white"/>
<path d="M72.8862 57.7778C71.8285 58.0881 70.8312 58.2556 69.8532 58.1786L75.5072 56.3605C74.7159 57.0362 73.8423 57.5086 72.8862 57.7778Z" fill="white"/>
<path d="M94.8952 69.4503C95.3018 69.2855 95.5848 68.8158 95.42 68.4092L91.7618 56.7551C91.5971 56.3485 91.1273 56.0655 90.7207 56.2302L57.8134 66.7269C57.4068 66.8917 57.1238 67.3615 57.2885 67.7681L61.0484 79.381C61.2132 79.7876 61.6829 80.0706 62.0895 79.9058L66.7874 78.3568C64.6335 79.4665 62.5208 80.6778 60.4492 81.9908C59.735 81.6885 59.2433 81.0594 58.9549 80.3478L55.0907 68.1854C54.6156 66.7211 55.3822 65.1086 56.9482 64.5922L70.2699 60.3766C71.3496 60.4124 72.4897 60.3053 73.6491 59.9538C74.8084 59.6023 75.7837 59.0886 76.6767 58.3717L90.405 53.9912C91.8693 53.5161 93.4819 54.2827 93.9982 55.8487L97.8623 68.0111C98.1727 69.0688 97.8924 70.1292 97.2027 70.7637C94.2907 70.8788 91.4198 71.0956 88.428 71.598L94.8952 69.4503Z" fill="white"/>
<path d="M67.6947 80.593L62.549 82.2051C61.7962 82.3918 61.0627 82.3341 60.4913 82.0923C62.5628 80.7793 64.6756 79.568 66.8295 78.4583L88.2861 71.5374C91.1762 71.0761 94.1487 70.8182 97.0608 70.7031C96.7366 71.0712 96.3712 71.3376 95.8217 71.442L88.8051 73.694C85.121 74.2403 81.5605 75.0916 77.8791 76.2286C74.3817 77.5277 70.9256 78.9285 67.6947 80.593Z" fill="white"/>
<path d="M77.9193 76.3301C81.499 75.2343 85.1612 74.3418 88.8453 73.7955L67.6937 80.5928C70.9246 78.9283 74.3807 77.5275 77.9193 76.3301Z" fill="white"/>
<path d="M73.5472 59.9947C72.3878 60.3462 71.2477 60.4532 70.168 60.4174L76.5748 58.4126C75.6818 59.1295 74.7065 59.6431 73.5472 59.9947Z" fill="white"/>
<path d="M69.4394 42.8434L65.577 40.0299C61.5307 37.0542 41.057 22.7474 33.5289 28.9938C30.9518 31.1035 30.3554 34.3039 31.8963 37.2299C36.335 45.8456 52.1066 47.3829 64.8211 44.005L69.4394 42.8434ZM37.1687 32.1343C40.199 31.1428 48.4816 34.0585 58.7776 40.7737C45.8736 42.8081 37.7065 38.4255 35.9404 35.2358C35.3856 34.1588 35.5038 33.2825 36.4983 32.5243C36.6605 32.3403 36.8638 32.2579 37.1687 32.1343Z" fill="white"/>
<path d="M66.1021 43.9586L70.5143 42.2887C82.8361 37.6498 94.826 27.228 93.4176 17.6208C92.8932 14.2829 90.6022 12.1343 87.2809 11.8236C77.5008 11.0534 69.1964 34.6567 67.5476 39.3489L66.1021 43.9586ZM86.2227 16.513C86.5277 16.3894 86.7722 16.4086 87.0167 16.4279C88.2392 16.5242 88.8325 17.1121 88.9808 18.3539C89.4859 21.9363 85.389 30.2243 73.6632 36.0418C78.1121 24.5341 83.1512 17.4028 86.2227 16.513Z" fill="white"/>
<path d="M67.4286 42.9443C66.7939 43.147 66.0104 42.4694 65.6786 41.4308C65.3468 40.3922 65.5924 39.3858 66.2271 39.1831C66.8618 38.9803 67.6453 39.6579 67.9771 40.6965C68.3089 41.7352 68.0633 42.7415 67.4286 42.9443Z" fill="white"/>
<path d="M130.917 134.561C129.662 134.873 128.436 134.284 127.905 133.216L121.339 134.792L127.164 138.451L126.422 139.541L119.456 135.259L116.028 136.056L121.854 139.715L121.111 140.805L114.145 136.523L110.718 137.32L116.543 140.979L115.801 142.069L108.835 137.787L107.375 138.082C107.845 140.458 107.448 142.889 106.303 144.932L107.478 145.64L115.503 143.769L115.814 145.025L109.129 146.55L112.144 148.387L120.169 146.516L120.481 147.772L113.796 149.297L116.81 151.134L124.836 149.264L125.147 150.519L118.462 152.044L124.253 155.618C125.098 154.782 126.507 154.606 127.563 155.264C128.858 156.022 129.256 157.736 128.463 158.945C127.705 160.24 125.991 160.638 124.782 159.845C123.726 159.188 123.295 157.882 123.63 156.759L117.839 153.185L119.364 159.87L118.108 160.181L116.238 152.156L113.223 150.319L114.748 157.004L113.493 157.315L111.622 149.29L108.607 147.452L110.132 154.137L108.877 154.449L107.006 146.423L105.831 145.715C104.531 147.624 102.568 149.11 100.211 149.868L100.556 151.208L107.523 155.491L106.78 156.581L100.955 152.922L101.752 156.349L108.718 160.632L107.976 161.722L102.15 158.063L102.947 161.49L109.913 165.773L109.171 166.863L103.346 163.204L104.921 169.77C106.11 169.781 107.235 170.608 107.546 171.864C107.842 173.323 106.948 174.771 105.523 175.151C104.064 175.447 102.616 174.553 102.236 173.128C101.924 171.873 102.513 170.647 103.581 170.116L102.005 163.55L98.3462 169.375L97.2558 168.633L101.538 161.667L100.741 158.239L97.0821 164.065L95.9917 163.322L100.274 156.356L99.4772 152.929L95.8181 158.754L94.7277 158.012L99.0101 151.046L98.6986 149.79C96.2885 150.175 93.8579 149.778 91.8146 148.633L91.1066 149.808L92.9774 157.833L91.722 158.144L90.1969 151.459L88.3593 154.474L90.2302 162.499L88.9748 162.811L87.4497 156.126L85.6121 159.14L87.4829 167.166L86.2275 167.477L84.7024 160.792L81.1281 166.583C81.9641 167.429 82.1404 168.837 81.4828 169.893C80.7244 171.188 79.0108 171.586 77.8012 170.793C76.507 170.035 76.1085 168.321 76.9013 167.112C77.5589 166.056 78.8647 165.625 79.9872 165.96L83.5616 160.169L76.8766 161.694L76.5652 160.438L84.5904 158.568L86.428 155.553L79.743 157.078L79.4315 155.823L87.4568 153.952L89.2944 150.937L82.6094 152.462L82.2979 151.207L90.3231 149.336L91.0311 148.161C89.0886 146.777 87.6867 144.779 87.0134 142.387L85.5885 142.767L81.3061 149.734L80.1309 149.026L83.7557 143.115L80.3285 143.912L76.0461 150.878L74.8709 150.17L78.4957 144.26L75.0684 145.057L70.7035 152.55L69.5284 151.842L73.1532 145.932L66.5873 147.508C66.5757 148.697 65.7486 149.821 64.4931 150.133C63.0682 150.513 61.6204 149.619 61.2059 148.11C60.8257 146.685 61.7193 145.237 63.2291 144.822C64.4845 144.511 65.7101 145.1 66.2415 146.167L72.8074 144.592L66.8972 140.967L67.6052 139.792L74.5714 144.074L77.9987 143.277L72.0885 139.653L72.7965 138.478L79.7627 142.76L83.19 141.963L77.2798 138.338L77.9878 137.163L84.954 141.445L86.4134 141.15C86.0287 138.74 86.4596 136.394 87.6396 134.436L86.311 133.592L78.2858 135.463L77.9744 134.208L84.625 132.598L81.6104 130.76L73.5851 132.631L73.2737 131.376L79.9243 129.766L76.9097 127.928L68.8845 129.799L68.9991 128.865L75.6498 127.255L69.8587 123.68C69.0133 124.516 67.6044 124.693 66.5483 124.035C65.2541 123.277 64.8556 121.563 65.6484 120.353C66.4068 119.059 68.1204 118.661 69.3299 119.454C70.386 120.111 70.8165 121.417 70.482 122.539L76.273 126.114L74.6632 119.463L75.9186 119.152L77.7895 127.177L80.8041 129.015L79.1943 122.364L80.4497 122.052L82.3206 130.078L85.3352 131.915L83.7254 125.265L84.9808 124.953L86.8517 132.978L88.2651 133.787C89.5986 131.964 91.4773 130.512 93.7843 129.873L93.4202 128.244L86.454 123.961L87.162 122.786L93.0722 126.411L92.2753 122.984L85.309 118.701L86.0171 117.526L91.9272 121.151L91.1807 117.605L84.2145 113.322L84.9225 112.147L90.7479 115.806L89.1724 109.24C87.9835 109.229 86.8587 108.402 86.5473 107.146C86.1671 105.721 87.0607 104.273 88.5705 103.859C89.9954 103.479 91.4432 104.372 91.8577 105.882C92.1691 107.138 91.5803 108.363 90.5126 108.895L92.0881 115.46L95.7129 109.55L96.8881 110.258L92.6057 117.224L93.3178 120.686L96.8922 114.895L98.0674 115.603L93.785 122.569L94.5819 125.997L98.2067 120.086L99.3818 120.794L95.0995 127.761L95.4636 129.389C97.8736 129.005 100.219 129.436 102.228 130.497L103.072 129.168L101.201 121.143L102.456 120.831L104.066 127.482L105.734 124.536L103.863 116.511L105.119 116.199L106.729 122.85L108.566 119.835L106.695 111.81L107.951 111.499L109.561 118.149L113.135 112.358C112.299 111.513 112.123 110.104 112.78 109.048C113.539 107.754 115.252 107.355 116.462 108.148C117.756 108.906 118.154 110.62 117.362 111.83C116.704 112.886 115.398 113.316 114.276 112.982L110.701 118.773L117.352 117.163L117.663 118.418L109.638 120.289L107.801 123.304L114.451 121.694L114.763 122.949L106.738 124.82L104.9 127.835L111.551 126.225L112.034 127.904L104.009 129.775L103.165 131.104C105.074 132.403 106.441 134.316 107.25 136.554L108.709 136.259L112.991 129.293L114.082 130.035L110.423 135.86L113.935 135.029L118.217 128.063L119.307 128.805L115.648 134.631L119.075 133.834L123.358 126.868L124.448 127.61L120.789 133.435L127.355 131.86C127.367 130.671 128.194 129.546 129.449 129.235C130.908 128.939 132.356 129.833 132.736 131.258C133.32 132.699 132.342 134.181 130.917 134.561ZM106.679 138.068L101.538 139.264C101.643 140.011 101.545 140.741 101.242 141.456L105.739 144.272C106.665 142.417 107.08 140.275 106.679 138.068ZM105.116 145.413L100.619 142.597C100.163 143.177 99.5537 143.621 98.7908 143.93L99.9862 149.071C102.089 148.416 103.918 147.083 105.116 145.413ZM98.7307 149.382L97.5354 144.242C96.7885 144.347 96.0234 144.164 95.3087 143.861L92.4927 148.358C94.3826 149.368 96.5245 149.783 98.7307 149.382ZM91.4367 147.7L94.2526 143.203C93.6731 142.747 93.1943 142.053 93.0043 141.341L87.8634 142.536C88.4336 144.674 89.7324 146.417 91.4367 147.7ZM87.5519 141.281L92.6928 140.085C92.7066 139.389 92.8052 138.658 93.142 138.028L88.6796 135.297C87.6852 136.983 87.2703 139.125 87.5519 141.281ZM89.3876 134.122L93.8844 136.938C94.3747 136.443 94.8994 136.033 95.5775 135.758L94.3821 130.617C92.2447 131.187 90.5012 132.486 89.3876 134.122ZM95.5528 130.34L96.7482 135.481C97.4102 135.41 98.141 135.509 98.7366 135.761L101.553 131.264C99.7818 130.304 97.6742 129.974 95.5528 130.34ZM102.728 131.972L99.9966 136.434C100.457 136.84 100.986 137.415 101.227 138.008L106.368 136.813C105.662 134.829 104.363 133.086 102.728 131.972Z" fill="white"/>
</g>
</svg>
