<svg width="86" height="125" viewBox="0 0 86 125" fill="none" xmlns="http://www.w3.org/2000/svg">
<mask id="mask0_689:202" style="mask-type:alpha" maskUnits="userSpaceOnUse" x="0" y="0" width="86" height="125">
<rect width="86" height="125" fill="#C4C4C4"/>
</mask>
<g mask="url(#mask0_689:202)">
<path d="M83.4724 108.154C90.4375 86.2816 81.7866 63.2011 63.7483 50.8522C63.2633 51.2338 62.6651 51.4869 62.0535 51.5694C80.0803 63.3355 88.8462 86.1322 81.954 107.621C73.7201 133.439 46.0657 147.669 20.2477 139.436C-5.57028 131.202 -19.8294 103.618 -11.5668 77.7294C-4.78962 56.5243 15.1711 43.1402 36.3621 43.6347C35.7812 43.234 35.3574 42.6493 35.1043 42.0512C13.6832 42.1242 -6.17966 55.8783 -13.0431 77.2962C-21.5223 103.923 -6.84127 132.504 19.7858 140.983C46.4129 149.462 74.9933 134.781 83.4724 108.154Z" fill="white"/>
<path d="M56.7712 50.3371C77.1925 60.6785 87.7012 84.6771 80.4774 107.188C72.5177 132.126 45.6895 145.948 20.7516 137.988C-4.18642 130.028 -18.0083 103.2 -10.0486 78.2621C-2.8248 55.7514 19.6379 42.3076 42.2939 45.7085L37.3972 44.1368C37.0425 43.9931 36.6878 43.8493 36.3619 43.6346C15.1708 43.1401 -4.78987 56.5242 -11.5671 77.7293C-19.8009 103.547 -5.57054 131.202 20.2475 139.436C46.0655 147.669 73.7199 133.439 81.9537 107.621C88.8459 86.1322 80.0801 63.3354 62.0533 51.5694C61.5126 51.6806 60.8589 51.6634 60.2914 51.4334L56.7712 50.3371Z" fill="white"/>
<path d="M50.2 26.2001C51.1085 23.3472 54.1433 21.769 56.9962 22.6775C59.8491 23.586 61.4272 26.6208 60.5187 29.4737C59.8268 31.5884 57.9155 33.0438 55.7683 33.2472L58.4793 34.0982C60.1318 33.2813 61.4603 31.8375 62.066 29.9356C63.2198 26.2736 61.191 22.3128 57.529 21.159C53.867 20.0052 49.9062 22.034 48.7524 25.696C48.1468 27.5979 48.3655 29.5036 49.2821 31.114L51.9931 31.965C50.2368 30.5924 49.5503 28.4145 50.2 26.2001Z" fill="white"/>
<path d="M60.5894 29.5024C61.4979 26.6495 59.9198 23.6147 57.0669 22.7063C54.214 21.7978 51.1792 23.3759 50.2707 26.2288C49.5788 28.3436 50.3075 30.6212 51.9641 32.0359L55.9099 33.3047C57.9862 33.0725 59.8688 31.6881 60.5894 29.5024ZM54.2264 31.5487C52.1826 30.8856 51.0838 28.7058 51.7182 26.7329C52.3526 24.7601 54.5611 23.5903 56.534 24.2247C58.5778 24.8879 59.6766 27.0677 59.0422 29.0405C58.379 31.0843 56.2702 32.2119 54.2264 31.5487Z" fill="white"/>
<path d="M36.3916 40.0955L39.0883 31.6078C39.4199 30.5859 40.574 29.9799 41.5959 30.3115L51.1765 33.3685C50.3693 32.711 49.6905 31.9403 49.2111 31.0853L42.2706 28.8505C40.2977 28.2161 38.1889 29.3436 37.5832 31.2456L34.9306 39.4208C34.6565 40.3008 34.695 41.2249 35.0325 42.0225C35.6153 42.0109 36.1981 41.9993 36.8232 42.0875C36.3706 41.5737 36.175 40.8337 36.3916 40.0955Z" fill="white"/>
<path d="M55.6197 34.8384L64.9166 37.7804C65.9385 38.112 66.5444 39.2661 66.2128 40.288L63.5162 48.7758C63.3858 49.3011 62.9718 49.7114 62.4733 49.9224C62.9411 50.1946 63.3802 50.5377 63.848 50.8099C64.4327 50.3861 64.8621 49.7343 65.0787 48.9961L67.6029 40.934C68.2373 38.9611 67.1098 36.8523 65.2078 36.2466L58.5511 34.1268C57.6251 34.5775 56.6147 34.8287 55.6197 34.8384Z" fill="white"/>
<path d="M49.6781 47.4622C47.1799 46.6975 44.6951 46.1034 42.1951 45.7508L56.6724 50.3795C54.5173 49.1757 52.1763 48.2269 49.6781 47.4622Z" fill="white"/>
<path d="M36.3612 43.6348C38.4222 43.6442 40.4966 43.8242 42.5845 44.1748L37.6878 42.6032C37.404 42.4882 37.0781 42.2735 36.8231 42.0875C36.2402 42.0991 35.6861 42.0397 35.0324 42.0225C35.3564 42.6494 35.7802 43.2341 36.3612 43.6348Z" fill="white"/>
<path d="M60.938 50.0433L57.3469 48.9183C58.992 49.7502 60.5374 50.6243 62.0252 51.6403C62.6368 51.5578 63.2349 51.3046 63.72 50.9231C63.2809 50.5799 62.8131 50.3077 62.3452 50.0355C61.9752 50.1333 61.4633 50.1736 60.938 50.0433Z" fill="white"/>
<path d="M42.5861 44.1748C40.4982 43.8241 38.4238 43.6441 36.3628 43.6347C36.6887 43.8494 37.0147 44.0641 37.3981 44.1369L42.2948 45.7086C44.7949 46.0611 47.2797 46.6552 49.7779 47.4199C52.2761 48.1846 54.5883 49.2043 56.8431 50.366L60.4342 51.491C61.0304 51.6501 61.5845 51.7095 62.1961 51.627C60.6795 50.6819 59.1629 49.7369 57.5178 48.905L42.5861 44.1748Z" fill="white"/>
<path d="M55.6199 34.8385C56.6149 34.8288 57.6253 34.5776 58.4803 34.0982L55.8402 33.276C55.1577 33.3297 54.433 33.2838 53.7236 32.9963C52.9854 32.7797 52.4045 32.379 51.8235 31.9784L49.1834 31.1562C49.6628 32.0112 50.3128 32.8528 51.1488 33.4394L55.6199 34.8385Z" fill="white"/>
<path d="M53.7238 32.9965C54.4619 33.2131 55.1579 33.3299 55.8404 33.2762L51.8946 32.0074C52.4468 32.479 53.0565 32.8087 53.7238 32.9965Z" fill="white"/>
<path d="M38.3642 41.1423C38.0804 41.0273 37.8829 40.6995 37.9979 40.4157L40.5509 32.2827C40.6659 31.9989 40.9937 31.8014 41.2775 31.9164L64.2426 39.2417C64.5263 39.3568 64.7238 39.6846 64.6088 39.9683L61.985 48.0727C61.8699 48.3564 61.5421 48.5539 61.2584 48.4389L57.9798 47.3579C59.483 48.1323 60.9574 48.9777 62.4031 49.894C62.9015 49.683 63.2447 49.2439 63.4459 48.7474L66.1426 40.2596C66.4742 39.2377 65.9392 38.1123 64.8463 37.752L55.5495 34.81C54.796 34.835 54.0004 34.7603 53.1913 34.515C52.3822 34.2697 51.7015 33.9112 51.0784 33.4109L41.4978 30.3539C40.4759 30.0223 39.3505 30.5573 38.9902 31.6501L36.2935 40.1379C36.0769 40.8761 36.2726 41.6161 36.7538 42.0589C38.7861 42.1392 40.7896 42.2905 42.8775 42.6411L38.3642 41.1423Z" fill="white"/>
<path d="M57.3467 48.9184L60.9377 50.0434C61.463 50.1738 61.9749 50.1334 62.3737 49.9647C60.928 49.0484 59.4536 48.2031 57.9504 47.4287L42.9765 42.5987C40.9596 42.2768 38.8851 42.0968 36.8529 42.0165C37.0791 42.2734 37.3342 42.4593 37.7176 42.5322L42.6143 44.1038C45.1853 44.4851 47.6701 45.0792 50.2393 45.8726C52.68 46.7792 55.0919 47.7568 57.3467 48.9184Z" fill="white"/>
<path d="M50.2113 45.9437C47.7131 45.179 45.1574 44.5561 42.5863 44.1748L57.3474 48.9185C55.0927 47.7569 52.6807 46.7793 50.2113 45.9437Z" fill="white"/>
<path d="M53.2625 34.5435C54.0715 34.7888 54.8672 34.8635 55.6207 34.8385L51.1496 33.4394C51.7727 33.9397 52.4534 34.2982 53.2625 34.5435Z" fill="white"/>
<path d="M56.1302 22.5743L58.8256 20.6108C61.6495 18.5341 75.9375 8.54981 81.1911 12.909C82.9895 14.3813 83.4058 16.6148 82.3304 18.6567C79.2328 24.6694 68.2262 25.7422 59.3531 23.3849L56.1302 22.5743ZM78.651 15.1007C76.5362 14.4088 70.756 16.4435 63.5708 21.1299C72.576 22.5496 78.2756 19.4911 79.5082 17.2651C79.8954 16.5135 79.8129 15.9019 79.1188 15.3729C79.0057 15.2444 78.8638 15.1869 78.651 15.1007Z" fill="white"/>
<path d="M58.4583 23.3524L55.3792 22.187C46.7802 18.9497 38.4127 11.6766 39.3956 4.972C39.7616 2.64255 41.3604 1.14314 43.6783 0.926263C50.5035 0.388776 56.2989 16.8609 57.4496 20.1354L58.4583 23.3524ZM44.4167 4.19887C44.2039 4.11262 44.0333 4.12606 43.8626 4.1395C43.0095 4.20668 42.5954 4.61701 42.492 5.4836C42.1394 7.98368 44.9986 13.7676 53.1816 17.8275C50.0769 9.79658 46.5602 4.81984 44.4167 4.19887Z" fill="white"/>
<path d="M57.5329 22.6445C57.9758 22.786 58.5226 22.3131 58.7542 21.5883C58.9857 20.8635 58.8143 20.1611 58.3714 20.0196C57.9284 19.8781 57.3816 20.351 57.1501 21.0759C56.9185 21.8007 57.0899 22.503 57.5329 22.6445Z" fill="white"/>
<path d="M13.2259 86.5815C14.102 86.7989 14.9573 86.3879 15.3281 85.6428L19.9103 86.7423L15.8449 89.2959L16.363 90.0569L21.2245 87.0684L23.6163 87.6245L19.5509 90.1781L20.069 90.9391L24.9305 87.9505L27.3223 88.5066L23.2569 91.0603L23.775 91.8212L28.6365 88.8327L29.6549 89.0388C29.3273 90.6967 29.6041 92.393 30.4036 93.819L29.5835 94.3131L23.9829 93.0075L23.7656 93.8836L28.4309 94.9479L26.327 96.2303L20.7265 94.9247L20.5091 95.8008L25.1744 96.8651L23.0705 98.1476L17.47 96.8419L17.2526 97.7181L21.9179 98.7824L17.8765 101.277C17.2865 100.693 16.3033 100.57 15.5663 101.029C14.663 101.559 14.385 102.754 14.9382 103.599C15.4675 104.502 16.6634 104.78 17.5075 104.227C18.2445 103.768 18.5449 102.856 18.3114 102.073L22.3528 99.5785L21.2885 104.244L22.1647 104.461L23.4703 98.8606L25.5741 97.5782L24.5098 102.243L25.386 102.461L26.6916 96.8602L28.7954 95.5778L27.7311 100.243L28.6073 100.46L29.9129 94.8598L30.733 94.3657C31.6396 95.6974 33.0099 96.7349 34.655 97.2639L34.4137 98.1992L29.5522 101.188L30.0703 101.949L34.1357 99.3951L33.5795 101.787L28.718 104.775L29.2361 105.536L33.3015 102.983L32.7453 105.375L27.8838 108.363L28.4019 109.124L32.4673 106.57L31.3678 111.153C30.538 111.161 29.7531 111.738 29.5357 112.614C29.3296 113.632 29.9532 114.643 30.9477 114.908C31.9661 115.114 32.9764 114.491 33.2417 113.496C33.4591 112.62 33.0481 111.765 32.3031 111.394L33.4026 106.812L35.9562 110.877L36.7171 110.359L33.7286 105.498L34.2847 103.106L36.8383 107.171L37.5993 106.653L34.6107 101.792L35.1669 99.3998L37.7205 103.465L38.4814 102.947L35.4929 98.0856L35.7102 97.2094C37.3921 97.4779 39.0884 97.2011 40.5144 96.4016L41.0085 97.2217L39.7029 102.822L40.579 103.04L41.6433 98.3744L42.9257 100.478L41.6201 106.079L42.4962 106.296L43.5605 101.631L44.8429 103.735L43.5373 109.335L44.4135 109.553L45.4778 104.887L47.9722 108.929C47.3887 109.519 47.2657 110.502 47.7246 111.239C48.2539 112.142 49.4498 112.42 50.2939 111.867C51.1971 111.338 51.4752 110.142 50.922 109.298C50.463 108.561 49.5517 108.26 48.7684 108.494L46.2739 104.452L50.9392 105.517L51.1565 104.641L45.556 103.335L44.2735 101.231L48.9388 102.295L49.1562 101.419L43.5556 100.114L42.2732 98.0098L46.9385 99.0741L47.1558 98.198L41.5552 96.8923L41.0611 96.0722C42.4168 95.1064 43.3951 93.7122 43.865 92.0431L44.8594 92.3084L47.848 97.1699L48.6681 96.6758L46.1384 92.5513L48.5302 93.1074L51.5188 97.9689L52.3389 97.4748L49.8093 93.3503L52.2011 93.9064L55.2472 99.1356L56.0673 98.6415L53.5377 94.517L58.1198 95.6165C58.1279 96.4462 58.7051 97.2312 59.5813 97.4485C60.5757 97.7138 61.5861 97.0902 61.8753 96.0366C62.1406 95.0421 61.517 94.0318 60.4634 93.7425C59.5873 93.5252 58.732 93.9361 58.3611 94.6812L53.779 93.5817L57.9035 91.0521L57.4094 90.232L52.5479 93.2205L50.1561 92.6644L54.2807 90.1347L53.7866 89.3146L48.9251 92.3032L46.5333 91.747L50.6578 89.2174L50.1637 88.3973L45.3022 91.3858L44.2838 91.1797C44.5522 89.4978 44.2515 87.8607 43.428 86.4938L44.3552 85.9054L49.9557 87.211L50.1731 86.3349L45.5318 85.2114L47.6356 83.929L53.2362 85.2347L53.4535 84.3585L48.8123 83.235L50.9161 81.9526L56.5167 83.2583L56.4367 82.606L51.7954 81.4825L55.8368 78.9881C56.4268 79.5715 57.41 79.6946 58.147 79.2356C59.0502 78.7064 59.3283 77.5105 58.775 76.6664C58.2458 75.7631 57.0499 75.4851 56.2058 76.0383C55.4688 76.4972 55.1683 77.4086 55.4018 78.1919L51.3604 80.6864L52.4839 76.0451L51.6077 75.8277L50.3021 81.4283L48.1983 82.7107L49.3217 78.0694L48.4456 77.8521L47.14 83.4526L45.0361 84.735L46.1596 80.0937L45.2835 79.8764L43.9778 85.477L42.9915 86.0414C42.0609 84.7689 40.7498 83.7554 39.1398 83.3095L39.3939 82.1728L44.2554 79.1842L43.7613 78.3641L39.6368 80.8938L40.1929 78.502L45.0544 75.5134L44.5603 74.6933L40.4358 77.2229L40.9567 74.748L45.8183 71.7595L45.3242 70.9394L41.2588 73.493L42.3583 68.9108C43.188 68.9027 43.973 68.3255 44.1903 67.4494C44.4556 66.4549 43.832 65.4446 42.7784 65.1553C41.7839 64.89 40.7736 65.5136 40.4843 66.5672C40.267 67.4434 40.6779 68.2987 41.423 68.6695L40.3235 73.2516L37.7938 69.1271L36.9737 69.6212L39.9623 74.4827L39.4653 76.8985L36.9708 72.8571L36.1507 73.3512L39.1393 78.2127L38.5832 80.6045L36.0535 76.48L35.2334 76.974L38.222 81.8356L37.9679 82.9723C36.2859 82.7039 34.6489 83.0046 33.2468 83.745L32.6584 82.8177L33.964 77.2172L33.0879 76.9998L31.9644 81.6411L30.8003 79.5852L32.1059 73.9847L31.2298 73.7673L30.1063 78.4086L28.8239 76.3048L30.1296 70.7042L29.2534 70.4869L28.13 75.1282L25.6355 71.0868C26.219 70.4968 26.342 69.5135 25.8831 68.7765C25.3538 67.8733 24.1579 67.5952 23.3138 68.1485C22.4106 68.6778 22.1325 69.8737 22.6858 70.7177C23.1447 71.4547 24.056 71.7552 24.8394 71.5217L27.3338 75.5631L22.6925 74.4397L22.4752 75.3158L28.0757 76.6214L29.3582 78.7253L24.7169 77.6018L24.4995 78.4779L30.1001 79.7836L31.3825 81.8874L26.7412 80.7639L26.404 81.9358L32.0045 83.2415L32.593 84.1687C31.2613 85.0753 30.307 86.4104 29.7428 87.9724L28.7243 87.7663L25.7358 82.9048L24.9748 83.4228L27.5284 87.4882L25.0775 86.9081L22.0889 82.0466L21.328 82.5647L23.8816 86.63L21.4898 86.0739L18.5012 81.2124L17.7403 81.7305L20.2939 85.7958L15.7118 84.6963C15.7037 83.8666 15.1265 83.0817 14.2503 82.8643C13.2319 82.6582 12.2215 83.2818 11.9562 84.2762C11.5487 85.2819 12.2314 86.3162 13.2259 86.5815ZM30.141 89.0292L33.7286 89.8634C33.6551 90.3846 33.7239 90.8946 33.935 91.3933L30.7969 93.3585C30.1508 92.0636 29.8613 90.5688 30.141 89.0292ZM31.2318 94.1547L34.37 92.1895C34.6882 92.5939 35.1135 92.9041 35.6459 93.1198L34.8117 96.7075C33.344 96.2504 32.0681 95.3201 31.2318 94.1547ZM35.6878 96.9249L36.522 93.3372C37.0432 93.4107 37.5772 93.2827 38.076 93.0716L40.0411 96.2098C38.7222 96.915 37.2274 97.2045 35.6878 96.9249ZM40.7781 95.7509L38.813 92.6127C39.2174 92.2945 39.5515 91.8101 39.6841 91.3128L43.2718 92.147C42.8739 93.6387 41.9675 94.8555 40.7781 95.7509ZM43.4892 91.2709L39.9015 90.4367C39.8918 89.9507 39.8231 89.4407 39.588 89.0011L42.7022 87.095C43.3962 88.2717 43.6857 89.7665 43.4892 91.2709ZM42.2081 86.2749L39.0699 88.2401C38.7278 87.8948 38.3616 87.6087 37.8884 87.4169L38.7226 83.8292C40.2142 84.2271 41.431 85.1335 42.2081 86.2749ZM37.9056 83.6358L37.0714 87.2235C36.6093 87.174 36.0993 87.2428 35.6837 87.4187L33.7185 84.2805C34.9543 83.6105 36.4251 83.3801 37.9056 83.6358ZM32.8984 84.7746L34.8044 87.8888C34.4831 88.1718 34.1138 88.5731 33.946 88.9872L30.3583 88.153C30.8506 86.7684 31.757 85.5517 32.8984 84.7746Z" fill="white"/>
</g>
</svg>
