<svg width="110" height="135" viewBox="0 0 110 135" fill="none" xmlns="http://www.w3.org/2000/svg">
<path d="M73.4727 124.154C80.4377 102.282 71.7869 79.201 53.7485 66.8521C53.2635 67.2337 52.6654 67.4868 52.0538 67.5693C70.0806 79.3354 78.8464 102.132 71.9542 123.621C63.7204 149.439 36.066 163.669 10.248 155.435C-15.57 147.202 -29.8291 119.618 -21.5666 93.7292C-14.7894 72.5242 5.17134 59.1401 26.3624 59.6346C25.7814 59.2339 25.3576 58.6492 25.1045 58.0511C3.68348 58.1241 -16.1794 71.8782 -23.0429 93.2961C-31.522 119.923 -16.841 148.504 9.78607 156.983C36.4132 165.462 64.9935 150.781 73.4727 124.154Z" fill="white"/>
<path d="M46.7714 66.337C67.1926 76.6783 77.7013 100.677 70.4775 123.188C62.5178 148.126 35.6896 161.948 10.7517 153.988C-14.1863 146.028 -28.0082 119.2 -20.0485 94.262C-12.8247 71.7513 9.63799 58.3075 32.294 61.7083L27.3973 60.1367C27.0426 59.9929 26.6879 59.8492 26.362 59.6345C5.17097 59.14 -14.7897 72.5241 -21.5669 93.7292C-29.8008 119.547 -15.5704 147.202 10.2476 155.435C36.0656 163.669 63.72 149.439 71.9538 123.621C78.846 102.132 70.0802 79.3353 52.0534 67.5692C51.5128 67.6805 50.859 67.6633 50.2915 67.4333L46.7714 66.337Z" fill="white"/>
<path d="M40.1988 42.2C41.1072 39.3471 44.142 37.7689 46.9949 38.6774C49.8478 39.5859 51.426 42.6206 50.5175 45.4735C49.8256 47.5883 47.9143 49.0437 45.767 49.2471L48.4781 50.0981C50.1306 49.2812 51.4591 47.8374 52.0648 45.9354C53.2186 42.2735 51.1898 38.3127 47.5278 37.1589C43.8658 36.0051 39.905 38.0339 38.7512 41.6959C38.1456 43.5978 38.3643 45.5035 39.2809 47.1139L41.9919 47.9648C40.2356 46.5923 39.549 44.4144 40.1988 42.2Z" fill="white"/>
<path d="M50.5899 45.5023C51.4984 42.6494 49.9202 39.6146 47.0673 38.7061C44.2144 37.7977 41.1796 39.3758 40.2712 42.2287C39.5793 44.3435 40.308 46.6211 41.9646 48.0358L45.9104 49.3046C47.9867 49.0724 49.8693 47.688 50.5899 45.5023ZM44.2269 47.5486C42.1831 46.8854 41.0843 44.7057 41.7187 42.7328C42.3531 40.7599 44.5616 39.5902 46.5345 40.2246C48.5783 40.8878 49.6771 43.0675 49.0427 45.0404C48.3795 47.0842 46.2707 48.2118 44.2269 47.5486Z" fill="white"/>
<path d="M26.3913 56.0953L29.088 47.6075C29.4196 46.5856 30.5737 45.9797 31.5956 46.3112L41.1762 49.3683C40.369 48.7107 39.6903 47.9401 39.2109 47.085L32.2703 44.8503C30.2975 44.2158 28.1886 45.3434 27.583 47.2453L24.9304 55.4206C24.6563 56.3006 24.6947 57.2247 25.0322 58.0222C25.6151 58.0107 26.1979 57.9991 26.8229 58.0872C26.3704 57.5735 26.1748 56.8334 26.3913 56.0953Z" fill="white"/>
<path d="M45.6198 50.8384L54.9167 53.7804C55.9386 54.112 56.5445 55.2661 56.213 56.288L53.5163 64.7758C53.386 65.3011 52.9719 65.7114 52.4734 65.9224C52.9413 66.1946 53.3803 66.5377 53.8482 66.8099C54.4329 66.3861 54.8623 65.7343 55.0788 64.9961L57.603 56.934C58.2374 54.9611 57.1099 52.8523 55.208 52.2466L48.5512 50.1268C47.6252 50.5775 46.6149 50.8287 45.6198 50.8384Z" fill="white"/>
<path d="M39.6783 63.4621C37.1801 62.6973 34.6954 62.1032 32.1953 61.7507L46.6726 66.3794C44.5176 65.1756 42.1766 64.2268 39.6783 63.4621Z" fill="white"/>
<path d="M26.3602 59.6347C28.4212 59.644 30.4956 59.824 32.5835 60.1747L27.6868 58.6031C27.403 58.4881 27.0771 58.2734 26.8221 58.0874C26.2392 58.099 25.6852 58.0396 25.0314 58.0224C25.3555 58.6493 25.7792 59.234 26.3602 59.6347Z" fill="white"/>
<path d="M50.9369 66.0433L47.3458 64.9183C48.9909 65.7502 50.5363 66.6243 52.0241 67.6403C52.6357 67.5578 53.2338 67.3046 53.7189 66.9231C53.2798 66.5799 52.812 66.3077 52.3441 66.0355C51.9741 66.1333 51.4622 66.1736 50.9369 66.0433Z" fill="white"/>
<path d="M32.585 60.1748C30.4971 59.8241 28.4227 59.6441 26.3617 59.6347C26.6876 59.8494 27.0136 60.0641 27.397 60.1369L32.2937 61.7086C34.7938 62.0611 37.2786 62.6552 39.7768 63.4199C42.275 64.1846 44.5872 65.2043 46.842 66.366L50.4331 67.491C51.0293 67.6501 51.5834 67.7095 52.195 67.627C50.6784 66.6819 49.1618 65.7369 47.5167 64.905L32.585 60.1748Z" fill="white"/>
<path d="M45.6196 50.8385C46.6147 50.8288 47.625 50.5776 48.48 50.0982L45.84 49.276C45.1574 49.3297 44.4327 49.2838 43.7233 48.9963C42.9852 48.7797 42.4042 48.379 41.8233 47.9784L39.1832 47.1562C39.6626 48.0112 40.3126 48.8528 41.1486 49.4394L45.6196 50.8385Z" fill="white"/>
<path d="M43.7239 48.9963C44.462 49.2128 45.158 49.3297 45.8405 49.276L41.8948 48.0071C42.447 48.4787 43.0567 48.8084 43.7239 48.9963Z" fill="white"/>
<path d="M28.3646 57.1422C28.0808 57.0272 27.8833 56.6994 27.9983 56.4156L30.5512 48.2825C30.6662 47.9988 30.9941 47.8013 31.2778 47.9163L54.2429 55.2416C54.5267 55.3566 54.7242 55.6845 54.6092 55.9682L51.9853 64.0725C51.8703 64.3563 51.5425 64.5538 51.2587 64.4388L47.9802 63.3578C49.4834 64.1322 50.9578 64.9776 52.4034 65.8938C52.9019 65.6829 53.245 65.2438 53.4463 64.7472L56.143 56.2595C56.4746 55.2376 55.9396 54.1122 54.8467 53.7519L45.5499 50.8099C44.7964 50.8349 44.0007 50.7602 43.1917 50.5149C42.3826 50.2695 41.7019 49.9111 41.0788 49.4107L31.4982 46.3537C30.4762 46.0222 29.3509 46.5572 28.9906 47.65L26.2939 56.1378C26.0773 56.8759 26.2729 57.616 26.7542 58.0588C28.7865 58.1391 30.79 58.2904 32.8778 58.641L28.3646 57.1422Z" fill="white"/>
<path d="M47.3465 64.9184L50.9376 66.0434C51.4629 66.1738 51.9748 66.1334 52.3736 65.9647C50.9279 65.0484 49.4535 64.2031 47.9503 63.4287L32.9764 58.5987C30.9595 58.2768 28.885 58.0968 26.8528 58.0165C27.079 58.2734 27.334 58.4593 27.7175 58.5322L32.6142 60.1038C35.1852 60.4851 37.67 61.0792 40.2391 61.8726C42.6798 62.7792 45.0918 63.7568 47.3465 64.9184Z" fill="white"/>
<path d="M40.2108 61.9434C37.7126 61.1787 35.1569 60.5559 32.5858 60.1746L47.3469 64.9182C45.0922 63.7566 42.6802 62.7791 40.2108 61.9434Z" fill="white"/>
<path d="M43.2621 50.5435C44.0712 50.7888 44.8668 50.8635 45.6203 50.8385L41.1492 49.4394C41.7724 49.9397 42.453 50.2982 43.2621 50.5435Z" fill="white"/>
<path d="M46.1303 38.5739L48.8257 36.6104C51.6496 34.5338 65.9376 24.5494 71.1912 28.9087C72.9897 30.3809 73.4059 32.6144 72.3306 34.6564C69.2329 40.6691 58.2263 41.7419 49.3532 39.3846L46.1303 38.5739ZM68.6511 31.1003C66.5363 30.4084 60.7561 32.4431 53.5709 37.1295C62.5762 38.5493 68.2757 35.4908 69.5083 33.2647C69.8955 32.5132 69.813 31.9016 69.1189 31.3725C69.0058 31.2441 68.8639 31.1865 68.6511 31.1003Z" fill="white"/>
<path d="M48.4574 39.3521L45.3782 38.1868C36.7792 34.9494 28.4118 27.6764 29.3946 20.9718C29.7606 18.6423 31.3594 17.1429 33.6773 16.926C40.5025 16.3885 46.298 32.8607 47.4486 36.1351L48.4574 39.3521ZM34.4157 20.1986C34.2029 20.1124 34.0323 20.1258 33.8617 20.1393C33.0085 20.2064 32.5944 20.6168 32.491 21.4834C32.1385 23.9834 34.9976 29.7674 43.1807 33.8272C40.0759 25.7963 36.5592 20.8196 34.4157 20.1986Z" fill="white"/>
<path d="M47.5319 38.6444C47.9748 38.7859 48.5216 38.313 48.7532 37.5882C48.9847 36.8633 48.8134 36.161 48.3704 36.0195C47.9274 35.878 47.3806 36.3509 47.1491 37.0757C46.9175 37.8006 47.0889 38.5029 47.5319 38.6444Z" fill="white"/>
<path d="M3.22624 102.581C4.10238 102.799 4.95768 102.388 5.32851 101.643L9.91066 102.742L5.84527 105.296L6.36334 106.057L11.2249 103.068L13.6167 103.624L9.55127 106.178L10.0693 106.939L14.9309 103.95L17.3227 104.506L13.2573 107.06L13.7753 107.821L18.6369 104.832L19.6553 105.039C19.3277 106.696 19.6045 108.393 20.404 109.819L19.5839 110.313L13.9833 109.007L13.766 109.883L18.4312 110.948L16.3274 112.23L10.7268 110.924L10.5095 111.801L15.1748 112.865L13.0709 114.147L7.47035 112.842L7.253 113.718L11.9183 114.782L7.87686 117.277C7.28687 116.693 6.30362 116.57 5.56664 117.029C4.66339 117.558 4.38533 118.754 4.93858 119.598C5.46786 120.502 6.66375 120.78 7.50784 120.226C8.24482 119.767 8.5453 118.856 8.3118 118.073L12.3532 115.578L11.2889 120.244L12.165 120.461L13.4707 114.86L15.5745 113.578L14.5102 118.243L15.3863 118.461L16.692 112.86L18.7958 111.578L17.7315 116.243L18.6076 116.46L19.9133 110.86L20.7334 110.366C21.64 111.697 23.0102 112.735 24.6554 113.264L24.4141 114.199L19.5526 117.188L20.0706 117.948L24.136 115.395L23.5799 117.787L18.7184 120.775L19.2364 121.536L23.3018 118.983L22.7457 121.374L17.8842 124.363L18.4022 125.124L22.4676 122.57L21.3681 127.152C20.5384 127.16 19.7534 127.738 19.5361 128.614C19.33 129.632 19.9536 130.643 20.948 130.908C21.9665 131.114 22.9768 130.49 23.2421 129.496C23.4594 128.62 23.0485 127.765 22.3034 127.394L23.4029 122.812L25.9565 126.877L26.7175 126.359L23.7289 121.497L24.2851 119.106L26.8387 123.171L27.5996 122.653L24.6111 117.791L25.1672 115.4L27.7208 119.465L28.4818 118.947L25.4932 114.085L25.7106 113.209C27.3925 113.478 29.0888 113.201 30.5148 112.401L31.0089 113.221L29.7032 118.822L30.5794 119.039L31.6437 114.374L32.9261 116.478L31.6205 122.079L32.4966 122.296L33.5609 117.631L34.8433 119.734L33.5377 125.335L34.4138 125.552L35.4781 120.887L37.9726 124.928C37.3891 125.518 37.2661 126.502 37.725 127.239C38.2543 128.142 39.4502 128.42 40.2943 127.867C41.1975 127.337 41.4756 126.142 40.9223 125.298C40.4634 124.561 39.5521 124.26 38.7687 124.494L36.2743 120.452L40.9395 121.516L41.1569 120.64L35.5563 119.335L34.2739 117.231L38.9392 118.295L39.1565 117.419L33.556 116.113L32.2736 114.01L36.9388 115.074L37.1562 114.198L31.5556 112.892L31.0615 112.072C32.4172 111.106 33.3955 109.712 33.8653 108.043L34.8598 108.308L37.8483 113.17L38.6684 112.676L36.1388 108.551L38.5306 109.107L41.5192 113.969L42.3393 113.475L39.8096 109.35L42.2014 109.906L45.2476 115.135L46.0677 114.641L43.538 110.517L48.1202 111.616C48.1283 112.446 48.7055 113.231 49.5816 113.448C50.5761 113.714 51.5864 113.09 51.8757 112.036C52.141 111.042 51.5174 110.032 50.4638 109.742C49.5876 109.525 48.7323 109.936 48.3615 110.681L43.7794 109.581L47.9039 107.052L47.4098 106.232L42.5483 109.22L40.1565 108.664L44.281 106.134L43.7869 105.314L38.9254 108.303L36.5336 107.747L40.6582 105.217L40.1641 104.397L35.3025 107.386L34.2841 107.179C34.5525 105.498 34.2518 103.86 33.4283 102.494L34.3555 101.905L39.9561 103.211L40.1735 102.335L35.5322 101.211L37.636 99.9288L43.2366 101.234L43.4539 100.358L38.8126 99.2348L40.9164 97.9524L46.517 99.258L46.437 98.6057L41.7957 97.4823L45.8371 94.9878C46.4271 95.5713 47.4104 95.6943 48.1474 95.2354C49.0506 94.7061 49.3287 93.5102 48.7754 92.6661C48.2461 91.7629 47.0502 91.4848 46.2062 92.0381C45.4692 92.497 45.1687 93.4083 45.4022 94.1917L41.3608 96.6861L42.4843 92.0448L41.6081 91.8275L40.3025 97.4281L38.1986 98.7105L39.3221 94.0692L38.446 93.8518L37.1403 99.4524L35.0365 100.735L36.16 96.0935L35.2838 95.8762L33.9782 101.477L32.9918 102.041C32.0612 100.769 30.7501 99.7552 29.1402 99.3093L29.3942 98.1725L34.2558 95.184L33.7617 94.3639L29.6371 96.8935L30.1933 94.5017L35.0548 91.5132L34.5607 90.6931L30.4361 93.2227L30.9571 90.7478L35.8186 87.7592L35.3245 86.9391L31.2591 89.4927L32.3586 84.9106C33.1884 84.9025 33.9733 84.3253 34.1907 83.4491C34.456 82.4547 33.8323 81.4443 32.7787 81.1551C31.7843 80.8898 30.7739 81.5134 30.4847 82.567C30.2673 83.4431 30.6783 84.2984 31.4233 84.6693L30.3238 89.2514L27.7942 85.1269L26.9741 85.621L29.9626 90.4825L29.4657 92.8982L26.9712 88.8568L26.1511 89.3509L29.1397 94.2125L28.5835 96.6042L26.0539 92.4797L25.2338 92.9738L28.2223 97.8353L27.9682 98.9721C26.2863 98.7036 24.6492 99.0044 23.2472 99.7447L22.6587 98.8175L23.9644 93.2169L23.0882 92.9996L21.9648 97.6409L20.8007 95.585L22.1063 89.9844L21.2302 89.7671L20.1067 94.4084L18.8243 92.3046L20.1299 86.704L19.2538 86.4866L18.1303 91.1279L15.6359 87.0865C16.2194 86.4965 16.3424 85.5133 15.8834 84.7763C15.3542 83.8731 14.1583 83.595 13.3142 84.1482C12.4109 84.6775 12.1329 85.8734 12.6861 86.7175C13.145 87.4545 14.0564 87.755 14.8397 87.5215L17.3342 91.5629L12.6929 90.4394L12.4755 91.3155L18.0761 92.6212L19.3585 94.725L14.7172 93.6015L14.4999 94.4777L20.1004 95.7833L21.3829 97.8872L16.7416 96.7637L16.4043 97.9356L22.0049 99.2412L22.5933 100.168C21.2617 101.075 20.3073 102.41 19.7431 103.972L18.7247 103.766L15.7361 98.9045L14.9752 99.4226L17.5288 103.488L15.0779 102.908L12.0893 98.0463L11.3283 98.5644L13.882 102.63L11.4902 102.074L8.50161 97.2121L7.74065 97.7302L10.2943 101.796L5.71212 100.696C5.70405 99.8664 5.12682 99.0814 4.25068 98.8641C3.23225 98.6579 2.2219 99.2815 1.95661 100.276C1.54902 101.282 2.23179 102.316 3.22624 102.581ZM20.1413 105.029L23.729 105.863C23.6555 106.384 23.7243 106.894 23.9354 107.393L20.7972 109.358C20.1512 108.063 19.8617 106.569 20.1413 105.029ZM21.2322 110.154L24.3703 108.189C24.6885 108.594 25.1138 108.904 25.6462 109.12L24.812 112.707C23.3443 112.25 22.0684 111.32 21.2322 110.154ZM25.6882 112.925L26.5224 109.337C27.0436 109.41 27.5775 109.282 28.0763 109.071L30.0415 112.21C28.7226 112.915 27.2278 113.204 25.6882 112.925ZM30.7785 111.751L28.8133 108.612C29.2178 108.294 29.5519 107.81 29.6845 107.313L33.2722 108.147C32.8743 109.638 31.9679 110.855 30.7785 111.751ZM33.4895 107.271L29.9019 106.436C29.8922 105.95 29.8234 105.44 29.5884 105.001L32.7025 103.095C33.3965 104.271 33.686 105.766 33.4895 107.271ZM32.2085 102.275L29.0703 104.24C28.7281 103.895 28.362 103.608 27.8887 103.417L28.7229 99.8289C30.2146 100.227 31.4313 101.133 32.2085 102.275ZM27.9059 99.6356L27.0717 103.223C26.6097 103.174 26.0997 103.243 25.684 103.418L23.7189 100.28C24.9546 99.6103 26.4255 99.3799 27.9059 99.6356ZM22.8988 100.774L24.8048 103.889C24.4835 104.172 24.1142 104.573 23.9464 104.987L20.3587 104.153C20.8509 102.768 21.7573 101.551 22.8988 100.774Z" fill="white"/>
</svg>
