<svg width="110" height="135" viewBox="0 0 110 135" fill="none" xmlns="http://www.w3.org/2000/svg">
<path d="M73.4715 124.154C80.4365 102.281 71.7857 79.2009 53.7473 66.852C53.2623 67.2335 52.6642 67.4867 52.0526 67.5692C70.0794 79.3353 78.8452 102.132 71.953 123.621C63.7192 149.439 36.0647 163.669 10.2467 155.435C-15.5713 147.202 -29.8304 119.618 -21.5678 93.7291C-14.7906 72.5241 5.17012 59.14 26.3611 59.6344C25.7802 59.2338 25.3564 58.6491 25.1033 58.0509C3.68226 58.124 -16.1806 71.8781 -23.0441 93.296C-31.5232 119.923 -16.8422 148.503 9.78485 156.983C36.4119 165.462 64.9923 150.781 73.4715 124.154Z" fill="white"/>
<path d="M46.7703 66.3369C67.1915 76.6782 77.7002 100.677 70.4764 123.188C62.5167 148.126 35.6885 161.947 10.7506 153.988C-14.1874 146.028 -28.0093 119.2 -20.0496 94.2619C-12.8258 71.7512 9.63689 58.3074 32.2929 61.7082L27.3962 60.1366C27.0415 59.9928 26.6868 59.8491 26.3609 59.6344C5.16987 59.1399 -14.7908 72.524 -21.568 93.729C-29.8019 119.547 -15.5715 147.201 10.2465 155.435C36.0645 163.669 63.7189 149.439 71.9527 123.621C78.8449 102.132 70.0791 79.3352 52.0523 67.5691C51.5117 67.6804 50.8579 67.6632 50.2904 67.4332L46.7703 66.3369Z" fill="white"/>
<path d="M40.199 42.1998C41.1075 39.3469 44.1423 37.7688 46.9952 38.6772C49.8481 39.5857 51.4262 42.6205 50.5178 45.4734C49.8259 47.5882 47.9145 49.0435 45.7673 49.247L48.4783 50.0979C50.1309 49.281 51.4593 47.8373 52.065 45.9353C53.2188 42.2733 51.19 38.3126 47.528 37.1588C43.866 36.005 39.9053 38.0338 38.7515 41.6958C38.1458 43.5977 38.3646 45.5034 39.2811 47.1137L41.9922 47.9647C40.2359 46.5922 39.5493 44.4143 40.199 42.1998Z" fill="white"/>
<path d="M50.5885 45.5022C51.4969 42.6493 49.9188 39.6145 47.0659 38.706C44.213 37.7975 41.1782 39.3757 40.2697 42.2286C39.5778 44.3434 40.3066 46.6209 41.9632 48.0357L45.9089 49.3045C47.9852 49.0723 49.8678 47.6879 50.5885 45.5022ZM44.2254 47.5485C42.1816 46.8853 41.0828 44.7056 41.7172 42.7327C42.3517 40.7598 44.5602 39.5901 46.533 40.2245C48.5769 40.8877 49.6756 43.0674 49.0412 45.0403C48.3781 47.0841 46.2692 48.2116 44.2254 47.5485Z" fill="white"/>
<path d="M26.3906 56.095L29.0873 47.6073C29.4189 46.5854 30.573 45.9794 31.5949 46.311L41.1755 49.368C40.3683 48.7105 39.6895 47.9398 39.2101 47.0848L32.2696 44.85C30.2967 44.2156 28.1879 45.3431 27.5823 47.2451L24.9296 55.4203C24.6556 56.3004 24.694 57.2244 25.0315 58.022C25.6143 58.0104 26.1972 57.9989 26.8222 58.087C26.3697 57.5732 26.174 56.8332 26.3906 56.095Z" fill="white"/>
<path d="M45.6187 50.8382L54.9156 53.7802C55.9375 54.1118 56.5434 55.2659 56.2119 56.2878L53.5152 64.7755C53.3849 65.3009 52.9708 65.7112 52.4723 65.9221C52.9402 66.1943 53.3792 66.5375 53.8471 66.8097C54.4318 66.3859 54.8612 65.734 55.0777 64.9959L57.6019 56.9337C58.2363 54.9609 57.1088 52.852 55.2069 52.2464L48.5501 50.1266C47.6241 50.5772 46.6138 50.8285 45.6187 50.8382Z" fill="white"/>
<path d="M39.6771 63.4619C37.1789 62.6972 34.6942 62.1031 32.1941 61.7506L46.6714 66.3793C44.5163 65.1755 42.1753 64.2267 39.6771 63.4619Z" fill="white"/>
<path d="M26.3602 59.6343C28.4212 59.6437 30.4956 59.8237 32.5835 60.1743L27.6868 58.6027C27.403 58.4877 27.0771 58.273 26.8221 58.087C26.2392 58.0986 25.6852 58.0392 25.0314 58.022C25.3555 58.6489 25.7792 59.2336 26.3602 59.6343Z" fill="white"/>
<path d="M50.937 66.0431L47.346 64.918C48.991 65.7499 50.5364 66.624 52.0242 67.64C52.6358 67.5575 53.234 67.3044 53.719 66.9228C53.2799 66.5797 52.8121 66.3075 52.3443 66.0353C51.9742 66.1331 51.4624 66.1734 50.937 66.0431Z" fill="white"/>
<path d="M32.5851 60.1745C30.4972 59.8239 28.4228 59.6438 26.3618 59.6345C26.6877 59.8492 27.0137 60.0639 27.3971 60.1367L32.2939 61.7083C34.7939 62.0608 37.2787 62.6549 39.7769 63.4196C42.2751 64.1844 44.5874 65.2041 46.8421 66.3657L50.4332 67.4908C51.0294 67.6498 51.5835 67.7092 52.1951 67.6267C50.6785 66.6817 49.1619 65.7366 47.5168 64.9047L32.5851 60.1745Z" fill="white"/>
<path d="M45.6189 50.8385C46.6139 50.8288 47.6243 50.5776 48.4793 50.0982L45.8392 49.276C45.1567 49.3297 44.432 49.2838 43.7226 48.9963C42.9845 48.7797 42.4035 48.379 41.8225 47.9784L39.1825 47.1562C39.6618 48.0112 40.3119 48.8528 41.1478 49.4394L45.6189 50.8385Z" fill="white"/>
<path d="M43.7228 48.996C44.4609 49.2126 45.1569 49.3295 45.8394 49.2757L41.8937 48.0069C42.4459 48.4785 43.0556 48.8082 43.7228 48.996Z" fill="white"/>
<path d="M28.3632 57.1421C28.0795 57.0271 27.882 56.6992 27.997 56.4155L30.5499 48.2824C30.6649 47.9987 30.9927 47.8012 31.2765 47.9162L54.2416 55.2415C54.5253 55.3565 54.7229 55.6843 54.6078 55.9681L51.984 64.0724C51.869 64.3562 51.5411 64.5537 51.2574 64.4387L47.9788 63.3577C49.482 64.1321 50.9564 64.9774 52.4021 65.8937C52.9006 65.6828 53.2437 65.2437 53.445 64.7471L56.1416 56.2594C56.4732 55.2374 55.9382 54.1121 54.8454 53.7518L45.5485 50.8098C44.795 50.8348 43.9994 50.7601 43.1903 50.5147C42.3812 50.2694 41.7006 49.911 41.0774 49.4106L31.4968 46.3536C30.4749 46.022 29.3496 46.557 28.9892 47.6499L26.2925 56.1377C26.076 56.8758 26.2716 57.6158 26.7529 58.0587C28.7851 58.139 30.7886 58.2903 32.8765 58.6409L28.3632 57.1421Z" fill="white"/>
<path d="M47.3457 64.9184L50.9367 66.0434C51.4621 66.1738 51.974 66.1334 52.3727 65.9647C50.927 65.0484 49.4526 64.2031 47.9495 63.4287L32.9755 58.5987C30.9586 58.2768 28.8842 58.0968 26.8519 58.0165C27.0782 58.2734 27.3332 58.4593 27.7166 58.5322L32.6133 60.1038C35.1844 60.4851 37.6691 61.0792 40.2383 61.8726C42.679 62.7792 45.0909 63.7568 47.3457 64.9184Z" fill="white"/>
<path d="M40.2103 61.9432C37.7121 61.1785 35.1564 60.5556 32.5854 60.1743L47.3464 64.918C45.0917 63.7564 42.6797 62.7789 40.2103 61.9432Z" fill="white"/>
<path d="M43.2615 50.5433C44.0706 50.7886 44.8662 50.8633 45.6197 50.8383L41.1486 49.4392C41.7717 49.9395 42.4524 50.298 43.2615 50.5433Z" fill="white"/>
<path d="M46.1292 38.574L48.8246 36.6105C51.6485 34.5339 65.9365 24.5496 71.1901 28.9088C72.9886 30.381 73.4048 32.6146 72.3295 34.6565C69.2318 40.6692 58.2252 41.742 49.3521 39.3847L46.1292 38.574ZM68.65 31.1004C66.5352 30.4085 60.755 32.4432 53.5698 37.1296C62.5751 38.5494 68.2746 35.4909 69.5072 33.2649C69.8944 32.5133 69.8119 31.9017 69.1178 31.3726C69.0047 31.2442 68.8628 31.1867 68.65 31.1004Z" fill="white"/>
<path d="M48.4574 39.3524L45.3782 38.187C36.7792 34.9497 28.4118 27.6766 29.3946 20.972C29.7606 18.6426 31.3594 17.1431 33.6773 16.9263C40.5025 16.3888 46.298 32.8609 47.4486 36.1354L48.4574 39.3524ZM34.4157 20.1989C34.2029 20.1126 34.0323 20.1261 33.8617 20.1395C33.0085 20.2067 32.5944 20.617 32.491 21.4836C32.1385 23.9837 34.9976 29.7676 43.1807 33.8275C40.0759 25.7966 36.5592 20.8198 34.4157 20.1989Z" fill="white"/>
<path d="M47.5319 38.6443C47.9748 38.7858 48.5216 38.3129 48.7532 37.588C48.9847 36.8632 48.8134 36.1609 48.3704 36.0194C47.9274 35.8779 47.3806 36.3508 47.1491 37.0756C46.9175 37.8004 47.0889 38.5028 47.5319 38.6443Z" fill="white"/>
<path d="M3.2249 102.581C4.10104 102.798 4.95633 102.387 5.32717 101.642L9.90931 102.742L5.84393 105.295L6.362 106.056L11.2235 103.068L13.6153 103.624L9.54993 106.178L10.068 106.939L14.9295 103.95L17.3213 104.506L13.2559 107.06L13.774 107.821L18.6355 104.832L19.654 105.038C19.3264 106.696 19.6031 108.393 20.4026 109.819L19.5825 110.313L13.982 109.007L13.7646 109.883L18.4299 110.947L16.326 112.23L10.7255 110.924L10.5081 111.8L15.1734 112.865L13.0696 114.147L7.46901 112.841L7.25166 113.718L11.9169 114.782L7.87552 117.276C7.28552 116.693 6.30228 116.57 5.56529 117.029C4.66205 117.558 4.38399 118.754 4.93724 119.598C5.46651 120.501 6.66241 120.779 7.5065 120.226C8.24348 119.767 8.54396 118.856 8.31046 118.072L12.3519 115.578L11.2876 120.243L12.1637 120.461L13.4693 114.86L15.5732 113.578L14.5089 118.243L15.385 118.46L16.6906 112.86L18.7945 111.577L17.7302 116.243L18.6063 116.46L19.9119 110.859L20.732 110.365C21.6387 111.697 23.0089 112.734 24.6541 113.263L24.4127 114.199L19.5512 117.187L20.0693 117.948L24.1347 115.395L23.5785 117.786L18.717 120.775L19.2351 121.536L23.3005 118.982L22.7443 121.374L17.8828 124.363L18.4009 125.124L22.4663 122.57L21.3668 127.152C20.537 127.16 19.7521 127.737 19.5348 128.614C19.3286 129.632 19.9522 130.642 20.9467 130.908C21.9651 131.114 22.9755 130.49 23.2408 129.496C23.4581 128.62 23.0471 127.764 22.3021 127.393L23.4016 122.811L25.9552 126.877L26.7161 126.359L23.7276 121.497L24.2837 119.105L26.8373 123.171L27.5983 122.653L24.6097 117.791L25.1659 115.399L27.7195 119.465L28.4804 118.947L25.4919 114.085L25.7092 113.209C27.3912 113.477 29.0874 113.201 30.5134 112.401L31.0075 113.221L29.7019 118.822L30.578 119.039L31.6423 114.374L32.9247 116.478L31.6191 122.078L32.4953 122.296L33.5596 117.63L34.842 119.734L33.5363 125.335L34.4125 125.552L35.4768 120.887L37.9712 124.928C37.3878 125.518 37.2647 126.501 37.7237 127.238C38.2529 128.142 39.4488 128.42 40.2929 127.867C41.1962 127.337 41.4742 126.141 40.921 125.297C40.4621 124.56 39.5508 124.26 38.7674 124.493L36.2729 120.452L40.9382 121.516L41.1555 120.64L35.555 119.334L34.2726 117.231L38.9378 118.295L39.1552 117.419L33.5546 116.113L32.2722 114.009L36.9375 115.074L37.1548 114.197L31.5543 112.892L31.0602 112.072C32.4158 111.106 33.3941 109.712 33.864 108.043L34.8584 108.308L37.847 113.169L38.6671 112.675L36.1375 108.551L38.5293 109.107L41.5178 113.968L42.3379 113.474L39.8083 109.35L42.2001 109.906L45.2462 115.135L46.0663 114.641L43.5367 110.517L48.1188 111.616C48.1269 112.446 48.7041 113.231 49.5803 113.448C50.5747 113.713 51.5851 113.09 51.8744 112.036C52.1397 111.042 51.516 110.031 50.4624 109.742C49.5863 109.525 48.731 109.936 48.3602 110.681L43.778 109.581L47.9026 107.052L47.4085 106.231L42.5469 109.22L40.1552 108.664L44.2797 106.134L43.7856 105.314L38.9241 108.303L36.5323 107.747L40.6568 105.217L40.1627 104.397L35.3012 107.385L34.2828 107.179C34.5512 105.497 34.2505 103.86 33.427 102.493L34.3542 101.905L39.9548 103.211L40.1721 102.334L35.5308 101.211L37.6347 99.9285L43.2352 101.234L43.4526 100.358L38.8113 99.2346L40.9151 97.9521L46.5157 99.2578L46.4357 98.6055L41.7944 97.482L45.8358 94.9876C46.4258 95.5711 47.409 95.6941 48.146 95.2352C49.0493 94.7059 49.3273 93.51 48.7741 92.6659C48.2448 91.7626 47.0489 91.4846 46.2048 92.0378C45.4678 92.4967 45.1674 93.4081 45.4008 94.1914L41.3594 96.6859L42.4829 92.0446L41.6068 91.8272L40.3011 97.4278L38.1973 98.7102L39.3208 94.0689L38.4446 93.8516L37.139 99.4521L35.0352 100.735L36.1586 96.0933L35.2825 95.8759L33.9769 101.476L32.9905 102.041C32.0599 100.768 30.7488 99.7549 29.1388 99.309L29.3929 98.1723L34.2544 95.1838L33.7603 94.3636L29.6358 96.8933L30.1919 94.5015L35.0534 91.5129L34.5593 90.6928L30.4348 93.2225L30.9558 90.7475L35.8173 87.759L35.3232 86.9389L31.2578 89.4925L32.3573 84.9103C33.187 84.9023 33.972 84.325 34.1893 83.4489C34.4546 82.4544 33.831 81.4441 32.7774 81.1548C31.7829 80.8895 30.7726 81.5131 30.4833 82.5667C30.266 83.4429 30.6769 84.2982 31.422 84.669L30.3225 89.2512L27.7929 85.1266L26.9728 85.6207L29.9613 90.4822L29.4643 92.898L26.9699 88.8566L26.1498 89.3507L29.1383 94.2122L28.5822 96.604L26.0525 92.4795L25.2324 92.9736L28.221 97.8351L27.9669 98.9718C26.285 98.7034 24.6479 99.0041 23.2458 99.7445L22.6574 98.8173L23.963 93.2167L23.0869 92.9993L21.9634 97.6406L20.7993 95.5848L22.105 89.9842L21.2288 89.7668L20.1054 94.4081L18.823 92.3043L20.1286 86.7037L19.2524 86.4864L18.129 91.1277L15.6345 87.0863C16.218 86.4963 16.341 85.513 15.8821 84.7761C15.3528 83.8728 14.1569 83.5947 13.3128 84.148C12.4096 84.6773 12.1315 85.8732 12.6848 86.7173C13.1437 87.4542 14.055 87.7547 14.8384 87.5212L17.3328 91.5626L12.6915 90.4392L12.4742 91.3153L18.0748 92.6209L19.3572 94.7248L14.7159 93.6013L14.4985 94.4774L20.0991 95.7831L21.3815 97.8869L16.7402 96.7634L16.403 97.9354L22.0036 99.241L22.592 100.168C21.2603 101.075 20.306 102.41 19.7418 103.972L18.7234 103.766L15.7348 98.9043L14.9738 99.4223L17.5275 103.488L15.0765 102.908L12.088 98.0461L11.327 98.5642L13.8806 102.63L11.4888 102.073L8.50027 97.2119L7.73931 97.73L10.2929 101.795L5.71078 100.696C5.7027 99.8661 5.12548 99.0812 4.24934 98.8638C3.23091 98.6577 2.22056 99.2813 1.95526 100.276C1.54768 101.281 2.23045 102.316 3.2249 102.581ZM20.14 105.029L23.7277 105.863C23.6542 106.384 23.723 106.894 23.9341 107.393L20.7959 109.358C20.1499 108.063 19.8603 106.568 20.14 105.029ZM21.2308 110.154L24.369 108.189C24.6872 108.593 25.1125 108.904 25.6449 109.119L24.8107 112.707C23.343 112.25 22.0671 111.32 21.2308 110.154ZM25.6868 112.924L26.521 109.337C27.0422 109.41 27.5762 109.282 28.075 109.071L30.0402 112.209C28.7213 112.914 27.2265 113.204 25.6868 112.924ZM30.7772 111.75L28.812 108.612C29.2164 108.294 29.5505 107.81 29.6832 107.312L33.2709 108.147C32.8729 109.638 31.9665 110.855 30.7772 111.75ZM33.4882 107.27L29.9005 106.436C29.8909 105.95 29.8221 105.44 29.587 105.001L32.7012 103.095C33.3952 104.271 33.6847 105.766 33.4882 107.27ZM32.2071 102.274L29.0689 104.24C28.7268 103.894 28.3606 103.608 27.8874 103.416L28.7216 99.8287C30.2133 100.227 31.43 101.133 32.2071 102.274ZM27.9046 99.6353L27.0704 103.223C26.6084 103.173 26.0984 103.242 25.6827 103.418L23.7175 100.28C24.9533 99.61 26.4241 99.3797 27.9046 99.6353ZM22.8974 100.774L24.8034 103.888C24.4821 104.171 24.1128 104.573 23.945 104.987L20.3573 104.153C20.8496 102.768 21.756 101.551 22.8974 100.774Z" fill="white"/>
</svg>
