<svg width="205" height="108" viewBox="0 0 205 108" fill="none" xmlns="http://www.w3.org/2000/svg">
<path d="M12.7137 56.9421C10.8526 50.6186 9.14231 45.2146 7.58297 40.7302H7.16798C7.11768 42.2418 7.0045 44.6225 6.82844 47.8725L6.60208 52.4073C6.60208 53.2387 7.01707 53.6544 7.84705 53.6544C8.35006 53.6544 8.72733 53.6292 8.97883 53.5788L9.24292 53.8433L8.82793 56.5642L7.43206 56.5264C6.19967 56.4508 5.05531 56.4131 3.99898 56.4131C3.47081 56.4131 2.74144 56.4508 1.81086 56.5264C0.905429 56.602 0.30181 56.665 0 56.7154L0.264083 53.8811C0.943155 53.7803 1.4336 53.5536 1.7354 53.2009C2.06237 52.823 2.31387 52.168 2.48993 51.2358C2.69114 49.4975 2.98037 46.7136 3.35763 42.8842C3.73489 39.0548 3.92352 36.9638 3.92352 36.611C3.92352 36.1324 3.86065 35.7797 3.73489 35.5529C3.60914 35.3262 3.35763 35.1624 2.98037 35.0617C2.62826 34.9357 2.06237 34.8349 1.28269 34.7593L1.01861 34.4948L1.39587 31.8873L3.20673 31.9629C4.56487 32.0384 5.64635 32.0762 6.45118 32.0762C7.53266 32.0762 8.66445 32.0384 9.84654 31.9629L11.2047 31.9251C11.9844 34.9231 12.9024 38.2234 13.9587 41.8261L15.1659 46.1719H15.5432C15.8702 45.0634 16.0714 44.421 16.1468 44.2446C16.4235 43.3125 16.9516 41.5867 17.7313 39.0674C18.511 36.5229 19.2152 34.1799 19.844 32.0384C20.6237 32.0384 21.2273 32.051 21.6548 32.0762L23.8052 32.114C24.5095 32.114 25.025 32.1014 25.352 32.0762C25.9556 32.051 27.188 31.9755 29.0492 31.8495L29.2755 32.0007L29.0114 34.6837C27.9551 34.7593 27.2383 34.9357 26.861 35.2128C26.5089 35.4899 26.3329 35.9812 26.3329 36.6866C26.3329 37.6188 26.4209 39.5965 26.597 42.6197C26.7982 45.6177 26.9994 48.1496 27.2006 50.2155C27.3263 51.5507 27.515 52.4577 27.7665 52.9364C28.018 53.3899 28.433 53.6166 29.0114 53.6166C29.4893 53.6166 29.854 53.5914 30.1055 53.541L30.2941 53.8055L29.9546 56.5264C28.521 56.4508 27.2006 56.4131 25.9933 56.4131C25.264 56.4131 24.1951 56.4508 22.7866 56.5264C21.3782 56.602 20.3973 56.665 19.844 56.7154L20.2212 53.8433C20.9255 53.7677 21.4285 53.5914 21.7303 53.3143C22.0572 53.0119 22.2207 52.5711 22.2207 51.9916L22.0698 48.4393C21.8938 45.7688 21.768 43.1991 21.6926 40.7302H21.3153C19.5547 45.6933 17.8319 50.9839 16.1468 56.602L12.7137 56.9421Z" fill="white"/>
<path d="M41.5324 56.3753L41.6833 54.0323C42.4127 53.9567 42.9157 53.8937 43.1924 53.8433C43.469 53.7929 43.6451 53.7174 43.7205 53.6166C43.8211 53.4906 43.8714 53.3017 43.8714 53.0497C43.8714 52.949 43.8589 52.8482 43.8337 52.7474C43.8086 52.6214 43.7834 52.5081 43.7583 52.4073L43.4187 50.9713C42.8654 50.9461 42.0103 50.9335 40.8533 50.9335C40.5012 50.9335 39.9479 50.9587 39.1934 51.0091C38.7407 51.0595 38.4137 51.0847 38.2125 51.0847L37.7598 52.5963C37.6843 52.9238 37.6466 53.1631 37.6466 53.3143C37.6466 53.5914 37.7095 53.7803 37.8352 53.8811C37.9861 53.9567 38.288 53.9945 38.7407 53.9945H39.7216L39.9856 54.259L39.7216 56.5642C39.4197 56.539 38.8161 56.5138 37.9107 56.4886C37.0053 56.4634 36.0244 56.4508 34.9681 56.4508H30.9691L31.1954 54.0701C31.5978 53.9693 31.9374 53.7929 32.214 53.541C32.4907 53.2639 32.7171 52.8734 32.8931 52.3695L38.0616 37.5936L45.2296 37.1023L45.6446 37.4046C45.9464 38.5887 46.5751 40.9569 47.5309 44.5092C48.5118 48.0363 49.2411 50.5556 49.719 52.0672C49.9202 52.7474 50.1717 53.2387 50.4735 53.541C50.7753 53.8433 51.2029 54.0197 51.7562 54.0701L51.9448 54.3346L51.7185 56.4886L47.4931 56.4508C46.3111 56.4508 45.1415 56.4634 43.9846 56.4886C42.8277 56.539 42.0857 56.5768 41.7588 56.602L41.5324 56.3753ZM40.9288 47.6835C41.3564 47.6835 41.9725 47.6584 42.7774 47.608L41.457 42.0906H40.8911L39.1557 47.6835H40.9288Z" fill="white"/>
<path d="M62.7902 56.3753L62.9411 54.0323C63.6705 53.9567 64.1735 53.8937 64.4502 53.8433C64.7268 53.7929 64.9029 53.7174 64.9784 53.6166C65.079 53.4906 65.1293 53.3017 65.1293 53.0497C65.1293 52.949 65.1167 52.8482 65.0915 52.7474C65.0664 52.6214 65.0412 52.5081 65.0161 52.4073L64.6765 50.9713C64.1232 50.9461 63.2681 50.9335 62.1112 50.9335C61.7591 50.9335 61.2057 50.9587 60.4512 51.0091C59.9985 51.0595 59.6715 51.0847 59.4703 51.0847L59.0176 52.5963C58.9422 52.9238 58.9044 53.1631 58.9044 53.3143C58.9044 53.5914 58.9673 53.7803 59.0931 53.8811C59.244 53.9567 59.5458 53.9945 59.9985 53.9945H60.9794L61.2435 54.259L60.9794 56.5642C60.6776 56.539 60.074 56.5138 59.1685 56.4886C58.2631 56.4634 57.2822 56.4508 56.2259 56.4508H52.2269L52.4533 54.0701C52.8557 53.9693 53.1952 53.7929 53.4719 53.541C53.7485 53.2639 53.9749 52.8734 54.1509 52.3695L59.3194 37.5936L66.4874 37.1023L66.9024 37.4046C67.2042 38.5887 67.833 40.9569 68.7887 44.5092C69.7696 48.0363 70.499 50.5556 70.9768 52.0672C71.178 52.7474 71.4295 53.2387 71.7313 53.541C72.0331 53.8433 72.4607 54.0197 73.014 54.0701L73.2027 54.3346L72.9763 56.4886L68.751 56.4508C67.5689 56.4508 66.3994 56.4634 65.2424 56.4886C64.0855 56.539 63.3436 56.5768 63.0166 56.602L62.7902 56.3753ZM62.1866 47.6835C62.6142 47.6835 63.2304 47.6584 64.0352 47.608L62.7148 42.0906H62.1489L60.4135 47.6835H62.1866Z" fill="white"/>
<path d="M80.615 56.7532C79.5586 56.7532 78.5903 56.665 77.7101 56.4886C76.8298 56.3123 76.1256 56.1359 75.5974 55.9596C75.0944 55.758 74.78 55.6195 74.6542 55.5439L74.3147 55.0526C74.3902 54.7251 74.5033 54.0449 74.6542 53.0119C74.8303 51.979 74.9309 51.0343 74.956 50.1777L78.4269 49.9132C78.4269 51.0972 78.6532 51.9412 79.1059 52.4451C79.5838 52.949 80.3383 53.2009 81.3695 53.2009C82.1492 53.2009 82.7528 53.0749 83.1804 52.823C83.6331 52.5459 83.8594 52.1806 83.8594 51.7271C83.8594 51.198 83.5828 50.7571 83.0295 50.4044C82.5013 50.0517 81.6462 49.636 80.4641 49.1574L79.37 48.7039C77.861 48.0489 76.6789 47.3182 75.8238 46.5121C74.9686 45.6807 74.5411 44.5974 74.5411 43.2621C74.5411 42.0528 74.9183 40.9821 75.6728 40.0499C76.4525 39.1178 77.534 38.3998 78.9173 37.8959C80.3006 37.3668 81.8977 37.1023 83.7085 37.1023C84.6894 37.1023 85.6074 37.1653 86.4625 37.2913C87.3177 37.392 87.9967 37.5054 88.4997 37.6314C89.0028 37.7573 89.3172 37.8455 89.4429 37.8959L89.7824 38.4628C89.707 38.7399 89.5687 39.3823 89.3675 40.3901C89.1914 41.3978 89.0531 42.4559 88.9525 43.5644L85.7835 43.7912L85.4062 43.5644L85.4439 42.9598C85.4439 41.5238 84.6014 40.8057 82.9163 40.8057C82.2372 40.8057 81.6713 40.9443 81.2186 41.2214C80.791 41.4986 80.5773 41.8639 80.5773 42.3173C80.5773 42.8968 80.8791 43.3629 81.4827 43.7156C82.1115 44.0683 83.1426 44.5344 84.5762 45.1138C86.2613 45.8192 87.5817 46.575 88.5375 47.3812C89.4932 48.1622 89.9711 49.2581 89.9711 50.669C89.9711 52.5333 89.1285 54.0197 87.4434 55.1282C85.7835 56.2115 83.5073 56.7532 80.615 56.7532Z" fill="white"/>
<path d="M94.602 54.1456C95.5074 54.0701 96.1739 53.9567 96.6015 53.8055C97.029 53.6292 97.3183 53.3773 97.4692 53.0497C97.6452 52.697 97.7332 52.1806 97.7332 51.5003V40.6546C96.9787 40.6798 96.4128 40.7932 96.0356 40.9947C95.6834 41.1711 95.4319 41.5238 95.281 42.0528C95.1301 42.5819 94.9918 43.451 94.866 44.6603L91.3952 44.8493C91.4204 44.3958 91.4707 43.4007 91.5461 41.8639C91.6216 40.3019 91.6719 38.8407 91.697 37.4802L92.0743 37.1023L95.6206 37.4424H105.392L108.938 37.1023L109.353 37.4802C109.378 38.8659 109.416 40.3019 109.466 41.7883C109.516 43.2747 109.554 44.232 109.579 44.6603L106.108 44.8493C105.983 43.5392 105.844 42.6197 105.693 42.0906C105.543 41.5364 105.304 41.1711 104.977 40.9947C104.675 40.7932 104.159 40.6798 103.43 40.6546C103.279 43.5266 103.204 47.2804 103.204 51.916C103.204 52.6466 103.317 53.1631 103.543 53.4654C103.795 53.7677 104.235 53.9189 104.863 53.9189C105.241 53.9189 105.568 53.9063 105.844 53.8811C106.146 53.8559 106.347 53.8433 106.448 53.8433L106.599 53.9945L106.297 56.5642C105.819 56.539 104.977 56.5012 103.769 56.4508C102.562 56.4257 101.405 56.4131 100.299 56.4131C99.4938 56.4131 98.4123 56.4508 97.0542 56.5264C95.696 56.602 94.8032 56.6524 94.3756 56.6776L94.602 54.1456Z" fill="white"/>
<path d="M126.33 56.8665C125.5 56.8665 124.808 56.665 124.255 56.2619C123.701 55.8336 123.224 55.1408 122.821 54.1834L120.633 49.5353H118.747L118.709 51.8782C118.709 52.5081 118.759 52.9616 118.86 53.2387C118.961 53.5158 119.149 53.7048 119.426 53.8055C119.728 53.9063 120.231 53.9693 120.935 53.9945L121.086 54.2212L120.784 56.5264C120.407 56.5264 119.728 56.5012 118.747 56.4508C117.791 56.4257 116.873 56.4131 115.993 56.4131C115.087 56.4131 114.094 56.4508 113.012 56.5264C111.931 56.602 111.227 56.6524 110.9 56.6776L111.164 54.1456C111.969 54.0197 112.522 53.7803 112.824 53.4276C113.126 53.0749 113.276 52.4955 113.276 51.6893V41.1836C113.276 40.6798 113.214 40.3397 113.088 40.1633C112.962 39.9618 112.736 39.861 112.409 39.861L111.315 39.8988L111.051 39.5965L111.352 37.4046L115.615 37.4424C116.596 37.4424 117.64 37.4172 118.747 37.3668C119.853 37.3165 120.62 37.2787 121.048 37.2535C123.764 37.2535 125.814 37.707 127.197 38.6139C128.581 39.5209 129.272 40.8687 129.272 42.6575C129.272 43.8164 128.933 44.8745 128.254 45.8318C127.6 46.764 126.644 47.5702 125.387 48.2504L127.575 51.5759C128.681 53.2891 129.738 54.1456 130.744 54.1456L131.045 54.5613L130.781 56.5642L126.33 56.8665ZM121.35 46.3987C122.029 46.1216 122.557 45.7437 122.934 45.265C123.312 44.7863 123.5 44.1187 123.5 43.2621C123.5 42.3551 123.186 41.6875 122.557 41.2592C121.928 40.8309 120.947 40.6168 119.614 40.6168C119.413 40.6168 119.275 40.6672 119.199 40.768C119.124 40.8435 119.086 41.0199 119.086 41.297C118.935 42.9598 118.86 44.5596 118.86 46.0964L121.35 46.3987Z" fill="white"/>
<path d="M132.569 54.2212C133.424 54.0449 133.99 53.8055 134.267 53.5032C134.543 53.1757 134.682 52.6089 134.682 51.8027V41.3726C134.682 40.768 134.606 40.3649 134.455 40.1633C134.304 39.9618 134.015 39.861 133.588 39.861H132.682L132.418 39.5209L132.682 37.4046L137.473 37.4424C138.379 37.4424 139.347 37.4298 140.378 37.4046C141.409 37.3542 142.126 37.3165 142.529 37.2913L142.34 39.7476C141.586 39.8484 141.095 39.9996 140.869 40.2011C140.642 40.3775 140.504 40.7428 140.454 41.297C140.227 44.8241 140.114 48.389 140.114 51.9916C140.114 52.7978 140.19 53.3395 140.341 53.6166C140.491 53.8937 140.781 54.0323 141.208 54.0323C141.485 54.0323 141.724 54.0197 141.925 53.9945C142.126 53.9693 142.252 53.9441 142.302 53.9189L142.529 54.2212L142.265 56.5264C141.862 56.5264 141.145 56.5012 140.114 56.4508C139.083 56.4257 138.115 56.4131 137.209 56.4131C136.43 56.4131 135.499 56.4382 134.418 56.4886C133.361 56.539 132.67 56.5768 132.343 56.602L132.569 54.2212Z" fill="white"/>
<path d="M153.593 56.7154C150.676 56.7154 148.4 55.8966 146.765 54.259C145.155 52.5963 144.35 50.2785 144.35 47.3056C144.35 44.0557 145.306 41.549 147.218 39.7854C149.129 37.9967 151.82 37.1023 155.291 37.1023C156.096 37.1023 156.964 37.1653 157.894 37.2913C158.85 37.392 159.667 37.5054 160.346 37.6314C161.025 37.7322 161.466 37.8077 161.667 37.8581L161.893 38.3872C161.868 38.5383 161.793 38.891 161.667 39.4453C161.566 39.9744 161.453 40.6924 161.327 41.5993C161.201 42.4811 161.101 43.4385 161.025 44.4714L156.8 44.6981C156.8 44.6225 156.8 44.4336 156.8 44.1313C156.825 43.829 156.838 43.4762 156.838 43.0732C156.838 42.267 156.637 41.7001 156.234 41.3726C155.857 41.0199 155.203 40.8435 154.272 40.8435C152.99 40.8435 152.072 41.2592 151.518 42.0906C150.99 42.8968 150.726 44.295 150.726 46.2853C150.726 50.7193 151.971 52.9364 154.461 52.9364C155.366 52.9364 156.046 52.6718 156.498 52.1428C156.951 51.5885 157.265 50.669 157.441 49.3841L161.629 49.0818C161.579 49.4597 161.491 50.2911 161.365 51.5759C161.264 52.8356 161.201 54.0323 161.176 55.166L160.799 55.6195C160.623 55.6699 160.208 55.7832 159.554 55.9596C158.9 56.1359 158.032 56.2997 156.951 56.4508C155.895 56.6272 154.775 56.7154 153.593 56.7154Z" fill="white"/>
<path d="M164.216 54.2212C165.071 54.0701 165.637 53.8433 165.914 53.541C166.191 53.2135 166.329 52.634 166.329 51.8027V41.3726C166.329 40.768 166.253 40.3649 166.103 40.1633C165.952 39.9618 165.662 39.861 165.235 39.861H164.367L164.103 39.5209L164.367 37.4046L168.291 37.4424C169.372 37.4424 170.479 37.4298 171.611 37.4046C172.767 37.3542 173.56 37.3165 173.987 37.2913L173.799 39.7476C173.094 39.8484 172.642 39.9996 172.441 40.2011C172.239 40.4027 172.126 40.8057 172.101 41.4104L171.912 45.1138L175.006 45.2272C176.263 45.2272 177.244 45.1768 177.949 45.076L177.986 41.3726C177.986 40.768 177.911 40.3649 177.76 40.1633C177.609 39.9618 177.307 39.861 176.854 39.861H175.987L175.723 39.5209L175.987 37.4046C175.987 37.4298 177.546 37.4424 180.665 37.4424C181.595 37.4424 182.589 37.4298 183.645 37.4046C184.702 37.3542 185.431 37.3165 185.833 37.2913L185.645 39.7098C184.89 39.8106 184.4 39.9618 184.173 40.1633C183.947 40.3397 183.809 40.7176 183.758 41.297C183.532 44.421 183.419 47.9859 183.419 51.9916C183.419 52.7474 183.507 53.2639 183.683 53.541C183.884 53.8181 184.211 53.9567 184.664 53.9567C184.89 53.9567 185.091 53.9441 185.267 53.9189C185.443 53.8937 185.557 53.8811 185.607 53.8811L185.871 54.1834L185.569 56.4508L180.514 56.4131L175.61 56.4508L175.836 54.0323C176.616 54.0323 177.156 53.8685 177.458 53.541C177.785 53.1883 177.949 52.5711 177.949 51.6893V48.5149L175.61 48.4771C175.006 48.5023 174.302 48.5527 173.497 48.6283C172.692 48.6787 172.126 48.7165 171.799 48.7417L171.761 51.9916C171.761 52.7978 171.837 53.3395 171.988 53.6166C172.139 53.8937 172.428 54.0323 172.856 54.0323C173.082 54.0323 173.283 54.0197 173.459 53.9945C173.635 53.9693 173.748 53.9441 173.799 53.9189L173.987 54.2212L173.723 56.5264C173.346 56.5264 172.679 56.5012 171.724 56.4508C170.793 56.4257 169.913 56.4131 169.083 56.4131C168.203 56.4131 167.222 56.4257 166.14 56.4508C165.059 56.5012 164.342 56.5516 163.99 56.602L164.216 54.2212Z" fill="white"/>
<path d="M190.023 54.1456C190.928 54.0701 191.595 53.9567 192.022 53.8055C192.45 53.6292 192.739 53.3773 192.89 53.0497C193.066 52.697 193.154 52.1806 193.154 51.5003V40.6546C192.399 40.6798 191.834 40.7932 191.456 40.9947C191.104 41.1711 190.853 41.5238 190.702 42.0528C190.551 42.5819 190.413 43.451 190.287 44.6603L186.816 44.8493C186.841 44.3958 186.891 43.4007 186.967 41.8639C187.042 40.3019 187.093 38.8407 187.118 37.4802L187.495 37.1023L191.041 37.4424H200.812L204.359 37.1023L204.774 37.4802C204.799 38.8659 204.837 40.3019 204.887 41.7883C204.937 43.2747 204.975 44.232 205 44.6603L201.529 44.8493C201.403 43.5392 201.265 42.6197 201.114 42.0906C200.963 41.5364 200.724 41.1711 200.397 40.9947C200.096 40.7932 199.58 40.6798 198.851 40.6546C198.7 43.5266 198.624 47.2804 198.624 51.916C198.624 52.6466 198.737 53.1631 198.964 53.4654C199.215 53.7677 199.655 53.9189 200.284 53.9189C200.661 53.9189 200.988 53.9063 201.265 53.8811C201.567 53.8559 201.768 53.8433 201.869 53.8433L202.02 53.9945L201.718 56.5642C201.24 56.539 200.397 56.5012 199.19 56.4508C197.983 56.4257 196.826 56.4131 195.719 56.4131C194.915 56.4131 193.833 56.4508 192.475 56.5264C191.117 56.602 190.224 56.6524 189.796 56.6776L190.023 54.1456Z" fill="white"/>
<path d="M52.8713 25.7804C51.1736 20.384 49.4081 15.0782 47.5746 9.86322H47.3029C47.3029 10.1126 47.2577 10.9402 47.1671 12.346C47.0766 13.7518 46.9974 14.9195 46.9295 15.8492C46.6578 19.6584 46.522 21.7104 46.522 22.0052C46.522 22.7307 46.8842 23.0935 47.6085 23.0935L48.7629 23.0595L48.9667 23.2296L48.5932 25.3723C46.6918 25.2816 45.3676 25.2362 44.6206 25.2362C44.1 25.2362 43.4662 25.2702 42.7192 25.3383C41.9949 25.4063 41.5082 25.463 41.2592 25.5083L41.4629 23.2976C42.1194 23.2296 42.5947 23.0255 42.889 22.6854C43.1832 22.3226 43.3983 21.7104 43.5341 20.8488C43.7378 19.0802 44.0094 16.4387 44.349 12.9242C44.7112 9.40973 44.8922 7.48244 44.8922 7.14233C44.8922 6.53013 44.7112 6.11066 44.349 5.88392C44.0094 5.65718 43.3304 5.49846 42.3118 5.40776L42.142 5.2037L42.4476 3.23105C44.3037 3.34442 45.7184 3.40111 46.6918 3.40111C47.1898 3.40111 48.3895 3.35576 50.2909 3.26506C51.1963 6.46211 52.4526 10.6228 54.0597 15.7471L54.6369 17.5157H54.9085C55.0444 17.0622 55.2254 16.4954 55.4518 15.8152C55.6782 15.1123 55.9158 14.364 56.1648 13.5704C57.3192 10.124 58.4171 6.72286 59.4583 3.3671C59.9337 3.3671 60.3185 3.37844 60.6127 3.40111L62.4123 3.43512L63.4648 3.40111C63.9402 3.40111 64.5514 3.37843 65.2983 3.33309C66.0453 3.28774 66.5886 3.24239 66.9281 3.19704L67.0639 3.33309L66.8602 5.37375C65.8869 5.46445 65.2191 5.6345 64.8569 5.88392C64.5174 6.13333 64.3476 6.56414 64.3476 7.17634C64.3476 7.87924 64.4382 9.67049 64.6193 12.5501C64.8004 15.407 64.9814 17.8785 65.1625 19.9645C65.2983 21.2116 65.4681 22.0505 65.6718 22.4813C65.8982 22.8895 66.283 23.0935 66.8262 23.0935C67.0752 23.0935 67.279 23.0822 67.4374 23.0595C67.6185 23.0368 67.7317 23.0255 67.7769 23.0255L67.9128 23.1956L67.6072 25.3383C67.2676 25.3383 66.9621 25.3269 66.6904 25.3043C65.6945 25.2589 64.8569 25.2362 64.1779 25.2362C63.5214 25.2362 62.65 25.2702 61.5634 25.3383C60.4996 25.4063 59.7639 25.463 59.3565 25.5083L59.5941 23.2976C60.2732 23.2069 60.7599 23.0368 61.0541 22.7874C61.3484 22.5153 61.4955 22.1185 61.4955 21.597C61.4955 21.5063 61.405 20.1006 61.2239 17.3797C60.9749 13.8198 60.8278 11.3144 60.7825 9.86322H60.4769C58.5755 15.1689 56.8099 20.3726 55.1802 25.4743L52.8713 25.7804Z" fill="white"/>
<path d="M81.4621 25.6444C80.4661 25.6444 79.6739 25.429 79.0853 24.9981C78.5194 24.5447 78.1799 23.8871 78.0667 23.0255L77.7951 22.9235C77.0708 23.6717 76.3691 24.2953 75.69 24.7941C75.0109 25.2702 74.4677 25.5083 74.0602 25.5083C72.7247 25.5083 71.6156 25.0435 70.7328 24.1139C69.85 23.1616 69.4086 21.9825 69.4086 20.5767C69.4086 19.8738 69.5897 19.273 69.9518 18.7741C70.314 18.2526 70.7894 17.9125 71.3779 17.7538L77.9309 16.2233L77.9649 15.407C77.9649 14.432 77.7046 13.6725 77.1839 13.1283C76.6633 12.5841 75.9503 12.312 75.0449 12.312C74.4337 12.312 73.766 12.4707 73.0416 12.7882C72.3399 13.0829 71.6835 13.4571 71.0723 13.9105L70.7667 13.7745L70.1895 11.7338C71.3213 11.099 72.5097 10.5094 73.7546 9.96525C74.9996 9.42107 75.8824 9.14898 76.403 9.14898C78.2818 9.14898 79.6852 9.57979 80.6133 10.4414C81.564 11.2803 82.0393 12.3914 82.0393 13.7745C82.0393 14.2733 81.9374 15.2937 81.7337 16.8355C81.4847 19.0349 81.3602 20.35 81.3602 20.7808C81.3602 21.2116 81.4734 21.5517 81.6998 21.8011C81.9261 22.0505 82.2204 22.1752 82.5826 22.1752C82.8542 22.1752 83.1371 22.1185 83.4314 22.0052C83.7483 21.8691 84.0086 21.7331 84.2123 21.597L84.7216 22.3113C84.3142 23.0368 83.8049 23.7397 83.1937 24.42C82.6052 25.0775 82.028 25.4856 81.4621 25.6444ZM75.3165 22.2773C75.656 22.2773 76.0522 22.1866 76.5049 22.0052C76.9802 21.8238 77.399 21.5857 77.7612 21.2909L77.863 18.0599L74.23 19.0802C73.6867 19.2163 73.4151 19.5904 73.4151 20.2026C73.4151 20.7921 73.5849 21.2909 73.9244 21.6991C74.2866 22.0845 74.7506 22.2773 75.3165 22.2773Z" fill="white"/>
<path d="M101.576 11.0876C100.376 11.201 99.5389 11.269 99.0636 11.2917L98.9278 11.4957C99.8332 12.4707 100.286 13.5931 100.286 14.8628C100.286 15.9965 99.969 17.0282 99.3352 17.9579C98.7014 18.8875 97.8299 19.6131 96.7208 20.1346C95.6116 20.6561 94.3667 20.9168 92.9859 20.9168C92.2389 20.9168 91.5032 20.8261 90.7789 20.6447C90.4846 20.8941 90.2696 21.1095 90.1338 21.2909C90.0206 21.4497 89.964 21.6197 89.964 21.8011C89.964 22.2319 90.2922 22.538 90.9487 22.7194C91.6051 22.9008 92.6463 23.0709 94.0724 23.2296C95.589 23.3883 96.834 23.5697 97.8073 23.7738C98.7806 23.9778 99.6181 24.3519 100.32 24.8961C101.044 25.4176 101.406 26.1659 101.406 27.1409C101.406 28.2065 100.976 29.2269 100.116 30.2018C99.256 31.1768 98.1355 31.9591 96.7547 32.5486C95.374 33.1608 93.9253 33.4669 92.4087 33.4669C90.5978 33.4669 89.1491 33.0248 88.0626 32.1405C86.9761 31.2789 86.4328 30.1225 86.4328 28.6713C87.0214 28.0591 88.1532 27.2315 89.8282 26.1885V25.9505C88.7417 25.7691 87.8928 25.3836 87.2817 24.7941C86.6932 24.1819 86.3763 23.411 86.331 22.4813C87.1459 21.6424 88.0739 20.8828 89.1152 20.2026V19.9985C88.3003 19.5224 87.6665 18.8875 87.2138 18.0939C86.7611 17.3003 86.5347 16.4047 86.5347 15.407C86.5347 14.228 86.8403 13.1623 87.4515 12.21C88.0626 11.235 88.9001 10.4754 89.964 9.93124C91.0279 9.38706 92.2276 9.11497 93.5631 9.11497C94.129 9.11497 94.7967 9.18299 95.5664 9.31904C96.2907 9.40973 96.7887 9.45508 97.0603 9.45508C97.8752 9.40973 99.4597 9.03561 101.814 8.33272L102.018 8.46876L101.576 11.0876ZM93.597 18.6721C94.4119 18.6721 95.0344 18.3887 95.4645 17.8218C95.9172 17.255 96.1436 16.4387 96.1436 15.373C96.1436 14.2393 95.8833 13.3323 95.3626 12.6521C94.8646 11.9719 94.1516 11.6318 93.2236 11.6318C92.4313 11.6318 91.8088 11.9152 91.3561 12.4821C90.926 13.0262 90.711 13.8539 90.711 14.9649C90.711 16.0759 90.96 16.9715 91.458 17.6518C91.9786 18.332 92.6916 18.6721 93.597 18.6721ZM91.9333 26.3926C91.5259 26.7327 91.209 27.1182 90.9826 27.549C90.7563 27.9798 90.6431 28.4106 90.6431 28.8414C90.6431 29.499 90.9034 30.0091 91.424 30.3719C91.9673 30.7574 92.7256 30.9501 93.6989 30.9501C94.8081 30.9501 95.7361 30.7007 96.4831 30.2018C97.2527 29.7257 97.6375 29.1362 97.6375 28.4333C97.6375 28.0705 97.5017 27.7757 97.2301 27.549C96.9585 27.3449 96.4265 27.1522 95.6343 26.9708C94.8647 26.8121 93.631 26.6193 91.9333 26.3926Z" fill="white"/>
<path d="M103.402 23.4677C104.058 23.3543 104.533 23.1389 104.828 22.8214C105.145 22.4813 105.303 21.9938 105.303 21.359V14.0126C105.303 13.287 105.201 12.7882 104.997 12.5161C104.794 12.244 104.42 12.1079 103.877 12.1079C103.719 12.1079 103.56 12.1193 103.402 12.142C103.243 12.1646 103.141 12.1873 103.096 12.21L103.3 10.2713C104.567 10.09 105.858 9.88589 107.171 9.65915C108.483 9.40973 109.332 9.23968 109.717 9.14898L110.023 9.69316C109.774 10.192 109.57 11.5638 109.411 13.8085C109.276 16.0306 109.208 18.6494 109.208 21.6651C109.208 22.2092 109.287 22.5947 109.445 22.8214C109.604 23.0482 109.875 23.1616 110.26 23.1616C110.464 23.1616 110.656 23.1502 110.838 23.1275C111.041 23.1049 111.177 23.0935 111.245 23.0935L111.347 23.2636L111.007 25.3383C110.758 25.3156 110.26 25.2929 109.513 25.2702C108.789 25.2476 108.042 25.2362 107.272 25.2362C106.571 25.2362 105.767 25.2816 104.862 25.3723C103.979 25.4856 103.402 25.565 103.13 25.6103L103.402 23.4677ZM106.967 6.22403C106.22 6.22403 105.643 6.00863 105.235 5.57782C104.828 5.14701 104.624 4.56882 104.624 3.84325C104.624 3.02699 104.862 2.36944 105.337 1.87061C105.835 1.37178 106.491 1.12237 107.306 1.12237C108.031 1.12237 108.597 1.34911 109.004 1.80259C109.411 2.2334 109.615 2.81158 109.615 3.53715C109.615 4.33075 109.366 4.97696 108.868 5.47579C108.393 5.97462 107.759 6.22403 106.967 6.22403Z" fill="white"/>
<path d="M117.9 25.6444C117.085 25.6444 116.338 25.5763 115.659 25.4403C115.002 25.3042 114.482 25.1682 114.097 25.0322C113.712 24.8734 113.474 24.7714 113.384 24.7261L113.18 24.386C113.271 23.7738 113.35 23.0595 113.418 22.2433C113.508 21.427 113.576 20.6447 113.621 19.8965L115.489 19.7264C115.512 22.0165 116.519 23.1616 118.511 23.1616C119.167 23.1616 119.71 23.0255 120.141 22.7534C120.571 22.4587 120.786 22.0959 120.786 21.6651C120.786 21.2116 120.559 20.8034 120.107 20.4407C119.654 20.0552 118.748 19.5337 117.39 18.8762C116.032 18.2413 115.047 17.5724 114.436 16.8695C113.825 16.1439 113.52 15.305 113.52 14.3527C113.52 13.3323 113.814 12.4367 114.402 11.6658C114.991 10.8722 115.817 10.26 116.881 9.82921C117.945 9.37572 119.156 9.14898 120.514 9.14898C121.17 9.14898 121.782 9.19433 122.347 9.28503C122.913 9.37572 123.355 9.47776 123.672 9.59113C124.011 9.68182 124.226 9.73851 124.317 9.76118L124.487 10.1013C124.441 10.3507 124.339 10.9176 124.181 11.8018C124.045 12.6635 123.932 13.5591 123.841 14.4887L121.94 14.6248L121.974 14.0126C121.974 13.219 121.782 12.6408 121.397 12.278C121.012 11.8925 120.412 11.6998 119.597 11.6998C119.009 11.6998 118.511 11.8472 118.103 12.142C117.696 12.414 117.492 12.7655 117.492 13.1963C117.492 13.6271 117.673 14.0239 118.035 14.3867C118.398 14.7495 118.997 15.1349 119.835 15.5431C121.17 16.1779 122.189 16.7448 122.891 17.2436C123.615 17.7425 124.113 18.2526 124.385 18.7741C124.679 19.273 124.826 19.8738 124.826 20.5767C124.826 21.5063 124.521 22.3566 123.909 23.1275C123.298 23.8985 122.461 24.5107 121.397 24.9641C120.333 25.4176 119.167 25.6444 117.9 25.6444Z" fill="white"/>
<path d="M134.34 25.6444C132.031 25.6444 130.209 24.9528 128.873 23.5697C127.538 22.1639 126.87 20.2479 126.87 17.8218C126.87 16.1439 127.221 14.6474 127.923 13.3323C128.624 12.0173 129.598 10.9969 130.843 10.2713C132.11 9.5231 133.536 9.14898 135.121 9.14898C135.868 9.14898 136.558 9.20567 137.192 9.31904C137.849 9.40973 138.358 9.51177 138.72 9.62514C139.105 9.71583 139.342 9.78386 139.433 9.82921L139.569 10.1353C139.546 10.2713 139.478 10.5888 139.365 11.0876C139.275 11.5638 139.173 12.1873 139.06 12.9582C138.946 13.7291 138.867 14.5341 138.822 15.373L136.649 15.5091V14.3867C136.649 13.6158 136.456 13.0262 136.072 12.6181C135.709 12.1873 135.189 11.9719 134.51 11.9719C133.446 11.9719 132.631 12.3687 132.065 13.1623C131.522 13.9332 131.25 15.0442 131.25 16.4954C131.25 18.3547 131.578 19.7831 132.235 20.7808C132.891 21.7784 133.819 22.2773 135.019 22.2773C135.585 22.2773 136.128 22.2092 136.649 22.0732C137.192 21.9145 137.634 21.7558 137.973 21.597C138.335 21.4383 138.562 21.3363 138.652 21.2909L138.89 21.393L139.433 23.1275C139.275 23.2636 138.912 23.5357 138.347 23.9438C137.781 24.3293 137.124 24.7147 136.377 25.1002C135.63 25.463 134.951 25.6444 134.34 25.6444Z" fill="white"/>
<path d="M141.327 23.2636C141.916 23.1956 142.323 23.0368 142.549 22.7874C142.798 22.5153 142.923 22.0619 142.923 21.427V4.8976C142.923 4.17203 142.821 3.6732 142.617 3.40111C142.414 3.12902 142.04 2.99298 141.497 2.99298H140.716L140.58 2.85693L140.784 1.08835C143.228 0.748244 145.515 0.385459 147.642 0L147.88 0.64621C147.654 0.895626 147.461 2.02933 147.303 4.04732C147.144 6.04264 147.02 8.71818 146.929 12.0739C147.654 11.371 148.48 10.7135 149.408 10.1013C150.359 9.46642 151.049 9.14898 151.479 9.14898C153.109 9.14898 154.365 9.53444 155.248 10.3054C156.131 11.0536 156.572 12.1306 156.572 13.5364C156.572 14.0806 156.47 15.271 156.267 17.1076C156.04 19.4203 155.927 20.9055 155.927 21.563C155.927 22.1526 156.006 22.572 156.165 22.8214C156.346 23.0709 156.629 23.1956 157.014 23.1956L158.032 23.1275L158.1 23.2636L157.795 25.3383L157.014 25.3043C155.701 25.2589 154.739 25.2362 154.128 25.2362C153.29 25.2362 152.034 25.3269 150.359 25.5083L150.528 23.3996C151.094 23.2863 151.502 23.0822 151.751 22.7874C152 22.4927 152.124 22.0619 152.124 21.495L152.26 15.6111C152.283 13.6384 151.547 12.6521 150.053 12.6521C149.668 12.6521 149.17 12.7882 148.559 13.0603C147.971 13.3097 147.416 13.6498 146.895 14.0806C146.85 15.3957 146.827 17.9125 146.827 21.6311C146.827 22.1979 146.907 22.5947 147.065 22.8214C147.224 23.0482 147.484 23.1616 147.846 23.1616L148.729 23.1275L148.797 23.2976L148.457 25.3383C148.163 25.3383 147.937 25.3269 147.778 25.3043C146.465 25.2589 145.469 25.2362 144.79 25.2362C143.477 25.2362 142.221 25.2702 141.021 25.3383L141.327 23.2636Z" fill="white"/>
<path d="M37.5915 88.2023C37.6886 86.8908 37.8789 83.9964 38.1622 79.5192C38.4691 75.051 38.7327 70.6607 38.9532 66.3482C39.0025 65.5848 38.8272 64.9511 38.4273 64.4471C38.0364 63.9196 37.3874 63.4685 36.4803 63.0937L36.4638 62.9255L37.2902 61.5025C37.5956 61.6195 38.1504 61.8592 38.9545 62.2214C39.7911 62.5692 40.5853 62.8871 41.3369 63.1753C42.1121 63.4724 43.1048 63.7991 44.3153 64.1552C45.5582 64.4968 46.3765 64.7162 46.7703 64.8132L46.7816 65.1008L46.1148 66.4232C44.8104 66.031 43.9109 65.848 43.4161 65.8742C42.9449 65.9093 42.6104 66.1857 42.4126 66.7033C42.2328 67.1739 41.9203 69.8596 41.4751 74.7603C41.039 79.6375 40.7501 82.9661 40.6086 84.7462L40.9257 84.8678C48.6726 76.2922 52.6899 71.628 52.9775 70.875C53.1663 70.3809 53.1133 69.956 52.8183 69.6001C52.5324 69.2207 51.9549 68.8644 51.0858 68.5313L49.2536 67.8289L49.2371 67.6607L50.0284 66.2241C50.3247 66.3647 50.9762 66.6684 51.9828 67.1352C53.0128 67.611 54.0093 68.0335 54.9724 68.4028C55.8415 68.7359 56.6446 69.0304 57.3818 69.286C58.1424 69.5506 58.6447 69.7162 58.8886 69.7827L57.9729 71.3335C57.2358 71.0778 56.6858 71.0019 56.323 71.1056C55.9602 71.2093 55.5193 71.5528 55.0002 72.136L40.1431 88.2904L37.5915 88.2023Z" fill="white"/>
<path d="M55.4076 92.1501C56.1582 92.2581 56.7038 92.1467 57.0445 91.8158C57.3913 91.4605 57.7065 90.7081 57.9901 89.5586L59.9817 81.4877C60.1808 80.6806 60.2128 80.0786 60.0775 79.6818C59.9423 79.285 59.6305 79.0261 59.1422 78.9052C58.9468 78.8569 58.7729 78.8268 58.6204 78.815C58.4922 78.8092 58.4008 78.8125 58.3459 78.8249L58.2261 78.5227L58.6166 77.4127C59.5867 77.4712 60.6146 77.5051 61.7005 77.5144C62.8107 77.5298 63.5214 77.5371 63.8325 77.5362L64.0345 77.8198C63.9314 78.0279 63.7314 78.5233 63.4346 79.3062C63.1438 80.0647 62.9231 80.8016 62.7725 81.5169L62.8918 81.6632C63.908 80.6951 64.9949 79.965 66.1525 79.4731C67.3346 78.9873 68.2919 78.835 69.0244 79.0164C69.3662 79.101 69.6166 79.1889 69.7754 79.2802C69.9647 79.353 70.0808 79.4077 70.1236 79.4442L70.1972 79.6181C70.0639 79.9485 69.773 80.655 69.3245 81.7377C68.9064 82.802 68.5705 83.7958 68.3167 84.7192L66.8612 84.4756C67.1087 83.4728 67.1984 82.7943 67.1303 82.4401C67.0927 82.0675 66.8786 81.8328 66.488 81.7361C65.9508 81.6031 65.3197 81.6934 64.5946 82.007C63.8756 82.2961 63.1662 82.7562 62.4664 83.3875C62.2669 84.0907 61.9284 85.2525 61.4508 86.873C60.9732 88.4936 60.5985 89.8022 60.3267 90.7989C60.1215 91.6304 60.1048 92.2232 60.2765 92.5771C60.4482 92.931 60.8759 93.1926 61.5596 93.3619C61.877 93.4405 62.1974 93.5069 62.5209 93.561C62.8443 93.6151 63.0671 93.6573 63.1891 93.6875L63.1896 93.8433L62.4616 95.3759C62.2175 95.3155 61.7322 95.1823 61.0057 94.9765C60.2793 94.7707 59.5254 94.5711 58.7441 94.3776C57.8407 94.154 57.0197 93.9637 56.2812 93.8068C55.5367 93.6743 55.0637 93.5962 54.8624 93.5723L55.4076 92.1501Z" fill="white"/>
<path d="M71.5959 96.0705C72.3724 95.9879 72.9512 95.785 73.3324 95.4621C73.7175 95.1143 73.9604 94.6168 74.0611 93.9696L75.5376 84.4855C75.7469 83.1413 75.3918 82.3974 74.4723 82.2538C74.2984 82.2266 74.1081 82.2224 73.9016 82.2411C73.6989 82.235 73.5708 82.2404 73.5172 82.2576L73.8814 80.8993C74.9483 80.913 76.0479 80.8808 77.1801 80.8027C78.3371 80.7284 79.083 80.6792 79.4176 80.655L79.5343 81.1322C79.2292 81.62 78.7805 83.1945 78.188 85.8557C77.5994 88.492 77.0764 91.2789 76.6191 94.2162C76.5068 94.9381 76.5228 95.4888 76.6674 95.8683C76.8158 96.223 77.1261 96.4372 77.5983 96.511C77.8716 96.5537 78.1345 96.582 78.3869 96.5959C78.6393 96.6098 78.8151 96.6245 78.9145 96.6401L78.9658 96.8011L78.4177 98.3601C78.1979 98.3002 77.7793 98.2094 77.1619 98.0874C76.5445 97.9655 75.8631 97.8463 75.1176 97.7298C74.4715 97.6289 73.7163 97.5747 72.852 97.5671C72.0125 97.5635 71.4647 97.5672 71.2084 97.5781L71.5959 96.0705ZM77.9416 75.9113C77.37 75.822 76.9518 75.5654 76.6869 75.1416C76.4219 74.7177 76.3301 74.2444 76.4115 73.7217C76.5045 73.1243 76.7952 72.647 77.2835 72.2898C77.7758 71.9077 78.3325 71.7652 78.9538 71.8622C79.5253 71.9515 79.9436 72.2081 80.2085 72.632C80.4734 73.0558 80.5652 73.5291 80.4838 74.0518C80.3908 74.6493 80.0982 75.139 79.606 75.5211C79.1176 75.8783 78.5628 76.0083 77.9416 75.9113Z" fill="white"/>
<path d="M89.2757 76.5232C88.7243 76.4777 88.2875 76.2648 87.9655 75.8843C87.6685 75.5059 87.5438 75.028 87.5913 74.4505C87.6428 73.8228 87.8992 73.3131 88.3604 72.9214C88.8216 72.5297 89.3656 72.3596 89.9922 72.4113C90.5186 72.4547 90.9418 72.6792 91.2618 73.0848C91.5838 73.4652 91.7221 73.9317 91.6767 74.4841C91.6251 75.1118 91.3687 75.6215 90.9075 76.0132C90.4463 76.4049 89.9024 76.5749 89.2757 76.5232ZM82.7397 107.229L82.8396 106.934C84.0062 105.943 84.8322 104.797 85.3175 103.498C85.8279 102.2 86.1894 100.258 86.402 97.6719L87.3615 85.9965C87.4255 85.2182 87.3561 84.6816 87.1532 84.3868C86.9774 84.0689 86.6013 83.8862 86.0247 83.8387C85.7991 83.8201 85.5851 83.8151 85.3825 83.8237C85.2049 83.8343 85.0775 83.8491 85.0003 83.868L85.2652 82.4869C86.228 82.4399 87.2963 82.3384 88.4699 82.1824C89.6436 82.0264 90.409 81.9252 90.7661 81.8788L90.917 82.3463C90.431 83.0393 89.7371 88.8719 88.8354 99.8443C88.6868 101.652 88.138 103.263 87.1891 104.676C86.2402 106.089 84.963 107.197 83.3576 108L82.7397 107.229Z" fill="white"/>
<path d="M102.563 100.256C100.853 100.249 99.6467 99.9041 98.9453 99.221C98.2439 98.5127 97.8967 97.3272 97.9035 95.6644L97.9416 86.3681C97.9444 85.6879 97.7955 85.2086 97.4948 84.9303C97.1941 84.6519 96.6289 84.4984 95.799 84.4698L95.649 84.2424L95.8423 83.1095C96.5731 82.7598 97.2791 82.3344 97.9602 81.8334C98.6666 81.3072 99.2344 80.856 99.6635 80.4799C100.118 80.0787 100.408 79.8153 100.534 79.6899L101.288 79.9953C101.262 80.1212 101.223 80.4233 101.171 80.9018C101.119 81.3803 101.053 82.0224 100.974 82.8283L106.52 82.7378L106.633 82.8516L106.285 84.8531L100.816 84.7172C100.628 87.4877 100.527 90.6365 100.513 94.1635C100.508 95.4484 100.718 96.3562 101.143 96.887C101.594 97.418 102.36 97.6856 103.441 97.6901C103.818 97.6917 104.196 97.6428 104.573 97.5436C104.951 97.4444 105.266 97.3449 105.518 97.2452C105.77 97.1202 105.934 97.0453 106.009 97.0204L106.382 98.0045C106.231 98.1299 105.903 98.3679 105.399 98.7185C104.919 99.0692 104.39 99.4198 103.81 99.7701C103.255 100.095 102.839 100.257 102.563 100.256Z" fill="white"/>
<path d="M111.307 98.2916C112.024 98.1395 112.504 97.8986 112.748 97.5688C113.016 97.2364 113.113 96.7194 113.039 96.0179L110.927 76.0252C110.856 75.3487 110.692 74.8721 110.435 74.5953C110.175 74.2935 109.808 74.1677 109.333 74.2181L108.545 74.3016L108.383 74.2048L108.406 72.9863C109.246 72.796 110.193 72.5436 111.247 72.2292C112.299 71.8897 113.164 71.5826 113.843 71.308L114.12 71.7727C113.974 72.0668 113.941 73.4257 114.02 75.8494C114.124 78.2705 114.311 81.2401 114.581 84.7582C117.226 82.5018 118.999 81.3259 119.899 81.2305C121.525 81.0582 122.833 81.3502 123.823 82.1066C124.814 82.863 125.39 84.0053 125.551 85.5336C125.604 86.0346 125.638 87.1964 125.654 89.0188C125.738 91.9739 125.817 93.8022 125.892 94.5037C125.968 95.2303 126.125 95.7583 126.362 96.0879C126.597 96.3924 126.952 96.5194 127.427 96.4691L128.732 96.2547L128.823 96.3971L128.694 98.0449C127.035 98.1447 125.918 98.225 125.343 98.286C124.342 98.392 123.07 98.6789 121.526 99.1465L121.513 97.5898C122.243 97.3099 122.75 96.9648 123.035 96.5545C123.318 96.1192 123.425 95.5758 123.356 94.9244L122.795 87.4597C122.663 86.207 122.286 85.2716 121.664 84.6535C121.068 84.0327 120.269 83.7753 119.269 83.8813C118.643 83.9476 117.889 84.2302 117.006 84.7292C116.148 85.2254 115.387 85.8001 114.722 86.4532C114.944 89.2672 115.228 92.3152 115.574 95.5972C115.656 96.3739 115.815 96.9144 116.049 97.2189C116.281 97.4984 116.647 97.6116 117.147 97.5585L118.452 97.3442L118.543 97.4866L118.376 99.1383C116.643 99.2461 115.501 99.3291 114.951 99.3874C113.875 99.5014 112.64 99.6577 111.244 99.8562L111.307 98.2916Z" fill="white"/>
<path d="M141.481 95.7028C140.086 96.034 138.769 95.9842 137.529 95.5535C136.29 95.1227 135.22 94.3671 134.318 93.2867C133.435 92.1759 132.804 90.8238 132.427 89.2304C132.021 87.5144 132.017 85.8583 132.415 84.2622C132.831 82.6357 133.592 81.264 134.698 80.1471C135.798 79.0057 137.143 78.2461 138.734 77.8684C140.104 77.543 141.409 77.5957 142.648 78.0265C143.912 78.4514 144.986 79.2192 145.869 80.33C146.771 81.4104 147.41 82.7474 147.787 84.3408C148.193 86.0568 148.188 87.728 147.772 89.3545C147.374 90.9506 146.625 92.3194 145.525 93.4608C144.42 94.5778 143.071 95.3251 141.481 95.7028ZM142.082 93.6569C143.453 93.3315 144.411 92.5214 144.958 91.2265C145.498 89.9071 145.543 88.2914 145.09 86.3792C144.748 84.9329 144.223 83.6982 143.516 82.6751C142.803 81.6276 141.967 80.881 141.008 80.4354C140.075 79.9839 139.106 79.8773 138.102 80.1156C136.732 80.4409 135.776 81.2633 135.236 82.5827C134.695 83.9021 134.654 85.5301 135.112 87.4668C135.454 88.9131 135.979 90.1478 136.686 91.1709C137.394 92.1939 138.214 92.9312 139.148 93.3826C140.076 93.8095 141.054 93.901 142.082 93.6569Z" fill="white"/>
<path d="M155.118 90.1308C156.404 89.4643 156.834 88.525 156.409 87.3129L153.03 77.6874C152.806 77.1253 152.51 76.8154 152.143 76.7577C151.792 76.6679 151.169 76.7538 150.274 77.0155L150.057 76.8518L149.88 75.5519L151.878 74.4076L151.828 74.265C151.111 72.221 150.817 70.3215 150.947 68.5664C151.101 66.803 151.642 65.3041 152.568 64.0698C153.518 62.8271 154.824 61.9133 156.484 61.3283C157.196 61.0775 157.865 60.8952 158.492 60.7813C159.142 60.6591 159.654 60.5989 160.028 60.6007C160.417 60.5704 160.668 60.5624 160.779 60.5765L160.963 60.8722C160.934 61.0161 160.88 61.3557 160.801 61.8908C160.738 62.3938 160.695 62.9563 160.673 63.5781L160.32 63.823C160.2 63.7851 159.912 63.7261 159.458 63.6459C159.027 63.5574 158.469 63.5267 157.786 63.5538C157.126 63.5726 156.452 63.7032 155.764 63.9456C154.411 64.422 153.595 65.3238 153.314 66.6511C153.025 67.9546 153.249 69.7318 153.986 71.9826L154.564 73.742C155.798 73.3074 156.849 72.9236 157.719 72.5906C158.588 72.2576 159.161 72.029 159.438 71.905L159.582 71.9743L159.889 73.9891C159.62 74.0573 159.054 74.2299 158.192 74.507C157.353 74.7758 156.34 75.1191 155.154 75.537L158.779 86.3178C159.012 86.9833 159.33 87.4322 159.731 87.6647C160.148 87.865 160.665 87.8565 161.282 87.6392C161.852 87.4386 162.31 87.2638 162.658 87.1146C163.029 86.9572 163.274 86.8575 163.392 86.8157L163.514 86.9333L163.803 88.554C163.471 88.671 162.861 88.8722 161.975 89.1577C161.089 89.4431 160.219 89.7363 159.365 90.0372C158.534 90.3297 157.72 90.6299 156.921 90.9378C156.155 91.2612 155.658 91.4765 155.429 91.5839L155.118 90.1308Z" fill="white"/>
</svg>
