<svg width="187" height="115" viewBox="0 0 187 115" fill="none" xmlns="http://www.w3.org/2000/svg">
<rect width="186.37" height="114.18" fill="#A40700"/>
<path d="M52.8671 47.36C52.0271 47.36 51.2371 47.28 50.4971 47.12C49.7571 46.96 49.1671 46.8 48.7271 46.64C48.3071 46.48 48.0371 46.37 47.9171 46.31L47.7671 45.95C47.8071 45.83 47.8871 45.53 48.0071 45.05C48.1471 44.57 48.2971 43.95 48.4571 43.19C48.6171 42.41 48.7471 41.61 48.8471 40.79L50.5871 40.61C50.4871 41.51 50.4371 42.21 50.4371 42.71C50.4371 43.79 50.6571 44.53 51.0971 44.93C51.5371 45.31 52.3371 45.5 53.4971 45.5C54.6771 45.5 55.6371 45.21 56.3771 44.63C57.1171 44.03 57.4871 43.26 57.4871 42.32C57.4871 41.64 57.2171 41.05 56.6771 40.55C56.1571 40.03 55.3771 39.48 54.3371 38.9C53.2571 38.28 52.4171 37.77 51.8171 37.37C51.2371 36.97 50.7271 36.46 50.2871 35.84C49.8471 35.2 49.6271 34.47 49.6271 33.65C49.6271 32.51 49.9471 31.47 50.5871 30.53C51.2471 29.59 52.1471 28.85 53.2871 28.31C54.4271 27.77 55.6971 27.5 57.0971 27.5C57.8971 27.5 58.6571 27.56 59.3771 27.68C60.0971 27.78 60.6671 27.89 61.0871 28.01C61.5271 28.13 61.8071 28.21 61.9271 28.25L62.0171 28.49C61.9371 28.77 61.7571 29.4 61.4771 30.38C61.2171 31.36 60.9771 32.43 60.7571 33.59L59.1971 33.74L58.9871 33.56C59.0271 33.42 59.0871 33.14 59.1671 32.72C59.2471 32.3 59.2871 31.93 59.2871 31.61C59.2871 30.85 59.0671 30.31 58.6271 29.99C58.1871 29.67 57.4371 29.51 56.3771 29.51C55.3571 29.51 54.4971 29.79 53.7971 30.35C53.0971 30.89 52.7471 31.56 52.7471 32.36C52.7471 32.92 52.9271 33.42 53.2871 33.86C53.6671 34.3 54.2071 34.75 54.9071 35.21L56.3171 36.05C57.2771 36.57 58.0571 37.05 58.6571 37.49C59.2571 37.91 59.7571 38.42 60.1571 39.02C60.5771 39.6 60.7871 40.27 60.7871 41.03C60.7871 42.25 60.4571 43.34 59.7971 44.3C59.1371 45.26 58.2071 46.01 57.0071 46.55C55.8071 47.09 54.4271 47.36 52.8671 47.36ZM62.038 52.7C62.518 52.66 62.868 52.5 63.088 52.22C63.328 51.96 63.538 51.46 63.718 50.72C63.938 49.84 64.368 47.33 65.008 43.19C65.648 39.03 65.968 36.66 65.968 36.08C65.968 35.68 65.868 35.39 65.668 35.21C65.488 35.03 65.178 34.94 64.738 34.94H63.568L63.808 33.53C65.408 33.53 67.148 33.46 69.028 33.32L69.358 33.71C68.598 35.89 68.028 38.05 67.648 40.19L67.798 40.28C68.778 38.3 69.638 36.75 70.378 35.63C71.138 34.51 71.918 33.62 72.718 32.96C73.758 32.96 74.588 33.39 75.208 34.25C75.828 35.11 76.138 36.25 76.138 37.67C76.138 39.15 75.808 40.63 75.148 42.11C74.488 43.59 73.648 44.81 72.628 45.77C71.608 46.71 70.578 47.18 69.538 47.18L66.658 46.76L66.058 50.93C66.038 51.05 66.028 51.22 66.028 51.44C66.028 51.8 66.118 52.05 66.298 52.19C66.498 52.33 66.838 52.4 67.318 52.4H68.578L68.608 52.58L68.368 53.84C66.128 53.84 63.938 53.91 61.798 54.05L62.038 52.7ZM72.208 35.78C71.768 35.78 71.078 36.59 70.138 38.21C69.198 39.81 68.238 41.84 67.258 44.3C67.738 44.56 68.288 44.77 68.908 44.93C69.548 45.09 70.088 45.17 70.528 45.17C70.988 45.17 71.438 44.87 71.878 44.27C72.338 43.67 72.708 42.9 72.988 41.96C73.268 41 73.408 40.04 73.408 39.08C73.408 38.22 73.288 37.46 73.048 36.8C72.808 36.12 72.528 35.78 72.208 35.78ZM81.7571 47.36C80.6171 47.36 79.7071 46.9 79.0271 45.98C78.3471 45.06 78.0071 43.82 78.0071 42.26C78.0071 40.6 78.3271 39.06 78.9671 37.64C79.6071 36.22 80.4671 35.09 81.5471 34.25C82.6271 33.39 83.8071 32.96 85.0871 32.96C86.2871 32.96 87.2171 33.37 87.8771 34.19C88.5571 35.01 88.8971 36.17 88.8971 37.67C88.8971 39.43 88.5771 41.05 87.9371 42.53C87.3171 44.01 86.4571 45.19 85.3571 46.07C84.2571 46.93 83.0571 47.36 81.7571 47.36ZM82.9571 45.41C83.8771 45.41 84.6171 44.85 85.1771 43.73C85.7371 42.59 86.0171 41.08 86.0171 39.2C86.0171 37.92 85.8271 36.92 85.4471 36.2C85.0671 35.48 84.5271 35.12 83.8271 35.12C82.9271 35.12 82.1971 35.65 81.6371 36.71C81.0771 37.75 80.7971 39.13 80.7971 40.85C80.7971 42.25 80.9871 43.36 81.3671 44.18C81.7671 45 82.2971 45.41 82.9571 45.41ZM104.103 43.88C102.923 45.08 101.963 45.96 101.223 46.52C100.503 47.06 99.9234 47.33 99.4834 47.33C98.7234 47.33 98.3434 46.98 98.3434 46.28C98.3434 45.9 98.4334 45.38 98.6134 44.72C98.7934 44.04 99.0534 43.14 99.3934 42.02C99.7534 40.86 100.033 39.9 100.233 39.14C100.433 38.36 100.533 37.76 100.533 37.34C100.533 37 100.443 36.72 100.263 36.5C100.103 36.28 99.8934 36.17 99.6334 36.17C99.0734 36.17 98.3134 36.9 97.3534 38.36C96.4134 39.82 95.4634 41.73 94.5034 44.09L94.2034 46.4C94.1634 46.56 93.8634 46.75 93.3034 46.97C92.7434 47.17 92.2534 47.27 91.8334 47.27L91.5334 46.91C91.8934 44.87 92.2434 42.68 92.5834 40.34C92.9434 38 93.1434 36.6 93.1834 36.14C93.2034 35.72 93.1134 35.42 92.9134 35.24C92.7134 35.04 92.3934 34.94 91.9534 34.94H90.8134L91.0534 33.53C92.2134 33.53 93.9534 33.46 96.2734 33.32L96.5434 33.74C96.2434 34.64 95.9434 35.71 95.6434 36.95C95.3434 38.19 95.1034 39.32 94.9234 40.34L95.0734 40.4C96.0134 38.48 96.9534 36.89 97.8934 35.63C98.8534 34.35 99.7634 33.46 100.623 32.96C101.403 32.96 102.043 33.24 102.543 33.8C103.063 34.34 103.323 35.04 103.323 35.9C103.323 36.4 103.223 37.01 103.023 37.73C102.823 38.45 102.483 39.56 102.003 41.06C101.443 42.68 101.093 43.83 100.953 44.51L101.043 44.63C101.183 44.63 101.373 44.54 101.613 44.36C101.873 44.16 102.413 43.69 103.233 42.95L103.683 43.01L104.103 43.88ZM106.769 42.62C106.769 43.54 107.009 44.26 107.489 44.78C107.989 45.3 108.679 45.56 109.559 45.56C110.079 45.56 110.529 45.4 110.909 45.08C111.289 44.74 111.479 44.33 111.479 43.85C111.479 43.43 111.319 43.04 110.999 42.68C110.679 42.3 110.199 41.87 109.559 41.39C108.619 40.65 107.909 40 107.429 39.44C106.969 38.88 106.739 38.21 106.739 37.43C106.739 36.63 106.969 35.89 107.429 35.21C107.889 34.51 108.509 33.96 109.289 33.56C110.089 33.16 110.939 32.96 111.839 32.96C112.539 32.96 113.189 33.07 113.789 33.29C114.409 33.49 114.879 33.78 115.199 34.16C114.839 35.16 114.439 36.04 113.999 36.8H113.519C113.299 36.18 112.969 35.7 112.529 35.36C112.109 35.02 111.629 34.85 111.089 34.85C110.629 34.85 110.249 34.99 109.949 35.27C109.649 35.55 109.499 35.9 109.499 36.32C109.499 36.84 109.799 37.38 110.399 37.94C110.719 38.22 111.089 38.53 111.509 38.87C112.369 39.53 113.029 40.15 113.489 40.73C113.949 41.29 114.179 41.95 114.179 42.71C114.179 43.51 113.929 44.27 113.429 44.99C112.949 45.71 112.289 46.29 111.449 46.73C110.629 47.15 109.749 47.36 108.809 47.36C107.829 47.36 106.999 47.21 106.319 46.91C105.639 46.59 105.209 46.16 105.029 45.62C105.149 45.14 105.329 44.6 105.569 44C105.829 43.38 106.059 42.92 106.259 42.62H106.769ZM120.136 47.36C118.996 47.36 118.086 46.9 117.406 45.98C116.726 45.06 116.386 43.82 116.386 42.26C116.386 40.6 116.706 39.06 117.346 37.64C117.986 36.22 118.846 35.09 119.926 34.25C121.006 33.39 122.186 32.96 123.466 32.96C124.666 32.96 125.596 33.37 126.256 34.19C126.936 35.01 127.276 36.17 127.276 37.67C127.276 39.43 126.956 41.05 126.316 42.53C125.696 44.01 124.836 45.19 123.736 46.07C122.636 46.93 121.436 47.36 120.136 47.36ZM121.336 45.41C122.256 45.41 122.996 44.85 123.556 43.73C124.116 42.59 124.396 41.08 124.396 39.2C124.396 37.92 124.206 36.92 123.826 36.2C123.446 35.48 122.906 35.12 122.206 35.12C121.306 35.12 120.576 35.65 120.016 36.71C119.456 37.75 119.176 39.13 119.176 40.85C119.176 42.25 119.366 43.36 119.746 44.18C120.146 45 120.676 45.41 121.336 45.41ZM129.822 46.91C130.002 45.91 130.322 44 130.782 41.18C131.242 38.34 131.472 36.67 131.472 36.17C131.472 35.73 131.372 35.42 131.172 35.24C130.992 35.04 130.682 34.94 130.242 34.94H129.072L129.312 33.53C130.152 33.53 131.142 33.5 132.282 33.44C133.422 33.38 134.172 33.34 134.532 33.32L134.832 33.74C134.732 34.08 134.522 34.83 134.202 35.99C133.882 37.15 133.612 38.31 133.392 39.47L133.512 39.5C134.352 37.64 135.272 36.12 136.272 34.94C137.292 33.76 138.202 33.14 139.002 33.08C139.182 33.18 139.342 33.39 139.482 33.71C139.622 34.03 139.702 34.36 139.722 34.7C139.702 35.1 139.642 35.49 139.542 35.87C139.462 36.25 139.372 36.57 139.272 36.83C139.192 37.07 139.142 37.22 139.122 37.28L138.462 37.34C138.342 36.92 138.112 36.71 137.772 36.71C137.092 36.71 136.302 37.3 135.402 38.48C134.522 39.66 133.692 41.24 132.912 43.22L132.492 46.4C132.452 46.56 132.152 46.75 131.592 46.97C131.032 47.17 130.542 47.27 130.122 47.27L129.822 46.91ZM71.1915 88C70.2315 88 69.3215 88.04 68.4615 88.12C67.6215 88.2 67.0815 88.26 66.8415 88.3L67.2615 86.71C68.0215 86.59 68.5615 86.35 68.8815 85.99C69.2015 85.63 69.4115 85.02 69.5115 84.16L71.0115 71.95C71.0515 71.59 71.0715 71.36 71.0715 71.26C71.0715 70.9 71.0015 70.66 70.8615 70.54C70.7215 70.4 70.4915 70.33 70.1715 70.33C69.9715 70.33 69.7715 70.34 69.5715 70.36C69.3915 70.38 69.2715 70.39 69.2115 70.39C69.2115 70.37 69.2015 70.35 69.1815 70.33C69.1615 70.29 69.1515 70.26 69.1515 70.24L69.5415 68.77L70.3215 68.8C71.3615 68.84 72.2715 68.86 73.0515 68.86C73.5715 68.86 74.2415 68.83 75.0615 68.77C75.8815 68.69 76.4215 68.63 76.6815 68.59L76.3515 70.18C75.7115 70.28 75.2615 70.39 75.0015 70.51C74.7415 70.63 74.5415 70.85 74.4015 71.17C74.2615 71.47 74.1215 72.01 73.9815 72.79C73.6615 74.51 73.2815 76.84 72.8415 79.78C72.4015 82.72 72.1815 84.44 72.1815 84.94C72.1815 85.5 72.3115 85.87 72.5715 86.05C72.8515 86.23 73.3915 86.32 74.1915 86.32C75.2715 86.32 76.0815 86.22 76.6215 86.02C77.1815 85.8 77.6215 85.4 77.9415 84.82C78.2815 84.22 78.6215 83.27 78.9615 81.97L80.7315 81.79L80.8215 81.97C80.7215 82.31 80.5115 83.08 80.1915 84.28C79.8715 85.46 79.5615 86.71 79.2615 88.03L79.0515 88.27C78.5115 88.23 77.3715 88.17 75.6315 88.09C73.9115 88.03 72.4315 88 71.1915 88ZM85.6536 88.36C84.5136 88.36 83.6036 87.9 82.9236 86.98C82.2436 86.06 81.9036 84.82 81.9036 83.26C81.9036 81.6 82.2236 80.06 82.8636 78.64C83.5036 77.22 84.3636 76.09 85.4436 75.25C86.5236 74.39 87.7036 73.96 88.9836 73.96C90.1836 73.96 91.1136 74.37 91.7736 75.19C92.4536 76.01 92.7936 77.17 92.7936 78.67C92.7936 80.43 92.4736 82.05 91.8336 83.53C91.2136 85.01 90.3536 86.19 89.2536 87.07C88.1536 87.93 86.9536 88.36 85.6536 88.36ZM86.8536 86.41C87.7736 86.41 88.5136 85.85 89.0736 84.73C89.6336 83.59 89.9136 82.08 89.9136 80.2C89.9136 78.92 89.7236 77.92 89.3436 77.2C88.9636 76.48 88.4236 76.12 87.7236 76.12C86.8236 76.12 86.0936 76.65 85.5336 77.71C84.9736 78.75 84.6936 80.13 84.6936 81.85C84.6936 83.25 84.8836 84.36 85.2636 85.18C85.6636 86 86.1936 86.41 86.8536 86.41ZM96.2699 95.23C95.3699 95.23 94.5199 95.04 93.7199 94.66C92.9399 94.3 92.3299 93.82 91.8899 93.22C91.4299 92.62 91.2199 91.99 91.2599 91.33L91.3499 91.12C92.3499 90.36 94.1599 89.23 96.7799 87.73L96.8099 87.49C96.2699 87.19 95.8499 86.7 95.5499 86.02C95.2699 85.32 95.1299 84.5 95.1299 83.56C95.1299 82.08 95.4599 80.61 96.1199 79.15C96.7999 77.67 97.6599 76.46 98.6999 75.52C99.7599 74.58 100.82 74.11 101.88 74.11L104.76 74.62L105.06 73.9L105.3 73.81L106.83 74.23L107.13 74.62C105.87 77 105.15 78.99 104.97 80.59C104.91 81.03 104.85 81.69 104.79 82.57C104.75 83.43 104.72 84.05 104.7 84.43C104.68 84.83 104.64 85.41 104.58 86.17C104.54 86.93 104.5 87.47 104.46 87.79C104.34 88.91 103.83 90.05 102.93 91.21C102.05 92.37 100.99 93.33 99.7499 94.09C98.5299 94.85 97.3699 95.23 96.2699 95.23ZM98.8799 85.06C99.2999 85.06 99.9499 84.33 100.83 82.87C101.73 81.41 102.73 79.44 103.83 76.96C102.63 76.36 101.67 76.06 100.95 76.06C100.45 76.06 99.9599 76.35 99.4799 76.93C98.9999 77.51 98.6099 78.27 98.3099 79.21C98.0099 80.13 97.8599 81.07 97.8599 82.03C97.8599 82.85 97.9599 83.56 98.1599 84.16C98.3599 84.76 98.5999 85.06 98.8799 85.06ZM97.4099 93.1C98.6499 93.1 99.6899 92.67 100.53 91.81C101.37 90.95 101.88 89.77 102.06 88.27L102.81 82.24L102.54 82.18C101.56 83.94 100.78 85.21 100.2 85.99C99.6199 86.75 98.9899 87.37 98.3099 87.85L96.6299 88.99C95.7299 89.61 95.0899 90.06 94.7099 90.34C94.3299 90.62 94.1399 90.84 94.1399 91C94.1399 91.32 94.2999 91.64 94.6199 91.96C94.9399 92.3 95.3499 92.57 95.8499 92.77C96.3699 92.99 96.8899 93.1 97.4099 93.1ZM111.962 88.36C110.822 88.36 109.912 87.9 109.232 86.98C108.552 86.06 108.212 84.82 108.212 83.26C108.212 81.6 108.532 80.06 109.172 78.64C109.812 77.22 110.672 76.09 111.752 75.25C112.832 74.39 114.012 73.96 115.292 73.96C116.492 73.96 117.422 74.37 118.082 75.19C118.762 76.01 119.102 77.17 119.102 78.67C119.102 80.43 118.782 82.05 118.142 83.53C117.522 85.01 116.662 86.19 115.562 87.07C114.462 87.93 113.262 88.36 111.962 88.36ZM113.162 86.41C114.082 86.41 114.822 85.85 115.382 84.73C115.942 83.59 116.222 82.08 116.222 80.2C116.222 78.92 116.032 77.92 115.652 77.2C115.272 76.48 114.732 76.12 114.032 76.12C113.132 76.12 112.402 76.65 111.842 77.71C111.282 78.75 111.002 80.13 111.002 81.85C111.002 83.25 111.192 84.36 111.572 85.18C111.972 86 112.502 86.41 113.162 86.41Z" fill="white"/>
</svg>
