<svg width="154" height="179" viewBox="0 0 154 179" fill="none" xmlns="http://www.w3.org/2000/svg">
<path d="M117.468 123.726C124.433 101.853 115.783 78.7729 97.7443 66.424C97.2593 66.8056 96.6611 67.0587 96.0495 67.1412C114.076 78.9073 122.842 101.704 115.95 123.193C107.716 149.011 80.0617 163.241 54.2437 155.007C28.4257 146.774 14.1666 119.19 22.4292 93.3011C29.2064 72.0961 49.1671 58.712 70.3581 59.2065C69.7772 58.8058 69.3534 58.2211 69.1003 57.623C47.6792 57.696 27.8163 71.4501 20.9529 92.868C12.4737 119.495 27.1547 148.075 53.7818 156.555C80.4089 165.034 108.989 150.353 117.468 123.726Z" fill="white"/>
<path d="M90.7672 65.9089C111.188 76.2502 121.697 100.249 114.473 122.76C106.514 147.698 79.6854 161.519 54.7475 153.56C29.8095 145.6 15.9876 118.772 23.9473 93.8339C31.1711 71.3232 53.6338 57.8794 76.2898 61.2802L71.3931 59.7086C71.0384 59.5648 70.6837 59.4211 70.3578 59.2064C49.1668 58.7119 29.206 72.096 22.4289 93.3011C14.195 119.119 28.4254 146.773 54.2434 155.007C80.0614 163.241 107.716 149.011 115.95 123.193C122.842 101.704 114.076 78.9072 96.0492 67.1411C95.5086 67.2524 94.8548 67.2352 94.2873 67.0052L90.7672 65.9089Z" fill="white"/>
<path d="M84.1959 41.7719C85.1044 38.919 88.1392 37.3408 90.9921 38.2493C93.845 39.1578 95.4232 42.1925 94.5147 45.0454C93.8228 47.1602 91.9115 48.6156 89.7642 48.819L92.4753 49.67C94.1278 48.8531 95.4563 47.4093 96.062 45.5073C97.2158 41.8454 95.187 37.8846 91.525 36.7308C87.863 35.577 83.9022 37.6058 82.7484 41.2678C82.1428 43.1697 82.3615 45.0754 83.2781 46.6858L85.9891 47.5367C84.2328 46.1642 83.5462 43.9863 84.1959 41.7719Z" fill="white"/>
<path d="M94.5854 45.0742C95.4939 42.2213 93.9157 39.1865 91.0628 38.278C88.2099 37.3696 85.1751 38.9477 84.2667 41.8006C83.5747 43.9154 84.3035 46.193 85.9601 47.6077L89.9059 48.8765C91.9822 48.6443 93.8648 47.2599 94.5854 45.0742ZM88.2224 47.1205C86.1786 46.4573 85.0798 44.2776 85.7142 42.3047C86.3486 40.3318 88.5571 39.1621 90.53 39.7965C92.5738 40.4597 93.6726 42.6394 93.0382 44.6123C92.375 46.6561 90.2662 47.7837 88.2224 47.1205Z" fill="white"/>
<path d="M70.3876 55.6673L73.0842 47.1795C73.4158 46.1576 74.5699 45.5517 75.5918 45.8833L85.1725 48.9403C84.3652 48.2828 83.6865 47.5121 83.2071 46.6571L76.2666 44.4223C74.2937 43.7879 72.1849 44.9154 71.5792 46.8173L68.9266 54.9926C68.6525 55.8726 68.6909 56.7967 69.0284 57.5942C69.6113 57.5827 70.1941 57.5711 70.8191 57.6593C70.3666 57.1455 70.171 56.4055 70.3876 55.6673Z" fill="white"/>
<path d="M89.6156 50.4102L98.9125 53.3522C99.9344 53.6838 100.54 54.8379 100.209 55.8598L97.5121 64.3476C97.3818 64.8729 96.9677 65.2832 96.4692 65.4941C96.937 65.7663 97.3761 66.1095 97.8439 66.3817C98.4287 65.9579 98.858 65.306 99.0746 64.5679L101.599 56.5057C102.233 54.5329 101.106 52.4241 99.2037 51.8184L92.547 49.6986C91.621 50.1492 90.6107 50.4005 89.6156 50.4102Z" fill="white"/>
<path d="M83.674 63.034C81.1758 62.2692 78.691 61.6751 76.191 61.3226L90.6683 65.9513C88.5132 64.7475 86.1722 63.7987 83.674 63.034Z" fill="white"/>
<path d="M70.3571 59.2065C72.4181 59.2159 74.4925 59.3959 76.5804 59.7466L71.6837 58.175C71.3999 58.06 71.074 57.8453 70.819 57.6593C70.2361 57.6709 69.6821 57.6115 69.0283 57.5943C69.3524 58.2212 69.7761 58.8059 70.3571 59.2065Z" fill="white"/>
<path d="M94.934 65.6151L91.343 64.4901C92.988 65.322 94.5334 66.1961 96.0212 67.212C96.6328 67.1295 97.231 66.8764 97.716 66.4948C97.2769 66.1517 96.8091 65.8795 96.3413 65.6073C95.9712 65.7051 95.4594 65.7454 94.934 65.6151Z" fill="white"/>
<path d="M76.582 59.7465C74.4941 59.3959 72.4197 59.2159 70.3587 59.2065C70.6846 59.4212 71.0106 59.6359 71.394 59.7087L76.2907 61.2803C78.7908 61.6329 81.2756 62.2269 83.7738 62.9917C86.272 63.7564 88.5843 64.7761 90.839 65.9377L94.4301 67.0628C95.0263 67.2219 95.5804 67.2812 96.192 67.1987C94.6754 66.2537 93.1588 65.3087 91.5137 64.4767L76.582 59.7465Z" fill="white"/>
<path d="M89.6158 50.4103C90.6108 50.4006 91.6212 50.1494 92.4762 49.67L89.8361 48.8477C89.1536 48.9015 88.4289 48.8555 87.7195 48.568C86.9813 48.3515 86.4004 47.9508 85.8194 47.5502L83.1793 46.728C83.6587 47.583 84.3088 48.4246 85.1447 49.0112L89.6158 50.4103Z" fill="white"/>
<path d="M87.7197 48.5683C88.4578 48.7848 89.1538 48.9017 89.8363 48.848L85.8905 47.5792C86.4428 48.0508 87.0525 48.3805 87.7197 48.5683Z" fill="white"/>
<path d="M72.3602 56.7141C72.0765 56.5991 71.879 56.2713 71.994 55.9875L74.5469 47.8544C74.6619 47.5707 74.9897 47.3732 75.2735 47.4882L98.2386 54.8135C98.5224 54.9285 98.7199 55.2564 98.6049 55.5401L95.981 63.6444C95.866 63.9282 95.5382 64.1257 95.2544 64.0107L91.9759 62.9297C93.479 63.7041 94.9534 64.5495 96.3991 65.4657C96.8976 65.2548 97.2407 64.8157 97.442 64.3191L100.139 55.8314C100.47 54.8095 99.9352 53.6841 98.8424 53.3238L89.5455 50.3818C88.7921 50.4068 87.9964 50.3321 87.1873 50.0868C86.3782 49.8414 85.6976 49.483 85.0744 48.9826L75.4938 45.9256C74.4719 45.5941 73.3466 46.1291 72.9862 47.2219L70.2895 55.7097C70.073 56.4478 70.2686 57.1879 70.7499 57.6307C72.7821 57.711 74.7856 57.8623 76.8735 58.2129L72.3602 56.7141Z" fill="white"/>
<path d="M91.3426 64.4902L94.9337 65.6152C95.459 65.7455 95.9709 65.7052 96.3697 65.5365C94.924 64.6202 93.4496 63.7748 91.9464 63.0004L76.9725 58.1705C74.9556 57.8486 72.8811 57.6686 70.8489 57.5883C71.0751 57.8452 71.3301 58.0311 71.7136 58.1039L76.6103 59.6756C79.1813 60.0568 81.6661 60.6509 84.2352 61.4444C86.6759 62.351 89.0879 63.3286 91.3426 64.4902Z" fill="white"/>
<path d="M84.2072 61.5155C81.709 60.7507 79.1533 60.1279 76.5823 59.7466L91.3434 64.4903C89.0886 63.3287 86.6767 62.3511 84.2072 61.5155Z" fill="white"/>
<path d="M87.2584 50.1153C88.0675 50.3606 88.8632 50.4353 89.6166 50.4103L85.1456 49.0112C85.7687 49.5115 86.4493 49.87 87.2584 50.1153Z" fill="white"/>
<path d="M90.1262 38.146L92.8216 36.1825C95.6454 34.1059 109.933 24.1216 115.187 28.4808C116.986 29.9531 117.402 32.1866 116.326 34.2285C113.229 40.2412 102.222 41.314 93.3491 38.9567L90.1262 38.146ZM112.647 30.6724C110.532 29.9805 104.752 32.0153 97.5667 36.7016C106.572 38.1214 112.272 35.0629 113.504 32.8369C113.891 32.0853 113.809 31.4737 113.115 30.9446C113.002 30.8162 112.86 30.7587 112.647 30.6724Z" fill="white"/>
<path d="M92.4543 38.9242L89.3752 37.7588C80.7761 34.5215 72.4087 27.2484 73.3916 20.5438C73.7575 18.2143 75.3563 16.7149 77.6742 16.498C84.4995 15.9606 90.2949 32.4327 91.4455 35.7072L92.4543 38.9242ZM78.4127 19.7707C78.1999 19.6844 78.0292 19.6978 77.8586 19.7113C77.0055 19.7785 76.5914 20.1888 76.4879 21.0554C76.1354 23.5555 78.9945 29.3394 87.1776 33.3993C84.0729 25.3684 80.5562 20.3916 78.4127 19.7707Z" fill="white"/>
<path d="M91.5289 38.2163C91.9718 38.3578 92.5186 37.8849 92.7502 37.1601C92.9817 36.4352 92.8104 35.7329 92.3674 35.5914C91.9245 35.4499 91.3777 35.9228 91.1461 36.6476C90.9146 37.3725 91.0859 38.0748 91.5289 38.2163Z" fill="white"/>
<path d="M47.2219 102.153C48.0981 102.371 48.9533 101.96 49.3242 101.215L53.9063 102.314L49.8409 104.868L50.359 105.629L55.2205 102.64L57.6123 103.196L53.5469 105.75L54.065 106.511L58.9265 103.522L61.3183 104.078L57.2529 106.632L57.771 107.393L62.6325 104.404L63.651 104.611C63.3234 106.269 63.6001 107.965 64.3997 109.391L63.5795 109.885L57.979 108.579L57.7616 109.455L62.4269 110.52L60.3231 111.802L54.7225 110.496L54.5051 111.373L59.1704 112.437L57.0666 113.719L51.466 112.414L51.2487 113.29L55.9139 114.354L51.8725 116.849C51.2825 116.265 50.2993 116.142 49.5623 116.601C48.6591 117.13 48.381 118.326 48.9342 119.17C49.4635 120.074 50.6594 120.352 51.5035 119.798C52.2405 119.339 52.541 118.428 52.3075 117.645L56.3489 115.15L55.2846 119.816L56.1607 120.033L57.4663 114.432L59.5702 113.15L58.5059 117.815L59.382 118.033L60.6876 112.432L62.7915 111.15L61.7272 115.815L62.6033 116.032L63.9089 110.432L64.729 109.938C65.6357 111.269 67.0059 112.307 68.6511 112.836L68.4098 113.771L63.5482 116.76L64.0663 117.52L68.1317 114.967L67.5756 117.359L62.714 120.347L63.2321 121.108L67.2975 118.555L66.7414 120.946L61.8798 123.935L62.3979 124.696L66.4633 122.142L65.3638 126.724C64.534 126.732 63.7491 127.31 63.5318 128.186C63.3256 129.204 63.9492 130.215 64.9437 130.48C65.9621 130.686 66.9725 130.062 67.2378 129.068C67.4551 128.192 67.0442 127.337 66.2991 126.966L67.3986 122.384L69.9522 126.449L70.7132 125.931L67.7246 121.069L68.2807 118.678L70.8343 122.743L71.5953 122.225L68.6068 117.363L69.1629 114.972L71.7165 119.037L72.4775 118.519L69.4889 113.657L69.7063 112.781C71.3882 113.05 73.0844 112.773 74.5104 111.973L75.0045 112.793L73.6989 118.394L74.575 118.611L75.6393 113.946L76.9218 116.05L75.6161 121.651L76.4923 121.868L77.5566 117.203L78.839 119.306L77.5333 124.907L78.4095 125.124L79.4738 120.459L81.9683 124.5C81.3848 125.09 81.2618 126.074 81.7207 126.811C82.2499 127.714 83.4458 127.992 84.2899 127.439C85.1932 126.91 85.4712 125.714 84.918 124.87C84.4591 124.133 83.5478 123.832 82.7644 124.066L80.2699 120.024L84.9352 121.088L85.1526 120.212L79.552 118.907L78.2696 116.803L82.9348 117.867L83.1522 116.991L77.5516 115.685L76.2692 113.582L80.9345 114.646L81.1518 113.77L75.5513 112.464L75.0572 111.644C76.4128 110.678 77.3911 109.284 77.861 107.615L78.8554 107.88L81.844 112.742L82.6641 112.248L80.1345 108.123L82.5263 108.679L85.5148 113.541L86.3349 113.047L83.8053 108.922L86.1971 109.478L89.2432 114.707L90.0633 114.213L87.5337 110.089L92.1158 111.188C92.1239 112.018 92.7012 112.803 93.5773 113.02C94.5717 113.286 95.5821 112.662 95.8714 111.608C96.1367 110.614 95.513 109.604 94.4594 109.314C93.5833 109.097 92.728 109.508 92.3572 110.253L87.775 109.153L91.8996 106.624L91.4055 105.804L86.5439 108.792L84.1522 108.236L88.2767 105.707L87.7826 104.886L82.9211 107.875L80.5293 107.319L84.6538 104.789L84.1597 103.969L79.2982 106.958L78.2798 106.751C78.5482 105.07 78.2475 103.432 77.424 102.066L78.3512 101.477L83.9518 102.783L84.1691 101.907L79.5278 100.783L81.6317 99.5008L87.2322 100.806L87.4496 99.9303L82.8083 98.8068L84.9121 97.5244L90.5127 98.83L90.4327 98.1778L85.7914 97.0543L89.8328 94.5598C90.4228 95.1433 91.406 95.2663 92.143 94.8074C93.0463 94.2781 93.3243 93.0822 92.7711 92.2382C92.2418 91.3349 91.0459 91.0568 90.2018 91.6101C89.4648 92.069 89.1644 92.9803 89.3979 93.7637L85.3564 96.2582L86.4799 91.6169L85.6038 91.3995L84.2981 97.0001L82.1943 98.2825L83.3178 93.6412L82.4416 93.4238L81.136 99.0244L79.0322 100.307L80.1556 95.6655L79.2795 95.4482L77.9739 101.049L76.9875 101.613C76.0569 100.341 74.7458 99.3272 73.1358 98.8813L73.3899 97.7446L78.2514 94.756L77.7573 93.9359L73.6328 96.4655L74.1889 94.0737L79.0505 91.0852L78.5564 90.2651L74.4318 92.7947L74.9528 90.3198L79.8143 87.3312L79.3202 86.5111L75.2548 89.0647L76.3543 84.4826C77.1841 84.4745 77.969 83.8973 78.1863 83.0212C78.4516 82.0267 77.828 81.0164 76.7744 80.7271C75.78 80.4618 74.7696 81.0854 74.4803 82.139C74.263 83.0152 74.6739 83.8704 75.419 84.2413L74.3195 88.8234L71.7899 84.6989L70.9698 85.193L73.9583 90.0545L73.4613 92.4703L70.9669 88.4289L70.1468 88.923L73.1353 93.7845L72.5792 96.1763L70.0495 92.0517L69.2294 92.5458L72.218 97.4073L71.9639 98.5441C70.282 98.2757 68.6449 98.5764 67.2428 99.3167L66.6544 98.3895L67.9601 92.789L67.0839 92.5716L65.9604 97.2129L64.7963 95.157L66.102 89.5565L65.2258 89.3391L64.1024 93.9804L62.82 91.8766L64.1256 86.276L63.2495 86.0587L62.126 90.7L59.6315 86.6585C60.215 86.0685 60.338 85.0853 59.8791 84.3483C59.3498 83.4451 58.1539 83.167 57.3099 83.7203C56.4066 84.2495 56.1285 85.4454 56.6818 86.2895C57.1407 87.0265 58.052 87.327 58.8354 87.0935L61.3298 91.1349L56.6886 90.0114L56.4712 90.8876L62.0718 92.1932L63.3542 94.297L58.7129 93.1736L58.4955 94.0497L64.0961 95.3553L65.3785 97.4592L60.7372 96.3357L60.4 97.5076L66.0006 98.8133L66.589 99.7405C65.2573 100.647 64.303 101.982 63.7388 103.544L62.7204 103.338L59.7318 98.4765L58.9709 98.9946L61.5245 103.06L59.0735 102.48L56.085 97.6184L55.324 98.1364L57.8776 102.202L55.4858 101.646L52.4973 96.7842L51.7363 97.3022L54.2899 101.368L49.7078 100.268C49.6997 99.4384 49.1225 98.6534 48.2463 98.4361C47.2279 98.23 46.2176 98.8536 45.9523 99.848C45.5447 100.854 46.2275 101.888 47.2219 102.153ZM64.137 104.601L67.7247 105.435C67.6512 105.956 67.72 106.466 67.9311 106.965L64.7929 108.93C64.1469 107.635 63.8574 106.141 64.137 104.601ZM65.2278 109.726L68.366 107.761C68.6842 108.166 69.1095 108.476 69.6419 108.692L68.8077 112.279C67.34 111.822 66.0641 110.892 65.2278 109.726ZM69.6838 112.497L70.518 108.909C71.0392 108.982 71.5732 108.854 72.072 108.643L74.0372 111.782C72.7183 112.487 71.2235 112.776 69.6838 112.497ZM74.7742 111.323L72.809 108.184C73.2134 107.866 73.5475 107.382 73.6802 106.885L77.2679 107.719C76.8699 109.211 75.9635 110.427 74.7742 111.323ZM77.4852 106.843L73.8975 106.008C73.8879 105.522 73.8191 105.012 73.584 104.573L76.6982 102.667C77.3922 103.843 77.6817 105.338 77.4852 106.843ZM76.2041 101.847L73.066 103.812C72.7238 103.467 72.3576 103.18 71.8844 102.989L72.7186 99.4009C74.2103 99.7989 75.427 100.705 76.2041 101.847ZM71.9016 99.2076L71.0674 102.795C70.6054 102.746 70.0954 102.815 69.6797 102.99L67.7145 99.8523C68.9503 99.1823 70.4211 98.9519 71.9016 99.2076ZM66.8944 100.346L68.8004 103.461C68.4791 103.744 68.1098 104.145 67.942 104.559L64.3543 103.725C64.8466 102.34 65.753 101.123 66.8944 100.346Z" fill="white"/>
</svg>
