<svg width="111" height="128" viewBox="0 0 111 128" fill="none" xmlns="http://www.w3.org/2000/svg">
<circle cx="55.0926" cy="72.9073" r="55.0926" fill="white"/>
<mask id="mask0_832:6638" style="mask-type:alpha" maskUnits="userSpaceOnUse" x="0" y="17" width="111" height="111">
<circle cx="55.0926" cy="72.9073" r="55.0926" fill="white"/>
</mask>
<g mask="url(#mask0_832:6638)">
<path d="M74.6785 51.5444C74.7027 51.5444 74.7223 51.5248 74.7223 51.5007V51.5007C74.7223 51.4766 74.7027 51.457 74.6785 51.457V51.457C74.6544 51.457 74.6348 51.4766 74.6348 51.5007V51.5007C74.6348 51.5248 74.6544 51.5444 74.6785 51.5444V51.5444Z" fill="#A40700"/>
<path d="M75.5824 51.5444C75.6065 51.5444 75.6262 51.5248 75.6262 51.5007V51.5007C75.6262 51.4766 75.6065 51.457 75.5824 51.457V51.457C75.5583 51.457 75.5386 51.4766 75.5386 51.5007V51.5007C75.5386 51.5248 75.5583 51.5444 75.5824 51.5444V51.5444Z" fill="#A40700"/>
<path d="M75.131 50.9786C75.1551 50.9786 75.1747 50.959 75.1747 50.9349V50.9349C75.1747 50.9108 75.1551 50.8912 75.131 50.8912V50.8912C75.1068 50.8912 75.0872 50.9108 75.0872 50.9349V50.9349C75.0872 50.959 75.1068 50.9786 75.131 50.9786V50.9786Z" fill="#A40700"/>
<path d="M60.8383 51.5335C60.8625 51.5335 60.8821 51.5139 60.8821 51.4898C60.8821 51.4656 60.8625 51.4461 60.8383 51.4461C60.8141 51.4461 60.7945 51.4656 60.7945 51.4898C60.7945 51.5139 60.8141 51.5335 60.8383 51.5335Z" fill="#A40700"/>
<path d="M61.7422 51.5335C61.7663 51.5335 61.7859 51.5139 61.7859 51.4898C61.7859 51.4656 61.7663 51.4461 61.7422 51.4461C61.718 51.4461 61.6984 51.4656 61.6984 51.4898C61.6984 51.5139 61.718 51.5335 61.7422 51.5335Z" fill="#A40700"/>
<path d="M61.2902 50.9675C61.3144 50.9675 61.3345 50.9481 61.3345 50.924C61.3345 50.8998 61.3149 50.8802 61.2907 50.8802C61.2666 50.8802 61.247 50.8998 61.247 50.924C61.247 50.9481 61.2661 50.9675 61.2902 50.9675Z" fill="#A40700"/>
<path d="M46.5399 76.6988L46.0591 77.5886V86.7837H90.3619V77.5886L89.8812 76.6988V74.6596L89.4373 74.0293V72.0644V70.9521H89.2859V68.2455L88.5067 67.8376L88.1728 66.5029L87.8759 67.6893V66.0579V65.6872H77.1527V63.1289V59.792V57.4561V56.5292H76.9301L75.1305 52.5249L73.3309 56.5292H73.1454L73.141 57.4561L73.1356 58.5887L73.1299 59.792L73.114 63.1289L73.1083 64.3153L68.2105 59.4212L63.3127 64.3153V59.792V57.4561V56.5292H63.0901L61.2905 52.5249L59.4909 56.5292H59.2683V57.4561V58.6426V59.792V63.1289V65.6872H48.5451V66.0579V67.6893L48.2483 66.5029L47.9143 67.8376L47.1351 68.2455V70.9521H46.9837V72.0644V74.0293L46.5399 74.6596V76.6988Z" fill="#A40700"/>
<path d="M59.2683 65.6872H48.5451M59.2683 65.6872V57.4561M59.2683 65.6872V63.1289V59.792V58.6426V57.4561M48.5451 65.6872V66.0579M48.5451 65.6872V63.9075M48.2483 66.5029L47.9143 67.8376L47.1351 68.2455V70.9521H46.9837V72.0644V74.0293L46.5399 74.6596V76.6988L46.0591 77.5886V86.7837H90.3619V77.5886L89.8812 76.6988V74.6596L89.4373 74.0293V72.0644V70.9521H89.2859V68.2455L88.5067 67.8376L88.1728 66.5029M48.2483 66.5029L48.5451 67.6893V66.0579M48.2483 66.5029V66.0579M48.2483 65.7984V66.0579M48.5451 66.0579H48.2483M47.9885 66.0579H48.2483M48.9389 64.3308H48.151M87.8759 65.6872H77.1527V63.1289V59.792M87.8759 65.6872V66.0579M87.8759 65.6872V63.9075M88.1728 66.5029L87.8759 67.6893V66.0579M88.1728 66.5029V66.0579M88.1728 65.7984V66.0579M87.8759 66.0579H88.1728M88.4325 66.0579H88.1728M87.482 64.3308H88.2698M63.3127 66.1692V64.3153M73.1083 66.1692V64.3153M59.2683 56.5292H59.4909L61.2905 52.5249M59.2683 56.5292H58.9344M59.2683 56.5292V57.4561M63.3127 56.5292H63.6838M63.3127 56.5292V57.4561V59.792M63.3127 56.5292H63.0901L61.2905 52.5249M61.2905 52.5249L61.2902 51.4866M77.1527 56.5292H76.9301L75.1305 52.5249L73.3309 56.5292H73.1454M77.1527 56.5292H77.5238M77.1527 56.5292V57.4561V59.792M73.1454 56.5292H72.7744M73.1454 56.5292L73.141 57.4561L73.1356 58.5887L73.1299 59.792M68.2105 59.4212L73.1083 64.3153M68.2105 59.4212L63.3127 64.3153M68.2105 59.4212V58.3831M73.1083 64.3153L73.114 63.1289L73.1299 59.792M63.3127 64.3153V59.792M68.2105 58.3831V57.864M68.2105 58.3831H68.6187M68.2105 58.3831H67.8024M63.2756 58.6426V59.792H63.3127M73.1299 59.792H72.7373M77.1156 58.6426V59.792H77.1527M63.6466 59.792H63.3127M77.4866 59.792H77.1527M75.1305 52.5357V51.4975M75.1305 51.4975V50.9785M75.1305 51.4975H75.5386M75.1305 51.4975H74.7223M75.1305 51.4975L75.6262 51.4975M61.2902 51.4866V50.9675M61.2902 51.4866H61.6984M61.2902 51.4866H60.8821M61.2902 51.4866L61.7859 51.4866M61.2902 50.9675C61.2661 50.9675 61.247 50.9481 61.247 50.924C61.247 50.8998 61.2666 50.8802 61.2907 50.8802C61.3149 50.8802 61.3345 50.8998 61.3345 50.924C61.3345 50.9481 61.3144 50.9675 61.2902 50.9675ZM61.6984 51.4898C61.6984 51.5139 61.718 51.5335 61.7422 51.5335C61.7663 51.5335 61.7859 51.5139 61.7859 51.4898C61.7859 51.4656 61.7663 51.4461 61.7422 51.4461C61.718 51.4461 61.6984 51.4656 61.6984 51.4898ZM60.7945 51.4898C60.7945 51.5139 60.8141 51.5335 60.8383 51.5335C60.8625 51.5335 60.8821 51.5139 60.8821 51.4898C60.8821 51.4656 60.8625 51.4461 60.8383 51.4461C60.8141 51.4461 60.7945 51.4656 60.7945 51.4898ZM75.0872 50.9349V50.9349C75.0872 50.9108 75.1068 50.8912 75.131 50.8912V50.8912C75.1551 50.8912 75.1747 50.9108 75.1747 50.9349V50.9349C75.1747 50.959 75.1551 50.9786 75.131 50.9786V50.9786C75.1068 50.9786 75.0872 50.959 75.0872 50.9349ZM75.5386 51.5007V51.5007C75.5386 51.4766 75.5583 51.457 75.5824 51.457V51.457C75.6065 51.457 75.6262 51.4766 75.6262 51.5007V51.5007C75.6262 51.5248 75.6065 51.5444 75.5824 51.5444V51.5444C75.5583 51.5444 75.5386 51.5248 75.5386 51.5007ZM74.6348 51.5007V51.5007C74.6348 51.4766 74.6544 51.457 74.6785 51.457V51.457C74.7027 51.457 74.7223 51.4766 74.7223 51.5007V51.5007C74.7223 51.5248 74.7027 51.5444 74.6785 51.5444V51.5444C74.6544 51.5444 74.6348 51.5248 74.6348 51.5007Z" stroke="#A40700" stroke-width="0.1"/>
<path fill-rule="evenodd" clip-rule="evenodd" d="M30.7899 77.6889L34.7472 80.3255V86.9467H30.7899H15.5906H1.80078C1.56 86 1.56 86 1.28906 84.8311H6.29785C5.82035 82.6043 4.27767 81.3053 2.40442 81.4166C1.80496 81.4671 1.23522 81.672 0.741417 81.9906C0.5 80.5 0.5 80.5 0.332031 79.0413H15.5906V74.6717L23.1903 62.7357L30.7899 74.6717V77.6889ZM11.1095 81.4537C13.0195 81.2311 14.5622 82.5301 15.1132 84.8311H7.84052C7.91399 83.1239 9.38321 81.6393 11.1095 81.4537Z" fill="#A40700"/>
<path d="M39.2846 43.4803V43.5693H40.0618H40.1511H40.9159V43.4803H39.2846Z" fill="#A40700"/>
<path d="M45.408 86.948V83.4158V72.2341L44.5924 69.2453L44.1846 69.2459V59.6041V58.32V57.3603H43.9127V58.32H42.6893V52.0992V50.9138L42.3244 51.2788L40.1511 44.9691L40.1511 43.5693H40.0618L40.0613 44.9691L37.8888 51.2788L37.5238 50.9138L37.4115 50.6202L37.4115 49.7284H37.3224L37.3217 50.6202L36.7069 52.7654V58.32H36.3003V57.3603H36.0285V56.8333L35.4131 54.6882L35.4131 53.7963H35.324L35.3232 54.6882L34.7085 56.8333V83.4158H34.5332V86.948L45.408 86.948Z" fill="#A40700"/>
<path d="M91.0114 86.9387H108.375C108.999 85.0018 109.998 79.51 110.044 76.9281L110.172 74.794L108.433 72.4808L106.8 72.481L106.8 70.3031L107.018 70.0853H105.494L105.711 70.3031L105.711 72.481H102.445V70.3032L102.662 70.0853H101.138L101.356 70.3032V72.481H98.089V70.3032L98.3069 70.0853H96.7825L97.0001 70.3032V72.481L95.3669 72.4808L91.6488 76.2919H90.4669L91.0114 77.0541L91.0114 86.9387Z" fill="#A40700"/>
<path d="M15.7946 84.8074H108.904L108.386 86.9484H15.7946V84.8074Z" fill="#A40700"/>
</g>
<path d="M8.50005 60.9446L8.67675 61.4884L9.24857 61.4884L8.78596 61.8245L8.96266 62.3683L8.50005 62.0322L8.03744 62.3683L8.21414 61.8245L7.75153 61.4884L8.32335 61.4884L8.50005 60.9446Z" fill="#A40700"/>
<path d="M32.1111 56.2223L32.2878 56.7661L32.8597 56.7661L32.397 57.1022L32.5737 57.6461L32.1111 57.3099L31.6485 57.6461L31.8252 57.1022L31.3626 56.7661L31.9344 56.7661L32.1111 56.2223Z" fill="#A40700"/>
<path d="M81.2223 25.0557L81.399 25.5996L81.9709 25.5996L81.5082 25.9357L81.6849 26.4795L81.2223 26.1434L80.7597 26.4795L80.9364 25.9357L80.4738 25.5996L81.0456 25.5996L81.2223 25.0557Z" fill="#A40700"/>
<path d="M16.3704 37.3335L16.5471 37.8773L17.1189 37.8773L16.6563 38.2134L16.833 38.7573L16.3704 38.4212L15.9078 38.7573L16.0845 38.2134L15.6219 37.8773L16.1937 37.8773L16.3704 37.3335Z" fill="#A40700"/>
<path d="M35.2593 27.889L35.436 28.4329L36.0078 28.4329L35.5452 28.769L35.7219 29.3128L35.2593 28.9767L34.7967 29.3128L34.9734 28.769L34.5108 28.4329L35.0826 28.4329L35.2593 27.889Z" fill="#A40700"/>
<path d="M43.4445 40.4816L43.6212 41.0255L44.193 41.0255L43.7304 41.3616L43.9071 41.9054L43.4445 41.5693L42.9819 41.9054L43.1586 41.3616L42.696 41.0255L43.2678 41.0255L43.4445 40.4816Z" fill="#A40700"/>
<path d="M57.2964 21.5928L57.4731 22.1366L58.045 22.1366L57.5823 22.4727L57.759 23.0165L57.2964 22.6804L56.8338 23.0165L57.0105 22.4727L56.5479 22.1366L57.1197 22.1366L57.2964 21.5928Z" fill="#A40700"/>
<path d="M99.7964 48.3521L99.9731 48.8959L100.545 48.8959L100.082 49.232L100.259 49.7759L99.7964 49.4398L99.3338 49.7759L99.5105 49.232L99.0479 48.8959L99.6197 48.8959L99.7964 48.3521Z" fill="#A40700"/>
<path d="M94.7593 35.1298L94.936 35.6737L95.5078 35.6737L95.0452 36.0098L95.2219 36.5536L94.7593 36.2175L94.2967 36.5536L94.4734 36.0098L94.0108 35.6737L94.5826 35.6737L94.7593 35.1298Z" fill="#A40700"/>
<path d="M88.7779 56.2223L88.9546 56.7661L89.5264 56.7661L89.0638 57.1022L89.2405 57.6461L88.7779 57.3099L88.3153 57.6461L88.492 57.1022L88.0294 56.7661L88.6012 56.7661L88.7779 56.2223Z" fill="#A40700"/>
<path d="M107.667 62.5187L107.843 63.0625L108.415 63.0625L107.953 63.3986L108.129 63.9424L107.667 63.6063L107.204 63.9424L107.381 63.3986L106.918 63.0625L107.49 63.0625L107.667 62.5187Z" fill="#A40700"/>
<path d="M66.7409 38.9075L66.9176 39.4513L67.4894 39.4513L67.0268 39.7874L67.2035 40.3312L66.7409 39.9951L66.2783 40.3312L66.455 39.7874L65.9924 39.4513L66.5642 39.4513L66.7409 38.9075Z" fill="#A40700"/>
<path d="M80.9075 45.2039L81.0842 45.7477L81.656 45.7477L81.1934 46.0839L81.3701 46.6277L80.9075 46.2916L80.4449 46.6277L80.6216 46.0839L80.159 45.7477L80.7308 45.7477L80.9075 45.2039Z" fill="#A40700"/>
<path d="M56.9816 48.8242L57.1583 49.368L57.7301 49.368L57.2675 49.7042L57.4442 50.248L56.9816 49.9119L56.519 50.248L56.6957 49.7042L56.2331 49.368L56.8049 49.368L56.9816 48.8242Z" fill="#A40700"/>
<path d="M14.7964 51.5002L15.3265 53.1317H17.042L15.6541 54.14L16.1842 55.7715L14.7964 54.7632L13.4086 55.7715L13.9387 54.14L12.5509 53.1317H14.2663L14.7964 51.5002Z" fill="#A40700"/>
<path d="M80.1205 32.6112L80.4739 33.6989L81.6175 33.6989L80.6923 34.3711L81.0457 35.4587L80.1205 34.7865L79.1952 35.4587L79.5486 34.3711L78.6234 33.6989L79.7671 33.6989L80.1205 32.6112Z" fill="#A40700"/>
<path d="M24.2795 27.5601L25.4231 27.5601L24.4979 28.2323L24.8513 29.3199L23.9261 28.6477L23.0009 29.3199L23.3543 28.2323L23.1002 28.0477L24.1921 27.2912L24.2795 27.5601Z" fill="#A40700"/>
<path d="M44.5464 21.5928L45.0765 23.2243H46.792L45.4041 24.2326L45.9342 25.8641L44.5464 24.8557L43.1586 25.8641L43.6887 24.2326L42.3009 23.2243H44.0163L44.5464 21.5928Z" fill="#A40700"/>
<rect x="47.2223" y="9" width="15.7407" height="9.44444" fill="white"/>
<g clip-path="url(#clip0_832:6638)">
<path d="M52.852 34.5069C52.7472 34.5076 52.6627 34.593 52.6632 34.6978C52.6637 34.8026 52.7492 34.8871 52.854 34.8865C52.9128 34.8862 52.9644 34.8586 52.9989 34.8166L53.2589 34.9648L52.8838 35.0675C52.8562 35.0751 52.8399 35.1036 52.8475 35.1312C52.8538 35.1543 52.8748 35.1695 52.8977 35.1693C52.9021 35.1692 52.9067 35.1686 52.9112 35.1674L53.3863 35.0374L53.7246 35.2304L53.101 35.4011C53.0734 35.4088 53.0572 35.4372 53.0648 35.4649C53.0711 35.4879 53.0921 35.5031 53.115 35.503C53.1194 35.503 53.1239 35.5022 53.1284 35.5011L53.8519 35.303L53.9601 35.3647L53.3365 35.5354C53.3089 35.543 53.2927 35.5716 53.3003 35.5991C53.3066 35.6222 53.3276 35.6373 53.3506 35.6372C53.355 35.6372 53.3596 35.6366 53.364 35.6353L54.0874 35.4373L54.5175 35.6823L54.0899 35.9322L53.3645 35.7421C53.3363 35.735 53.3084 35.7516 53.3012 35.7792C53.2939 35.8068 53.3106 35.8351 53.3382 35.8425L53.9634 36.0063L53.856 36.0691L53.1304 35.879C53.1023 35.8718 53.0744 35.8885 53.0672 35.916C53.0599 35.9436 53.0764 35.972 53.1041 35.9794L53.7295 36.1432L53.3932 36.3396L52.9168 36.2149C52.8887 36.2079 52.8608 36.2244 52.8535 36.252C52.8462 36.2797 52.8629 36.3079 52.8904 36.3154L53.2666 36.4137L53.0052 36.5665C52.9702 36.5272 52.9196 36.5019 52.8628 36.5022C52.758 36.5029 52.6735 36.5883 52.674 36.6932C52.6746 36.7978 52.7601 36.8824 52.8649 36.8819C52.9697 36.8812 53.0542 36.7959 53.0536 36.691C53.0536 36.6822 53.0522 36.6737 53.0509 36.6652L53.3134 36.5241L53.2203 36.8791C53.2131 36.9069 53.2297 36.9351 53.2573 36.9425C53.2619 36.9437 53.2664 36.9441 53.2708 36.9441C53.2938 36.944 53.3146 36.9286 53.3206 36.9055L53.4383 36.4568L53.7697 36.2789L53.618 36.8579C53.6108 36.8856 53.6272 36.9139 53.6548 36.9211C53.6595 36.9223 53.6641 36.9229 53.6684 36.9229C53.6913 36.9227 53.7121 36.9074 53.7182 36.8841L53.8944 36.212L54.0002 36.1551L53.852 36.7209C53.8447 36.7487 53.8613 36.7769 53.889 36.7843C53.8934 36.7854 53.898 36.7859 53.9024 36.7859C53.9254 36.7858 53.9462 36.7704 53.9522 36.7472L54.1251 36.088L54.5311 35.87L54.5429 36.2969L54.0451 36.8001C54.025 36.8204 54.0252 36.8532 54.0455 36.8735C54.0557 36.8835 54.069 36.8885 54.0823 36.8883C54.0956 36.8883 54.1088 36.8832 54.1188 36.873L54.5469 36.4402L54.5503 36.562L54.0466 37.0712C54.0265 37.0914 54.0268 37.1243 54.047 37.1445C54.0572 37.1546 54.0705 37.1595 54.0838 37.1594C54.0971 37.1593 54.1103 37.1542 54.1204 37.144L54.5543 36.7054L54.5646 37.0863L54.2308 37.4241C54.2106 37.4443 54.2108 37.4771 54.2312 37.4972C54.2413 37.5073 54.2547 37.5123 54.2679 37.5123C54.2812 37.5122 54.2945 37.5069 54.3045 37.4967L54.5685 37.2298L54.5761 37.5029C54.4985 37.5271 54.442 37.5988 54.4425 37.6843C54.4431 37.7892 54.5285 37.8737 54.6334 37.8731C54.7381 37.8725 54.8227 37.7871 54.8221 37.6822C54.8217 37.5967 54.7645 37.5257 54.6866 37.5023L54.691 37.2291L54.958 37.4932C54.9784 37.5133 55.0111 37.5132 55.0313 37.4928C55.0515 37.4725 55.0513 37.4396 55.0309 37.4196L54.6935 37.0856L54.6996 36.7044L55.1384 37.1383C55.1587 37.1584 55.1916 37.1583 55.2117 37.1379C55.2318 37.1175 55.2316 37.0849 55.2112 37.0647L54.7019 36.5609L54.7039 36.4392L55.1369 36.8672C55.1571 36.8874 55.1901 36.8871 55.2101 36.8666C55.2303 36.8464 55.2301 36.8136 55.2097 36.7936L54.7063 36.2957L54.7133 35.8688L55.1218 36.0824L55.3018 36.7396C55.3081 36.7628 55.3291 36.778 55.3521 36.7778C55.3566 36.7777 55.3609 36.777 55.3656 36.776C55.393 36.7684 55.4093 36.7399 55.4018 36.7122L55.2473 36.1481L55.3537 36.2038L55.5373 36.8739C55.5436 36.8971 55.5647 36.9122 55.5876 36.9122C55.592 36.9121 55.5965 36.9114 55.601 36.9102C55.6287 36.9027 55.6449 36.8743 55.6374 36.8467L55.479 36.2694L55.8123 36.4438L55.9349 36.8911C55.9413 36.9142 55.9623 36.9292 55.9852 36.9291C55.9896 36.9291 55.9941 36.9285 55.9987 36.9273C56.0262 36.9197 56.0424 36.8912 56.0349 36.8636L55.9379 36.5095L56.1875 36.6401C56.1856 36.651 56.1842 36.6621 56.1843 36.6736C56.1849 36.7783 56.2703 36.8629 56.3752 36.8624C56.48 36.8618 56.5644 36.7763 56.564 36.6715C56.5634 36.5667 56.478 36.4822 56.3731 36.4828C56.319 36.483 56.2707 36.5063 56.2362 36.5427L55.9833 36.3985L56.3584 36.296C56.3859 36.2883 56.4021 36.2599 56.3947 36.2323C56.3872 36.2047 56.3591 36.1885 56.331 36.1959L55.856 36.326L55.5176 36.1331L56.1412 35.9625C56.1687 35.9548 56.1851 35.9262 56.1775 35.8987C56.17 35.8711 56.1421 35.855 56.1138 35.8624L55.3903 36.0605L55.2822 35.9988L55.9057 35.8282C55.9333 35.8204 55.9497 35.7919 55.9419 35.7644C55.9346 35.7369 55.9065 35.7207 55.8784 35.7281L55.155 35.9261L54.7248 35.6811L55.1521 35.4312L55.8777 35.6214C55.8822 35.6225 55.8868 35.623 55.8911 35.623C55.9142 35.6229 55.9349 35.6076 55.9411 35.5844C55.9483 35.5567 55.9317 35.5284 55.9041 35.5211L55.2787 35.3572L55.3862 35.2942L56.1118 35.4844C56.1164 35.4855 56.1208 35.4862 56.1252 35.4862C56.1482 35.4861 56.169 35.4707 56.1751 35.4474C56.1824 35.4198 56.1658 35.3914 56.1382 35.384L55.5128 35.2202L55.849 35.0238L56.3255 35.1484C56.33 35.1495 56.3345 35.1501 56.3389 35.15C56.3618 35.1499 56.3827 35.1346 56.3888 35.1114C56.396 35.0837 56.3794 35.0554 56.3517 35.0481L55.9756 34.9495L56.2157 34.8092C56.2504 34.8449 56.2989 34.8672 56.3526 34.8669C56.4573 34.8664 56.5419 34.781 56.5414 34.6761C56.5409 34.5713 56.4554 34.4869 56.3505 34.4874C56.2458 34.488 56.1612 34.5734 56.1617 34.6782C56.1619 34.69 56.1632 34.7012 56.1653 34.7122L55.9289 34.8393L56.022 34.484C56.0292 34.4564 56.0127 34.4282 55.9851 34.4208C55.957 34.4138 55.9289 34.4303 55.9217 34.4577L55.8041 34.9063L55.4729 35.0843L55.6246 34.5054C55.6317 34.4777 55.6152 34.4494 55.5876 34.4421C55.5594 34.4351 55.5315 34.4516 55.5243 34.4792L55.3482 35.1512L55.2421 35.2081L55.3906 34.6424C55.3977 34.6146 55.3812 34.5861 55.3534 34.579C55.3255 34.5718 55.2975 34.5884 55.2903 34.616L55.1175 35.2752L54.7112 35.4932L54.6995 35.0664L55.1973 34.5629C55.2176 34.5427 55.2173 34.5098 55.1969 34.4897C55.1767 34.4696 55.1437 34.4697 55.1237 34.4902L54.6956 34.923L54.6922 34.8012L55.1959 34.292C55.2161 34.2716 55.2159 34.2388 55.1955 34.2188C55.1753 34.1985 55.1423 34.1986 55.1223 34.2192L54.6884 34.6578L54.6779 34.2767L55.0118 33.9391C55.0319 33.9187 55.0317 33.8859 55.0113 33.8658C54.9908 33.8457 54.9582 33.8459 54.9382 33.8662L54.674 34.1333L54.6659 33.8351C54.7438 33.8111 54.8005 33.7393 54.8 33.6536C54.7994 33.5487 54.7139 33.4643 54.6091 33.4648C54.5043 33.4654 54.4198 33.5507 54.4203 33.6556C54.4208 33.7414 54.4784 33.8126 54.5565 33.8357L54.5516 34.1339L54.2845 33.8696C54.2643 33.8496 54.2314 33.8497 54.2114 33.8702C54.1912 33.8904 54.1914 33.9234 54.2118 33.9435L54.5493 34.2775L54.5431 34.6584L54.1044 34.2247C54.084 34.2044 54.0512 34.2047 54.0311 34.2252C54.011 34.2455 54.0112 34.2782 54.0315 34.2984L54.5407 34.8019L54.5388 34.9237L54.1059 34.4957C54.0856 34.4755 54.0527 34.4757 54.0326 34.4962C54.0126 34.5165 54.0127 34.5493 54.033 34.5694L54.5364 35.0671L54.5294 35.4943L54.1207 35.2807L53.9405 34.6235C53.9329 34.5961 53.9051 34.5798 53.8768 34.5873C53.8492 34.5947 53.8329 34.6233 53.8404 34.651L53.995 35.2151L53.8884 35.1595L53.7049 34.4893C53.6974 34.4618 53.6694 34.4457 53.6412 34.4531C53.6136 34.4605 53.5973 34.4891 53.6049 34.5166L53.7628 35.0937L53.4297 34.9195L53.3072 34.4724C53.2997 34.4449 53.2719 34.4287 53.2435 34.436C53.2159 34.4437 53.1997 34.4721 53.2072 34.4998L53.3044 34.8538L53.0408 34.716C53.0416 34.7092 53.0428 34.7025 53.0428 34.6956C53.0422 34.5908 52.9567 34.5064 52.852 34.5069Z" fill="#A40700"/>
</g>
<g clip-path="url(#clip1_832:6638)">
<path d="M68.0356 21.938C67.8767 21.939 67.7486 22.0685 67.7494 22.2274C67.7502 22.3863 67.8798 22.5145 68.0387 22.5135C68.1278 22.513 68.206 22.4712 68.2584 22.4075L68.6525 22.6323L68.0838 22.7879C68.042 22.7995 68.0174 22.8427 68.0288 22.8844C68.0383 22.9196 68.0701 22.9426 68.1049 22.9422C68.1116 22.9421 68.1186 22.9413 68.1254 22.9394L68.8456 22.7423L69.3585 23.0348L68.4131 23.2937C68.3712 23.3053 68.3467 23.3485 68.3583 23.3904C68.3678 23.4253 68.3996 23.4483 68.4344 23.4482C68.441 23.4482 68.4479 23.447 68.4547 23.4453L69.5516 23.1449L69.7157 23.2386L68.7703 23.4973C68.7284 23.5089 68.7038 23.5522 68.7153 23.5939C68.7248 23.629 68.7568 23.6518 68.7916 23.6517C68.7982 23.6517 68.8052 23.6507 68.8119 23.6488L69.9086 23.3486L70.5608 23.7201L69.9125 24.099L68.8126 23.8108C68.7699 23.7999 68.7277 23.8251 68.7166 23.8669C68.7055 23.9088 68.7309 23.9517 68.7727 23.9629L69.7207 24.2112L69.5579 24.3065L68.4577 24.0183C68.4151 24.0073 68.3728 24.0326 68.3619 24.0743C68.3508 24.1163 68.3759 24.1593 68.4178 24.1704L69.366 24.4188L68.8562 24.7167L68.1339 24.5276C68.0913 24.5169 68.049 24.5419 68.0378 24.5837C68.0269 24.6259 68.0521 24.6685 68.0939 24.6798L68.6642 24.8289L68.2679 25.0606C68.2148 25.001 68.1382 24.9627 68.0521 24.9632C67.8931 24.9641 67.7649 25.0936 67.7658 25.2527C67.7666 25.4113 67.8962 25.5396 68.0552 25.5388C68.214 25.5377 68.3422 25.4083 68.3413 25.2493C68.3413 25.236 68.3391 25.2232 68.3372 25.2103L68.7352 24.9962L68.5941 25.5345C68.5831 25.5766 68.6082 25.6195 68.6501 25.6306C68.6571 25.6325 68.6639 25.6331 68.6705 25.6331C68.7054 25.633 68.7369 25.6096 68.7461 25.5745L68.9245 24.8943L69.4269 24.6246L69.1969 25.5023C69.186 25.5444 69.211 25.5873 69.2528 25.5983C69.2598 25.6 69.2668 25.6009 69.2733 25.6009C69.3081 25.6006 69.3397 25.5775 69.3489 25.5422L69.6161 24.5231L69.7765 24.4368L69.5518 25.2947C69.5406 25.3368 69.5659 25.3797 69.6078 25.3908C69.6145 25.3924 69.6215 25.3933 69.6282 25.3933C69.6631 25.3931 69.6945 25.3698 69.7037 25.3345L69.9657 24.3351L70.5814 24.0046L70.5993 24.6518L69.8445 25.4148C69.814 25.4456 69.8143 25.4953 69.8451 25.5261C69.8605 25.5412 69.8807 25.5488 69.9009 25.5484C69.921 25.5484 69.941 25.5408 69.9563 25.5253L70.6053 24.8692L70.6104 25.0538L69.8467 25.8258C69.8163 25.8565 69.8167 25.9063 69.8474 25.937C69.8629 25.9522 69.883 25.9596 69.9031 25.9595C69.9233 25.9593 69.9433 25.9517 69.9587 25.9361L70.6165 25.2711L70.6322 25.8487L70.1261 26.3608C70.0954 26.3915 70.0957 26.4412 70.1267 26.4717C70.142 26.487 70.1623 26.4945 70.1823 26.4945C70.2025 26.4943 70.2227 26.4864 70.2378 26.4708L70.6381 26.0662L70.6495 26.4803C70.532 26.517 70.4463 26.6256 70.447 26.7554C70.4479 26.9143 70.5774 27.0424 70.7365 27.0416C70.8952 27.0407 71.0234 26.9111 71.0225 26.7522C71.022 26.6225 70.9352 26.5148 70.8171 26.4795L70.8239 26.0652L71.2286 26.4656C71.2594 26.4961 71.3091 26.496 71.3398 26.465C71.3703 26.4342 71.3701 26.3843 71.3391 26.354L70.8275 25.8476L70.8368 25.2697L71.502 25.9275C71.5329 25.958 71.5827 25.9578 71.6132 25.9269C71.6437 25.8961 71.6434 25.8465 71.6125 25.8159L70.8404 25.0521L70.8434 24.8676L71.4998 25.5165C71.5304 25.5471 71.5804 25.5466 71.6108 25.5157C71.6414 25.485 71.6411 25.4352 71.6102 25.4049L70.847 24.65L70.8576 24.0028L71.477 24.3267L71.7498 25.3231C71.7594 25.3582 71.7912 25.3812 71.8261 25.381C71.8328 25.3809 71.8395 25.3797 71.8465 25.3782C71.8881 25.3667 71.9128 25.3236 71.9015 25.2815L71.6672 24.4262L71.8285 24.5107L72.1069 25.5267C72.1164 25.5618 72.1484 25.5847 72.1832 25.5847C72.1898 25.5845 72.1967 25.5835 72.2035 25.5817C72.2454 25.5704 72.27 25.5272 72.2586 25.4854L72.0185 24.6102L72.5239 24.8745L72.7096 25.5527C72.7193 25.5877 72.7512 25.6105 72.7859 25.6104C72.7926 25.6104 72.7994 25.6094 72.8064 25.6077C72.8482 25.5961 72.8727 25.5529 72.8614 25.5111L72.7142 24.9741L73.0927 25.1722C73.0898 25.1887 73.0877 25.2055 73.0878 25.223C73.0887 25.3818 73.2182 25.5101 73.3772 25.5092C73.5361 25.5083 73.6642 25.3787 73.6634 25.2198C73.6625 25.0609 73.533 24.9328 73.374 24.9336C73.292 24.934 73.2187 24.9693 73.1665 25.0245L72.7831 24.8059L73.3517 24.6505C73.3935 24.6389 73.4181 24.5957 73.4069 24.5539C73.3954 24.5121 73.3529 24.4876 73.3102 24.4988L72.5901 24.696L72.0771 24.4035L73.0225 24.1448C73.0641 24.1332 73.089 24.0899 73.0774 24.0481C73.0661 24.0064 73.0239 23.9818 72.9809 23.993L71.8841 24.2934L71.7202 24.1999L72.6654 23.9412C72.7072 23.9295 72.7321 23.8863 72.7204 23.8446C72.7092 23.8028 72.6666 23.7782 72.624 23.7895L71.5272 24.0897L70.875 23.7182L71.5229 23.3393L72.623 23.6277C72.6297 23.6294 72.6367 23.6302 72.6433 23.6302C72.6783 23.63 72.7097 23.6069 72.7191 23.5716C72.73 23.5296 72.7049 23.4868 72.663 23.4756L71.7149 23.2271L71.8778 23.1317L72.9779 23.42C72.9848 23.4217 72.9915 23.4227 72.9983 23.4227C73.0331 23.4226 73.0647 23.3992 73.0739 23.3639C73.085 23.322 73.0597 23.279 73.0179 23.2678L72.0697 23.0195L72.5794 22.7216L73.3019 22.9105C73.3087 22.9122 73.3156 22.9132 73.3222 22.9131C73.3569 22.9129 73.3886 22.8897 73.3978 22.8544C73.4088 22.8125 73.3836 22.7696 73.3417 22.7585L72.7714 22.6091L73.1354 22.3963C73.1881 22.4505 73.2615 22.4843 73.343 22.4838C73.5017 22.483 73.63 22.3535 73.6292 22.1945C73.6284 22.0356 73.4988 21.9076 73.3398 21.9084C73.181 21.9094 73.0527 22.0388 73.0536 22.1977C73.0538 22.2155 73.0559 22.2325 73.059 22.2492L72.7006 22.4419L72.8418 21.9033C72.8527 21.8615 72.8277 21.8186 72.7857 21.8075C72.7431 21.7968 72.7006 21.8218 72.6897 21.8634L72.5114 22.5435L72.0093 22.8134L72.2392 21.9357C72.2501 21.8937 72.225 21.8507 72.1832 21.8398C72.1404 21.8291 72.098 21.8541 72.0872 21.8959L71.8202 22.9148L71.6594 23.0011L71.8845 22.1434C71.8953 22.1013 71.8702 22.0581 71.8281 22.0473C71.7858 22.0363 71.7433 22.0616 71.7324 22.1033L71.4704 23.1028L70.8544 23.4334L70.8367 22.7863L71.5915 22.0229C71.6221 21.9923 71.6217 21.9424 71.5908 21.912C71.5602 21.8815 71.5102 21.8816 71.4798 21.9126L70.8308 22.5688L70.8256 22.3842L71.5893 21.6122C71.6199 21.5812 71.6196 21.5316 71.5887 21.5012C71.558 21.4704 71.508 21.4706 71.4777 21.5017L70.8198 22.1667L70.8039 21.589L71.3101 21.0772C71.3407 21.0462 71.3403 20.9965 71.3094 20.966C71.2784 20.9356 71.2289 20.9359 71.1986 20.9665L70.7981 21.3716L70.7857 20.9195C70.9039 20.8831 70.9898 20.7742 70.989 20.6443C70.9882 20.4852 70.8585 20.3572 70.6996 20.3581C70.5408 20.3589 70.4126 20.4883 70.4134 20.6473C70.4141 20.7774 70.5014 20.8853 70.6198 20.9204L70.6124 21.3725L70.2075 20.9718C70.1769 20.9415 70.127 20.9417 70.0966 20.9726C70.0661 21.0033 70.0664 21.0533 70.0972 21.0838L70.609 21.5902L70.5996 22.1677L69.9344 21.5102C69.9035 21.4794 69.8538 21.4799 69.8233 21.5108C69.7928 21.5416 69.7932 21.5913 69.8239 21.6218L70.596 22.3852L70.593 22.57L69.9367 21.9211C69.9059 21.8904 69.8561 21.8907 69.8256 21.9217C69.7952 21.9525 69.7954 22.0022 69.8262 22.0327L70.5894 22.7874L70.5787 23.4351L69.9592 23.1112L69.6859 22.1148C69.6745 22.0732 69.6323 22.0485 69.5893 22.0598C69.5476 22.0711 69.5228 22.1145 69.5342 22.1565L69.7686 23.0117L69.607 22.9274L69.3288 21.9113C69.3174 21.8697 69.275 21.8451 69.2322 21.8563C69.1902 21.8676 69.1655 21.911 69.1772 21.9528L69.4166 22.8276L68.9116 22.5636L68.7258 21.8856C68.7143 21.844 68.6722 21.8194 68.6291 21.8305C68.5873 21.8421 68.5628 21.8853 68.5742 21.9272L68.7215 22.464L68.3218 22.255C68.323 22.2447 68.3249 22.2345 68.3249 22.2241C68.324 22.0652 68.1944 21.9372 68.0356 21.938Z" fill="#A40700"/>
</g>
<g clip-path="url(#clip2_832:6638)">
<path d="M24.6639 45.2983C24.5388 45.2991 24.438 45.401 24.4386 45.5261C24.4392 45.6512 24.5413 45.7521 24.6663 45.7513C24.7365 45.7509 24.7981 45.718 24.8393 45.6679L25.1496 45.8448L24.7018 45.9673C24.6689 45.9765 24.6495 46.0104 24.6586 46.0433C24.6661 46.071 24.6911 46.0891 24.7185 46.0888C24.7237 46.0887 24.7292 46.0881 24.7346 46.0866L25.3016 45.9315L25.7054 46.1617L24.9611 46.3655C24.9281 46.3747 24.9088 46.4086 24.918 46.4416C24.9255 46.4691 24.9505 46.4872 24.9779 46.4871C24.9831 46.4871 24.9885 46.4862 24.9938 46.4849L25.8574 46.2484L25.9865 46.3221L25.2423 46.5258C25.2093 46.5349 25.1899 46.569 25.199 46.6018C25.2065 46.6295 25.2316 46.6474 25.259 46.6473C25.2643 46.6473 25.2698 46.6465 25.275 46.6451L26.1384 46.4087L26.6518 46.7012L26.1415 46.9994L25.2756 46.7726C25.242 46.764 25.2087 46.7838 25.2 46.8168C25.1913 46.8497 25.2113 46.8835 25.2442 46.8923L25.9905 47.0878L25.8623 47.1628L24.9962 46.936C24.9627 46.9273 24.9294 46.9472 24.9208 46.98C24.912 47.0131 24.9318 47.0469 24.9648 47.0557L25.7113 47.2512L25.3099 47.4857L24.7413 47.3369C24.7077 47.3285 24.6744 47.3481 24.6657 47.3811C24.657 47.4142 24.6769 47.4478 24.7098 47.4567L25.1588 47.5741L24.8468 47.7565C24.805 47.7095 24.7447 47.6794 24.6769 47.6798C24.5518 47.6805 24.4508 47.7825 24.4515 47.9077C24.4522 48.0325 24.5542 48.1335 24.6794 48.133C24.8044 48.1321 24.9053 48.0302 24.9046 47.9051C24.9046 47.8946 24.9029 47.8844 24.9013 47.8743L25.2147 47.7058L25.1036 48.1296C25.0949 48.1627 25.1147 48.1964 25.1477 48.2052C25.1532 48.2067 25.1585 48.2072 25.1637 48.2072C25.1912 48.2071 25.216 48.1887 25.2233 48.1611L25.3637 47.6256L25.7592 47.4132L25.5781 48.1042C25.5696 48.1374 25.5892 48.1711 25.6222 48.1797C25.6277 48.1811 25.6332 48.1819 25.6383 48.1819C25.6657 48.1816 25.6905 48.1634 25.6978 48.1356L25.9081 47.3333L26.0344 47.2654L25.8575 47.9408C25.8487 47.9739 25.8686 48.0076 25.9016 48.0164C25.9068 48.0177 25.9124 48.0184 25.9177 48.0184C25.9451 48.0183 25.9699 47.9999 25.9771 47.9721L26.1834 47.1854L26.6681 46.9251L26.6821 47.4346L26.0879 48.0353C26.064 48.0596 26.0642 48.0987 26.0884 48.1229C26.1006 48.1348 26.1164 48.1408 26.1323 48.1405C26.1482 48.1405 26.1639 48.1345 26.176 48.1223L26.6869 47.6058L26.6909 47.7511L26.0897 48.3589C26.0658 48.383 26.0661 48.4222 26.0902 48.4464C26.1024 48.4584 26.1182 48.4642 26.1341 48.4641C26.15 48.464 26.1657 48.458 26.1778 48.4457L26.6957 47.9222L26.708 48.3769L26.3096 48.7801C26.2855 48.8042 26.2857 48.8433 26.3101 48.8673C26.3221 48.8794 26.3381 48.8853 26.3539 48.8853C26.3698 48.8852 26.3856 48.8789 26.3975 48.8667L26.7127 48.5481L26.7217 48.8742C26.6292 48.903 26.5617 48.9885 26.5622 49.0907C26.563 49.2158 26.6649 49.3167 26.7901 49.316C26.9151 49.3153 27.016 49.2133 27.0153 49.0882C27.0149 48.986 26.9465 48.9013 26.8536 48.8734L26.8589 48.5473L27.1776 48.8626C27.2018 48.8866 27.2409 48.8864 27.2651 48.8621C27.2891 48.8378 27.2889 48.7986 27.2646 48.7747L26.8618 48.376L26.8691 47.9211L27.3928 48.4389C27.4171 48.4629 27.4563 48.4628 27.4803 48.4384C27.5043 48.4142 27.5041 48.3752 27.4798 48.3511L26.8719 47.7498L26.8743 47.6045L27.391 48.1154C27.4152 48.1395 27.4545 48.1391 27.4784 48.1147C27.5025 48.0906 27.5023 48.0514 27.4779 48.0275L26.8772 47.4332L26.8855 46.9237L27.3731 47.1787L27.5879 47.9631C27.5954 47.9907 27.6205 48.0089 27.6479 48.0087C27.6532 48.0086 27.6585 48.0077 27.664 48.0065C27.6968 47.9975 27.7162 47.9635 27.7073 47.9304L27.5229 47.257L27.6498 47.3235L27.869 48.1234C27.8765 48.1511 27.9016 48.1691 27.929 48.1691C27.9343 48.1689 27.9396 48.1682 27.945 48.1667C27.978 48.1578 27.9974 48.1238 27.9884 48.0909L27.7994 47.4019L28.1972 47.61L28.3435 48.1439C28.3511 48.1714 28.3762 48.1894 28.4035 48.1893C28.4088 48.1893 28.4141 48.1885 28.4196 48.1872C28.4525 48.178 28.4718 48.144 28.4629 48.1111L28.3471 47.6884L28.6451 47.8443C28.6428 47.8573 28.6411 47.8706 28.6412 47.8843C28.6419 48.0093 28.7438 48.1103 28.869 48.1096C28.9941 48.109 29.0949 48.0069 29.0943 47.8818C29.0936 47.7567 28.9917 47.6558 28.8665 47.6565C28.8019 47.6568 28.7443 47.6846 28.7031 47.728L28.4013 47.556L28.849 47.4336C28.8819 47.4245 28.9012 47.3905 28.8924 47.3576C28.8833 47.3247 28.8499 47.3054 28.8163 47.3142L28.2494 47.4695L27.8455 47.2392L28.5898 47.0355C28.6225 47.0264 28.6421 46.9923 28.633 46.9594C28.6241 46.9265 28.5908 46.9072 28.557 46.916L27.6936 47.1525L27.5645 47.0789L28.3087 46.8753C28.3416 46.866 28.3611 46.832 28.3519 46.7992C28.3432 46.7663 28.3096 46.747 28.276 46.7558L27.4127 46.9921L26.8992 46.6997L27.4092 46.4014L28.2753 46.6284C28.2806 46.6298 28.2861 46.6304 28.2913 46.6304C28.3188 46.6303 28.3435 46.612 28.3509 46.5843C28.3595 46.5512 28.3397 46.5175 28.3067 46.5087L27.5604 46.3131L27.6886 46.238L28.5546 46.465C28.5601 46.4663 28.5654 46.4671 28.5707 46.4671C28.5981 46.467 28.623 46.4486 28.6302 46.4208C28.639 46.3878 28.6191 46.3539 28.5862 46.3452L27.8397 46.1496L28.241 45.9151L28.8097 46.0639C28.8151 46.0652 28.8205 46.066 28.8257 46.0659C28.853 46.0657 28.878 46.0475 28.8852 46.0197C28.8939 45.9867 28.874 45.953 28.841 45.9442L28.3921 45.8266L28.6787 45.6591C28.7201 45.7017 28.7779 45.7283 28.8421 45.7279C28.967 45.7273 29.068 45.6253 29.0674 45.5002C29.0668 45.3751 28.9647 45.2744 28.8396 45.2749C28.7146 45.2757 28.6136 45.3776 28.6143 45.5027C28.6144 45.5167 28.6161 45.5301 28.6185 45.5432L28.3364 45.695L28.4475 45.2709C28.4561 45.238 28.4364 45.2043 28.4034 45.1955C28.3699 45.1871 28.3364 45.2068 28.3278 45.2395L28.1874 45.7749L27.7921 45.9874L27.9731 45.2964C27.9817 45.2634 27.962 45.2296 27.929 45.2209C27.8953 45.2125 27.862 45.2322 27.8535 45.2651L27.6432 46.0673L27.5167 46.1352L27.6939 45.46C27.7024 45.4268 27.6826 45.3928 27.6495 45.3843C27.6162 45.3757 27.5828 45.3956 27.5741 45.4284L27.3679 46.2152L26.883 46.4755L26.869 45.9661L27.4632 45.3651C27.4873 45.341 27.487 45.3018 27.4627 45.2778C27.4386 45.2538 27.3992 45.2539 27.3753 45.2783L26.8644 45.7949L26.8603 45.6495L27.4615 45.0418C27.4856 45.0174 27.4854 44.9783 27.461 44.9544C27.4368 44.9302 27.3975 44.9303 27.3736 44.9548L26.8557 45.4783L26.8432 45.0235L27.2417 44.6206C27.2658 44.5962 27.2655 44.5571 27.2411 44.5331C27.2167 44.5091 27.1778 44.5094 27.1539 44.5335L26.8386 44.8523L26.8289 44.4964C26.9219 44.4678 26.9895 44.3821 26.9889 44.2798C26.9883 44.1545 26.8862 44.0538 26.7611 44.0545C26.6361 44.0551 26.5352 44.157 26.5358 44.2822C26.5364 44.3846 26.6051 44.4696 26.6983 44.4971L26.6925 44.853L26.3737 44.5377C26.3496 44.5138 26.3104 44.5139 26.2864 44.5383C26.2624 44.5624 26.2626 44.6018 26.2869 44.6258L26.6898 45.0244L26.6823 45.4791L26.1588 44.9615C26.1344 44.9372 26.0953 44.9376 26.0713 44.962C26.0473 44.9862 26.0475 45.0253 26.0717 45.0493L26.6795 45.6503L26.6772 45.7958L26.1605 45.2849C26.1363 45.2608 26.0971 45.2611 26.0731 45.2854C26.0491 45.3097 26.0493 45.3488 26.0736 45.3728L26.6743 45.9669L26.666 46.4768L26.1782 46.2218L25.9631 45.4374C25.9541 45.4047 25.9209 45.3852 25.8871 45.3942C25.8542 45.4031 25.8347 45.4372 25.8437 45.4703L26.0282 46.1435L25.901 46.0771L25.6819 45.2772C25.673 45.2445 25.6396 45.2251 25.6059 45.234C25.5729 45.2429 25.5534 45.277 25.5626 45.3099L25.7511 45.9986L25.3535 45.7907L25.2073 45.257C25.1982 45.2243 25.1651 45.2049 25.1312 45.2136C25.0983 45.2228 25.0789 45.2568 25.0879 45.2897L25.2039 45.7123L24.8892 45.5478C24.8902 45.5397 24.8917 45.5317 24.8917 45.5235C24.891 45.3984 24.7889 45.2977 24.6639 45.2983Z" fill="#A40700"/>
</g>
<path d="M24.3413 108.508C23.7058 106.342 23.1218 104.49 22.5893 102.954H22.4476C22.4304 103.472 22.3918 104.287 22.3317 105.401L22.2544 106.954C22.2544 107.239 22.3961 107.382 22.6795 107.382C22.8512 107.382 22.9801 107.373 23.0659 107.356L23.1561 107.446L23.0144 108.378L22.5378 108.366C22.117 108.34 21.7262 108.327 21.3655 108.327C21.1852 108.327 20.9361 108.34 20.6183 108.366C20.3092 108.391 20.1031 108.413 20 108.43L20.0902 107.459C20.3221 107.425 20.4895 107.347 20.5926 107.226C20.7042 107.097 20.7901 106.872 20.8502 106.553C20.9189 105.957 21.0177 105.004 21.1465 103.692C21.2753 102.38 21.3397 101.664 21.3397 101.543C21.3397 101.379 21.3183 101.258 21.2753 101.18C21.2324 101.102 21.1465 101.046 21.0177 101.012C20.8975 100.969 20.7042 100.934 20.438 100.908L20.3478 100.818L20.4766 99.9243L21.095 99.9502C21.5587 99.9761 21.928 99.9891 22.2028 99.9891C22.5721 99.9891 22.9586 99.9761 23.3622 99.9502L23.826 99.9373C24.0922 100.964 24.4057 102.095 24.7664 103.329L25.1786 104.818H25.3074C25.4191 104.438 25.4878 104.218 25.5135 104.158C25.608 103.839 25.7884 103.247 26.0546 102.384C26.3208 101.512 26.5613 100.71 26.776 99.9761C27.0422 99.9761 27.2483 99.9804 27.3943 99.9891L28.1286 100.002C28.3691 100.002 28.5451 99.9977 28.6568 99.9891C28.8629 99.9804 29.2837 99.9546 29.9192 99.9114L29.9965 99.9632L29.9063 100.882C29.5456 100.908 29.3009 100.969 29.1721 101.064C29.0518 101.159 28.9917 101.327 28.9917 101.569C28.9917 101.888 29.0218 102.565 29.0819 103.601C29.1506 104.628 29.2193 105.496 29.288 106.203C29.3309 106.661 29.3954 106.972 29.4812 107.136C29.5671 107.291 29.7088 107.369 29.9063 107.369C30.0695 107.369 30.194 107.36 30.2799 107.343L30.3443 107.433L30.2284 108.366C29.7389 108.34 29.288 108.327 28.8758 108.327C28.6267 108.327 28.2617 108.34 27.7808 108.366C27.2999 108.391 26.9649 108.413 26.776 108.43L26.9048 107.446C27.1453 107.42 27.317 107.36 27.4201 107.265C27.5317 107.162 27.5876 107.01 27.5876 106.812L27.536 105.595C27.4759 104.68 27.433 103.8 27.4072 102.954H27.2784C26.6772 104.654 26.0889 106.467 25.5135 108.391L24.3413 108.508Z" fill="#A40700"/>
<path d="M34.1818 108.314L34.2333 107.511C34.4824 107.485 34.6541 107.464 34.7486 107.446C34.8431 107.429 34.9032 107.403 34.929 107.369C34.9633 107.325 34.9805 107.261 34.9805 107.174C34.9805 107.14 34.9762 107.105 34.9676 107.071C34.959 107.028 34.9504 106.989 34.9418 106.954L34.8259 106.462C34.637 106.454 34.345 106.449 33.9499 106.449C33.8297 106.449 33.6408 106.458 33.3831 106.475C33.2285 106.493 33.1169 106.501 33.0482 106.501L32.8936 107.019C32.8678 107.131 32.8549 107.213 32.8549 107.265C32.8549 107.36 32.8764 107.425 32.9194 107.459C32.9709 107.485 33.0739 107.498 33.2285 107.498H33.5635L33.6536 107.589L33.5635 108.378C33.4604 108.37 33.2543 108.361 32.9451 108.353C32.6359 108.344 32.301 108.34 31.9403 108.34H30.5748L30.6521 107.524C30.7895 107.489 30.9054 107.429 30.9999 107.343C31.0944 107.248 31.1717 107.114 31.2318 106.941L32.9966 101.879L35.4442 101.711L35.586 101.815C35.689 102.22 35.9037 103.032 36.2301 104.249C36.565 105.457 36.814 106.32 36.9772 106.838C37.0459 107.071 37.1318 107.239 37.2349 107.343C37.3379 107.446 37.4839 107.507 37.6729 107.524L37.7373 107.615L37.66 108.353L36.2172 108.34C35.8135 108.34 35.4142 108.344 35.0191 108.353C34.6241 108.37 34.3707 108.383 34.2591 108.391L34.1818 108.314ZM33.9757 105.336C34.1217 105.336 34.3321 105.327 34.6069 105.31L34.156 103.42H33.9628L33.3702 105.336H33.9757Z" fill="#A40700"/>
<path d="M41.4406 108.314L41.4921 107.511C41.7412 107.485 41.9129 107.464 42.0074 107.446C42.1019 107.429 42.162 107.403 42.1877 107.369C42.2221 107.325 42.2393 107.261 42.2393 107.174C42.2393 107.14 42.235 107.105 42.2264 107.071C42.2178 107.028 42.2092 106.989 42.2006 106.954L42.0847 106.462C41.8957 106.454 41.6037 106.449 41.2087 106.449C41.0885 106.449 40.8995 106.458 40.6419 106.475C40.4873 106.493 40.3756 106.501 40.3069 106.501L40.1524 107.019C40.1266 107.131 40.1137 107.213 40.1137 107.265C40.1137 107.36 40.1352 107.425 40.1781 107.459C40.2296 107.485 40.3327 107.498 40.4873 107.498H40.8222L40.9124 107.589L40.8222 108.378C40.7192 108.37 40.5131 108.361 40.2039 108.353C39.8947 108.344 39.5598 108.34 39.1991 108.34H37.8336L37.9109 107.524C38.0483 107.489 38.1642 107.429 38.2587 107.343C38.3532 107.248 38.4304 107.114 38.4906 106.941L40.2554 101.879L42.703 101.711L42.8447 101.815C42.9478 102.22 43.1625 103.032 43.4888 104.249C43.8238 105.457 44.0728 106.32 44.236 106.838C44.3047 107.071 44.3906 107.239 44.4936 107.343C44.5967 107.446 44.7427 107.507 44.9316 107.524L44.996 107.615L44.9187 108.353L43.4759 108.34C43.0723 108.34 42.673 108.344 42.2779 108.353C41.8829 108.37 41.6295 108.383 41.5179 108.391L41.4406 108.314ZM41.2345 105.336C41.3805 105.336 41.5909 105.327 41.8657 105.31L41.4148 103.42H41.2216L40.629 105.336H41.2345Z" fill="#A40700"/>
<path d="M47.5271 108.443C47.1664 108.443 46.8357 108.413 46.5351 108.353C46.2346 108.292 45.9941 108.232 45.8137 108.171C45.642 108.102 45.5346 108.055 45.4917 108.029L45.3758 107.861C45.4015 107.748 45.4402 107.515 45.4917 107.161C45.5518 106.808 45.5862 106.484 45.5947 106.191L46.7799 106.1C46.7799 106.506 46.8572 106.795 47.0118 106.967C47.175 107.14 47.4326 107.226 47.7847 107.226C48.0509 107.226 48.2571 107.183 48.403 107.097C48.5576 107.002 48.6349 106.877 48.6349 106.721C48.6349 106.54 48.5405 106.389 48.3515 106.268C48.1712 106.147 47.8792 106.005 47.4755 105.841L47.102 105.686C46.5867 105.461 46.183 105.211 45.891 104.935C45.599 104.65 45.453 104.279 45.453 103.821C45.453 103.407 45.5819 103.04 45.8395 102.721C46.1057 102.401 46.475 102.155 46.9474 101.983C47.4197 101.802 47.9651 101.711 48.5834 101.711C48.9183 101.711 49.2318 101.733 49.5238 101.776C49.8158 101.81 50.0477 101.849 50.2194 101.892C50.3912 101.935 50.4985 101.966 50.5415 101.983L50.6574 102.177C50.6317 102.272 50.5844 102.492 50.5157 102.837C50.4556 103.183 50.4084 103.545 50.374 103.925L49.2919 104.003L49.1631 103.925L49.176 103.718C49.176 103.226 48.8883 102.98 48.3129 102.98C48.081 102.98 47.8878 103.027 47.7332 103.122C47.5872 103.217 47.5142 103.342 47.5142 103.498C47.5142 103.696 47.6172 103.856 47.8234 103.977C48.0381 104.097 48.3902 104.257 48.8797 104.456C49.4551 104.697 49.906 104.956 50.2323 105.232C50.5587 105.5 50.7218 105.875 50.7218 106.359C50.7218 106.998 50.4341 107.507 49.8587 107.887C49.2919 108.258 48.5147 108.443 47.5271 108.443Z" fill="#A40700"/>
<path d="M52.3031 107.55C52.6123 107.524 52.8399 107.485 52.9859 107.433C53.1319 107.373 53.2306 107.287 53.2822 107.174C53.3423 107.054 53.3723 106.877 53.3723 106.644V102.928C53.1147 102.937 52.9215 102.975 52.7926 103.044C52.6724 103.105 52.5865 103.226 52.535 103.407C52.4835 103.588 52.4362 103.886 52.3933 104.3L51.2081 104.365C51.2167 104.21 51.2339 103.869 51.2597 103.342C51.2854 102.807 51.3026 102.307 51.3112 101.84L51.44 101.711L52.6509 101.827H55.9874L57.1983 101.711L57.34 101.84C57.3486 102.315 57.3615 102.807 57.3787 103.316C57.3958 103.826 57.4087 104.154 57.4173 104.3L56.2322 104.365C56.1892 103.916 56.142 103.601 56.0905 103.42C56.0389 103.23 55.9573 103.105 55.8457 103.044C55.7426 102.975 55.5666 102.937 55.3175 102.928C55.266 103.912 55.2402 105.198 55.2402 106.786C55.2402 107.036 55.2789 107.213 55.3562 107.317C55.4421 107.42 55.5923 107.472 55.807 107.472C55.9359 107.472 56.0475 107.468 56.142 107.459C56.245 107.451 56.3137 107.446 56.3481 107.446L56.3996 107.498L56.2966 108.378C56.1334 108.37 55.8457 108.357 55.4335 108.34C55.0212 108.331 54.6262 108.327 54.2483 108.327C53.9735 108.327 53.6042 108.34 53.1404 108.366C52.6767 108.391 52.3718 108.409 52.2258 108.417L52.3031 107.55Z" fill="#A40700"/>
<path d="M63.137 108.482C62.8536 108.482 62.6174 108.413 62.4285 108.275C62.2395 108.128 62.0763 107.891 61.9389 107.563L61.1918 105.97H60.5477L60.5348 106.773C60.5348 106.989 60.552 107.144 60.5863 107.239C60.6207 107.334 60.6851 107.399 60.7795 107.433C60.8826 107.468 61.0544 107.489 61.2948 107.498L61.3464 107.576L61.2433 108.366C61.1145 108.366 60.8826 108.357 60.5477 108.34C60.2213 108.331 59.9079 108.327 59.6073 108.327C59.2981 108.327 58.9589 108.34 58.5896 108.366C58.2203 108.391 57.9798 108.409 57.8682 108.417L57.9584 107.55C58.2332 107.507 58.4221 107.425 58.5252 107.304C58.6282 107.183 58.6798 106.985 58.6798 106.708V103.109C58.6798 102.937 58.6583 102.82 58.6153 102.76C58.5724 102.691 58.4951 102.656 58.3835 102.656L58.0099 102.669L57.9197 102.565L58.0228 101.815L59.4784 101.827C59.8134 101.827 60.1698 101.819 60.5477 101.802C60.9255 101.784 61.1875 101.771 61.3335 101.763C62.261 101.763 62.9609 101.918 63.4333 102.229C63.9056 102.54 64.1418 103.001 64.1418 103.614C64.1418 104.011 64.0258 104.374 63.794 104.702C63.5707 105.021 63.2443 105.297 62.8149 105.53L63.5621 106.67C63.94 107.256 64.3007 107.55 64.6442 107.55L64.7472 107.692L64.6571 108.378L63.137 108.482ZM61.4365 104.896C61.6684 104.801 61.8488 104.671 61.9776 104.507C62.1064 104.343 62.1708 104.115 62.1708 103.821C62.1708 103.511 62.0635 103.282 61.8488 103.135C61.6341 102.988 61.2991 102.915 60.844 102.915C60.7752 102.915 60.728 102.932 60.7022 102.967C60.6765 102.993 60.6636 103.053 60.6636 103.148C60.6121 103.718 60.5863 104.266 60.5863 104.792L61.4365 104.896Z" fill="#A40700"/>
<path d="M65.2675 107.576C65.5594 107.515 65.7527 107.433 65.8471 107.33C65.9416 107.218 65.9888 107.023 65.9888 106.747V103.174C65.9888 102.967 65.9631 102.829 65.9116 102.76C65.86 102.691 65.7613 102.656 65.6153 102.656H65.3061L65.2159 102.54L65.3061 101.815L66.9421 101.827C67.2513 101.827 67.5819 101.823 67.934 101.815C68.2862 101.797 68.5309 101.784 68.6683 101.776L68.6039 102.617C68.3463 102.652 68.1788 102.704 68.1015 102.773C68.0242 102.833 67.977 102.958 67.9598 103.148C67.8825 104.356 67.8439 105.578 67.8439 106.812C67.8439 107.088 67.8696 107.274 67.9212 107.369C67.9727 107.464 68.0715 107.511 68.2175 107.511C68.3119 107.511 68.3935 107.507 68.4622 107.498C68.5309 107.489 68.5739 107.481 68.591 107.472L68.6683 107.576L68.5782 108.366C68.4407 108.366 68.196 108.357 67.8439 108.34C67.4918 108.331 67.1611 108.327 66.8519 108.327C66.5857 108.327 66.268 108.335 65.8987 108.353C65.538 108.37 65.3018 108.383 65.1902 108.391L65.2675 107.576Z" fill="#A40700"/>
<path d="M72.4465 108.43C71.4503 108.43 70.6731 108.15 70.1148 107.589C69.5652 107.019 69.2904 106.225 69.2904 105.207C69.2904 104.093 69.6167 103.234 70.2694 102.63C70.9221 102.017 71.841 101.711 73.0262 101.711C73.301 101.711 73.5973 101.733 73.9151 101.776C74.2414 101.81 74.5205 101.849 74.7524 101.892C74.9843 101.927 75.1346 101.953 75.2033 101.97L75.2806 102.151C75.272 102.203 75.2462 102.324 75.2033 102.514C75.1689 102.695 75.1303 102.941 75.0873 103.252C75.0444 103.554 75.0101 103.882 74.9843 104.236L73.5415 104.313C73.5415 104.287 73.5415 104.223 73.5415 104.119C73.5501 104.015 73.5544 103.895 73.5544 103.757C73.5544 103.48 73.4857 103.286 73.3483 103.174C73.2194 103.053 72.9961 102.993 72.6784 102.993C72.2404 102.993 71.9269 103.135 71.738 103.42C71.5576 103.696 71.4675 104.175 71.4675 104.857C71.4675 106.376 71.8926 107.136 72.7428 107.136C73.052 107.136 73.2838 107.045 73.4384 106.864C73.593 106.674 73.7004 106.359 73.7605 105.919L75.1904 105.815C75.1732 105.945 75.1432 106.229 75.1002 106.67C75.0659 107.101 75.0444 107.511 75.0358 107.899L74.907 108.055C74.8469 108.072 74.7052 108.111 74.4819 108.171C74.2586 108.232 73.9623 108.288 73.593 108.34C73.2323 108.4 72.8502 108.43 72.4465 108.43Z" fill="#A40700"/>
<path d="M76.0738 107.576C76.3658 107.524 76.5591 107.446 76.6535 107.343C76.748 107.231 76.7952 107.032 76.7952 106.747V103.174C76.7952 102.967 76.7695 102.829 76.7179 102.76C76.6664 102.691 76.5676 102.656 76.4217 102.656H76.1254L76.0352 102.54L76.1254 101.815L77.4651 101.827C77.8344 101.827 78.2123 101.823 78.5987 101.815C78.9938 101.797 79.2643 101.784 79.4103 101.776L79.3459 102.617C79.1054 102.652 78.9508 102.704 78.8821 102.773C78.8134 102.842 78.7748 102.98 78.7662 103.187L78.7018 104.456L79.7581 104.494C80.1875 104.494 80.5225 104.477 80.7629 104.443L80.7758 103.174C80.7758 102.967 80.75 102.829 80.6985 102.76C80.647 102.691 80.5439 102.656 80.3893 102.656H80.0931L80.0029 102.54L80.0931 101.815C80.0931 101.823 80.6255 101.827 81.6904 101.827C82.0082 101.827 82.3474 101.823 82.7081 101.815C83.0688 101.797 83.3179 101.784 83.4553 101.776L83.3909 102.604C83.1332 102.639 82.9658 102.691 82.8885 102.76C82.8112 102.82 82.7639 102.95 82.7468 103.148C82.6695 104.218 82.6308 105.44 82.6308 106.812C82.6308 107.071 82.6609 107.248 82.721 107.343C82.7897 107.438 82.9014 107.485 83.0559 107.485C83.1332 107.485 83.2019 107.481 83.2621 107.472C83.3222 107.464 83.3608 107.459 83.378 107.459L83.4682 107.563L83.3651 108.34L81.6389 108.327L79.9642 108.34L80.0415 107.511C80.3078 107.511 80.4924 107.455 80.5955 107.343C80.7071 107.222 80.7629 107.01 80.7629 106.708V105.621L79.9642 105.608C79.7581 105.617 79.5177 105.634 79.2428 105.66C78.968 105.677 78.7748 105.69 78.6631 105.699L78.6503 106.812C78.6503 107.088 78.676 107.274 78.7275 107.369C78.7791 107.464 78.8778 107.511 79.0238 107.511C79.1011 107.511 79.1698 107.507 79.23 107.498C79.2901 107.489 79.3287 107.481 79.3459 107.472L79.4103 107.576L79.3201 108.366C79.1913 108.366 78.9637 108.357 78.6374 108.34C78.3196 108.331 78.019 108.327 77.7356 108.327C77.435 108.327 77.1001 108.331 76.7308 108.34C76.3615 108.357 76.1168 108.374 75.9965 108.391L76.0738 107.576Z" fill="#A40700"/>
<path d="M84.8858 107.55C85.195 107.524 85.4226 107.485 85.5686 107.433C85.7146 107.373 85.8133 107.287 85.8648 107.174C85.925 107.054 85.955 106.877 85.955 106.644V102.928C85.6974 102.937 85.5041 102.975 85.3753 103.044C85.2551 103.105 85.1692 103.226 85.1177 103.407C85.0661 103.588 85.0189 103.886 84.976 104.3L83.7908 104.365C83.7994 104.21 83.8166 103.869 83.8424 103.342C83.8681 102.807 83.8853 102.307 83.8939 101.84L84.0227 101.711L85.2336 101.827H88.5701L89.781 101.711L89.9227 101.84C89.9313 102.315 89.9442 102.807 89.9614 103.316C89.9785 103.826 89.9914 104.154 90 104.3L88.8148 104.365C88.7719 103.916 88.7247 103.601 88.6731 103.42C88.6216 103.23 88.54 103.105 88.4284 103.044C88.3253 102.975 88.1493 102.937 87.9002 102.928C87.8487 103.912 87.8229 105.198 87.8229 106.786C87.8229 107.036 87.8616 107.213 87.9389 107.317C88.0247 107.42 88.175 107.472 88.3897 107.472C88.5186 107.472 88.6302 107.468 88.7247 107.459C88.8277 107.451 88.8964 107.446 88.9308 107.446L88.9823 107.498L88.8793 108.378C88.7161 108.37 88.4284 108.357 88.0162 108.34C87.6039 108.331 87.2089 108.327 86.831 108.327C86.5562 108.327 86.1869 108.34 85.7231 108.366C85.2594 108.391 84.9545 108.409 84.8085 108.417L84.8858 107.55Z" fill="#A40700"/>
<path d="M38.9808 97.8322C38.4011 95.9834 37.7982 94.1657 37.1721 92.3791H37.0794C37.0794 92.4645 37.0639 92.748 37.033 93.2297C37.0021 93.7113 36.975 94.1113 36.9519 94.4298C36.8591 95.7348 36.8127 96.4378 36.8127 96.5388C36.8127 96.7874 36.9364 96.9117 37.1837 96.9117L37.5779 96.9L37.6475 96.9583L37.52 97.6924C36.8707 97.6613 36.4185 97.6457 36.1635 97.6457C35.9857 97.6457 35.7693 97.6574 35.5142 97.6807C35.2669 97.704 35.1007 97.7234 35.0157 97.739L35.0852 96.9816C35.3094 96.9583 35.4717 96.8884 35.5722 96.7718C35.6727 96.6476 35.7461 96.4378 35.7925 96.1426C35.862 95.5367 35.9548 94.6318 36.0707 93.4277C36.1944 92.2237 36.2562 91.5634 36.2562 91.4469C36.2562 91.2372 36.1944 91.0935 36.0707 91.0158C35.9548 90.9381 35.7229 90.8837 35.3751 90.8527L35.3171 90.7827L35.4215 90.1069C36.0553 90.1458 36.5383 90.1652 36.8707 90.1652C37.0407 90.1652 37.4504 90.1497 38.0996 90.1186C38.4088 91.2139 38.8378 92.6393 39.3866 94.3949L39.5837 95.0008H39.6764C39.7228 94.8454 39.7846 94.6512 39.8619 94.4182C39.9392 94.1773 40.0204 93.921 40.1054 93.6491C40.4996 92.4684 40.8745 91.3032 41.23 90.1535C41.3923 90.1535 41.5237 90.1574 41.6242 90.1652L42.2387 90.1768L42.5981 90.1652C42.7604 90.1652 42.9691 90.1574 43.2242 90.1419C43.4792 90.1264 43.6647 90.1108 43.7807 90.0953L43.827 90.1419L43.7575 90.841C43.4251 90.8721 43.1971 90.9303 43.0734 91.0158C42.9575 91.1012 42.8995 91.2488 42.8995 91.4586C42.8995 91.6994 42.9304 92.313 42.9923 93.2996C43.0541 94.2783 43.1159 95.125 43.1778 95.8397C43.2242 96.2669 43.2821 96.5543 43.3517 96.7019C43.429 96.8418 43.5604 96.9117 43.7459 96.9117C43.8309 96.9117 43.9005 96.9078 43.9546 96.9C44.0164 96.8923 44.055 96.8884 44.0705 96.8884L44.1169 96.9466L44.0125 97.6807C43.8966 97.6807 43.7923 97.6768 43.6995 97.669C43.3594 97.6535 43.0734 97.6457 42.8416 97.6457C42.6174 97.6457 42.3198 97.6574 41.9488 97.6807C41.5855 97.704 41.3343 97.7234 41.1952 97.739L41.2764 96.9816C41.5083 96.9505 41.6744 96.8923 41.7749 96.8068C41.8754 96.7136 41.9256 96.5776 41.9256 96.399C41.9256 96.3679 41.8947 95.8863 41.8329 94.9541C41.7479 93.7346 41.6976 92.8762 41.6822 92.3791H41.5778C40.9286 94.1968 40.3257 95.9795 39.7692 97.7273L38.9808 97.8322Z" fill="#A40700"/>
<path d="M48.7435 97.7856C48.4034 97.7856 48.1329 97.7118 47.9319 97.5642C47.7387 97.4088 47.6227 97.1836 47.5841 96.8884L47.4913 96.8534C47.244 97.1098 47.0044 97.3234 46.7725 97.4943C46.5406 97.6574 46.3551 97.739 46.216 97.739C45.76 97.739 45.3813 97.5797 45.0798 97.2612C44.7784 96.935 44.6276 96.531 44.6276 96.0494C44.6276 95.8086 44.6895 95.6028 44.8132 95.4319C44.9368 95.2532 45.0991 95.1367 45.3001 95.0823L47.5377 94.558L47.5493 94.2783C47.5493 93.9443 47.4604 93.6841 47.2827 93.4977C47.1049 93.3112 46.8614 93.218 46.5522 93.218C46.3435 93.218 46.1155 93.2724 45.8682 93.3811C45.6286 93.4821 45.4044 93.6103 45.1957 93.7656L45.0914 93.719L44.8943 93.0199C45.2808 92.8024 45.6866 92.6005 46.1117 92.414C46.5368 92.2276 46.8382 92.1344 47.016 92.1344C47.6575 92.1344 48.1367 92.282 48.4536 92.5771C48.7783 92.8646 48.9406 93.2452 48.9406 93.719C48.9406 93.8899 48.9058 94.2395 48.8362 94.7677C48.7512 95.5212 48.7087 95.9717 48.7087 96.1193C48.7087 96.2669 48.7474 96.3835 48.8246 96.4689C48.9019 96.5543 49.0024 96.5971 49.1261 96.5971C49.2188 96.5971 49.3155 96.5776 49.4159 96.5388C49.5241 96.4922 49.613 96.4456 49.6826 96.399L49.8565 96.6437C49.7174 96.8923 49.5435 97.1331 49.3348 97.3661C49.1338 97.5914 48.9367 97.7312 48.7435 97.7856ZM46.645 96.632C46.7609 96.632 46.8962 96.601 47.0508 96.5388C47.2131 96.4767 47.3561 96.3951 47.4797 96.2941L47.5145 95.1872L46.274 95.5367C46.0885 95.5833 45.9957 95.7115 45.9957 95.9213C45.9957 96.1232 46.0537 96.2941 46.1696 96.4339C46.2933 96.566 46.4518 96.632 46.645 96.632Z" fill="#A40700"/>
<path d="M55.6117 92.7985C55.202 92.8374 54.9161 92.8607 54.7537 92.8684L54.7074 92.9384C55.0165 93.2724 55.1711 93.6569 55.1711 94.0919C55.1711 94.4803 55.0629 94.8337 54.8465 95.1522C54.6301 95.4707 54.3325 95.7193 53.9538 95.898C53.575 96.0766 53.1499 96.1659 52.6784 96.1659C52.4234 96.1659 52.1722 96.1349 51.9248 96.0727C51.8244 96.1582 51.7509 96.232 51.7046 96.2941C51.6659 96.3485 51.6466 96.4068 51.6466 96.4689C51.6466 96.6165 51.7587 96.7214 51.9828 96.7835C52.207 96.8456 52.5625 96.9039 53.0494 96.9583C53.5673 97.0127 53.9924 97.0748 54.3248 97.1447C54.6571 97.2146 54.9431 97.3428 55.1827 97.5292C55.4301 97.7079 55.5537 97.9642 55.5537 98.2983C55.5537 98.6633 55.4069 99.0129 55.1132 99.3469C54.8194 99.681 54.4368 99.9489 53.9654 100.151C53.4939 100.361 52.9992 100.466 52.4813 100.466C51.863 100.466 51.3683 100.314 50.9973 100.011C50.6263 99.7159 50.4408 99.3197 50.4408 98.8226C50.6418 98.6129 51.0282 98.3293 51.6002 97.972V97.8904C51.2292 97.8283 50.9394 97.6962 50.7307 97.4943C50.5297 97.2845 50.4215 97.0204 50.406 96.7019C50.6843 96.4145 51.0012 96.1543 51.3567 95.9213V95.8513C51.0785 95.6882 50.8621 95.4707 50.7075 95.1988C50.5529 94.927 50.4756 94.6201 50.4756 94.2783C50.4756 93.8744 50.5799 93.5093 50.7886 93.183C50.9973 92.849 51.2833 92.5888 51.6466 92.4024C52.0099 92.2159 52.4195 92.1227 52.8755 92.1227C53.0688 92.1227 53.2968 92.146 53.5596 92.1926C53.8069 92.2237 53.977 92.2392 54.0697 92.2392C54.348 92.2237 54.889 92.0955 55.6929 91.8547L55.7624 91.9013L55.6117 92.7985ZM52.8871 95.3969C53.1654 95.3969 53.3779 95.2998 53.5248 95.1056C53.6794 94.9114 53.7567 94.6318 53.7567 94.2667C53.7567 93.8783 53.6678 93.5676 53.49 93.3345C53.32 93.1015 53.0765 92.985 52.7596 92.985C52.4891 92.985 52.2765 93.0821 52.1219 93.2763C51.9751 93.4627 51.9016 93.7462 51.9016 94.1269C51.9016 94.5075 51.9867 94.8143 52.1567 95.0474C52.3345 95.2804 52.578 95.3969 52.8871 95.3969ZM52.319 98.0419C52.1799 98.1584 52.0717 98.2905 51.9944 98.4381C51.9171 98.5857 51.8785 98.7333 51.8785 98.8809C51.8785 99.1061 51.9673 99.2809 52.1451 99.4052C52.3306 99.5372 52.5896 99.6033 52.9219 99.6033C53.3006 99.6033 53.6175 99.5178 53.8726 99.3469C54.1354 99.1838 54.2668 98.9818 54.2668 98.741C54.2668 98.6167 54.2204 98.5158 54.1277 98.4381C54.0349 98.3682 53.8533 98.3021 53.5828 98.24C53.32 98.1856 52.8987 98.1196 52.319 98.0419Z" fill="#A40700"/>
<path d="M56.235 97.0398C56.4592 97.001 56.6215 96.9272 56.722 96.8185C56.8302 96.7019 56.8843 96.5349 56.8843 96.3174V93.8006C56.8843 93.552 56.8495 93.3811 56.78 93.2879C56.7104 93.1947 56.5829 93.1481 56.3974 93.1481C56.3433 93.1481 56.2892 93.152 56.235 93.1597C56.1809 93.1675 56.1462 93.1753 56.1307 93.183L56.2003 92.5189C56.6331 92.4567 57.0737 92.3868 57.522 92.3092C57.9703 92.2237 58.2601 92.1654 58.3915 92.1344L58.4959 92.3208C58.4108 92.4917 58.3413 92.9617 58.2872 93.7307C58.2408 94.492 58.2176 95.3892 58.2176 96.4223C58.2176 96.6087 58.2447 96.7408 58.2988 96.8185C58.3529 96.8961 58.4456 96.935 58.577 96.935C58.6466 96.935 58.7123 96.9311 58.7741 96.9233C58.8437 96.9156 58.8901 96.9117 58.9132 96.9117L58.948 96.9699L58.8321 97.6807C58.7471 97.6729 58.577 97.6652 58.322 97.6574C58.0746 97.6496 57.8195 97.6457 57.5568 97.6457C57.3171 97.6457 57.0428 97.6613 56.7336 97.6924C56.4321 97.7312 56.235 97.7584 56.1423 97.7739L56.235 97.0398ZM57.4524 91.1323C57.1973 91.1323 57.0002 91.0585 56.8611 90.9109C56.722 90.7633 56.6524 90.5652 56.6524 90.3167C56.6524 90.037 56.7336 89.8118 56.8959 89.6409C57.0659 89.47 57.2901 89.3845 57.5683 89.3845C57.8157 89.3845 58.0089 89.4622 58.148 89.6176C58.2872 89.7651 58.3567 89.9632 58.3567 90.2118C58.3567 90.4837 58.2717 90.7051 58.1017 90.876C57.9394 91.0469 57.7229 91.1323 57.4524 91.1323Z" fill="#A40700"/>
<path d="M61.1856 97.7856C60.9073 97.7856 60.6522 97.7623 60.4204 97.7157C60.1962 97.669 60.0184 97.6224 59.887 97.5758C59.7556 97.5215 59.6745 97.4865 59.6436 97.471L59.574 97.3544C59.6049 97.1447 59.632 96.9 59.6552 96.6204C59.6861 96.3407 59.7093 96.0727 59.7247 95.8164L60.3624 95.7581C60.3701 96.5427 60.7141 96.935 61.3942 96.935C61.6184 96.935 61.8039 96.8884 61.9508 96.7952C62.0976 96.6942 62.171 96.5699 62.171 96.4223C62.171 96.2669 62.0937 96.1271 61.9392 96.0028C61.7846 95.8708 61.4754 95.6921 61.0116 95.4668C60.5479 95.2493 60.2117 95.0202 60.003 94.7794C59.7943 94.5308 59.6899 94.2434 59.6899 93.9171C59.6899 93.5676 59.7904 93.2607 59.9914 92.9966C60.1923 92.7247 60.4745 92.515 60.8377 92.3674C61.201 92.2121 61.6145 92.1344 62.0783 92.1344C62.3024 92.1344 62.5111 92.1499 62.7044 92.181C62.8976 92.2121 63.0483 92.247 63.1565 92.2858C63.2725 92.3169 63.3459 92.3363 63.3768 92.3441L63.4348 92.4606C63.4193 92.5461 63.3845 92.7403 63.3304 93.0432C63.284 93.3384 63.2454 93.6452 63.2145 93.9637L62.5652 94.0103L62.5768 93.8006C62.5768 93.5287 62.5111 93.3306 62.3797 93.2064C62.2483 93.0743 62.0435 93.0083 61.7652 93.0083C61.5643 93.0083 61.3942 93.0588 61.2551 93.1597C61.116 93.253 61.0464 93.3734 61.0464 93.521C61.0464 93.6685 61.1083 93.8045 61.2319 93.9288C61.3556 94.0531 61.5604 94.1851 61.8464 94.3249C62.3024 94.5424 62.6503 94.7366 62.8899 94.9075C63.1372 95.0784 63.3072 95.2532 63.4 95.4319C63.5005 95.6028 63.5507 95.8086 63.5507 96.0494C63.5507 96.3679 63.4464 96.6592 63.2377 96.9233C63.029 97.1874 62.743 97.3972 62.3797 97.5525C62.0165 97.7079 61.6184 97.7856 61.1856 97.7856Z" fill="#A40700"/>
<path d="M66.7994 97.7856C66.011 97.7856 65.3888 97.5486 64.9327 97.0748C64.4767 96.5932 64.2487 95.9368 64.2487 95.1056C64.2487 94.5308 64.3685 94.0181 64.6081 93.5676C64.8477 93.117 65.1801 92.7675 65.6052 92.5189C66.038 92.2625 66.525 92.1344 67.066 92.1344C67.3211 92.1344 67.5568 92.1538 67.7732 92.1926C67.9974 92.2237 68.1713 92.2587 68.295 92.2975C68.4264 92.3286 68.5075 92.3519 68.5384 92.3674L68.5848 92.4723C68.5771 92.5189 68.5539 92.6276 68.5153 92.7985C68.4843 92.9617 68.4496 93.1753 68.4109 93.4394C68.3723 93.7035 68.3452 93.9793 68.3298 94.2667L67.5877 94.3133V93.9288C67.5877 93.6647 67.522 93.4627 67.3906 93.3229C67.267 93.1753 67.0892 93.1015 66.8573 93.1015C66.4941 93.1015 66.2158 93.2374 66.0226 93.5093C65.8371 93.7734 65.7443 94.154 65.7443 94.6512C65.7443 95.2882 65.8564 95.7775 66.0805 96.1193C66.3047 96.4611 66.6216 96.632 67.0312 96.632C67.2245 96.632 67.41 96.6087 67.5877 96.5621C67.7732 96.5077 67.924 96.4534 68.0399 96.399C68.1636 96.3446 68.2409 96.3097 68.2718 96.2941L68.3529 96.3291L68.5384 96.9233C68.4843 96.9699 68.3607 97.0631 68.1674 97.203C67.9742 97.335 67.7501 97.4671 67.495 97.5991C67.2399 97.7234 67.008 97.7856 66.7994 97.7856Z" fill="#A40700"/>
<path d="M69.1852 96.9699C69.3861 96.9466 69.5253 96.8923 69.6025 96.8068C69.6876 96.7136 69.7301 96.5582 69.7301 96.3407V90.6779C69.7301 90.4293 69.6953 90.2584 69.6257 90.1652C69.5562 90.072 69.4286 90.0254 69.2431 90.0254H68.9765L68.9301 89.9788L68.9997 89.3729C69.8344 89.2563 70.6151 89.1321 71.3416 89L71.4228 89.2214C71.3455 89.3068 71.2798 89.6952 71.2257 90.3866C71.1716 91.0702 71.1291 91.9868 71.0982 93.1364C71.3455 92.8956 71.6276 92.6704 71.9445 92.4606C72.2691 92.2431 72.5049 92.1344 72.6517 92.1344C73.2082 92.1344 73.6372 92.2664 73.9387 92.5305C74.2401 92.7869 74.3908 93.1559 74.3908 93.6375C74.3908 93.8239 74.356 94.2317 74.2865 94.8609C74.2092 95.6533 74.1705 96.1621 74.1705 96.3873C74.1705 96.5893 74.1976 96.733 74.2517 96.8185C74.3135 96.9039 74.4102 96.9466 74.5416 96.9466L74.8894 96.9233L74.9126 96.9699L74.8082 97.6807L74.5416 97.669C74.0933 97.6535 73.7648 97.6457 73.5561 97.6457C73.2701 97.6457 72.8411 97.6768 72.2691 97.739L72.3271 97.0165C72.5203 96.9777 72.6595 96.9078 72.7445 96.8068C72.8295 96.7058 72.872 96.5582 72.872 96.364L72.9184 94.3482C72.9261 93.6724 72.6749 93.3345 72.1648 93.3345C72.0334 93.3345 71.8634 93.3811 71.6547 93.4743C71.4537 93.5598 71.2643 93.6763 71.0866 93.8239C71.0711 94.2744 71.0634 95.1367 71.0634 96.4106C71.0634 96.6048 71.0904 96.7408 71.1445 96.8185C71.1986 96.8961 71.2875 96.935 71.4112 96.935L71.7126 96.9233L71.7358 96.9816L71.6199 97.6807C71.5194 97.6807 71.4421 97.6768 71.388 97.669C70.9397 97.6535 70.5996 97.6457 70.3677 97.6457C69.9194 97.6457 69.4905 97.6574 69.0808 97.6807L69.1852 96.9699Z" fill="#A40700"/>
<path d="M32.8361 119.217C32.8693 118.768 32.9343 117.777 33.031 116.243C33.1358 114.712 33.2258 113.208 33.3011 111.73C33.3179 111.469 33.2581 111.252 33.1215 111.079C32.988 110.898 32.7664 110.744 32.4567 110.615L32.451 110.558L32.7333 110.07C32.8375 110.11 33.027 110.193 33.3015 110.317C33.5872 110.436 33.8584 110.545 34.115 110.643C34.3797 110.745 34.7187 110.857 35.132 110.979C35.5564 111.096 35.8359 111.171 35.9704 111.205L35.9742 111.303L35.7465 111.756C35.3011 111.622 34.994 111.559 34.825 111.568C34.6641 111.58 34.5499 111.675 34.4824 111.852C34.421 112.013 34.3143 112.933 34.1622 114.612C34.0133 116.283 33.9147 117.424 33.8663 118.033L33.9746 118.075C36.6199 115.137 37.9917 113.539 38.0899 113.281C38.1544 113.112 38.1362 112.966 38.0355 112.844C37.9379 112.715 37.7407 112.592 37.4439 112.478L36.8183 112.238L36.8127 112.18L37.0829 111.688C37.1841 111.736 37.4065 111.84 37.7502 112C38.1019 112.163 38.4422 112.308 38.7711 112.434C39.0678 112.548 39.3421 112.649 39.5938 112.737C39.8535 112.828 40.025 112.884 40.1083 112.907L39.7956 113.438C39.5439 113.351 39.3561 113.325 39.2323 113.36C39.1084 113.396 38.9578 113.513 38.7806 113.713L33.7074 119.248L32.8361 119.217Z" fill="#A40700"/>
<path d="M38.9197 120.57C39.176 120.607 39.3623 120.569 39.4786 120.455C39.597 120.334 39.7047 120.076 39.8015 119.682L40.4815 116.917C40.5495 116.641 40.5605 116.434 40.5143 116.298C40.4681 116.162 40.3616 116.074 40.1949 116.032C40.1282 116.016 40.0688 116.005 40.0167 116.001C39.973 115.999 39.9417 116.001 39.923 116.005L39.8821 115.901L40.0154 115.521C40.3467 115.541 40.6977 115.553 41.0684 115.556C41.4476 115.561 41.6902 115.564 41.7964 115.563L41.8654 115.66C41.8302 115.732 41.7619 115.902 41.6606 116.17C41.5613 116.43 41.4859 116.682 41.4345 116.927L41.4753 116.977C41.8222 116.646 42.1934 116.395 42.5887 116.227C42.9923 116.06 43.3192 116.008 43.5693 116.07C43.686 116.099 43.7715 116.13 43.8258 116.161C43.8904 116.186 43.93 116.204 43.9446 116.217L43.9698 116.277C43.9243 116.39 43.8249 116.632 43.6718 117.003C43.529 117.367 43.4143 117.708 43.3277 118.024L42.8307 117.941C42.9152 117.597 42.9458 117.365 42.9226 117.243C42.9097 117.116 42.8366 117.035 42.7032 117.002C42.5198 116.957 42.3043 116.988 42.0567 117.095C41.8112 117.194 41.5689 117.352 41.33 117.568C41.2619 117.809 41.1463 118.207 40.9832 118.762C40.8201 119.317 40.6922 119.766 40.5994 120.107C40.5293 120.392 40.5236 120.595 40.5822 120.716C40.6409 120.837 40.7869 120.927 41.0203 120.985C41.1287 121.012 41.2381 121.035 41.3486 121.053C41.459 121.072 41.5351 121.086 41.5768 121.097L41.5769 121.15L41.3284 121.675C41.245 121.654 41.0793 121.609 40.8312 121.538C40.5832 121.468 40.3257 121.399 40.059 121.333C39.7505 121.256 39.4702 121.191 39.218 121.138C38.9637 121.092 38.8022 121.065 38.7335 121.057L38.9197 120.57Z" fill="#A40700"/>
<path d="M44.4474 121.913C44.7125 121.885 44.9102 121.815 45.0403 121.705C45.1718 121.585 45.2548 121.415 45.2892 121.193L45.7933 117.944C45.8648 117.484 45.7435 117.229 45.4296 117.18C45.3702 117.17 45.3052 117.169 45.2347 117.175C45.1655 117.173 45.1217 117.175 45.1034 117.181L45.2278 116.716C45.5921 116.72 45.9676 116.709 46.3542 116.682C46.7493 116.657 47.0039 116.64 47.1182 116.632L47.158 116.795C47.0539 116.962 46.9006 117.502 46.6983 118.414C46.4973 119.317 46.3188 120.271 46.1626 121.278C46.1243 121.525 46.1298 121.714 46.1791 121.844C46.2298 121.965 46.3357 122.039 46.497 122.064C46.5903 122.079 46.6801 122.088 46.7662 122.093C46.8524 122.098 46.9125 122.103 46.9464 122.108L46.9639 122.163L46.7768 122.697C46.7017 122.677 46.5588 122.646 46.348 122.604C46.1372 122.562 45.9045 122.521 45.6499 122.482C45.4293 122.447 45.1714 122.428 44.8763 122.426C44.5896 122.425 44.4026 122.426 44.3151 122.43L44.4474 121.913ZM46.6142 115.007C46.419 114.976 46.2762 114.888 46.1858 114.743C46.0953 114.598 46.064 114.436 46.0917 114.257C46.1235 114.052 46.2228 113.888 46.3895 113.766C46.5576 113.635 46.7477 113.586 46.9598 113.619C47.155 113.65 47.2978 113.738 47.3883 113.883C47.4787 114.028 47.5101 114.191 47.4823 114.37C47.4505 114.574 47.3506 114.742 47.1825 114.873C47.0158 114.995 46.8263 115.04 46.6142 115.007Z" fill="#A40700"/>
<path d="M50.4844 115.216C50.2961 115.201 50.147 115.128 50.037 114.997C49.9356 114.868 49.893 114.704 49.9092 114.506C49.9268 114.291 50.0144 114.117 50.1719 113.982C50.3293 113.848 50.5151 113.79 50.7291 113.808C50.9088 113.822 51.0533 113.899 51.1626 114.038C51.2725 114.169 51.3197 114.328 51.3042 114.518C51.2866 114.733 51.1991 114.907 51.0416 115.042C50.8841 115.176 50.6984 115.234 50.4844 115.216ZM48.2526 125.736L48.2867 125.635C48.685 125.295 48.9671 124.903 49.1328 124.458C49.3071 124.013 49.4305 123.348 49.5031 122.462L49.8308 118.462C49.8526 118.195 49.8289 118.011 49.7596 117.91C49.6996 117.801 49.5712 117.739 49.3743 117.723C49.2973 117.716 49.2242 117.714 49.155 117.717C49.0944 117.721 49.0509 117.726 49.0245 117.733L49.1149 117.259C49.4437 117.243 49.8085 117.209 50.2093 117.155C50.61 117.102 50.8714 117.067 50.9933 117.051L51.0448 117.211C50.8789 117.449 50.6419 119.447 50.334 123.206C50.2833 123.825 50.0959 124.377 49.7719 124.861C49.4479 125.345 49.0118 125.725 48.4636 126L48.2526 125.736Z" fill="#A40700"/>
<path d="M55.0214 123.347C54.4374 123.345 54.0257 123.226 53.7862 122.992C53.5467 122.75 53.4281 122.344 53.4305 121.774L53.4435 118.589C53.4444 118.356 53.3936 118.192 53.2909 118.096C53.1882 118.001 52.9952 117.949 52.7119 117.939L52.6606 117.861L52.7266 117.473C52.9762 117.353 53.2172 117.207 53.4498 117.036C53.691 116.855 53.8849 116.701 54.0314 116.572C54.1866 116.434 54.2857 116.344 54.3288 116.301L54.586 116.406C54.5773 116.449 54.564 116.552 54.5461 116.716C54.5283 116.88 54.5059 117.1 54.479 117.376L56.3728 117.345L56.4113 117.384L56.2926 118.07L54.4248 118.023C54.3608 118.973 54.3264 120.051 54.3214 121.26C54.3196 121.7 54.3914 122.011 54.5366 122.193C54.6905 122.375 54.952 122.466 55.3213 122.468C55.4501 122.468 55.579 122.452 55.708 122.418C55.837 122.384 55.9444 122.35 56.0305 122.315C56.1165 122.273 56.1724 122.247 56.1982 122.238L56.3257 122.576C56.274 122.619 56.162 122.7 55.9898 122.82C55.8261 122.94 55.6452 123.06 55.4472 123.18C55.2578 123.292 55.1159 123.347 55.0214 123.347Z" fill="#A40700"/>
<path d="M58.0071 122.674C58.2521 122.622 58.4161 122.539 58.4992 122.426C58.5909 122.312 58.624 122.135 58.5987 121.895L57.8776 115.046C57.8532 114.814 57.7972 114.651 57.7095 114.556C57.6209 114.452 57.4954 114.409 57.3332 114.427L57.0641 114.455L57.0088 114.422L57.0167 114.005C57.3035 113.939 57.6269 113.853 57.9869 113.745C58.346 113.629 58.6415 113.524 58.8734 113.43L58.9679 113.589C58.918 113.69 58.9066 114.155 58.9335 114.985C58.969 115.815 59.033 116.832 59.1253 118.038C60.0284 117.265 60.6337 116.862 60.9412 116.829C61.4963 116.77 61.943 116.87 62.2811 117.129C62.6193 117.388 62.816 117.78 62.8711 118.303C62.8892 118.475 62.9008 118.873 62.9061 119.497C62.935 120.51 62.9621 121.136 62.9874 121.376C63.0136 121.625 63.0672 121.806 63.1481 121.919C63.2282 122.023 63.3494 122.067 63.5116 122.05L63.9573 121.976L63.9883 122.025L63.9441 122.589C63.3778 122.624 62.9964 122.651 62.7999 122.672C62.4583 122.708 62.0239 122.807 61.4967 122.967L61.4924 122.434C61.7414 122.338 61.9146 122.219 62.0121 122.079C62.1086 121.93 62.1452 121.744 62.1217 121.52L61.9301 118.963C61.885 118.534 61.7562 118.213 61.5439 118.002C61.3402 117.789 61.0675 117.701 60.7259 117.737C60.5124 117.76 60.2549 117.857 59.9533 118.028C59.6603 118.198 59.4004 118.394 59.1735 118.618C59.2491 119.582 59.3461 120.626 59.4644 121.751C59.4925 122.017 59.5465 122.202 59.6266 122.306C59.7057 122.402 59.8307 122.441 60.0015 122.423L60.4472 122.349L60.4782 122.398L60.4212 122.964C59.8292 123.001 59.4393 123.029 59.2514 123.049C58.8842 123.088 58.4623 123.142 57.9858 123.21L58.0071 122.674Z" fill="#A40700"/>
<path d="M68.3105 121.787C67.8341 121.901 67.3844 121.883 66.9613 121.736C66.5381 121.588 66.1726 121.329 65.8646 120.959C65.563 120.579 65.3479 120.116 65.2191 119.57C65.0805 118.982 65.0791 118.414 65.2149 117.868C65.3571 117.31 65.6169 116.84 65.9945 116.458C66.37 116.067 66.8294 115.807 67.3725 115.677C67.8405 115.566 68.2861 115.584 68.7092 115.731C69.1407 115.877 69.5073 116.14 69.8088 116.52C70.1168 116.891 70.3351 117.349 70.4639 117.895C70.6025 118.482 70.6008 119.055 70.4586 119.612C70.3228 120.159 70.0671 120.628 69.6915 121.019C69.314 121.402 68.8536 121.658 68.3105 121.787ZM68.5159 121.086C68.9838 120.975 69.3111 120.697 69.4978 120.254C69.6824 119.802 69.6975 119.248 69.543 118.593C69.4261 118.097 69.2469 117.674 69.0054 117.324C68.7619 116.965 68.4765 116.709 68.1492 116.557C67.8303 116.402 67.4996 116.365 67.1569 116.447C66.689 116.558 66.3627 116.84 66.178 117.292C65.9934 117.744 65.9793 118.302 66.1357 118.965C66.2526 119.461 66.4318 119.884 66.6733 120.234C66.9149 120.585 67.1951 120.838 67.514 120.992C67.8309 121.138 68.1649 121.17 68.5159 121.086Z" fill="#A40700"/>
<path d="M72.9673 119.878C73.4063 119.65 73.5531 119.328 73.4078 118.913L72.254 115.615C72.1775 115.423 72.0766 115.316 71.9514 115.297C71.8314 115.266 71.6186 115.295 71.3132 115.385L71.2389 115.329L71.1787 114.884L71.8608 114.491L71.8437 114.443C71.5987 113.742 71.4985 113.092 71.543 112.49C71.5956 111.886 71.7801 111.373 72.0964 110.95C72.4208 110.524 72.8666 110.211 73.4337 110.011C73.6768 109.925 73.9053 109.862 74.1192 109.823C74.3412 109.781 74.5161 109.761 74.6438 109.761C74.7767 109.751 74.8622 109.748 74.9003 109.753L74.9631 109.854C74.953 109.904 74.9345 110.02 74.9076 110.203C74.886 110.376 74.8715 110.568 74.8641 110.781L74.7433 110.865C74.7023 110.852 74.6042 110.832 74.4489 110.805C74.3018 110.774 74.1115 110.764 73.878 110.773C73.6527 110.78 73.4225 110.824 73.1876 110.907C72.7258 111.07 72.447 111.379 72.3512 111.834C72.2525 112.281 72.329 112.89 72.5806 113.661L72.7779 114.263C73.1992 114.115 73.5583 113.983 73.8552 113.869C74.1521 113.755 74.3478 113.677 74.4421 113.634L74.4914 113.658L74.5964 114.348C74.5044 114.371 74.3112 114.431 74.0166 114.526C73.7302 114.618 73.3845 114.735 72.9794 114.878L74.2171 118.572C74.2969 118.8 74.4053 118.954 74.5424 119.033C74.6848 119.102 74.8613 119.099 75.0719 119.025C75.2664 118.956 75.4229 118.896 75.5416 118.845C75.6684 118.791 75.752 118.757 75.7926 118.742L75.834 118.783L75.9326 119.338C75.8192 119.378 75.6112 119.447 75.3086 119.545C75.006 119.643 74.7088 119.743 74.4172 119.846C74.1336 119.946 73.8555 120.049 73.5829 120.155C73.3213 120.265 73.1513 120.339 73.0732 120.376L72.9673 119.878Z" fill="#A40700"/>
<g clip-path="url(#clip3_832:6638)">
<path d="M86.4406 44.2602C86.3493 44.2607 86.2757 44.3351 86.2761 44.4264C86.2766 44.5177 86.351 44.5913 86.4423 44.5907C86.4935 44.5905 86.5385 44.5665 86.5685 44.5299L86.795 44.659L86.4682 44.7484C86.4442 44.755 86.4301 44.7798 86.4366 44.8038C86.4421 44.824 86.4604 44.8372 86.4804 44.8371C86.4842 44.837 86.4882 44.8365 86.4921 44.8354L86.9059 44.7222L87.2005 44.8902L86.6574 45.039C86.6334 45.0456 86.6193 45.0704 86.6259 45.0945C86.6314 45.1146 86.6497 45.1278 86.6696 45.1277C86.6734 45.1277 86.6774 45.127 86.6813 45.1261L87.3114 44.9535L87.4057 45.0073L86.8626 45.1559C86.8385 45.1626 86.8244 45.1875 86.831 45.2114C86.8365 45.2316 86.8548 45.2447 86.8748 45.2446C86.8786 45.2446 86.8827 45.244 86.8865 45.243L87.5165 45.0705L87.8912 45.2839L87.5188 45.5015L86.8869 45.336C86.8624 45.3298 86.8381 45.3442 86.8318 45.3683C86.8254 45.3923 86.84 45.417 86.864 45.4234L87.4086 45.566L87.315 45.6208L86.6831 45.4552C86.6586 45.4489 86.6342 45.4634 86.628 45.4874C86.6216 45.5115 86.636 45.5362 86.6601 45.5426L87.2048 45.6853L86.9119 45.8564L86.497 45.7478C86.4725 45.7416 86.4482 45.756 86.4418 45.78C86.4355 45.8042 86.45 45.8288 86.474 45.8352L86.8017 45.9209L86.574 46.054C86.5435 46.0197 86.4995 45.9977 86.45 45.998C86.3587 45.9986 86.285 46.073 86.2856 46.1643C86.286 46.2554 86.3605 46.3291 86.4518 46.3287C86.543 46.3281 86.6167 46.2538 86.6162 46.1624C86.6162 46.1547 86.6149 46.1474 86.6138 46.14L86.8424 46.017L86.7614 46.3262C86.7551 46.3504 86.7695 46.375 86.7936 46.3814C86.7976 46.3825 86.8015 46.3829 86.8053 46.3829C86.8253 46.3828 86.8434 46.3694 86.8487 46.3492L86.9512 45.9584L87.2398 45.8035L87.1077 46.3077C87.1014 46.3319 87.1158 46.3565 87.1398 46.3628C87.1438 46.3638 87.1478 46.3644 87.1516 46.3644C87.1716 46.3642 87.1897 46.3509 87.195 46.3306L87.3485 45.7452L87.4406 45.6956L87.3115 46.1885C87.3051 46.2127 87.3197 46.2373 87.3437 46.2437C87.3475 46.2446 87.3516 46.2451 87.3554 46.2451C87.3755 46.245 87.3935 46.2316 87.3988 46.2113L87.5494 45.6372L87.903 45.4473L87.9133 45.8191L87.4797 46.2574C87.4622 46.2751 87.4623 46.3037 87.48 46.3214C87.4889 46.3301 87.5005 46.3344 87.5121 46.3342C87.5237 46.3342 87.5352 46.3298 87.5439 46.3209L87.9168 45.944L87.9197 46.0501L87.481 46.4936C87.4635 46.5112 87.4637 46.5398 87.4814 46.5574C87.4903 46.5662 87.5018 46.5704 87.5134 46.5704C87.525 46.5703 87.5365 46.5659 87.5453 46.5569L87.9232 46.1749L87.9322 46.5067L87.6414 46.8009C87.6238 46.8185 87.624 46.8471 87.6418 46.8646C87.6506 46.8734 87.6623 46.8777 87.6738 46.8777C87.6854 46.8776 87.6969 46.873 87.7056 46.8641L87.9356 46.6317L87.9422 46.8696C87.8746 46.8906 87.8254 46.953 87.8258 47.0276C87.8263 47.1189 87.9007 47.1925 87.9921 47.192C88.0833 47.1915 88.157 47.1171 88.1564 47.0258C88.1561 46.9512 88.1062 46.8894 88.0384 46.8691L88.0423 46.6311L88.2748 46.8611C88.2925 46.8786 88.3211 46.8785 88.3387 46.8608C88.3562 46.8431 88.3561 46.8144 88.3383 46.797L88.0444 46.5061L88.0497 46.1741L88.4319 46.552C88.4496 46.5695 88.4782 46.5694 88.4957 46.5516C88.5133 46.5339 88.5131 46.5055 88.4954 46.4879L88.0518 46.0491L88.0535 45.9431L88.4306 46.3159C88.4482 46.3335 88.4769 46.3332 88.4944 46.3154C88.512 46.2978 88.5118 46.2692 88.494 46.2517L88.0556 45.8181L88.0617 45.4463L88.4175 45.6324L88.5743 46.2048C88.5798 46.2249 88.598 46.2382 88.6181 46.2381C88.6219 46.238 88.6258 46.2373 88.6298 46.2364C88.6537 46.2298 88.6679 46.205 88.6614 46.1809L88.5268 45.6895L88.6195 45.7381L88.7794 46.3218C88.7848 46.3419 88.8032 46.3551 88.8232 46.3551C88.827 46.355 88.8309 46.3544 88.8349 46.3533C88.859 46.3468 88.8731 46.322 88.8665 46.298L88.7286 45.7952L89.0189 45.9471L89.1256 46.3367C89.1312 46.3568 89.1495 46.3699 89.1694 46.3698C89.1733 46.3698 89.1772 46.3692 89.1812 46.3683C89.2052 46.3616 89.2193 46.3368 89.2128 46.3128L89.1282 46.0043L89.3457 46.1181C89.344 46.1276 89.3428 46.1372 89.3429 46.1473C89.3434 46.2385 89.4178 46.3122 89.5091 46.3117C89.6004 46.3112 89.674 46.2367 89.6736 46.1454C89.673 46.0541 89.5986 45.9805 89.5073 45.981C89.4602 45.9812 89.4181 46.0015 89.3881 46.0332L89.1679 45.9077L89.4945 45.8184C89.5185 45.8117 89.5326 45.7869 89.5262 45.7629C89.5196 45.7389 89.4951 45.7248 89.4706 45.7312L89.057 45.8445L88.7622 45.6765L89.3053 45.5279C89.3293 45.5212 89.3436 45.4963 89.3369 45.4724C89.3304 45.4484 89.3061 45.4342 89.2814 45.4407L88.6514 45.6133L88.5572 45.5596L89.1002 45.4109C89.1242 45.4042 89.1385 45.3794 89.1318 45.3554C89.1254 45.3314 89.1009 45.3173 89.0764 45.3237L88.4464 45.4962L88.0717 45.2828L88.4439 45.0652L89.0758 45.2308C89.0797 45.2318 89.0837 45.2323 89.0875 45.2323C89.1076 45.2322 89.1257 45.2189 89.1311 45.1986C89.1373 45.1745 89.1229 45.1499 89.0988 45.1435L88.5542 45.0007L88.6478 44.9459L89.2797 45.1115C89.2837 45.1125 89.2876 45.1131 89.2914 45.1131C89.3115 45.113 89.3296 45.0996 89.3349 45.0793C89.3413 45.0552 89.3267 45.0305 89.3027 45.0241L88.758 44.8814L89.0508 44.7103L89.4659 44.8188C89.4698 44.8198 89.4737 44.8204 89.4775 44.8203C89.4974 44.8202 89.5157 44.8069 89.521 44.7866C89.5273 44.7625 89.5128 44.7379 89.4887 44.7315L89.1611 44.6457L89.3702 44.5234C89.4005 44.5545 89.4427 44.574 89.4895 44.5737C89.5807 44.5732 89.6544 44.4988 89.6539 44.4075C89.6534 44.3162 89.579 44.2427 89.4876 44.2431C89.3964 44.2437 89.3227 44.318 89.3232 44.4093C89.3233 44.4196 89.3245 44.4293 89.3263 44.4389L89.1204 44.5496L89.2015 44.2402C89.2078 44.2162 89.1934 44.1916 89.1693 44.1852C89.1449 44.179 89.1204 44.1934 89.1142 44.2173L89.0117 44.608L88.7233 44.763L88.8554 44.2588C88.8616 44.2347 88.8472 44.21 88.8232 44.2037C88.7986 44.1976 88.7743 44.2119 88.7681 44.236L88.6147 44.8213L88.5223 44.8709L88.6516 44.3781C88.6578 44.354 88.6434 44.3292 88.6192 44.3229C88.5949 44.3166 88.5705 44.3312 88.5642 44.3551L88.4137 44.9293L88.0599 45.1192L88.0497 44.7475L88.4833 44.3089C88.5009 44.2913 88.5006 44.2627 88.4829 44.2452C88.4653 44.2277 88.4366 44.2278 88.4192 44.2456L88.0463 44.6225L88.0433 44.5165L88.482 44.073C88.4996 44.0552 88.4994 44.0267 88.4817 44.0092C88.464 43.9915 88.4353 43.9916 88.4179 44.0095L88.04 44.3915L88.0309 44.0596L88.3216 43.7656C88.3392 43.7478 88.339 43.7193 88.3212 43.7018C88.3034 43.6843 88.275 43.6845 88.2576 43.7021L88.0275 43.9347L88.0204 43.675C88.0883 43.6542 88.1376 43.5916 88.1372 43.5169C88.1367 43.4255 88.0622 43.352 87.9709 43.3525C87.8797 43.353 87.8061 43.4274 87.8065 43.5187C87.8069 43.5934 87.8571 43.6554 87.9251 43.6755L87.9208 43.9353L87.6882 43.7051C87.6706 43.6877 87.642 43.6878 87.6245 43.7056C87.607 43.7232 87.6072 43.7519 87.6249 43.7694L87.9189 44.0603L87.9134 44.3921L87.5314 44.0144C87.5136 43.9967 87.485 43.997 87.4675 44.0147C87.45 44.0324 87.4502 44.061 87.4679 44.0785L87.9114 44.517L87.9097 44.6232L87.5327 44.2504C87.515 44.2328 87.4863 44.233 87.4688 44.2508C87.4514 44.2685 87.4515 44.297 87.4692 44.3145L87.9076 44.7481L87.9015 45.1202L87.5456 44.9341L87.3886 44.3617C87.382 44.3378 87.3578 44.3236 87.3331 44.3301C87.3091 44.3366 87.2949 44.3615 87.3014 44.3857L87.4361 44.8769L87.3432 44.8285L87.1834 44.2448C87.1769 44.2209 87.1525 44.2068 87.1279 44.2132C87.1038 44.2197 87.0896 44.2446 87.0963 44.2686L87.2339 44.7712L86.9437 44.6195L86.837 44.23C86.8304 44.2061 86.8063 44.192 86.7815 44.1984C86.7575 44.2051 86.7434 44.2299 86.7499 44.2539L86.8346 44.5623L86.605 44.4423C86.6057 44.4363 86.6067 44.4305 86.6067 44.4245C86.6062 44.3332 86.5318 44.2597 86.4406 44.2602Z" fill="#A40700"/>
</g>
<rect x="54.567" width="1" height="17.7859" fill="white"/>
<defs>
<clipPath id="clip0_832:6638">
<rect width="4.87963" height="4.87963" fill="white" transform="translate(52.1018 33.2408)"/>
</clipPath>
<clipPath id="clip1_832:6638">
<rect width="7.39815" height="7.39815" fill="white" transform="translate(66.8982 20.0184)"/>
</clipPath>
<clipPath id="clip2_832:6638">
<rect width="5.82407" height="5.82407" fill="white" transform="translate(23.7686 43.7871)"/>
</clipPath>
<clipPath id="clip3_832:6638">
<rect width="4.25" height="4.25" fill="white" transform="translate(85.7871 43.1573)"/>
</clipPath>
</defs>
</svg>
