<svg width="101" height="141" viewBox="0 0 101 141" fill="none" xmlns="http://www.w3.org/2000/svg">
<path d="M100.997 90.9997C101.237 68.08 86.2437 48.582 65.4434 42.0788C65.0928 42.5851 64.5969 43.002 64.0382 43.2599C84.6571 49.2102 99.6772 68.4036 99.3944 90.936C99.0992 117.994 76.9092 139.681 49.8991 139.385C22.8891 139.089 1.23445 116.936 1.53628 89.8016C1.79255 67.5738 16.8987 48.9492 37.2362 43.2126C36.5655 43.0004 35.9907 42.5664 35.5745 42.0696C15.1838 48.4153 0.279059 67.3644 0.0028352 89.8206C-0.289479 117.723 22.0587 140.704 49.9115 140.997C77.7643 141.29 100.705 118.902 100.997 90.9997Z" fill="white"/>
<path d="M58.6442 43.6312C81.1281 47.5199 98.1605 67.35 97.8605 90.955C97.5692 117.093 76.0471 138.147 49.9558 137.855C23.8645 137.563 2.84733 116.003 3.13871 89.8653C3.43868 66.2603 20.9115 46.8457 43.4951 43.4543L38.3693 43.3887C37.9893 43.3554 37.6096 43.3221 37.2362 43.2126C16.8987 48.9492 1.79255 67.5738 1.53628 89.8016C1.2411 116.86 22.8891 139.089 49.8991 139.385C76.9092 139.681 99.0992 117.994 99.3944 90.936C99.6772 68.4036 84.6571 49.2102 64.0382 43.2599C63.5556 43.5245 62.9272 43.6996 62.3191 43.6463L58.6442 43.6312Z" fill="white"/>
<path d="M45.3233 22.5154C45.3546 19.5259 47.7849 17.1302 50.7691 17.1616C53.7534 17.193 56.1448 19.6276 56.1134 22.6171C56.0726 24.8386 54.677 26.7878 52.6903 27.6111L55.5225 27.6292C56.8583 26.3652 57.702 24.5977 57.7229 22.6047C57.7513 18.771 54.6597 15.5844 50.8328 15.5559C47.0058 15.5274 43.825 18.6245 43.7965 22.4583C43.7756 24.4513 44.5414 26.2064 45.8858 27.4751L48.718 27.4932C46.643 26.6975 45.3518 24.8196 45.3233 22.5154Z" fill="white"/>
<path d="M56.1892 22.6238C56.2206 19.6343 53.8292 17.1997 50.8449 17.1683C47.8607 17.1369 45.4304 19.5326 45.3991 22.5221C45.3583 24.7435 46.7188 26.7042 48.7112 27.5693L52.8421 27.6245C54.7528 26.7945 56.1418 24.9214 56.1892 22.6238ZM50.7244 26.4414C48.5829 26.4072 46.8984 24.6483 46.9259 22.5792C46.9534 20.51 48.7158 18.7463 50.7813 18.7739C52.9228 18.8082 54.6073 20.567 54.5798 22.6362C54.5456 24.7815 52.8659 26.4757 50.7244 26.4414Z" fill="white"/>
<path d="M36.2292 39.8254L36.3165 30.9329C36.3336 29.8603 37.2561 28.9437 38.3269 28.9608L48.3503 29.0721C47.3888 28.6809 46.5166 28.1441 45.8097 27.4684L38.5425 27.3685C36.477 27.3409 34.7973 29.0351 34.7764 31.0281L34.6397 39.6094C34.6359 40.5297 34.9428 41.4006 35.4976 42.063C36.0496 41.8812 36.6016 41.6994 37.223 41.6005C36.6415 41.2426 36.2387 40.5935 36.2292 39.8254Z" fill="white"/>
<path d="M53.0141 29.1737L62.7335 29.2583C63.8043 29.2754 64.7192 30.1996 64.7021 31.2722L64.6148 40.1647C64.6443 40.7043 64.3697 41.2173 63.9564 41.5648C64.4818 41.6875 65.0006 41.8864 65.526 42.0092C65.9592 41.4334 66.1777 40.6853 66.1682 39.9172L66.2156 31.4816C66.2432 29.4124 64.552 27.7297 62.5625 27.7088L55.5993 27.6356C54.8487 28.3371 53.9595 28.8729 53.0141 29.1737Z" fill="white"/>
<path d="M51.0443 42.9649C48.4402 42.9668 45.8987 43.1277 43.4132 43.5237L58.5624 43.7005C56.1568 43.1828 53.6485 42.963 51.0443 42.9649Z" fill="white"/>
<path d="M37.2353 43.213C39.2019 42.6181 41.2313 42.1822 43.3234 41.9052L38.1977 41.8396C37.8937 41.8129 37.5204 41.7032 37.223 41.6005C36.671 41.7823 36.1256 41.8879 35.4976 42.063C35.9898 42.5665 36.5645 43.0007 37.2353 43.213Z" fill="white"/>
<path d="M62.5289 42.13L58.7779 42.1081C60.5888 42.4203 62.317 42.8019 64.0319 43.3359C64.5906 43.0779 65.0865 42.6611 65.4371 42.1547C64.9184 41.9558 64.393 41.833 63.8676 41.7102C63.5436 41.912 63.0676 42.1005 62.5289 42.13Z" fill="white"/>
<path d="M43.325 41.9047C41.2329 42.1817 39.2029 42.6178 37.2362 43.2126C37.6096 43.3221 37.9827 43.4315 38.3693 43.3887L43.4951 43.4543C45.9805 43.0583 48.5229 42.8974 51.1271 42.8954C53.7313 42.8935 56.2329 43.1895 58.7212 43.6377L62.4721 43.6596C63.0868 43.6367 63.6322 43.5311 64.1908 43.2731C62.4692 42.8153 60.7477 42.3576 58.9368 42.0454L43.325 41.9047Z" fill="white"/>
<path d="M53.0141 29.1737C53.9595 28.8729 54.848 28.3373 55.5225 27.6292L52.7673 27.6176C52.1326 27.8688 51.4286 28.0373 50.6685 27.9707C49.9018 27.9802 49.2311 27.768 48.5603 27.5557L45.8041 27.5444C46.511 28.2201 47.3765 28.833 48.3447 29.1481L53.0141 29.1737Z" fill="white"/>
<path d="M50.6685 27.9707C51.4353 27.9612 52.1326 27.8688 52.7673 27.6176L48.6365 27.5624C49.3006 27.8508 49.9778 27.9869 50.6685 27.9707Z" fill="white"/>
<path d="M38.4151 40.2468C38.1111 40.2202 37.827 39.9651 37.8536 39.6605L37.9077 31.1488C37.9343 30.8442 38.1889 30.5596 38.4929 30.5863L62.5187 30.8506C62.8228 30.8772 63.1068 31.1323 63.0802 31.4369L62.9502 39.942C62.9236 40.2465 62.669 40.5311 62.3649 40.5045L58.9247 40.4331C60.5835 40.732 62.2357 41.107 63.8813 41.5581C64.2946 41.2107 64.4931 40.691 64.5397 40.158L64.627 31.2655C64.6441 30.1929 63.8051 29.2754 62.6584 29.2516L52.939 29.167C52.2283 29.4116 51.4483 29.5734 50.6056 29.5763C49.7628 29.5792 49.0094 29.4364 48.2693 29.1414L38.2459 29.0301C37.1751 29.013 36.2593 29.8534 36.2355 31.0022L36.1482 39.8947C36.1577 40.6628 36.5606 41.3119 37.1487 41.5936C39.1087 41.0749 41.0621 40.6323 43.1542 40.3553L38.4151 40.2468Z" fill="white"/>
<path d="M58.7779 42.1081L62.5289 42.13C63.0676 42.1005 63.5433 41.9122 63.874 41.6343C62.2284 41.1832 60.5762 40.8082 58.9173 40.5094L43.2361 40.2859C41.22 40.5695 39.1907 41.0055 37.2306 41.5242C37.5214 41.7031 37.8187 41.8059 38.2054 41.7631L43.3312 41.8287C45.8926 41.4394 48.4341 41.2785 51.1143 41.2832C53.7052 41.4336 56.2897 41.6599 58.7779 42.1081Z" fill="white"/>
<path d="M51.1083 41.3591C48.5042 41.361 45.8864 41.5154 43.325 41.9047L58.7779 42.1081C56.2897 41.6599 53.7059 41.4333 51.1083 41.3591Z" fill="white"/>
<path d="M50.6817 29.5828C51.5245 29.58 52.3045 29.4181 53.0151 29.1735L48.3447 29.1481C49.0848 29.4431 49.839 29.5857 50.6817 29.5828Z" fill="white"/>
<path d="M49.9138 17.3166L51.908 14.6525C53.9915 11.8429 64.6865 -1.87427 70.9675 0.747805C73.1119 1.62627 74.1618 3.63641 73.7342 5.9007C72.541 12.5479 62.3666 16.7968 53.222 17.1462L49.9138 17.3166ZM69.188 3.58412C66.9705 3.54322 62.0577 7.17907 56.5814 13.7578C65.5778 12.4747 70.1144 7.88519 70.6379 5.39915C70.787 4.56824 70.5296 4.0086 69.7134 3.7069C69.5681 3.61743 69.4161 3.60411 69.188 3.58412Z" fill="white"/>
<path d="M52.3599 17.3773L49.0849 17.167C39.9441 16.5961 29.8437 12.1048 28.8194 5.41663C28.4869 3.08573 29.5718 1.18597 31.7171 0.299839C38.0637 -2.21292 48.4037 11.8133 50.4578 14.602L52.3599 17.3773ZM33.3779 3.2075C33.1499 3.18752 32.9912 3.25033 32.8326 3.31315C32.0393 3.62725 31.7647 4.14026 31.9196 4.99781C32.3148 7.48765 36.7309 12.1713 45.7159 13.6493C40.4086 6.8927 35.6021 3.17226 33.3779 3.2075Z" fill="white"/>
<path d="M51.271 16.9729C51.7345 16.9782 52.1172 16.3666 52.1259 15.6068C52.1345 14.847 51.7658 14.2268 51.3024 14.2215C50.8389 14.2162 50.4562 14.8278 50.4475 15.5876C50.4388 16.3474 50.8075 16.9676 51.271 16.9729Z" fill="white"/>
<path d="M27.2465 93.2226C28.1463 93.2206 28.8737 92.615 29.0518 91.8033L33.7486 91.7566L30.4362 95.2164L31.1215 95.8278L35.0983 91.7535L37.5456 91.7119L34.2332 95.1717L34.9184 95.7831L38.8952 91.7088L41.3426 91.6672L38.0302 95.127L38.7154 95.7384L42.6922 91.6641L43.7269 91.6167C43.8117 93.3021 44.4901 94.878 45.6085 96.0653L44.9352 96.7428L39.2038 96.837L39.2058 97.7384L43.9745 97.6374L42.2508 99.39L36.5194 99.4842L36.5215 100.386L41.2901 100.285L39.5665 102.037L33.8351 102.131L33.8371 103.033L38.6058 102.932L35.3023 106.328C34.5905 105.906 33.61 106.026 33.0085 106.649C32.2634 107.381 32.2841 108.607 33.0235 109.29C33.754 110.037 34.9777 110.016 35.6598 109.275C36.2613 108.652 36.3311 107.696 35.9156 106.994L39.2191 103.597L39.3199 108.374L40.2197 108.372L40.1257 102.631L41.8493 100.878L41.9501 105.655L42.8499 105.653L42.7559 99.9117L44.4795 98.159L44.5803 102.936L45.4801 102.934L45.3861 97.1925L46.0594 96.5149C47.2585 97.5849 48.8347 98.2573 50.5535 98.3706L50.5467 99.3351L46.5699 103.409L47.2551 104.021L50.5675 100.561L50.609 103.013L46.6322 107.087L47.3175 107.698L50.6298 104.238L50.6714 106.69L46.6946 110.764L47.3798 111.376L50.6921 107.916L50.7388 112.621C49.9385 112.83 49.3193 113.58 49.3214 114.481C49.3687 115.518 50.2164 116.345 51.2421 116.361C52.2768 116.313 53.1027 115.464 53.1183 114.436C53.1163 113.535 52.5118 112.806 51.7016 112.628L51.6549 107.923L55.1086 111.241L55.7189 110.555L51.6519 106.571L51.6103 104.119L55.064 107.437L55.6743 106.751L51.6072 102.767L51.5657 100.315L55.0194 103.634L55.6297 102.947L51.5626 98.9632L51.5606 98.0618C53.2518 97.9137 54.8249 97.2341 56.0101 96.1137L56.6865 96.7882L56.7804 102.53L57.6802 102.528L57.5794 97.7507L59.3289 99.4773L59.4229 105.219L60.3227 105.217L60.2219 100.44L61.9714 102.166L62.0654 107.908L62.9651 107.906L62.8643 103.129L66.255 106.438C65.8337 107.151 65.9529 108.134 66.5751 108.736C67.3057 109.483 68.5293 109.462 69.2115 108.721C69.9566 107.989 69.9359 106.763 69.1965 106.08C68.5743 105.478 67.6204 105.408 66.9195 105.824L63.5288 102.514L68.2974 102.413L68.2954 101.512L62.564 101.606L60.8145 99.8796L65.5831 99.7786L65.581 98.8772L59.8496 98.9714L58.1002 97.2447L62.8688 97.1437L62.8667 96.2423L57.1353 96.3365L56.459 95.662C57.5358 94.3976 58.1441 92.8098 58.1941 91.079L59.2199 91.0947L63.287 95.0786L63.9603 94.401L60.5155 91.0197L62.9628 90.978L67.0298 94.9619L67.7031 94.2844L64.2583 90.903L66.7056 90.8614L70.9174 95.1874L71.5907 94.5099L68.1459 91.1285L72.8426 91.0818C73.0514 91.8835 73.7996 92.5038 74.6994 92.5017C75.7252 92.5174 76.551 91.6682 76.5756 90.5775C76.5912 89.5499 75.7436 88.7226 74.6548 88.698C73.755 88.7 73.0275 89.3056 72.8494 90.1173L68.1527 90.164L71.528 86.7131L70.8517 86.0386L66.8749 90.1128L64.4276 90.1545L67.8029 86.7035L67.1265 86.029L63.1497 90.1033L60.7024 90.1449L64.0778 86.6939L63.4014 86.0194L59.4246 90.0937L58.39 90.1412C58.2422 88.4469 57.5549 86.9341 56.4276 85.81L57.1816 85.015L62.913 84.9209L62.911 84.0195L58.1512 84.0574L59.8748 82.3048L65.6063 82.2106L65.6042 81.3092L60.8444 81.3471L62.5681 79.5945L68.2995 79.5003L68.0641 78.8879L63.3044 78.9258L66.6079 75.5291C67.3196 75.9511 68.3001 75.8317 68.9016 75.2084C69.6467 74.4766 69.626 73.2507 68.8866 72.5674C68.1561 71.8209 66.9324 71.8417 66.2503 72.5824C65.6488 73.2057 65.579 74.1613 65.9945 74.8634L62.691 78.2602L62.6532 73.4919L61.7534 73.494L61.8474 79.2356L60.1238 80.9882L60.086 76.2199L59.1862 76.222L59.2802 81.9636L57.5566 83.7162L57.5188 78.948L56.619 78.95L56.713 84.6916L55.896 85.4777C54.688 84.4709 53.1749 83.8073 51.5102 83.766L51.4806 82.6033L55.4574 78.529L54.781 77.8545L51.4056 81.3055L51.3641 78.8538L55.3409 74.7795L54.6645 74.105L51.2892 77.556L51.1935 75.0323L55.1703 70.958L54.4939 70.2835L51.1815 73.7434L51.1349 69.0383C51.9352 68.8291 52.5544 68.0796 52.5523 67.1782C52.568 66.1506 51.7203 65.3232 50.6315 65.2987C49.6057 65.283 48.7799 66.1321 48.7553 67.2229C48.7574 68.1243 49.3619 68.853 50.1721 69.0314L50.2188 73.7365L46.7739 70.3552L46.1006 71.0328L50.1677 75.0166L50.2722 77.4772L46.8815 74.1678L46.2082 74.8454L50.2753 78.8292L50.3168 81.2809L46.872 77.8995L46.1987 78.5771L50.2658 82.561L50.2954 83.7237C48.6041 83.8718 47.0941 84.5602 45.9177 85.6175L45.1242 84.8622L45.0302 79.1206L44.1304 79.1226L44.1682 83.8909L42.5448 82.1819L42.4508 76.4403L41.551 76.4424L41.5888 81.2106L39.8393 79.4839L39.7453 73.7423L38.8455 73.7444L38.8833 78.5126L35.4926 75.2032C35.9139 74.4902 35.7947 73.5079 35.1725 72.9054C34.442 72.159 33.2183 72.1798 32.5362 72.9205C31.791 73.6523 31.8118 74.8781 32.5512 75.5615C33.1734 76.164 34.1273 76.2339 34.8282 75.8177L38.2189 79.1271L33.4591 79.1649L33.4612 80.0663L39.1926 79.9722L40.9421 81.6988L36.1823 81.7367L36.1843 82.6381L41.9157 82.5439L43.6652 84.2706L38.9055 84.3085L38.8632 85.5254L44.5946 85.4313L45.3881 86.1866C44.3201 87.3879 43.7207 88.9126 43.5535 90.5625L42.5189 90.6099L38.4518 86.626L37.8415 87.3125L41.2952 90.6307L38.7849 90.6635L34.7178 86.6796L34.1076 87.3661L37.5612 90.6843L35.1139 90.7259L31.0469 86.742L30.4366 87.4285L33.8903 90.7467L29.1935 90.7935C28.9847 89.9917 28.2365 89.3715 27.3367 89.3735C26.3021 89.4209 25.4762 90.2701 25.4606 91.2977C25.31 92.3707 26.2207 93.2069 27.2465 93.2226ZM44.1945 91.4895L47.8654 91.427C47.9206 91.9497 48.1106 92.427 48.4355 92.8589L45.8772 95.5238C44.9389 94.4263 44.297 93.0486 44.1945 91.4895ZM46.4906 96.1895L49.0489 93.5246C49.4545 93.8391 49.9408 94.0363 50.5079 94.1161L50.5702 97.7936C49.0404 97.707 47.5814 97.1154 46.4906 96.1895ZM51.47 97.7916L51.4077 94.1141C51.9294 94.0588 52.4147 93.8053 52.8459 93.4799L55.5061 96.0428C54.4016 97.0458 53.0264 97.6889 51.47 97.7916ZM56.1075 95.4194L53.4473 92.8565C53.7613 92.4502 53.967 91.8999 53.9749 91.3861L57.6458 91.3237C57.6223 92.8651 57.0406 94.2635 56.1075 95.4194ZM57.6438 90.4223L53.9728 90.4847C53.8458 90.0163 53.6558 89.539 53.322 89.1702L55.8715 86.5684C56.8274 87.5397 57.4694 88.9174 57.6438 90.4223ZM55.1951 85.8939L52.6368 88.5588C52.2223 88.3074 51.799 88.119 51.2949 88.048L51.2326 84.3706C52.7713 84.3941 54.1673 84.9768 55.1951 85.8939ZM50.3959 84.3815L50.4582 88.059C49.9994 88.1231 49.523 88.3135 49.1637 88.5847L46.5035 86.0218C47.5361 85.073 48.9025 84.493 50.3959 84.3815ZM45.8302 86.6994L48.4274 89.2534C48.1852 89.6055 47.9254 90.0838 47.8634 90.5257L44.1924 90.5881C44.3331 89.1275 44.9148 87.7291 45.8302 86.6994Z" fill="white"/>
</svg>
