<svg width="32" height="33" viewBox="0 0 32 33" fill="none" xmlns="http://www.w3.org/2000/svg">
<circle cx="16" cy="16.8148" r="16" fill="white"/>
<mask id="mask0_963:132" style="mask-type:alpha" maskUnits="userSpaceOnUse" x="0" y="0" width="32" height="33">
<circle cx="16" cy="16.8148" r="16" fill="white"/>
</mask>
<g mask="url(#mask0_963:132)">
<path d="M21.6881 10.6106C21.6951 10.6106 21.7008 10.6049 21.7008 10.5979V10.5979C21.7008 10.5908 21.6951 10.5852 21.6881 10.5852V10.5852C21.6811 10.5852 21.6754 10.5908 21.6754 10.5979V10.5979C21.6754 10.6049 21.6811 10.6106 21.6881 10.6106V10.6106Z" fill="#A40700"/>
<path d="M21.9506 10.6106C21.9576 10.6106 21.9633 10.6049 21.9633 10.5979V10.5979C21.9633 10.5908 21.9576 10.5852 21.9506 10.5852V10.5852C21.9436 10.5852 21.9379 10.5908 21.9379 10.5979V10.5979C21.9379 10.6049 21.9436 10.6106 21.9506 10.6106V10.6106Z" fill="#A40700"/>
<path d="M21.8195 10.4462C21.8265 10.4462 21.8322 10.4405 21.8322 10.4335V10.4335C21.8322 10.4265 21.8265 10.4208 21.8195 10.4208V10.4208C21.8125 10.4208 21.8068 10.4265 21.8068 10.4335V10.4335C21.8068 10.4405 21.8125 10.4462 21.8195 10.4462V10.4462Z" fill="#A40700"/>
<path d="M17.6686 10.6074C17.6757 10.6074 17.6814 10.6008 17.6814 10.5938C17.6814 10.5867 17.6757 10.582 17.6686 10.582C17.6616 10.582 17.6559 10.5877 17.6559 10.5947C17.6559 10.6017 17.6616 10.6074 17.6686 10.6074Z" fill="#A40700"/>
<path d="M17.9311 10.6074C17.9382 10.6074 17.9439 10.6008 17.9439 10.5938C17.9439 10.5867 17.9382 10.582 17.9311 10.582C17.9241 10.582 17.9184 10.5867 17.9184 10.5938C17.9184 10.6008 17.9241 10.6074 17.9311 10.6074Z" fill="#A40700"/>
<path d="M17.7999 10.443C17.8069 10.443 17.8128 10.4374 17.8128 10.4304C17.8128 10.4233 17.8071 10.4177 17.8 10.4177C17.793 10.4177 17.7873 10.4233 17.7873 10.4304C17.7873 10.4374 17.7929 10.443 17.7999 10.443Z" fill="#A40700"/>
<path d="M13.5161 17.9159L13.3765 18.1743V20.8447H26.2429V18.1743L26.1033 17.9159V17.3237L25.9744 17.1406V16.57V16.2469H25.9304V15.4609L25.7041 15.3424L25.6071 14.9548L25.5209 15.2994V14.8256V14.7179H22.4067V13.9749V13.0058V12.3274V12.0582H22.342L21.8194 10.8953L21.2968 12.0582H21.2429L21.2416 12.3274L21.24 12.6563L21.2384 13.0058L21.2337 13.9749L21.2321 14.3195L19.8097 12.8981L18.3873 14.3195V13.0058V12.3274V12.0582H18.3226L17.8 10.8953L17.2773 12.0582H17.2127V12.3274V12.672V13.0058V13.9749V14.7179H14.0985V14.8256V15.2994L14.0122 14.9548L13.9153 15.3424L13.689 15.4609V16.2469H13.645V16.57V17.1406L13.5161 17.3237V17.9159Z" fill="#A40700"/>
<path d="M17.2127 14.7179H14.0985M17.2127 14.7179V12.3274M17.2127 14.7179V13.9749V13.0058M14.0985 14.7179V14.8256M14.0985 14.7179V14.201M14.0122 14.9548L13.9153 15.3424L13.689 15.4609V16.2469H13.645V16.57V17.1406L13.5161 17.3237V17.9159L13.3765 18.1743V20.8447H26.2429V18.1743L26.1033 17.9159V17.3237L25.9744 17.1406V16.57V16.2469H25.9304V15.4609L25.7041 15.3424L25.6071 14.9548M14.0122 14.9548L14.0985 15.2994V14.8256M14.0122 14.9548V14.8256M14.0122 14.7502V14.8256M14.0985 14.8256H14.0122M13.9368 14.8256H14.0122M14.2128 14.324H13.984M25.5209 14.7179H22.4067V13.9749V13.0058M25.5209 14.7179V14.8256M25.5209 14.7179V14.201M25.6071 14.9548L25.5209 15.2994V14.8256M25.6071 14.9548V14.8256M25.6071 14.7502V14.8256M25.5209 14.8256H25.6071M25.6826 14.8256H25.6071M25.4065 14.324H25.6353M18.3873 14.8579V14.3195M21.2321 14.8579V14.3195M17.2127 12.0582H17.2773L17.8 10.8953M17.2127 12.0582H17.1157M17.2127 12.0582V12.3274M18.3873 12.0582H18.495M18.3873 12.0582V12.3274V13.0058M18.3873 12.0582H18.3226L17.8 10.8953M17.8 10.8953L17.7999 10.5938M22.4067 12.0582H22.342L21.8194 10.8953L21.2968 12.0582H21.2429M22.4067 12.0582H22.5144M22.4067 12.0582V12.3274V13.0058M21.2429 12.0582H21.1351M21.2429 12.0582L21.2416 12.3274L21.24 12.6563L21.2384 13.0058M19.8097 12.8981L21.2321 14.3195M19.8097 12.8981L18.3873 14.3195M19.8097 12.8981V12.5966M21.2321 14.3195L21.2337 13.9749L21.2384 13.0058M18.3873 14.3195V13.0058M19.8097 12.5966V12.4459M19.8097 12.5966H19.9282M19.8097 12.5966H19.6912M17.2127 13.0058V12.672V12.3274M17.2127 13.0058H17.1157M18.3873 13.0058H18.4842M21.2384 13.0058H21.1243M22.4067 13.0058H22.5037M21.8194 10.8984V10.5969M21.8194 10.5969V10.4462M21.8194 10.5969H21.9379M21.8194 10.5969H21.7008M21.8194 10.5969L21.9633 10.5969M17.7999 10.5938V10.443M17.7999 10.5938H17.9184M17.7999 10.5938H17.6814M17.7999 10.5938L17.9439 10.5938M17.7999 10.443C17.7929 10.443 17.7873 10.4374 17.7873 10.4304C17.7873 10.4233 17.793 10.4177 17.8 10.4177C17.8071 10.4177 17.8128 10.4233 17.8128 10.4304C17.8128 10.4374 17.8069 10.443 17.7999 10.443ZM17.9184 10.5938C17.9184 10.6008 17.9241 10.6074 17.9311 10.6074C17.9382 10.6074 17.9439 10.6008 17.9439 10.5938M17.9184 10.5938C17.9184 10.5867 17.9241 10.582 17.9311 10.582C17.9382 10.582 17.9439 10.5867 17.9439 10.5938M17.6814 10.5938C17.6814 10.5867 17.6757 10.582 17.6686 10.582C17.6616 10.582 17.6559 10.5877 17.6559 10.5947C17.6559 10.6017 17.6616 10.6074 17.6686 10.6074C17.6757 10.6074 17.6814 10.6008 17.6814 10.5938ZM8.48419 13.0058H8.38721M21.8068 10.4335V10.4335C21.8068 10.4265 21.8125 10.4208 21.8195 10.4208V10.4208C21.8265 10.4208 21.8322 10.4265 21.8322 10.4335V10.4335C21.8322 10.4405 21.8265 10.4462 21.8195 10.4462V10.4462C21.8125 10.4462 21.8068 10.4405 21.8068 10.4335ZM21.9379 10.5979V10.5979C21.9379 10.5908 21.9436 10.5852 21.9506 10.5852V10.5852C21.9576 10.5852 21.9633 10.5908 21.9633 10.5979V10.5979C21.9633 10.6049 21.9576 10.6106 21.9506 10.6106V10.6106C21.9436 10.6106 21.9379 10.6049 21.9379 10.5979ZM21.6754 10.5979V10.5979C21.6754 10.5908 21.6811 10.5852 21.6881 10.5852V10.5852C21.6951 10.5852 21.7008 10.5908 21.7008 10.5979V10.5979C21.7008 10.6049 21.6951 10.6106 21.6881 10.6106V10.6106C21.6811 10.6106 21.6754 10.6049 21.6754 10.5979Z" stroke="#A40700" stroke-width="0.03"/>
<path fill-rule="evenodd" clip-rule="evenodd" d="M8.94201 18.2034L10.0913 18.9692V20.8921H8.94201H4.52785H0.52299C0.453062 20.6171 0.453062 20.6171 0.374377 20.2777H1.82903C1.69035 19.631 1.24233 19.2537 0.698298 19.286C0.524203 19.3007 0.358741 19.3602 0.215329 19.4527C0.145217 19.0198 0.145217 19.0198 0.0964355 18.5962H4.52785V17.3272L6.73493 13.8607L8.94201 17.3272V18.2034ZM3.22644 19.2968C3.78114 19.2321 4.22916 19.6094 4.38917 20.2777H2.27705C2.29839 19.7819 2.72508 19.3507 3.22644 19.2968Z" fill="#A40700"/>
<path d="M11.4091 8.26855V8.29441H11.6348H11.6607H11.8828V8.26855H11.6607H11.6348H11.4091Z" fill="#A40700"/>
<path d="M13.1874 20.8924V19.8666V16.6192L12.9506 15.7512L12.8321 15.7514V12.9512V12.5783V12.2996H12.7532V12.5783H12.3979V10.7716V10.4274L12.2919 10.5334L11.6607 8.70092L11.6607 8.29441H11.6348L11.6346 8.70092L11.0037 10.5334L10.8977 10.4274L10.8651 10.3421L10.8651 10.0831H10.8392L10.839 10.3421L10.6605 10.9651V12.5783H10.5424V12.2996H10.4634V12.1465L10.2847 11.5235L10.2847 11.2645H10.2588L10.2586 11.5235L10.0801 12.1465V19.8666H10.0292V20.8924L13.1874 20.8924Z" fill="#A40700"/>
<path d="M11.6607 8.06964H11.6349L11.6348 8.26855H11.6607L11.6607 8.06964Z" fill="#A40700"/>
<path d="M26.4316 20.8898H31.4743C31.6557 20.3272 31.9457 18.7323 31.959 17.9825L31.9962 17.3627L31.4913 16.6909L31.0169 16.6909L31.017 16.0584L31.0802 15.9952H30.6375L30.7008 16.0584L30.7007 16.6909H29.752V16.0585L29.8153 15.9952H29.3726L29.4358 16.0585V16.6909H28.487V16.0585L28.5503 15.9952H28.1076L28.1708 16.0585V16.6909L27.6965 16.6909L26.6167 17.7977H26.2734L26.4316 18.019L26.4316 20.8898Z" fill="#A40700"/>
<path d="M4.58704 20.2708H31.6278L31.4773 20.8926H4.58704V20.2708Z" fill="#A40700"/>
</g>
<path d="M2.46856 13.3405L2.51988 13.4985H2.68595L2.5516 13.5961L2.60291 13.754L2.46856 13.6564L2.33421 13.754L2.38553 13.5961L2.25118 13.4985H2.41724L2.46856 13.3405Z" fill="#A40700"/>
<path d="M9.32574 11.9691L9.37706 12.127H9.54312L9.40877 12.2246L9.46009 12.3825L9.32574 12.2849L9.19139 12.3825L9.24271 12.2246L9.10836 12.127H9.27442L9.32574 11.9691Z" fill="#A40700"/>
<path d="M23.5886 2.91766L23.6399 3.0756H23.8059L23.6716 3.17321L23.7229 3.33115L23.5886 3.23354L23.4542 3.33115L23.5055 3.17321L23.3712 3.0756H23.5372L23.5886 2.91766Z" fill="#A40700"/>
<path d="M4.75421 6.4834L4.80552 6.64134H4.97159L4.83724 6.73895L4.88856 6.89689L4.75421 6.79928L4.61986 6.89689L4.67117 6.73895L4.53682 6.64134H4.70289L4.75421 6.4834Z" fill="#A40700"/>
<path d="M10.2399 3.74054L10.2912 3.89848H10.4573L10.323 3.99609L10.3743 4.15403L10.2399 4.05642L10.1056 4.15403L10.1569 3.99609L10.0225 3.89848H10.1886L10.2399 3.74054Z" fill="#A40700"/>
<path d="M12.6171 7.39771L12.6684 7.55564H12.8345L12.7002 7.65326L12.7515 7.81119L12.6171 7.71358L12.4828 7.81119L12.5341 7.65326L12.3997 7.55564H12.5658L12.6171 7.39771Z" fill="#A40700"/>
<path d="M16.6399 1.91199L16.6913 2.06993H16.8573L16.723 2.16754L16.7743 2.32548L16.6399 2.22787L16.5056 2.32548L16.5569 2.16754L16.4226 2.06993H16.5886L16.6399 1.91199Z" fill="#A40700"/>
<path d="M28.9828 9.68341L29.0342 9.84135H29.2002L29.0659 9.93896L29.1172 10.0969L28.9828 9.99929L28.8485 10.0969L28.8998 9.93896L28.7655 9.84135H28.9315L28.9828 9.68341Z" fill="#A40700"/>
<path d="M27.52 5.84338L27.5713 6.00132H27.7373L27.603 6.09893L27.6543 6.25687L27.52 6.15926L27.3856 6.25687L27.4369 6.09893L27.3026 6.00132H27.4686L27.52 5.84338Z" fill="#A40700"/>
<path d="M25.7829 11.9691L25.8342 12.127H26.0003L25.8659 12.2246L25.9172 12.3825L25.7829 12.2849L25.6485 12.3825L25.6999 12.2246L25.5655 12.127H25.7316L25.7829 11.9691Z" fill="#A40700"/>
<path d="M31.2686 13.7977L31.3199 13.9556H31.486L31.3516 14.0532L31.403 14.2112L31.2686 14.1135L31.1343 14.2112L31.1856 14.0532L31.0512 13.9556H31.2173L31.2686 13.7977Z" fill="#A40700"/>
<path d="M19.3829 6.94049L19.4342 7.09843H19.6003L19.4659 7.19604L19.5172 7.35398L19.3829 7.25637L19.2485 7.35398L19.2998 7.19604L19.1655 7.09843H19.3316L19.3829 6.94049Z" fill="#A40700"/>
<path d="M23.4971 8.7691L23.5484 8.92704H23.7145L23.5802 9.02465L23.6315 9.18259L23.4971 9.08498L23.3628 9.18259L23.4141 9.02465L23.2797 8.92704H23.4458L23.4971 8.7691Z" fill="#A40700"/>
<path d="M16.5485 9.82056L16.5998 9.9785H16.7659L16.6316 10.0761L16.6829 10.234L16.5485 10.1364L16.4142 10.234L16.4655 10.0761L16.3311 9.9785H16.4972L16.5485 9.82056Z" fill="#A40700"/>
<path d="M4.29716 10.5977L4.45112 11.0715H4.94932L4.54626 11.3644L4.70022 11.8382L4.29716 11.5454L3.89411 11.8382L4.04806 11.3644L3.64501 11.0715H4.14321L4.29716 10.5977Z" fill="#A40700"/>
<path d="M23.2685 5.11194L23.3712 5.42782H23.7033L23.4346 5.62304L23.5372 5.93892L23.2685 5.74369L22.9998 5.93892L23.1025 5.62304L22.8338 5.42782H23.1659L23.2685 5.11194Z" fill="#A40700"/>
<path d="M7.05127 3.64498L7.3834 3.64498L7.1147 3.84021L7.21734 4.15608L6.94863 3.96086L6.67993 4.15608L6.78257 3.84021L6.70878 3.7866L7.0259 3.56689L7.05127 3.64498Z" fill="#A40700"/>
<path d="M12.9372 1.91199L13.0911 2.3858H13.5893L13.1863 2.67864L13.3402 3.15246L12.9372 2.85962L12.5341 3.15246L12.6881 2.67864L12.285 2.3858H12.7832L12.9372 1.91199Z" fill="#A40700"/>
<g clip-path="url(#clip0_963:132)">
<path d="M15.3494 5.66257C15.3189 5.66276 15.2944 5.68755 15.2946 5.718C15.2947 5.74844 15.3195 5.77298 15.35 5.7728C15.367 5.7727 15.382 5.7647 15.3921 5.7525L15.4676 5.79555L15.3586 5.82536C15.3506 5.82758 15.3459 5.83585 15.3481 5.84386C15.3499 5.85058 15.356 5.85499 15.3627 5.85493C15.3639 5.8549 15.3653 5.85474 15.3666 5.85438L15.5045 5.81663L15.6028 5.87267L15.4217 5.92225C15.4137 5.92448 15.409 5.93275 15.4112 5.94077C15.413 5.94746 15.4191 5.95187 15.4258 5.95184C15.427 5.95184 15.4284 5.95162 15.4297 5.95129L15.6398 5.89375L15.6712 5.91169L15.4901 5.96125C15.4821 5.96347 15.4774 5.97177 15.4796 5.97975C15.4814 5.98647 15.4875 5.99085 15.4942 5.99082C15.4955 5.99082 15.4968 5.99063 15.4981 5.99027L15.7082 5.93276L15.8331 6.00393L15.7089 6.0765L15.4982 6.02129C15.49 6.01922 15.4819 6.02404 15.4798 6.03206C15.4777 6.04008 15.4826 6.0483 15.4906 6.05043L15.6722 6.09801L15.641 6.11626L15.4302 6.06105C15.4221 6.05895 15.414 6.06379 15.4119 6.07178C15.4097 6.07982 15.4146 6.08806 15.4226 6.09019L15.6042 6.13777L15.5066 6.19482L15.3682 6.1586C15.36 6.15656 15.3519 6.16134 15.3498 6.16936C15.3477 6.17743 15.3526 6.18561 15.3605 6.18777L15.4698 6.21633L15.3939 6.26071C15.3837 6.24928 15.369 6.24195 15.3525 6.24204C15.3221 6.24223 15.2975 6.26704 15.2977 6.2975C15.2979 6.32788 15.3227 6.35245 15.3531 6.35231C15.3836 6.3521 15.4081 6.32732 15.4079 6.29686C15.4079 6.29431 15.4075 6.29184 15.4071 6.28938L15.4834 6.24838L15.4564 6.35149C15.4543 6.35956 15.4591 6.36776 15.4671 6.3699C15.4684 6.37025 15.4697 6.37038 15.471 6.37038C15.4777 6.37035 15.4837 6.36588 15.4855 6.35915L15.5196 6.22885L15.6159 6.17718L15.5718 6.34532C15.5697 6.35339 15.5745 6.3616 15.5825 6.3637C15.5839 6.36403 15.5852 6.36421 15.5865 6.36421C15.5931 6.36415 15.5992 6.35971 15.601 6.35295L15.6521 6.15775L15.6829 6.14122L15.6398 6.30555C15.6377 6.31362 15.6425 6.32182 15.6505 6.32396C15.6518 6.32427 15.6532 6.32444 15.6544 6.32444C15.6611 6.32441 15.6672 6.31994 15.6689 6.31318L15.7191 6.12174L15.837 6.05842L15.8405 6.1824L15.6959 6.32855C15.69 6.33445 15.6901 6.34397 15.696 6.34987C15.699 6.35277 15.7028 6.35421 15.7067 6.35415C15.7105 6.35415 15.7144 6.35269 15.7173 6.34971L15.8416 6.22404L15.8426 6.25941L15.6963 6.40729C15.6905 6.41316 15.6906 6.4227 15.6964 6.42858C15.6994 6.4315 15.7033 6.43292 15.7071 6.43289C15.711 6.43286 15.7148 6.43139 15.7178 6.42842L15.8438 6.30103L15.8468 6.41168L15.7498 6.50977C15.7439 6.51564 15.744 6.52516 15.7499 6.531C15.7529 6.53394 15.7568 6.53538 15.7606 6.53538C15.7645 6.53534 15.7683 6.53382 15.7712 6.53084L15.8479 6.45334L15.8501 6.53267C15.8276 6.53969 15.8112 6.56049 15.8113 6.58535C15.8115 6.61579 15.8363 6.64034 15.8667 6.64017C15.8972 6.64001 15.9217 6.61519 15.9215 6.58474C15.9214 6.55989 15.9048 6.53927 15.8822 6.53249L15.8835 6.45313L15.961 6.52985C15.9669 6.53569 15.9764 6.53566 15.9823 6.52972C15.9882 6.52382 15.9881 6.51427 15.9822 6.50847L15.8842 6.41146L15.886 6.30075L16.0134 6.42677C16.0193 6.43261 16.0288 6.43258 16.0347 6.42664C16.0405 6.42074 16.0405 6.41126 16.0346 6.40539L15.8866 6.25908L15.8872 6.22373L16.013 6.34803C16.0188 6.3539 16.0284 6.35381 16.0342 6.34788C16.0401 6.34201 16.04 6.33246 16.0341 6.32665L15.8879 6.18206L15.8899 6.05808L16.0086 6.12012L16.0609 6.31098C16.0627 6.31771 16.0688 6.32212 16.0755 6.32209C16.0768 6.32206 16.078 6.32184 16.0794 6.32154C16.0873 6.31935 16.0921 6.31108 16.0899 6.30303L16.045 6.13918L16.0759 6.15536L16.1293 6.34999C16.1311 6.35672 16.1372 6.3611 16.1439 6.3611C16.1451 6.36107 16.1464 6.36088 16.1478 6.36052C16.1558 6.35836 16.1605 6.35009 16.1583 6.34208L16.1123 6.17442L16.2091 6.22507L16.2447 6.35498C16.2466 6.36167 16.2527 6.36605 16.2593 6.36602C16.2606 6.36602 16.2619 6.36583 16.2632 6.36551C16.2712 6.36328 16.2759 6.35501 16.2738 6.347L16.2456 6.24414L16.3181 6.28208C16.3175 6.28524 16.3171 6.28847 16.3171 6.29181C16.3173 6.32223 16.3421 6.3468 16.3726 6.34663C16.403 6.34647 16.4276 6.32164 16.4274 6.29121C16.4272 6.26076 16.4024 6.23622 16.372 6.23639C16.3563 6.23645 16.3422 6.24321 16.3322 6.25378L16.2588 6.21192L16.3677 6.18215C16.3757 6.17992 16.3804 6.17165 16.3783 6.16365C16.3761 6.15564 16.3679 6.15094 16.3598 6.15309L16.2218 6.19087L16.1235 6.13484L16.3046 6.08528C16.3126 6.08306 16.3174 6.07476 16.3152 6.06677C16.313 6.05876 16.3049 6.05406 16.2967 6.05621L16.0866 6.11375L16.0552 6.09584L16.2362 6.04629C16.2442 6.04403 16.249 6.03576 16.2468 6.02777C16.2446 6.01977 16.2365 6.01507 16.2283 6.01721L16.0182 6.07473L15.8933 6.00356L16.0174 5.93099L16.2281 5.98622C16.2294 5.98655 16.2307 5.98671 16.232 5.98671C16.2387 5.98668 16.2447 5.98224 16.2465 5.97548C16.2486 5.96744 16.2438 5.95924 16.2358 5.9571L16.0542 5.9095L16.0854 5.89121L16.2961 5.94645C16.2974 5.94678 16.2987 5.94697 16.3 5.94697C16.3067 5.94693 16.3127 5.94246 16.3145 5.93571C16.3166 5.92767 16.3118 5.91943 16.3038 5.9173L16.1221 5.86972L16.2198 5.81266L16.3582 5.84886C16.3595 5.84918 16.3608 5.84937 16.3621 5.84934C16.3687 5.84931 16.3748 5.84487 16.3765 5.83811C16.3786 5.83007 16.3738 5.82187 16.3658 5.81973L16.2565 5.79111L16.3263 5.75036C16.3364 5.76073 16.3504 5.76721 16.366 5.76711C16.3964 5.76696 16.421 5.74215 16.4209 5.7117C16.4207 5.68126 16.3959 5.65675 16.3654 5.65689C16.335 5.65707 16.3104 5.68187 16.3106 5.71231C16.3106 5.71572 16.311 5.71898 16.3116 5.72217L16.243 5.75909L16.27 5.65591C16.2721 5.6479 16.2673 5.63969 16.2593 5.63756C16.2511 5.63552 16.243 5.6403 16.2409 5.64827L16.2067 5.77854L16.1106 5.83025L16.1546 5.66212C16.1567 5.65408 16.1519 5.64585 16.1439 5.64374C16.1357 5.6417 16.1276 5.64648 16.1255 5.6545L16.0743 5.84968L16.0435 5.8662L16.0866 5.70191C16.0887 5.69384 16.0839 5.68557 16.0759 5.6835C16.0677 5.6814 16.0596 5.68624 16.0575 5.69423L16.0073 5.88569L15.8893 5.94901L15.8859 5.82506L16.0305 5.67883C16.0364 5.67296 16.0363 5.66341 16.0304 5.65757C16.0245 5.65173 16.0149 5.65176 16.0091 5.6577L15.8848 5.7834L15.8838 5.74804L16.0301 5.60015C16.036 5.59422 16.0359 5.58471 16.03 5.5789C16.0241 5.573 16.0145 5.57303 16.0087 5.57899L15.8827 5.70638L15.8797 5.5957L15.9766 5.49767C15.9825 5.49174 15.9824 5.48222 15.9765 5.47638C15.9705 5.47054 15.9611 5.4706 15.9553 5.47647L15.8785 5.55406L15.8762 5.46746C15.8988 5.4605 15.9153 5.43963 15.9151 5.41474C15.915 5.38427 15.8901 5.35975 15.8597 5.35993C15.8293 5.36008 15.8047 5.38487 15.8049 5.41532C15.805 5.44024 15.8217 5.46092 15.8444 5.46763L15.843 5.55423L15.7654 5.47749C15.7596 5.47168 15.75 5.47171 15.7442 5.47764C15.7383 5.48351 15.7384 5.49309 15.7443 5.49893L15.8423 5.59593L15.8405 5.70656L15.7131 5.58061C15.7072 5.57471 15.6977 5.5748 15.6918 5.58073C15.686 5.58664 15.686 5.59615 15.6919 5.60199L15.8398 5.74822L15.8393 5.78362L15.7135 5.65932C15.7076 5.65345 15.6981 5.65351 15.6923 5.65944C15.6864 5.66534 15.6865 5.67486 15.6924 5.6807L15.8386 5.82526L15.8365 5.94933L15.7178 5.88729L15.6655 5.69643C15.6633 5.68845 15.6552 5.68372 15.647 5.6859C15.639 5.68806 15.6343 5.69636 15.6364 5.70442L15.6813 5.86823L15.6504 5.85208L15.5971 5.65745C15.5949 5.64947 15.5868 5.64477 15.5786 5.64692C15.5706 5.64908 15.5658 5.65739 15.568 5.66539L15.6139 5.83297L15.5172 5.78239L15.4816 5.65253C15.4794 5.64455 15.4713 5.63985 15.4631 5.64197C15.4551 5.64419 15.4504 5.65246 15.4525 5.66048L15.4808 5.76331L15.4042 5.72329C15.4044 5.72131 15.4048 5.71937 15.4048 5.71736C15.4046 5.68693 15.3798 5.66242 15.3494 5.66257Z" fill="#A40700"/>
</g>
<g clip-path="url(#clip1_963:132)">
<path d="M19.7589 2.01226C19.7128 2.01254 19.6755 2.05013 19.6758 2.09629C19.676 2.14245 19.7137 2.17966 19.7598 2.17937C19.7857 2.17923 19.8084 2.1671 19.8236 2.14861L19.9381 2.21387L19.7729 2.25906C19.7608 2.26244 19.7536 2.27497 19.7569 2.28711C19.7597 2.29731 19.7689 2.30399 19.779 2.3039C19.781 2.30385 19.783 2.30361 19.785 2.30307L19.9941 2.24584L20.1431 2.33079L19.8685 2.40596C19.8564 2.40934 19.8492 2.42188 19.8526 2.43404C19.8554 2.44419 19.8646 2.45087 19.8747 2.45083C19.8766 2.45083 19.8786 2.45049 19.8806 2.45L20.1992 2.36276L20.2468 2.38996L19.9723 2.46509C19.9601 2.46846 19.9529 2.48105 19.9563 2.49314C19.9591 2.50334 19.9683 2.50997 19.9784 2.50992C19.9804 2.50992 19.9824 2.50964 19.9844 2.5091L20.3029 2.4219L20.4923 2.5298L20.304 2.63983L19.9846 2.55613C19.9722 2.55299 19.9599 2.56028 19.9567 2.57244C19.9535 2.5846 19.9608 2.59707 19.973 2.6003L20.2483 2.67243L20.201 2.70011L19.8815 2.61641C19.8691 2.61322 19.8568 2.62056 19.8537 2.63267C19.8504 2.64486 19.8577 2.65735 19.8699 2.66058L20.1453 2.73271L19.9972 2.81922L19.7875 2.7643C19.7751 2.76121 19.7628 2.76846 19.7596 2.78062C19.7564 2.79285 19.7637 2.80524 19.7758 2.80853L19.9415 2.85183L19.8264 2.91912C19.811 2.90179 19.7887 2.89067 19.7637 2.89081C19.7175 2.89109 19.6803 2.92871 19.6806 2.97489C19.6808 3.02095 19.7184 3.05821 19.7646 3.058C19.8107 3.05767 19.848 3.0201 19.8477 2.97392C19.8477 2.97005 19.8471 2.96632 19.8465 2.96259L19.9621 2.90042L19.9211 3.05675C19.9179 3.06898 19.9252 3.08142 19.9374 3.08465C19.9394 3.0852 19.9414 3.08539 19.9433 3.08539C19.9534 3.08534 19.9626 3.07856 19.9652 3.06836L20.0171 2.87081L20.163 2.79247L20.0962 3.0474C20.093 3.05963 20.1003 3.07207 20.1124 3.07526C20.1144 3.07575 20.1165 3.07604 20.1184 3.07604C20.1285 3.07594 20.1376 3.06921 20.1403 3.05897L20.2179 2.76301L20.2645 2.73795L20.1992 2.98709C20.196 2.99932 20.2033 3.01177 20.2155 3.015C20.2174 3.01547 20.2195 3.01573 20.2214 3.01573C20.2316 3.01569 20.2407 3.00891 20.2434 2.99866L20.3195 2.70842L20.4983 2.61242L20.5035 2.80038L20.2842 3.02197C20.2754 3.03092 20.2755 3.04534 20.2844 3.05429C20.2889 3.05868 20.2948 3.06088 20.3006 3.06078C20.3065 3.06078 20.3123 3.05856 20.3167 3.05405L20.5052 2.86352L20.5067 2.91714L20.2849 3.14134C20.2761 3.15024 20.2762 3.16472 20.2851 3.17362C20.2896 3.17806 20.2954 3.18021 20.3013 3.18016C20.3071 3.18011 20.3129 3.17789 20.3174 3.17338L20.5084 2.98025L20.513 3.148L20.366 3.29672C20.3571 3.30563 20.3572 3.32005 20.3662 3.32891C20.3706 3.33337 20.3765 3.33554 20.3824 3.33554C20.3882 3.33549 20.3941 3.33318 20.3985 3.32867L20.5147 3.21116L20.518 3.33143C20.4839 3.34208 20.459 3.37362 20.4592 3.41131C20.4595 3.45747 20.4971 3.49468 20.5433 3.49442C20.5894 3.49418 20.6266 3.45655 20.6264 3.41039C20.6262 3.3727 20.601 3.34144 20.5667 3.33117L20.5687 3.21085L20.6862 3.32716C20.6952 3.33601 20.7096 3.33597 20.7185 3.32697C20.7274 3.31802 20.7273 3.30355 20.7183 3.29474L20.5697 3.14767L20.5724 2.97982L20.7656 3.17088C20.7746 3.17973 20.789 3.17969 20.7979 3.17069C20.8068 3.16174 20.8067 3.14736 20.7977 3.13846L20.5735 2.91664L20.5743 2.86304L20.765 3.0515C20.7739 3.06041 20.7884 3.06026 20.7972 3.05127C20.8061 3.04237 20.806 3.02789 20.797 3.01909L20.5754 2.79986L20.5785 2.6119L20.7584 2.70596L20.8376 2.99533C20.8404 3.00553 20.8496 3.01222 20.8597 3.01217C20.8617 3.01212 20.8636 3.01179 20.8657 3.01134C20.8778 3.00801 20.8849 2.99548 20.8816 2.98327L20.8136 2.73486L20.8604 2.75939L20.9413 3.05448C20.9441 3.06468 20.9533 3.07131 20.9634 3.07131C20.9654 3.07127 20.9674 3.07098 20.9693 3.07044C20.9815 3.06716 20.9887 3.05462 20.9853 3.04248L20.9156 2.78829L21.0624 2.86507L21.1163 3.06203C21.1192 3.07219 21.1284 3.07882 21.1385 3.07877C21.1404 3.07877 21.1424 3.07849 21.1444 3.078C21.1566 3.07462 21.1637 3.06208 21.1604 3.04995L21.1177 2.894L21.2276 2.95151C21.2267 2.95631 21.2261 2.96119 21.2262 2.96627C21.2264 3.01238 21.264 3.04964 21.3102 3.04938C21.3564 3.04914 21.3936 3.01148 21.3933 2.96535C21.3931 2.91919 21.3555 2.88198 21.3093 2.88224C21.2855 2.88233 21.2642 2.89258 21.249 2.90861L21.1377 2.84515L21.3028 2.8C21.315 2.79663 21.3221 2.78409 21.3188 2.77195C21.3155 2.75982 21.3031 2.75269 21.2908 2.75595L21.0816 2.81323L20.9326 2.72827L21.2072 2.65314C21.2193 2.64977 21.2265 2.63718 21.2232 2.62507C21.2199 2.61294 21.2076 2.60581 21.1951 2.60906L20.8766 2.69631L20.829 2.66915L21.1035 2.59402C21.1156 2.5906 21.1229 2.57806 21.1195 2.56595C21.1162 2.55381 21.1039 2.54668 21.0915 2.54994L20.7729 2.63714L20.5835 2.52924L20.7717 2.41921L21.0912 2.50296C21.0931 2.50345 21.0952 2.50369 21.0971 2.50369C21.1072 2.50364 21.1164 2.49691 21.1191 2.48667C21.1222 2.47448 21.1149 2.46204 21.1028 2.45881L20.8274 2.38663L20.8748 2.35891L21.1942 2.44266C21.1963 2.44315 21.1982 2.44343 21.2002 2.44343C21.2103 2.44339 21.2194 2.43661 21.2221 2.42636C21.2254 2.41418 21.218 2.40169 21.2059 2.39846L20.9305 2.32633L21.0785 2.23982L21.2883 2.29469C21.2903 2.29518 21.2923 2.29547 21.2942 2.29542C21.3043 2.29537 21.3135 2.28864 21.3162 2.2784C21.3194 2.26621 21.3121 2.25377 21.2999 2.25054L21.1343 2.20714L21.24 2.14535C21.2553 2.16108 21.2766 2.1709 21.3003 2.17076C21.3464 2.17052 21.3836 2.13291 21.3834 2.08675C21.3832 2.04059 21.3455 2.00343 21.2993 2.00364C21.2532 2.00392 21.216 2.04151 21.2162 2.08767C21.2163 2.09284 21.2169 2.09777 21.2178 2.10261L21.1137 2.1586L21.1547 2.00215C21.1579 1.99002 21.1506 1.97757 21.1384 1.97434C21.1261 1.97125 21.1137 1.97849 21.1106 1.99058L21.0588 2.18809L20.9129 2.26647L20.9797 2.01157C20.9829 1.99939 20.9756 1.9869 20.9634 1.98371C20.951 1.98062 20.9387 1.98787 20.9356 2.00003L20.858 2.29594L20.8113 2.32099L20.8767 2.0719C20.8798 2.05967 20.8725 2.04713 20.8603 2.04399C20.848 2.0408 20.8357 2.04815 20.8325 2.06026L20.7564 2.35053L20.5775 2.44653L20.5724 2.25861L20.7916 2.03691C20.8005 2.02801 20.8004 2.01353 20.7914 2.00468C20.7825 1.99582 20.768 1.99587 20.7592 2.00487L20.5707 2.19545L20.5692 2.14183L20.791 1.91763C20.7999 1.90863 20.7998 1.8942 20.7908 1.8854C20.7819 1.87645 20.7674 1.8765 20.7585 1.88554L20.5675 2.07867L20.5629 1.91087L20.7099 1.76224C20.7188 1.75325 20.7187 1.73882 20.7097 1.72997C20.7007 1.72111 20.6863 1.72121 20.6775 1.73011L20.5612 1.84774L20.5576 1.71644C20.5919 1.70588 20.6169 1.67425 20.6166 1.63652C20.6164 1.59031 20.5787 1.55315 20.5326 1.55341C20.4865 1.55364 20.4492 1.59123 20.4495 1.63739C20.4497 1.67517 20.475 1.70652 20.5094 1.7167L20.5073 1.848L20.3897 1.73164C20.3808 1.72284 20.3663 1.72288 20.3575 1.73188C20.3486 1.74078 20.3487 1.7553 20.3576 1.76416L20.5063 1.91123L20.5035 2.07896L20.3104 1.88799C20.3014 1.87905 20.2869 1.87919 20.2781 1.88818C20.2692 1.89713 20.2693 1.91156 20.2783 1.92041L20.5025 2.14212L20.5016 2.19578L20.311 2.00732C20.3021 1.99842 20.2876 1.99852 20.2788 2.00751C20.2699 2.01646 20.27 2.03089 20.2789 2.03974L20.5006 2.25892L20.4975 2.44702L20.3175 2.35296L20.2382 2.06359C20.2349 2.0515 20.2226 2.04432 20.2101 2.04763C20.198 2.05091 20.1908 2.06349 20.1941 2.0757L20.2622 2.32406L20.2153 2.29958L20.1345 2.00449C20.1312 1.9924 20.1188 1.98527 20.1064 1.98853C20.0942 1.99181 20.0871 2.00439 20.0904 2.01653L20.16 2.2706L20.0133 2.19392L19.9593 1.99703C19.956 1.98494 19.9438 1.97781 19.9313 1.98102C19.9191 1.9844 19.912 1.99693 19.9153 2.00909L19.9581 2.16499L19.842 2.10431C19.8424 2.10132 19.8429 2.09837 19.8429 2.09532C19.8427 2.04918 19.805 2.01202 19.7589 2.01226Z" fill="#A40700"/>
</g>
<g clip-path="url(#clip2_963:132)">
<path d="M7.16298 8.79653C7.12664 8.79675 7.09735 8.82634 7.09754 8.86268C7.09772 8.89902 7.12735 8.92831 7.16367 8.92809C7.18404 8.92797 7.20194 8.91842 7.21391 8.90387L7.30402 8.95524L7.17398 8.99082C7.16443 8.99348 7.1588 9.00334 7.16142 9.0129C7.16359 9.02093 7.17086 9.02619 7.17882 9.02611C7.18034 9.02608 7.18194 9.02589 7.1835 9.02546L7.34816 8.98041L7.46543 9.04728L7.24928 9.10647C7.23971 9.10912 7.23409 9.11899 7.23675 9.12857C7.23893 9.13656 7.24619 9.14182 7.25415 9.14178C7.25566 9.14178 7.25724 9.14152 7.25878 9.14113L7.50957 9.07245L7.54708 9.09386L7.33093 9.15301C7.32136 9.15567 7.31573 9.16557 7.31837 9.17509C7.32054 9.18312 7.32785 9.18834 7.3358 9.18831C7.33733 9.18831 7.33893 9.18808 7.34045 9.18765L7.59119 9.11901L7.7403 9.20396L7.59208 9.29057L7.34062 9.22468C7.33086 9.22221 7.32119 9.22795 7.31867 9.23752C7.31614 9.2471 7.32194 9.25691 7.33149 9.25946L7.54824 9.31624L7.51101 9.33802L7.25948 9.27213C7.24975 9.26962 7.24006 9.2754 7.23757 9.28494C7.23502 9.29453 7.24077 9.30436 7.25036 9.30691L7.46714 9.36369L7.35058 9.4318L7.18545 9.38856C7.17569 9.38613 7.16603 9.39183 7.16348 9.40141C7.16097 9.41103 7.16675 9.42079 7.17629 9.42338L7.3067 9.45747L7.21608 9.51044C7.20395 9.4968 7.18642 9.48804 7.16673 9.48815C7.1304 9.48838 7.10109 9.51799 7.10129 9.55434C7.10148 9.59061 7.1311 9.61994 7.16746 9.61977C7.20376 9.61951 7.23307 9.58994 7.23287 9.55358C7.23287 9.55053 7.23237 9.54759 7.23192 9.54466L7.32292 9.49572L7.29066 9.61878C7.28815 9.62841 7.29389 9.63821 7.30346 9.64075C7.30506 9.64118 7.30662 9.64133 7.30813 9.64133C7.3161 9.64129 7.32331 9.63596 7.32541 9.62793L7.36619 9.47241L7.48106 9.41074L7.42848 9.61142C7.42599 9.62105 7.43169 9.63085 7.44127 9.63336C7.44287 9.63375 7.44446 9.63397 7.44595 9.63397C7.45391 9.63389 7.46112 9.6286 7.46324 9.62053L7.52431 9.38754L7.56099 9.36782L7.50961 9.56395C7.50707 9.57358 7.51285 9.58337 7.52242 9.58592C7.52394 9.58629 7.52556 9.5865 7.52708 9.5865C7.53506 9.58646 7.54225 9.58113 7.54435 9.57306L7.60426 9.34457L7.74502 9.26899L7.74911 9.41696L7.57653 9.5914C7.56957 9.59845 7.56963 9.60981 7.57667 9.61685C7.58021 9.62031 7.58481 9.62204 7.58942 9.62196C7.59403 9.62196 7.59861 9.62021 7.6021 9.61666L7.75048 9.46667L7.75165 9.50888L7.57705 9.68538C7.57009 9.69239 7.57019 9.70378 7.57719 9.71079C7.58074 9.71428 7.58534 9.71598 7.58995 9.71594C7.59455 9.7159 7.59913 9.71415 7.60264 9.7106L7.75303 9.55856L7.75662 9.69062L7.64091 9.8077C7.6339 9.81471 7.63398 9.82607 7.64106 9.83304C7.64455 9.83655 7.6492 9.83826 7.65377 9.83826C7.65838 9.83822 7.66299 9.8364 7.66645 9.83285L7.75797 9.74034L7.76059 9.83503C7.73372 9.84341 7.71413 9.86824 7.71427 9.89791C7.7145 9.93424 7.74411 9.96354 7.78046 9.96333C7.81676 9.96315 7.84608 9.93352 7.84587 9.89718C7.84574 9.86752 7.82589 9.84291 7.7989 9.83482L7.80044 9.7401L7.89299 9.83166C7.90003 9.83863 7.91139 9.83859 7.9184 9.83151C7.92539 9.82447 7.92533 9.81307 7.91825 9.80614L7.80128 9.69036L7.8034 9.55823L7.9555 9.70863C7.96254 9.7156 7.97394 9.71557 7.98091 9.70848C7.98788 9.70144 7.98782 9.69012 7.98076 9.68311L7.80422 9.50849L7.80491 9.46629L7.95498 9.61466C7.96198 9.62166 7.97342 9.62155 7.98037 9.61447C7.98736 9.60746 7.98728 9.59607 7.98022 9.58914L7.80574 9.41656L7.80816 9.26858L7.94977 9.34263L8.01215 9.57044C8.01434 9.57847 8.02161 9.58373 8.02959 9.58369C8.03113 9.58365 8.03265 9.58339 8.03425 9.58304C8.04377 9.58042 8.04942 9.57055 8.04682 9.56094L7.99327 9.36539L8.03014 9.3847L8.09379 9.617C8.09596 9.62503 8.10327 9.63025 8.11122 9.63025C8.11275 9.63021 8.11431 9.62999 8.11587 9.62956C8.12546 9.62698 8.13107 9.61711 8.12847 9.60756L8.07358 9.40745L8.18912 9.46789L8.23159 9.62295C8.2338 9.63094 8.24109 9.63616 8.24903 9.63613C8.25055 9.63613 8.25211 9.6359 8.25371 9.63551C8.26326 9.63285 8.26886 9.62298 8.26627 9.61343L8.23263 9.49066L8.31917 9.53594C8.3185 9.53971 8.31802 9.54356 8.31804 9.54756C8.31824 9.58386 8.34785 9.61319 8.38421 9.61298C8.42055 9.6128 8.44982 9.58315 8.44966 9.54683C8.44945 9.51049 8.41984 9.4812 8.38349 9.48141C8.36473 9.48148 8.34798 9.48955 8.33603 9.50217L8.24839 9.45221L8.37839 9.41667C8.38795 9.41401 8.39356 9.40414 8.39099 9.39459C8.38837 9.38503 8.37865 9.37942 8.36889 9.38198L8.20427 9.42708L8.08696 9.3602L8.30311 9.30105C8.31263 9.2984 8.31832 9.28849 8.31568 9.27895C8.3131 9.2694 8.30343 9.26379 8.2936 9.26635L8.04284 9.33503L8.00537 9.31366L8.22148 9.25451C8.23103 9.25182 8.23672 9.24195 8.23404 9.23241C8.2315 9.22286 8.22176 9.21725 8.212 9.21981L7.96126 9.28845L7.81214 9.20351L7.96026 9.11689L8.21178 9.18282C8.21332 9.18321 8.21492 9.1834 8.21642 9.1834C8.22442 9.18336 8.23161 9.17806 8.23375 9.17C8.23624 9.16041 8.23049 9.15061 8.22092 9.14806L8.00416 9.09124L8.04141 9.06942L8.29291 9.13535C8.29451 9.13574 8.29603 9.13596 8.29758 9.13596C8.30555 9.13593 8.31276 9.13059 8.31486 9.12253C8.31741 9.11293 8.31163 9.1031 8.30207 9.10056L8.08529 9.04377L8.20181 8.97567L8.367 9.01887C8.36856 9.01926 8.37012 9.01948 8.37164 9.01944C8.37956 9.0194 8.38681 9.01411 8.38893 9.00604C8.39144 8.99645 8.38568 8.98665 8.37609 8.98411L8.2457 8.94994L8.32893 8.9013C8.34098 8.91368 8.35776 8.92141 8.3764 8.9213C8.41269 8.92112 8.44202 8.89151 8.44183 8.85517C8.44164 8.81883 8.41202 8.78957 8.37566 8.78974C8.33936 8.78996 8.31003 8.81956 8.31023 8.85589C8.31027 8.85996 8.31075 8.86385 8.31146 8.86766L8.22953 8.91173L8.2618 8.78857C8.26429 8.77902 8.25858 8.76922 8.24899 8.76668C8.23925 8.76424 8.22953 8.76995 8.22704 8.77946L8.18626 8.93494L8.07146 8.99665L8.12403 8.79599C8.12652 8.7864 8.12079 8.77656 8.11122 8.77405C8.10144 8.77162 8.09176 8.77733 8.08929 8.7869L8.02823 9.01985L7.99146 9.03957L8.04293 8.84348C8.0454 8.83385 8.03966 8.82398 8.03005 8.82151C8.02037 8.819 8.01066 8.82478 8.00816 8.83431L7.94827 9.06282L7.80743 9.1384L7.80338 8.99046L7.97594 8.81593C7.98295 8.80892 7.98286 8.79753 7.9758 8.79056C7.96879 8.78359 7.95736 8.78363 7.95042 8.79071L7.80202 8.94074L7.80085 8.89853L7.97544 8.72203C7.98245 8.71495 7.98238 8.70359 7.97531 8.69666C7.96829 8.68961 7.95685 8.68965 7.94992 8.69677L7.79951 8.84881L7.79589 8.71671L7.91161 8.59971C7.9186 8.59263 7.91853 8.58127 7.91145 8.5743C7.90436 8.56733 7.89305 8.5674 7.88611 8.57441L7.79455 8.66701L7.79173 8.56365C7.81873 8.55534 7.83838 8.53043 7.83819 8.50073C7.83801 8.46436 7.80836 8.4351 7.77204 8.4353C7.73572 8.43549 7.70643 8.46508 7.7066 8.50142C7.70677 8.53116 7.72673 8.55584 7.75379 8.56385L7.7521 8.66722L7.65954 8.57562C7.65253 8.56869 7.64113 8.56872 7.63418 8.5758C7.62719 8.58281 7.62727 8.59424 7.63431 8.60121L7.75132 8.71699L7.74916 8.84903L7.5971 8.6987C7.59002 8.69166 7.57866 8.69177 7.57169 8.69885C7.56472 8.7059 7.5648 8.71725 7.57182 8.72422L7.74834 8.89876L7.74766 8.941L7.59762 8.79264C7.59058 8.78563 7.57918 8.78571 7.57221 8.79279C7.56526 8.79983 7.56532 8.81119 7.57236 8.81816L7.74684 8.99071L7.7444 9.13879L7.60275 9.06474L7.54028 8.83693C7.53766 8.82742 7.52801 8.82177 7.5182 8.82437C7.50865 8.82695 7.50299 8.83686 7.5056 8.84647L7.55918 9.04199L7.52223 9.02271L7.45863 8.79041C7.45602 8.78089 7.44632 8.77528 7.43655 8.77785C7.42695 8.78043 7.4213 8.79034 7.42396 8.79989L7.4787 8.99991L7.36324 8.93954L7.32077 8.78454C7.31815 8.77502 7.30852 8.76941 7.29867 8.77194C7.28911 8.77459 7.2835 8.78446 7.2861 8.79404L7.31978 8.91677L7.22841 8.869C7.22869 8.86664 7.22911 8.86431 7.22911 8.86192C7.22891 8.8256 7.19928 8.79634 7.16298 8.79653Z" fill="#A40700"/>
</g>
<path d="M7.06914 27.1539C6.88458 26.5247 6.71497 25.9871 6.56034 25.5409H6.51918C6.51419 25.6913 6.50297 25.9282 6.48551 26.2515L6.46306 26.7027C6.46306 26.7854 6.50422 26.8268 6.58652 26.8268C6.63641 26.8268 6.67382 26.8243 6.69876 26.8193L6.72495 26.8456L6.6838 27.1163L6.54537 27.1125C6.42316 27.105 6.30967 27.1013 6.20492 27.1013C6.15254 27.1013 6.08021 27.105 5.98793 27.1125C5.89814 27.1201 5.83828 27.1263 5.80835 27.1313L5.83454 26.8493C5.90188 26.8393 5.95052 26.8168 5.98045 26.7817C6.01287 26.7441 6.03781 26.6789 6.05527 26.5862C6.07522 26.4132 6.10391 26.1362 6.14132 25.7552C6.17873 25.3742 6.19744 25.1661 6.19744 25.131C6.19744 25.0834 6.1912 25.0483 6.17873 25.0258C6.16626 25.0032 6.14132 24.9869 6.10391 24.9769C6.06899 24.9644 6.01287 24.9543 5.93555 24.9468L5.90936 24.9205L5.94677 24.6611L6.12635 24.6686C6.26104 24.6761 6.36829 24.6799 6.4481 24.6799C6.55535 24.6799 6.66758 24.6761 6.78481 24.6686L6.91949 24.6648C6.99681 24.9631 7.08785 25.2915 7.1926 25.6499L7.31232 26.0823H7.34973C7.38216 25.972 7.40211 25.9081 7.40959 25.8906C7.43703 25.7978 7.48941 25.6261 7.56673 25.3754C7.64404 25.1223 7.71388 24.8892 7.77623 24.6761C7.85355 24.6761 7.91341 24.6773 7.95581 24.6799L8.16906 24.6836C8.2389 24.6836 8.29003 24.6824 8.32245 24.6799C8.38231 24.6773 8.50453 24.6698 8.68909 24.6573L8.71154 24.6723L8.68535 24.9393C8.5806 24.9468 8.50951 24.9644 8.4721 24.9919C8.43718 25.0195 8.41973 25.0684 8.41973 25.1386C8.41973 25.2313 8.42845 25.4281 8.44591 25.7289C8.46587 26.0272 8.48582 26.2791 8.50577 26.4846C8.51824 26.6175 8.53695 26.7077 8.56189 26.7553C8.58683 26.8005 8.62799 26.823 8.68535 26.823C8.73274 26.823 8.76891 26.8205 8.79385 26.8155L8.81255 26.8418L8.77888 27.1125C8.63672 27.105 8.50577 27.1013 8.38605 27.1013C8.31372 27.1013 8.20772 27.105 8.06805 27.1125C7.92838 27.1201 7.83111 27.1263 7.77623 27.1313L7.81365 26.8456C7.88348 26.8381 7.93337 26.8205 7.9633 26.7929C7.99572 26.7629 8.01193 26.719 8.01193 26.6614L7.99697 26.3079C7.97951 26.0422 7.96704 25.7865 7.95955 25.5409H7.92214C7.74755 26.0347 7.5767 26.5611 7.40959 27.1201L7.06914 27.1539Z" fill="#A40700"/>
<path d="M9.92703 27.0975L9.942 26.8644C10.0143 26.8569 10.0642 26.8506 10.0916 26.8456C10.1191 26.8406 10.1365 26.8331 10.144 26.823C10.154 26.8105 10.159 26.7917 10.159 26.7666C10.159 26.7566 10.1577 26.7466 10.1552 26.7365C10.1528 26.724 10.1503 26.7127 10.1478 26.7027L10.1141 26.5598C10.0592 26.5573 9.97442 26.5561 9.85969 26.5561C9.82477 26.5561 9.7699 26.5586 9.69507 26.5636C9.65018 26.5686 9.61776 26.5711 9.5978 26.5711L9.55291 26.7215C9.54543 26.7541 9.54168 26.7779 9.54168 26.7929C9.54168 26.8205 9.54792 26.8393 9.56039 26.8493C9.57535 26.8569 9.60528 26.8606 9.65018 26.8606H9.74745L9.77364 26.8869L9.74745 27.1163C9.71752 27.1138 9.65766 27.1113 9.56787 27.1088C9.47808 27.1063 9.38081 27.105 9.27606 27.105H8.87949L8.90193 26.8681C8.94184 26.8581 8.97551 26.8406 9.00295 26.8155C9.03038 26.7879 9.05283 26.7491 9.07029 26.699L9.58284 25.2288L10.2937 25.1799L10.3348 25.21C10.3648 25.3278 10.4271 25.5634 10.5219 25.9169C10.6192 26.2678 10.6915 26.5185 10.7389 26.6689C10.7588 26.7365 10.7838 26.7854 10.8137 26.8155C10.8436 26.8456 10.886 26.8631 10.9409 26.8681L10.9596 26.8945L10.9372 27.1088L10.5181 27.105C10.4009 27.105 10.2849 27.1063 10.1702 27.1088C10.0555 27.1138 9.9819 27.1176 9.94948 27.1201L9.92703 27.0975ZM9.86717 26.2327C9.90957 26.2327 9.97068 26.2302 10.0505 26.2252L9.91955 25.6762H9.86343L9.69133 26.2327H9.86717Z" fill="#A40700"/>
<path d="M12.0351 27.0975L12.0501 26.8644C12.1224 26.8569 12.1723 26.8506 12.1997 26.8456C12.2272 26.8406 12.2446 26.8331 12.2521 26.823C12.2621 26.8105 12.2671 26.7917 12.2671 26.7666C12.2671 26.7566 12.2658 26.7466 12.2633 26.7365C12.2608 26.724 12.2583 26.7127 12.2559 26.7027L12.2222 26.5598C12.1673 26.5573 12.0825 26.5561 11.9678 26.5561C11.9329 26.5561 11.878 26.5586 11.8032 26.5636C11.7583 26.5686 11.7258 26.5711 11.7059 26.5711L11.661 26.7215C11.6535 26.7541 11.6498 26.7779 11.6498 26.7929C11.6498 26.8205 11.656 26.8393 11.6685 26.8493C11.6834 26.8569 11.7134 26.8606 11.7583 26.8606H11.8555L11.8817 26.8869L11.8555 27.1163C11.8256 27.1138 11.7658 27.1113 11.676 27.1088C11.5862 27.1063 11.4889 27.105 11.3842 27.105H10.9876L11.01 26.8681C11.0499 26.8581 11.0836 26.8406 11.111 26.8155C11.1385 26.7879 11.1609 26.7491 11.1784 26.699L11.6909 25.2288L12.4018 25.1799L12.4429 25.21C12.4728 25.3278 12.5352 25.5634 12.63 25.9169C12.7273 26.2678 12.7996 26.5185 12.847 26.6689C12.8669 26.7365 12.8919 26.7854 12.9218 26.8155C12.9517 26.8456 12.9941 26.8631 13.049 26.8681L13.0677 26.8945L13.0453 27.1088L12.6262 27.105C12.509 27.105 12.393 27.1063 12.2783 27.1088C12.1636 27.1138 12.09 27.1176 12.0576 27.1201L12.0351 27.0975ZM11.9753 26.2327C12.0177 26.2327 12.0788 26.2302 12.1586 26.2252L12.0276 25.6762H11.9715L11.7994 26.2327H11.9753Z" fill="#A40700"/>
<path d="M13.8028 27.1351C13.698 27.1351 13.602 27.1263 13.5147 27.1088C13.4274 27.0912 13.3576 27.0737 13.3052 27.0561C13.2553 27.0361 13.2241 27.0223 13.2117 27.0148L13.178 26.9659C13.1855 26.9333 13.1967 26.8656 13.2117 26.7629C13.2291 26.6601 13.2391 26.5661 13.2416 26.4809L13.5858 26.4546C13.5858 26.5724 13.6082 26.6563 13.6531 26.7065C13.7005 26.7566 13.7753 26.7817 13.8776 26.7817C13.9549 26.7817 14.0148 26.7691 14.0572 26.7441C14.1021 26.7165 14.1245 26.6802 14.1245 26.635C14.1245 26.5824 14.0971 26.5385 14.0422 26.5034C13.9898 26.4683 13.905 26.427 13.7878 26.3794L13.6793 26.3342C13.5297 26.2691 13.4124 26.1964 13.3276 26.1162C13.2428 26.0334 13.2004 25.9257 13.2004 25.7928C13.2004 25.6725 13.2378 25.566 13.3127 25.4732C13.39 25.3805 13.4972 25.309 13.6344 25.2589C13.7716 25.2062 13.93 25.1799 14.1095 25.1799C14.2068 25.1799 14.2979 25.1862 14.3827 25.1987C14.4675 25.2088 14.5348 25.22 14.5847 25.2326C14.6346 25.2451 14.6657 25.2539 14.6782 25.2589L14.7119 25.3153C14.7044 25.3429 14.6907 25.4068 14.6707 25.507C14.6533 25.6073 14.6396 25.7126 14.6296 25.8229L14.3153 25.8454L14.2779 25.8229L14.2816 25.7627C14.2816 25.6198 14.1981 25.5484 14.031 25.5484C13.9636 25.5484 13.9075 25.5622 13.8626 25.5898C13.8202 25.6173 13.799 25.6537 13.799 25.6988C13.799 25.7565 13.829 25.8028 13.8888 25.8379C13.9512 25.873 14.0534 25.9194 14.1956 25.977C14.3627 26.0472 14.4936 26.1224 14.5884 26.2026C14.6832 26.2803 14.7306 26.3894 14.7306 26.5298C14.7306 26.7152 14.647 26.8631 14.4799 26.9734C14.3153 27.0812 14.0896 27.1351 13.8028 27.1351Z" fill="#A40700"/>
<path d="M15.1898 26.8757C15.2796 26.8681 15.3457 26.8569 15.3881 26.8418C15.4305 26.8243 15.4592 26.7992 15.4742 26.7666C15.4916 26.7315 15.5003 26.6802 15.5003 26.6125V25.5334C15.4255 25.5359 15.3694 25.5472 15.332 25.5672C15.2971 25.5847 15.2721 25.6198 15.2572 25.6725C15.2422 25.7251 15.2285 25.8116 15.216 25.9319L14.8718 25.9507C14.8743 25.9056 14.8793 25.8066 14.8868 25.6537C14.8943 25.4983 14.8993 25.3529 14.9017 25.2175L14.9392 25.1799L15.2908 25.2138H16.2598L16.6115 25.1799L16.6526 25.2175C16.6551 25.3554 16.6589 25.4983 16.6639 25.6462C16.6689 25.7941 16.6726 25.8893 16.6751 25.9319L16.3309 25.9507C16.3184 25.8204 16.3047 25.7289 16.2897 25.6762C16.2748 25.6211 16.2511 25.5847 16.2187 25.5672C16.1887 25.5472 16.1376 25.5359 16.0653 25.5334C16.0503 25.8191 16.0428 26.1926 16.0428 26.6538C16.0428 26.7265 16.054 26.7779 16.0765 26.808C16.1014 26.8381 16.1451 26.8531 16.2074 26.8531C16.2449 26.8531 16.2773 26.8519 16.3047 26.8493C16.3346 26.8468 16.3546 26.8456 16.3646 26.8456L16.3795 26.8606L16.3496 27.1163C16.3022 27.1138 16.2187 27.11 16.0989 27.105C15.9792 27.1025 15.8645 27.1013 15.7547 27.1013C15.6749 27.1013 15.5677 27.105 15.433 27.1125C15.2983 27.1201 15.2098 27.1251 15.1674 27.1276L15.1898 26.8757Z" fill="#A40700"/>
<path d="M18.3362 27.1464C18.2539 27.1464 18.1853 27.1263 18.1304 27.0862C18.0756 27.0436 18.0282 26.9747 17.9883 26.8794L17.7713 26.417H17.5842L17.5805 26.6501C17.5805 26.7127 17.5855 26.7579 17.5954 26.7854C17.6054 26.813 17.6241 26.8318 17.6516 26.8418C17.6815 26.8519 17.7314 26.8581 17.8012 26.8606L17.8162 26.8832L17.7862 27.1125C17.7488 27.1125 17.6815 27.11 17.5842 27.105C17.4894 27.1025 17.3984 27.1013 17.3111 27.1013C17.2213 27.1013 17.1228 27.105 17.0155 27.1125C16.9083 27.1201 16.8385 27.1251 16.806 27.1276L16.8322 26.8757C16.912 26.8631 16.9669 26.8393 16.9968 26.8042C17.0268 26.7691 17.0417 26.7115 17.0417 26.6313V25.586C17.0417 25.5359 17.0355 25.502 17.023 25.4845C17.0106 25.4644 16.9881 25.4544 16.9557 25.4544L16.8472 25.4582L16.821 25.4281L16.8509 25.21L17.2737 25.2138C17.371 25.2138 17.4745 25.2113 17.5842 25.2062C17.694 25.2012 17.77 25.1975 17.8124 25.195C18.0818 25.195 18.2851 25.2401 18.4222 25.3303C18.5594 25.4206 18.628 25.5547 18.628 25.7326C18.628 25.8479 18.5943 25.9532 18.527 26.0485C18.4621 26.1412 18.3674 26.2214 18.2427 26.2891L18.4597 26.62C18.5694 26.7904 18.6742 26.8757 18.7739 26.8757L18.8038 26.917L18.7777 27.1163L18.3362 27.1464ZM17.8424 26.1049C17.9097 26.0773 17.9621 26.0397 17.9995 25.9921C18.0369 25.9445 18.0556 25.878 18.0556 25.7928C18.0556 25.7026 18.0244 25.6361 17.9621 25.5935C17.8997 25.5509 17.8024 25.5296 17.6703 25.5296C17.6503 25.5296 17.6366 25.5346 17.6291 25.5446C17.6216 25.5522 17.6179 25.5697 17.6179 25.5973C17.6029 25.7627 17.5954 25.9219 17.5954 26.0748L17.8424 26.1049Z" fill="#A40700"/>
<path d="M18.9549 26.8832C19.0397 26.8656 19.0958 26.8418 19.1233 26.8117C19.1507 26.7792 19.1644 26.7228 19.1644 26.6426V25.6048C19.1644 25.5446 19.157 25.5045 19.142 25.4845C19.127 25.4644 19.0983 25.4544 19.0559 25.4544H18.9662L18.94 25.4206L18.9662 25.21L19.4413 25.2138C19.5311 25.2138 19.6271 25.2125 19.7294 25.21C19.8316 25.205 19.9027 25.2012 19.9426 25.1987L19.9239 25.4431C19.8491 25.4532 19.8004 25.4682 19.778 25.4882C19.7556 25.5058 19.7418 25.5421 19.7368 25.5973C19.7144 25.9482 19.7032 26.3029 19.7032 26.6614C19.7032 26.7416 19.7107 26.7955 19.7256 26.823C19.7406 26.8506 19.7693 26.8644 19.8117 26.8644C19.8391 26.8644 19.8628 26.8631 19.8828 26.8606C19.9027 26.8581 19.9152 26.8556 19.9202 26.8531L19.9426 26.8832L19.9164 27.1125C19.8765 27.1125 19.8054 27.11 19.7032 27.105C19.6009 27.1025 19.5049 27.1013 19.4151 27.1013C19.3378 27.1013 19.2455 27.1038 19.1382 27.1088C19.0335 27.1138 18.9649 27.1176 18.9325 27.1201L18.9549 26.8832Z" fill="#A40700"/>
<path d="M21.0399 27.1313C20.7506 27.1313 20.5248 27.0499 20.3627 26.8869C20.2031 26.7215 20.1233 26.4909 20.1233 26.1951C20.1233 25.8718 20.2181 25.6223 20.4076 25.4469C20.5972 25.2689 20.864 25.1799 21.2082 25.1799C21.288 25.1799 21.3741 25.1862 21.4664 25.1987C21.5612 25.2088 21.6422 25.22 21.7096 25.2326C21.7769 25.2426 21.8205 25.2501 21.8405 25.2551L21.8629 25.3078C21.8604 25.3228 21.853 25.3579 21.8405 25.413C21.8305 25.4657 21.8193 25.5371 21.8068 25.6274C21.7944 25.7151 21.7844 25.8103 21.7769 25.9131L21.3579 25.9357C21.3579 25.9282 21.3579 25.9094 21.3579 25.8793C21.3604 25.8492 21.3616 25.8141 21.3616 25.774C21.3616 25.6938 21.3417 25.6374 21.3018 25.6048C21.2643 25.5697 21.1995 25.5522 21.1072 25.5522C20.98 25.5522 20.889 25.5935 20.8341 25.6762C20.7817 25.7565 20.7555 25.8956 20.7555 26.0936C20.7555 26.5348 20.879 26.7553 21.1259 26.7553C21.2157 26.7553 21.2831 26.729 21.3279 26.6764C21.3728 26.6212 21.404 26.5298 21.4215 26.4019L21.8368 26.3718C21.8318 26.4094 21.823 26.4922 21.8106 26.62C21.8006 26.7453 21.7944 26.8644 21.7919 26.9772L21.7544 27.0223C21.737 27.0273 21.6958 27.0386 21.631 27.0561C21.5661 27.0737 21.4801 27.09 21.3728 27.105C21.2681 27.1226 21.1571 27.1313 21.0399 27.1313Z" fill="#A40700"/>
<path d="M22.0933 26.8832C22.1781 26.8681 22.2342 26.8456 22.2617 26.8155C22.2891 26.7829 22.3028 26.7253 22.3028 26.6426V25.6048C22.3028 25.5446 22.2953 25.5045 22.2804 25.4845C22.2654 25.4644 22.2367 25.4544 22.1943 25.4544H22.1083L22.0821 25.4206L22.1083 25.21L22.4974 25.2138C22.6046 25.2138 22.7144 25.2125 22.8266 25.21C22.9413 25.205 23.0199 25.2012 23.0623 25.1987L23.0436 25.4431C22.9738 25.4532 22.9289 25.4682 22.9089 25.4882C22.889 25.5083 22.8777 25.5484 22.8752 25.6086L22.8565 25.977L23.1633 25.9883C23.288 25.9883 23.3853 25.9833 23.4551 25.9733L23.4589 25.6048C23.4589 25.5446 23.4514 25.5045 23.4364 25.4845C23.4215 25.4644 23.3915 25.4544 23.3466 25.4544H23.2606L23.2344 25.4206L23.2606 25.21C23.2606 25.2125 23.4152 25.2138 23.7245 25.2138C23.8168 25.2138 23.9153 25.2125 24.0201 25.21C24.1248 25.205 24.1971 25.2012 24.237 25.1987L24.2183 25.4394C24.1435 25.4494 24.0949 25.4644 24.0724 25.4845C24.05 25.502 24.0363 25.5396 24.0313 25.5973C24.0088 25.9081 23.9976 26.2628 23.9976 26.6614C23.9976 26.7365 24.0063 26.7879 24.0238 26.8155C24.0437 26.8431 24.0762 26.8569 24.1211 26.8569C24.1435 26.8569 24.1635 26.8556 24.1809 26.8531C24.1984 26.8506 24.2096 26.8493 24.2146 26.8493L24.2408 26.8794L24.2109 27.105L23.7095 27.1013L23.2232 27.105L23.2456 26.8644C23.3229 26.8644 23.3766 26.8481 23.4065 26.8155C23.4389 26.7804 23.4551 26.719 23.4551 26.6313V26.3154L23.2232 26.3117C23.1633 26.3142 23.0935 26.3192 23.0137 26.3267C22.9339 26.3317 22.8777 26.3355 22.8453 26.338L22.8416 26.6614C22.8416 26.7416 22.849 26.7955 22.864 26.823C22.879 26.8506 22.9077 26.8644 22.9501 26.8644C22.9725 26.8644 22.9925 26.8631 23.0099 26.8606C23.0274 26.8581 23.0386 26.8556 23.0436 26.8531L23.0623 26.8832L23.0361 27.1125C22.9987 27.1125 22.9326 27.11 22.8378 27.105C22.7455 27.1025 22.6582 27.1013 22.5759 27.1013C22.4886 27.1013 22.3914 27.1025 22.2841 27.105C22.1769 27.11 22.1058 27.1151 22.0709 27.1201L22.0933 26.8832Z" fill="#A40700"/>
<path d="M24.6525 26.8757C24.7423 26.8681 24.8084 26.8569 24.8508 26.8418C24.8932 26.8243 24.9219 26.7992 24.9368 26.7666C24.9543 26.7315 24.963 26.6802 24.963 26.6125V25.5334C24.8882 25.5359 24.8321 25.5472 24.7947 25.5672C24.7597 25.5847 24.7348 25.6198 24.7198 25.6725C24.7049 25.7251 24.6912 25.8116 24.6787 25.9319L24.3345 25.9507C24.337 25.9056 24.342 25.8066 24.3495 25.6537C24.3569 25.4983 24.3619 25.3529 24.3644 25.2175L24.4018 25.1799L24.7535 25.2138H25.7225L26.0742 25.1799L26.1153 25.2175C26.1178 25.3554 26.1216 25.4983 26.1265 25.6462C26.1315 25.7941 26.1353 25.8893 26.1378 25.9319L25.7936 25.9507C25.7811 25.8204 25.7674 25.7289 25.7524 25.6762C25.7375 25.6211 25.7138 25.5847 25.6813 25.5672C25.6514 25.5472 25.6003 25.5359 25.5279 25.5334C25.513 25.8191 25.5055 26.1926 25.5055 26.6538C25.5055 26.7265 25.5167 26.7779 25.5392 26.808C25.5641 26.8381 25.6078 26.8531 25.6701 26.8531C25.7075 26.8531 25.7399 26.8519 25.7674 26.8493C25.7973 26.8468 25.8173 26.8456 25.8272 26.8456L25.8422 26.8606L25.8123 27.1163C25.7649 27.1138 25.6813 27.11 25.5616 27.105C25.4419 27.1025 25.3272 27.1013 25.2174 27.1013C25.1376 27.1013 25.0304 27.105 24.8957 27.1125C24.761 27.1201 24.6724 27.1251 24.63 27.1276L24.6525 26.8757Z" fill="#A40700"/>
<path d="M11.3208 24.0534C11.1524 23.5165 10.9773 22.9886 10.7955 22.4698H10.7685C10.7685 22.4946 10.7641 22.5769 10.7551 22.7168C10.7461 22.8567 10.7382 22.9728 10.7315 23.0653C10.7046 23.4443 10.6911 23.6485 10.6911 23.6778C10.6911 23.75 10.727 23.7861 10.7989 23.7861L10.9133 23.7827L10.9335 23.7996L10.8965 24.0128C10.7079 24.0038 10.5766 23.9993 10.5025 23.9993C10.4509 23.9993 10.3881 24.0027 10.314 24.0095C10.2422 24.0162 10.1939 24.0219 10.1692 24.0264L10.1894 23.8064C10.2545 23.7996 10.3016 23.7793 10.3308 23.7455C10.36 23.7094 10.3813 23.6485 10.3948 23.5628C10.415 23.3868 10.4419 23.124 10.4756 22.7743C10.5115 22.4246 10.5295 22.2329 10.5295 22.199C10.5295 22.1381 10.5115 22.0964 10.4756 22.0738C10.4419 22.0513 10.3746 22.0355 10.2736 22.0265L10.2567 22.0061L10.2871 21.8099C10.4711 21.8212 10.6114 21.8268 10.7079 21.8268C10.7573 21.8268 10.8763 21.8223 11.0649 21.8133C11.1546 22.1314 11.2792 22.5453 11.4386 23.0552L11.4958 23.2311H11.5228C11.5362 23.186 11.5542 23.1296 11.5767 23.0619C11.5991 22.992 11.6227 22.9176 11.6474 22.8386C11.7618 22.4957 11.8707 22.1573 11.974 21.8234C12.0211 21.8234 12.0593 21.8245 12.0885 21.8268L12.2669 21.8302L12.3713 21.8268C12.4184 21.8268 12.479 21.8245 12.5531 21.82C12.6272 21.8155 12.6811 21.811 12.7147 21.8065L12.7282 21.82L12.708 22.0231C12.6115 22.0321 12.5453 22.049 12.5093 22.0738C12.4757 22.0986 12.4588 22.1415 12.4588 22.2024C12.4588 22.2724 12.4678 22.4506 12.4858 22.7371C12.5037 23.0213 12.5217 23.2672 12.5396 23.4748C12.5531 23.5989 12.5699 23.6823 12.5902 23.7252C12.6126 23.7658 12.6508 23.7861 12.7046 23.7861C12.7293 23.7861 12.7495 23.785 12.7652 23.7827C12.7832 23.7805 12.7944 23.7793 12.7989 23.7793L12.8124 23.7963L12.7821 24.0095C12.7484 24.0095 12.7181 24.0083 12.6912 24.0061C12.5924 24.0016 12.5093 23.9993 12.442 23.9993C12.3769 23.9993 12.2905 24.0027 12.1827 24.0095C12.0772 24.0162 12.0043 24.0219 11.9639 24.0264L11.9874 23.8064C12.0548 23.7974 12.103 23.7805 12.1322 23.7557C12.1614 23.7286 12.176 23.6891 12.176 23.6372C12.176 23.6282 12.167 23.4883 12.1491 23.2176C12.1244 22.8634 12.1098 22.6141 12.1053 22.4698H12.075C11.8864 22.9976 11.7113 23.5154 11.5497 24.023L11.3208 24.0534Z" fill="#A40700"/>
<path d="M14.156 24.0399C14.0573 24.0399 13.9787 24.0185 13.9203 23.9756C13.8642 23.9305 13.8306 23.8651 13.8193 23.7793L13.7924 23.7692C13.7206 23.8436 13.651 23.9057 13.5836 23.9553C13.5163 24.0027 13.4624 24.0264 13.422 24.0264C13.2896 24.0264 13.1796 23.9801 13.092 23.8876C13.0045 23.7929 12.9607 23.6756 12.9607 23.5357C12.9607 23.4658 12.9787 23.406 13.0146 23.3563C13.0505 23.3045 13.0976 23.2706 13.156 23.2548L13.8059 23.1026L13.8092 23.0213C13.8092 22.9243 13.7834 22.8488 13.7318 22.7946C13.6802 22.7405 13.6094 22.7134 13.5197 22.7134C13.459 22.7134 13.3928 22.7292 13.321 22.7608C13.2514 22.7901 13.1863 22.8273 13.1257 22.8724L13.0954 22.8589L13.0382 22.6559C13.1504 22.5927 13.2682 22.534 13.3917 22.4799C13.5152 22.4258 13.6027 22.3987 13.6543 22.3987C13.8407 22.3987 13.9798 22.4416 14.0719 22.5273C14.1661 22.6108 14.2133 22.7213 14.2133 22.8589C14.2133 22.9085 14.2032 23.0101 14.183 23.1635C14.1583 23.3823 14.1459 23.5131 14.1459 23.556C14.1459 23.5989 14.1572 23.6327 14.1796 23.6575C14.2021 23.6823 14.2312 23.6947 14.2672 23.6947C14.2941 23.6947 14.3221 23.6891 14.3513 23.6778C14.3828 23.6643 14.4086 23.6508 14.4288 23.6372L14.4793 23.7083C14.4389 23.7805 14.3884 23.8504 14.3278 23.9181C14.2694 23.9835 14.2122 24.0241 14.156 24.0399ZM13.5466 23.7049C13.5803 23.7049 13.6195 23.6959 13.6644 23.6778C13.7116 23.6598 13.7531 23.6361 13.789 23.6068L13.7991 23.2853L13.4388 23.3868C13.385 23.4003 13.358 23.4376 13.358 23.4985C13.358 23.5571 13.3749 23.6068 13.4085 23.6474C13.4445 23.6857 13.4905 23.7049 13.5466 23.7049Z" fill="#A40700"/>
<path d="M16.1507 22.5916C16.0317 22.6029 15.9487 22.6096 15.9015 22.6119L15.8881 22.6322C15.9779 22.7292 16.0228 22.8409 16.0228 22.9672C16.0228 23.08 15.9913 23.1826 15.9285 23.2751C15.8656 23.3676 15.7792 23.4398 15.6692 23.4917C15.5592 23.5436 15.4358 23.5695 15.2988 23.5695C15.2248 23.5695 15.1518 23.5605 15.08 23.5425C15.0508 23.5673 15.0295 23.5887 15.016 23.6068C15.0048 23.6226 14.9992 23.6395 14.9992 23.6575C14.9992 23.7004 15.0317 23.7308 15.0968 23.7489C15.1619 23.7669 15.2652 23.7839 15.4066 23.7996C15.557 23.8154 15.6804 23.8335 15.777 23.8538C15.8735 23.8741 15.9565 23.9113 16.0261 23.9655C16.098 24.0173 16.1339 24.0918 16.1339 24.1888C16.1339 24.2948 16.0912 24.3964 16.0059 24.4934C15.9206 24.5904 15.8095 24.6682 15.6726 24.7269C15.5356 24.7878 15.392 24.8182 15.2416 24.8182C15.062 24.8182 14.9183 24.7742 14.8106 24.6862C14.7028 24.6005 14.649 24.4855 14.649 24.3411C14.7073 24.2802 14.8196 24.1978 14.9857 24.0941V24.0704C14.8779 24.0523 14.7938 24.014 14.7332 23.9553C14.6748 23.8944 14.6434 23.8177 14.6389 23.7252C14.7197 23.6417 14.8117 23.5662 14.915 23.4985V23.4782C14.8342 23.4308 14.7713 23.3676 14.7264 23.2887C14.6815 23.2097 14.6591 23.1206 14.6591 23.0213C14.6591 22.904 14.6894 22.798 14.75 22.7032C14.8106 22.6062 14.8937 22.5307 14.9992 22.4765C15.1047 22.4224 15.2236 22.3953 15.3561 22.3953C15.4122 22.3953 15.4784 22.4021 15.5547 22.4156C15.6266 22.4246 15.6759 22.4291 15.7029 22.4291C15.7837 22.4246 15.9408 22.3874 16.1743 22.3175L16.1945 22.331L16.1507 22.5916ZM15.3594 23.3462C15.4402 23.3462 15.502 23.318 15.5446 23.2616C15.5895 23.2052 15.612 23.124 15.612 23.018C15.612 22.9052 15.5862 22.8149 15.5345 22.7472C15.4851 22.6796 15.4144 22.6457 15.3224 22.6457C15.2438 22.6457 15.1821 22.6739 15.1372 22.7303C15.0946 22.7845 15.0732 22.8668 15.0732 22.9773C15.0732 23.0879 15.0979 23.177 15.1473 23.2447C15.1989 23.3124 15.2696 23.3462 15.3594 23.3462ZM15.1944 24.1144C15.154 24.1482 15.1226 24.1865 15.1002 24.2294C15.0777 24.2723 15.0665 24.3151 15.0665 24.358C15.0665 24.4234 15.0923 24.4742 15.1439 24.5103C15.1978 24.5486 15.273 24.5678 15.3695 24.5678C15.4795 24.5678 15.5716 24.543 15.6456 24.4934C15.722 24.446 15.7601 24.3873 15.7601 24.3174C15.7601 24.2813 15.7467 24.252 15.7197 24.2294C15.6928 24.2091 15.64 24.1899 15.5615 24.1719C15.4851 24.1561 15.3628 24.1369 15.1944 24.1144Z" fill="#A40700"/>
<path d="M16.3317 23.8233C16.3968 23.8121 16.444 23.7906 16.4732 23.759C16.5046 23.7252 16.5203 23.6767 16.5203 23.6135V22.8826C16.5203 22.8104 16.5102 22.7608 16.49 22.7337C16.4698 22.7066 16.4328 22.6931 16.3789 22.6931C16.3632 22.6931 16.3475 22.6942 16.3317 22.6965C16.316 22.6987 16.3059 22.701 16.3014 22.7032L16.3216 22.5104C16.4473 22.4923 16.5753 22.472 16.7055 22.4494C16.8357 22.4246 16.9199 22.4077 16.958 22.3987L16.9883 22.4528C16.9636 22.5025 16.9434 22.6389 16.9277 22.8623C16.9142 23.0834 16.9075 23.3439 16.9075 23.644C16.9075 23.6981 16.9154 23.7365 16.9311 23.759C16.9468 23.7816 16.9737 23.7929 17.0119 23.7929C17.0321 23.7929 17.0512 23.7918 17.0691 23.7895C17.0893 23.7872 17.1028 23.7861 17.1095 23.7861L17.1196 23.803L17.086 24.0095C17.0613 24.0072 17.0119 24.0049 16.9378 24.0027C16.866 24.0004 16.7919 23.9993 16.7156 23.9993C16.646 23.9993 16.5663 24.0038 16.4765 24.0128C16.389 24.0241 16.3317 24.032 16.3048 24.0365L16.3317 23.8233ZM16.6853 22.1077C16.6112 22.1077 16.554 22.0862 16.5136 22.0434C16.4732 22.0005 16.453 21.943 16.453 21.8708C16.453 21.7896 16.4765 21.7242 16.5237 21.6745C16.573 21.6249 16.6381 21.6001 16.719 21.6001C16.7908 21.6001 16.8469 21.6226 16.8873 21.6678C16.9277 21.7106 16.9479 21.7681 16.9479 21.8403C16.9479 21.9193 16.9232 21.9836 16.8738 22.0332C16.8267 22.0829 16.7638 22.1077 16.6853 22.1077Z" fill="#A40700"/>
<path d="M17.7695 24.0399C17.6887 24.0399 17.6146 24.0331 17.5472 24.0196C17.4821 24.0061 17.4305 23.9925 17.3923 23.979C17.3542 23.9632 17.3306 23.9531 17.3216 23.9485L17.3014 23.9147C17.3104 23.8538 17.3183 23.7827 17.325 23.7015C17.334 23.6203 17.3407 23.5425 17.3452 23.468L17.5304 23.4511C17.5326 23.679 17.6325 23.7929 17.8301 23.7929C17.8952 23.7929 17.949 23.7793 17.9917 23.7523C18.0343 23.7229 18.0557 23.6868 18.0557 23.644C18.0557 23.5989 18.0332 23.5583 17.9883 23.5222C17.9434 23.4838 17.8536 23.4319 17.719 23.3665C17.5843 23.3033 17.4866 23.2368 17.426 23.1668C17.3654 23.0947 17.3351 23.0112 17.3351 22.9164C17.3351 22.8149 17.3643 22.7258 17.4227 22.6491C17.481 22.5701 17.5629 22.5092 17.6685 22.4664C17.774 22.4212 17.894 22.3987 18.0287 22.3987C18.0938 22.3987 18.1544 22.4032 18.2106 22.4122C18.2667 22.4212 18.3104 22.4314 18.3419 22.4427C18.3755 22.4517 18.3969 22.4573 18.4058 22.4596L18.4227 22.4934C18.4182 22.5183 18.4081 22.5747 18.3924 22.6626C18.3789 22.7484 18.3677 22.8375 18.3587 22.93L18.1702 22.9435L18.1735 22.8826C18.1735 22.8036 18.1544 22.7461 18.1163 22.71C18.0781 22.6717 18.0186 22.6525 17.9378 22.6525C17.8795 22.6525 17.8301 22.6671 17.7897 22.6965C17.7493 22.7235 17.7291 22.7585 17.7291 22.8014C17.7291 22.8442 17.747 22.8837 17.7829 22.9198C17.8188 22.9559 17.8783 22.9943 17.9614 23.0349C18.0938 23.098 18.1948 23.1544 18.2644 23.2041C18.3363 23.2537 18.3856 23.3045 18.4126 23.3563C18.4418 23.406 18.4564 23.4658 18.4564 23.5357C18.4564 23.6282 18.4261 23.7128 18.3654 23.7895C18.3048 23.8662 18.2218 23.9271 18.1163 23.9722C18.0108 24.0173 17.8952 24.0399 17.7695 24.0399Z" fill="#A40700"/>
<path d="M19.3998 24.0399C19.1709 24.0399 18.9902 23.9711 18.8577 23.8335C18.7253 23.6936 18.6591 23.503 18.6591 23.2616C18.6591 23.0947 18.6939 22.9458 18.7634 22.8149C18.833 22.6841 18.9296 22.5826 19.053 22.5104C19.1787 22.4359 19.3201 22.3987 19.4773 22.3987C19.5513 22.3987 19.6198 22.4043 19.6827 22.4156C19.7478 22.4246 19.7983 22.4348 19.8342 22.4461C19.8723 22.4551 19.8959 22.4619 19.9049 22.4664L19.9184 22.4968C19.9161 22.5104 19.9094 22.5419 19.8982 22.5916C19.8892 22.6389 19.8791 22.701 19.8679 22.7777C19.8566 22.8544 19.8488 22.9345 19.8443 23.018L19.6288 23.0315V22.9198C19.6288 22.8431 19.6097 22.7845 19.5715 22.7439C19.5356 22.701 19.484 22.6796 19.4167 22.6796C19.3112 22.6796 19.2303 22.719 19.1742 22.798C19.1204 22.8747 19.0934 22.9852 19.0934 23.1296C19.0934 23.3146 19.126 23.4567 19.1911 23.556C19.2562 23.6553 19.3482 23.7049 19.4672 23.7049C19.5233 23.7049 19.5772 23.6981 19.6288 23.6846C19.6827 23.6688 19.7264 23.653 19.7601 23.6372C19.796 23.6214 19.8185 23.6113 19.8274 23.6068L19.851 23.6169L19.9049 23.7895C19.8892 23.803 19.8533 23.8301 19.7971 23.8707C19.741 23.9091 19.6759 23.9474 19.6019 23.9858C19.5278 24.0219 19.4604 24.0399 19.3998 24.0399Z" fill="#A40700"/>
<path d="M20.0927 23.803C20.1511 23.7963 20.1915 23.7805 20.2139 23.7557C20.2386 23.7286 20.251 23.6835 20.251 23.6203V21.9757C20.251 21.9035 20.2409 21.8539 20.2207 21.8268C20.2005 21.7997 20.1634 21.7862 20.1095 21.7862H20.0321L20.0186 21.7727L20.0388 21.5967C20.2813 21.5629 20.508 21.5268 20.719 21.4884L20.7426 21.5527C20.7201 21.5775 20.701 21.6903 20.6853 21.8911C20.6696 22.0896 20.6573 22.3558 20.6483 22.6897C20.7201 22.6198 20.802 22.5544 20.8941 22.4934C20.9884 22.4303 21.0568 22.3987 21.0995 22.3987C21.2611 22.3987 21.3857 22.437 21.4732 22.5137C21.5608 22.5882 21.6045 22.6953 21.6045 22.8352C21.6045 22.8894 21.5944 23.0078 21.5742 23.1905C21.5518 23.4206 21.5406 23.5684 21.5406 23.6338C21.5406 23.6925 21.5484 23.7342 21.5641 23.759C21.5821 23.7839 21.6102 23.7963 21.6483 23.7963L21.7493 23.7895L21.7561 23.803L21.7258 24.0095L21.6483 24.0061C21.5181 24.0016 21.4227 23.9993 21.3621 23.9993C21.2791 23.9993 21.1545 24.0083 20.9884 24.0264L21.0052 23.8166C21.0613 23.8053 21.1017 23.785 21.1264 23.7557C21.1511 23.7263 21.1635 23.6835 21.1635 23.6271L21.1769 23.0416C21.1792 22.8454 21.1062 22.7472 20.9581 22.7472C20.9199 22.7472 20.8705 22.7608 20.8099 22.7878C20.7515 22.8127 20.6965 22.8465 20.6449 22.8894C20.6404 23.0202 20.6382 23.2706 20.6382 23.6406C20.6382 23.697 20.646 23.7365 20.6618 23.759C20.6775 23.7816 20.7033 23.7929 20.7392 23.7929L20.8267 23.7895L20.8335 23.8064L20.7998 24.0095C20.7706 24.0095 20.7482 24.0083 20.7325 24.0061C20.6023 24.0016 20.5035 23.9993 20.4362 23.9993C20.306 23.9993 20.1814 24.0027 20.0624 24.0095L20.0927 23.803Z" fill="#A40700"/>
<path d="M9.53621 30.2642C9.54585 30.1337 9.56472 29.8457 9.59282 29.4002C9.62325 28.9557 9.64939 28.5188 9.67125 28.0898C9.67614 28.0138 9.65876 27.9508 9.6191 27.9006C9.58034 27.8481 9.51598 27.8032 9.42602 27.766L9.42438 27.7492L9.50634 27.6076C9.53663 27.6193 9.59164 27.6431 9.67138 27.6792C9.75435 27.7138 9.8331 27.7454 9.90764 27.7741C9.98451 27.8036 10.083 27.8361 10.203 27.8716C10.3263 27.9056 10.4074 27.9274 10.4465 27.937L10.4476 27.9657L10.3815 28.0972C10.2521 28.0582 10.1629 28.04 10.1138 28.0426C10.0671 28.0461 10.0339 28.0736 10.0143 28.1251C9.99649 28.1719 9.9655 28.4391 9.92135 28.9267C9.87809 29.412 9.84945 29.7432 9.83541 29.9203L9.86686 29.9324C10.6351 29.0792 11.0335 28.6151 11.062 28.5402C11.0807 28.491 11.0755 28.4487 11.0462 28.4133C11.0179 28.3756 10.9606 28.3401 10.8744 28.307L10.6927 28.2371L10.6911 28.2204L10.7696 28.0774C10.7989 28.0914 10.8636 28.1216 10.9634 28.1681C11.0655 28.2154 11.1643 28.2575 11.2598 28.2942C11.346 28.3273 11.4257 28.3566 11.4988 28.3821C11.5742 28.4084 11.624 28.4249 11.6482 28.4315L11.5574 28.5858C11.4843 28.5603 11.4298 28.5528 11.3938 28.5631C11.3578 28.5734 11.3141 28.6076 11.2626 28.6656L9.78925 30.2729L9.53621 30.2642Z" fill="#A40700"/>
<path d="M11.303 30.657C11.3774 30.6677 11.4315 30.6566 11.4653 30.6237C11.4997 30.5883 11.531 30.5135 11.5591 30.3991L11.7566 29.5961C11.7764 29.5158 11.7795 29.4559 11.7661 29.4164C11.7527 29.3769 11.7218 29.3512 11.6734 29.3391C11.654 29.3343 11.6367 29.3313 11.6216 29.3302C11.6089 29.3296 11.5998 29.3299 11.5944 29.3311L11.5825 29.3011L11.6212 29.1906C11.7174 29.1965 11.8194 29.1998 11.9271 29.2008C12.0372 29.2023 12.1076 29.203 12.1385 29.2029L12.1585 29.2311C12.1483 29.2518 12.1285 29.3011 12.099 29.379C12.0702 29.4545 12.0483 29.5278 12.0334 29.599L12.0452 29.6135C12.146 29.5172 12.2538 29.4446 12.3686 29.3956C12.4858 29.3473 12.5807 29.3322 12.6534 29.3502C12.6873 29.3586 12.7121 29.3674 12.7278 29.3764C12.7466 29.3837 12.7581 29.3891 12.7624 29.3928L12.7697 29.4101C12.7564 29.4429 12.7276 29.5132 12.6831 29.621C12.6416 29.7269 12.6083 29.8257 12.5832 29.9176L12.4388 29.8934C12.4634 29.7936 12.4723 29.7261 12.4655 29.6909C12.4618 29.6538 12.4406 29.6304 12.4018 29.6208C12.3486 29.6076 12.286 29.6166 12.2141 29.6478C12.1428 29.6765 12.0724 29.7223 12.003 29.7851C11.9832 29.8551 11.9497 29.9707 11.9023 30.1319C11.8549 30.2931 11.8178 30.4233 11.7908 30.5225C11.7705 30.6052 11.7688 30.6642 11.7858 30.6994C11.8029 30.7347 11.8453 30.7607 11.9131 30.7775C11.9446 30.7853 11.9763 30.7919 12.0084 30.7973C12.0405 30.8027 12.0626 30.8069 12.0747 30.8099L12.0747 30.8254L12.0025 30.9779C11.9783 30.9719 11.9302 30.9586 11.8582 30.9382C11.7861 30.9177 11.7114 30.8978 11.6339 30.8786C11.5443 30.8563 11.4629 30.8374 11.3896 30.8218C11.3158 30.8086 11.2689 30.8008 11.2489 30.7984L11.303 30.657Z" fill="#A40700"/>
<path d="M12.9084 31.047C12.9854 31.0388 13.0428 31.0186 13.0806 30.9865C13.1188 30.9519 13.1428 30.9024 13.1528 30.838L13.2993 29.8944C13.32 29.7606 13.2848 29.6866 13.1936 29.6723C13.1764 29.6696 13.1575 29.6692 13.137 29.6711C13.1169 29.6704 13.1042 29.671 13.0989 29.6727L13.135 29.5375C13.2408 29.5389 13.3499 29.5357 13.4621 29.5279C13.5769 29.5205 13.6508 29.5156 13.684 29.5132L13.6956 29.5607C13.6653 29.6092 13.6208 29.7659 13.5621 30.0307C13.5037 30.293 13.4519 30.5703 13.4065 30.8625C13.3954 30.9343 13.397 30.9891 13.4113 31.0269C13.426 31.0622 13.4568 31.0835 13.5036 31.0908C13.5307 31.0951 13.5568 31.0979 13.5818 31.0993C13.6068 31.1007 13.6243 31.1021 13.6341 31.1037L13.6392 31.1197L13.5849 31.2748C13.5631 31.2689 13.5216 31.2598 13.4603 31.2477C13.3991 31.2356 13.3315 31.2237 13.2576 31.2121C13.1935 31.2021 13.1186 31.1967 13.0329 31.1959C12.9497 31.1956 12.8954 31.1959 12.8699 31.197L12.9084 31.047ZM13.5376 29.0413C13.481 29.0324 13.4395 29.0068 13.4132 28.9647C13.3869 28.9225 13.3778 28.8754 13.3859 28.8234C13.3951 28.764 13.424 28.7165 13.4724 28.6809C13.5212 28.6429 13.5764 28.6287 13.638 28.6384C13.6947 28.6473 13.7362 28.6728 13.7625 28.715C13.7887 28.7571 13.7978 28.8042 13.7898 28.8563C13.7805 28.9157 13.7515 28.9644 13.7027 29.0024C13.6543 29.038 13.5993 29.0509 13.5376 29.0413Z" fill="#A40700"/>
<path d="M14.6616 29.1021C14.6069 29.0976 14.5636 29.0764 14.5317 29.0386C14.5023 29.0009 14.4899 28.9534 14.4946 28.8959C14.4997 28.8335 14.5251 28.7827 14.5709 28.7438C14.6166 28.7048 14.6705 28.6879 14.7327 28.693C14.7849 28.6973 14.8269 28.7197 14.8586 28.76C14.8905 28.7979 14.9042 28.8443 14.8997 28.8993C14.8946 28.9617 14.8692 29.0124 14.8235 29.0514C14.7777 29.0904 14.7238 29.1073 14.6616 29.1021ZM14.0135 32.1572L14.0234 32.1278C14.1391 32.0293 14.221 31.9153 14.2691 31.786C14.3197 31.6569 14.3556 31.4637 14.3766 31.2064L14.4718 30.0447C14.4782 29.9673 14.4713 29.9139 14.4511 29.8845C14.4337 29.8529 14.3964 29.8347 14.3392 29.83C14.3169 29.8282 14.2956 29.8277 14.2755 29.8285C14.2579 29.8296 14.2453 29.831 14.2376 29.8329L14.2639 29.6955C14.3594 29.6908 14.4653 29.6807 14.5817 29.6652C14.6981 29.6497 14.774 29.6396 14.8094 29.635L14.8244 29.6815C14.7762 29.7505 14.7074 30.3308 14.618 31.4225C14.6032 31.6024 14.5488 31.7626 14.4547 31.9032C14.3606 32.0438 14.2339 32.1541 14.0747 32.2339L14.0135 32.1572Z" fill="#A40700"/>
<path d="M15.9793 31.4635C15.8097 31.4628 15.6901 31.4284 15.6205 31.3605C15.551 31.29 15.5166 31.172 15.5172 31.0066L15.521 30.0817C15.5213 30.014 15.5065 29.9663 15.4767 29.9386C15.4469 29.9109 15.3908 29.8956 15.3085 29.8928L15.2937 29.8702L15.3128 29.7575C15.3853 29.7227 15.4553 29.6803 15.5229 29.6305C15.5929 29.5781 15.6492 29.5332 15.6918 29.4958C15.7368 29.4559 15.7656 29.4297 15.7781 29.4172L15.8528 29.4476C15.8503 29.4601 15.8464 29.4902 15.8412 29.5378C15.8361 29.5854 15.8296 29.6493 15.8218 29.7295L16.3718 29.7205L16.3829 29.7318L16.3484 29.9309L15.806 29.9174C15.7874 30.1931 15.7774 30.5064 15.776 30.8573C15.7755 30.9851 15.7963 31.0754 15.8385 31.1283C15.8832 31.1811 15.9591 31.2077 16.0664 31.2082C16.1038 31.2083 16.1412 31.2035 16.1787 31.1936C16.2161 31.1837 16.2473 31.1738 16.2723 31.1639C16.2973 31.1515 16.3136 31.144 16.3211 31.1415L16.3581 31.2394C16.343 31.2519 16.3105 31.2756 16.2605 31.3105C16.213 31.3454 16.1604 31.3803 16.1029 31.4151C16.0479 31.4475 16.0067 31.4636 15.9793 31.4635Z" fill="#A40700"/>
<path d="M16.8464 31.268C16.9175 31.2529 16.9652 31.2289 16.9893 31.1961C17.0159 31.163 17.0256 31.1116 17.0182 31.0418L16.8088 29.0526C16.8017 28.9853 16.7854 28.9379 16.7599 28.9103C16.7342 28.8803 16.6978 28.8678 16.6507 28.8728L16.5725 28.8811L16.5565 28.8715L16.5587 28.7502C16.642 28.7313 16.7359 28.7062 16.8405 28.6749C16.9448 28.6411 17.0306 28.6106 17.098 28.5832L17.1254 28.6295C17.1109 28.6587 17.1076 28.794 17.1154 29.0351C17.1257 29.276 17.1443 29.5714 17.1711 29.9215C17.4334 29.697 17.6092 29.58 17.6985 29.5705C17.8597 29.5533 17.9894 29.5824 18.0876 29.6577C18.1859 29.7329 18.243 29.8466 18.259 29.9986C18.2642 30.0485 18.2676 30.1641 18.2692 30.3454C18.2775 30.6394 18.2854 30.8213 18.2927 30.8911C18.3004 30.9634 18.3159 31.016 18.3394 31.0487C18.3627 31.079 18.3979 31.0917 18.445 31.0867L18.5744 31.0653L18.5835 31.0795L18.5706 31.2435C18.4061 31.2534 18.2954 31.2614 18.2383 31.2674C18.1391 31.278 18.0129 31.3065 17.8598 31.3531L17.8586 31.1982C17.9309 31.1703 17.9812 31.136 18.0095 31.0952C18.0375 31.0519 18.0482 30.9978 18.0413 30.933L17.9857 30.1903C17.9726 30.0656 17.9352 29.9726 17.8735 29.9111C17.8144 29.8493 17.7352 29.8237 17.636 29.8342C17.574 29.8408 17.4992 29.869 17.4116 29.9186C17.3265 29.968 17.251 30.0252 17.1851 30.0901C17.2071 30.3701 17.2352 30.6734 17.2696 30.9999C17.2778 31.0772 17.2934 31.131 17.3167 31.1613C17.3397 31.1891 17.376 31.2003 17.4256 31.1951L17.555 31.1737L17.564 31.1879L17.5475 31.3523C17.3756 31.363 17.2623 31.3712 17.2077 31.377C17.1011 31.3884 16.9786 31.4039 16.8402 31.4237L16.8464 31.268Z" fill="#A40700"/>
<path d="M19.8387 31.0104C19.7003 31.0434 19.5697 31.0384 19.4468 30.9956C19.324 30.9527 19.2178 30.8775 19.1284 30.77C19.0408 30.6595 18.9783 30.525 18.9409 30.3665C18.9006 30.1957 18.9002 30.0309 18.9397 29.8721C18.981 29.7103 19.0564 29.5738 19.1661 29.4627C19.2751 29.3491 19.4085 29.2736 19.5663 29.236C19.7022 29.2036 19.8316 29.2089 19.9545 29.2517C20.0798 29.294 20.1863 29.3704 20.2738 29.4809C20.3633 29.5884 20.4267 29.7214 20.4641 29.88C20.5043 30.0507 20.5038 30.217 20.4625 30.3788C20.4231 30.5376 20.3488 30.6738 20.2398 30.7874C20.1301 30.8985 19.9964 30.9728 19.8387 31.0104ZM19.8983 30.8069C20.0342 30.7745 20.1293 30.6939 20.1835 30.5651C20.2371 30.4338 20.2415 30.273 20.1966 30.0828C20.1627 29.9389 20.1106 29.816 20.0405 29.7142C19.9698 29.61 19.8869 29.5357 19.7919 29.4914C19.6992 29.4465 19.6032 29.4359 19.5037 29.4596C19.3678 29.4919 19.273 29.5738 19.2194 29.705C19.1657 29.8363 19.1617 29.9983 19.2071 30.191C19.241 30.3349 19.2931 30.4577 19.3632 30.5595C19.4334 30.6613 19.5148 30.7347 19.6074 30.7796C19.6994 30.8221 19.7964 30.8312 19.8983 30.8069Z" fill="#A40700"/>
<path d="M21.1911 30.456C21.3186 30.3897 21.3613 30.2963 21.3191 30.1757L20.984 29.218C20.9618 29.162 20.9325 29.1312 20.8961 29.1255C20.8612 29.1165 20.7994 29.1251 20.7107 29.1511L20.6892 29.1348L20.6717 29.0055L20.8698 28.8916L20.8648 28.8775C20.7937 28.6741 20.7645 28.4851 20.7775 28.3105C20.7928 28.135 20.8463 27.9859 20.9382 27.8631C21.0324 27.7394 21.1619 27.6485 21.3266 27.5903C21.3972 27.5654 21.4635 27.5472 21.5257 27.5359C21.5901 27.5237 21.6409 27.5177 21.678 27.5179C21.7166 27.5149 21.7414 27.5141 21.7525 27.5155L21.7707 27.5449C21.7678 27.5593 21.7624 27.593 21.7546 27.6463C21.7484 27.6963 21.7441 27.7523 21.742 27.8142L21.7069 27.8385C21.695 27.8348 21.6665 27.8289 21.6214 27.8209C21.5787 27.8121 21.5234 27.809 21.4556 27.8117C21.3902 27.8136 21.3233 27.8266 21.2551 27.8507C21.121 27.8981 21.04 27.9878 21.0122 28.1199C20.9835 28.2496 21.0058 28.4264 21.0788 28.6504L21.1361 28.8254C21.2585 28.7822 21.3628 28.744 21.449 28.7109C21.5352 28.6777 21.592 28.655 21.6194 28.6426L21.6338 28.6495L21.6642 28.85C21.6375 28.8568 21.5814 28.874 21.4959 28.9015C21.4127 28.9283 21.3123 28.9624 21.1946 29.004L21.5541 30.0767C21.5773 30.1429 21.6088 30.1875 21.6486 30.2107C21.6899 30.2306 21.7412 30.2298 21.8024 30.2081C21.8588 30.1882 21.9043 30.1708 21.9388 30.1559C21.9756 30.1403 21.9999 30.1304 22.0116 30.1262L22.0237 30.1379L22.0523 30.2992C22.0194 30.3108 21.959 30.3308 21.8711 30.3592C21.7832 30.3876 21.6969 30.4168 21.6122 30.4467C21.5298 30.4758 21.4491 30.5057 21.3699 30.5363C21.2939 30.5685 21.2446 30.5899 21.2219 30.6006L21.1911 30.456Z" fill="#A40700"/>
<g clip-path="url(#clip3_963:132)">
<path d="M25.104 8.49504C25.0775 8.4952 25.0561 8.5168 25.0563 8.54331C25.0564 8.56983 25.078 8.59121 25.1045 8.59104C25.1194 8.59096 25.1325 8.58399 25.1412 8.57337L25.207 8.61086L25.1121 8.63682C25.1051 8.63876 25.101 8.64596 25.1029 8.65293C25.1045 8.65879 25.1098 8.66263 25.1156 8.66258C25.1167 8.66255 25.1179 8.66242 25.119 8.6621L25.2392 8.62923L25.3247 8.67803L25.167 8.72121C25.16 8.72315 25.1559 8.73036 25.1579 8.73734C25.1595 8.74317 25.1648 8.74701 25.1706 8.74698C25.1717 8.74698 25.1728 8.74679 25.1739 8.74651L25.357 8.69639L25.3843 8.71202L25.2266 8.75518C25.2196 8.75712 25.2155 8.76435 25.2174 8.77129C25.219 8.77715 25.2243 8.78096 25.2301 8.78093C25.2313 8.78093 25.2324 8.78077 25.2335 8.78046L25.4165 8.73037L25.5253 8.79235L25.4172 8.85556L25.2337 8.80748C25.2265 8.80567 25.2195 8.80986 25.2176 8.81685C25.2158 8.82384 25.22 8.831 25.227 8.83286L25.3852 8.87429L25.358 8.89019L25.1745 8.84211C25.1673 8.84027 25.1603 8.84449 25.1585 8.85145C25.1566 8.85845 25.1608 8.86562 25.1678 8.86748L25.326 8.90892L25.2409 8.95862L25.1204 8.92707C25.1133 8.92529 25.1063 8.92945 25.1044 8.93644C25.1026 8.94347 25.1068 8.95059 25.1137 8.95247L25.2089 8.97735L25.1428 9.016C25.1339 9.00605 25.1211 8.99966 25.1068 8.99974C25.0803 8.9999 25.0589 9.02151 25.059 9.04804C25.0592 9.0745 25.0808 9.09591 25.1073 9.09579C25.1338 9.0956 25.1552 9.07402 25.155 9.04749C25.155 9.04526 25.1547 9.04312 25.1543 9.04097L25.2207 9.00526L25.1972 9.09507C25.1954 9.10209 25.1996 9.10924 25.2065 9.1111C25.2077 9.11141 25.2089 9.11152 25.21 9.11152C25.2158 9.11149 25.221 9.1076 25.2226 9.10174L25.2523 8.98825L25.3361 8.94325L25.2978 9.0897C25.296 9.09672 25.3001 9.10387 25.3071 9.1057C25.3083 9.10599 25.3094 9.10615 25.3105 9.10615C25.3163 9.10609 25.3216 9.10223 25.3231 9.09634L25.3677 8.92632L25.3945 8.91193L25.357 9.05505C25.3551 9.06208 25.3593 9.06923 25.3663 9.07109C25.3674 9.07136 25.3686 9.07151 25.3697 9.07151C25.3755 9.07148 25.3808 9.06759 25.3823 9.0617L25.426 8.89496L25.5288 8.83981L25.5317 8.94779L25.4058 9.07509C25.4007 9.08023 25.4008 9.08852 25.4059 9.09366C25.4085 9.09618 25.4119 9.09744 25.4152 9.09739C25.4186 9.09739 25.4219 9.09611 25.4245 9.09352L25.5327 8.98406L25.5336 9.01486L25.4062 9.14366C25.4011 9.14878 25.4012 9.15709 25.4063 9.16221C25.4089 9.16476 25.4122 9.16599 25.4156 9.16596C25.419 9.16594 25.4223 9.16466 25.4249 9.16207L25.5346 9.05112L25.5372 9.14749L25.4528 9.23293C25.4477 9.23804 25.4477 9.24633 25.4529 9.25141C25.4555 9.25398 25.4588 9.25523 25.4622 9.25523C25.4655 9.2552 25.4689 9.25387 25.4714 9.25128L25.5382 9.18377L25.5401 9.25287C25.5205 9.25898 25.5062 9.2771 25.5063 9.29875C25.5065 9.32527 25.5281 9.34664 25.5546 9.34649C25.5811 9.34636 25.6025 9.32474 25.6024 9.29822C25.6023 9.27657 25.5878 9.25862 25.5681 9.25272L25.5692 9.1836L25.6367 9.25041C25.6419 9.2555 25.6502 9.25547 25.6553 9.2503C25.6604 9.24516 25.6603 9.23685 25.6552 9.23179L25.5698 9.1473L25.5714 9.05088L25.6824 9.16063C25.6875 9.16572 25.6958 9.16569 25.7009 9.16052C25.706 9.15538 25.7059 9.14712 25.7008 9.14201L25.572 9.01458L25.5725 8.98379L25.682 9.09206C25.6871 9.09717 25.6954 9.09709 25.7005 9.09192C25.7056 9.08681 25.7055 9.07849 25.7004 9.07343L25.5731 8.94749L25.5748 8.83951L25.6782 8.89355L25.7237 9.05979C25.7253 9.06565 25.7306 9.06949 25.7364 9.06946C25.7375 9.06943 25.7387 9.06924 25.7398 9.06898C25.7468 9.06707 25.7509 9.05987 25.749 9.05286L25.7099 8.91015L25.7368 8.92425L25.7833 9.09376C25.7849 9.09962 25.7902 9.10344 25.796 9.10344C25.7971 9.10341 25.7982 9.10325 25.7994 9.10293C25.8064 9.10105 25.8105 9.09385 25.8086 9.08687L25.7685 8.94085L25.8528 8.98496L25.8838 9.0981C25.8854 9.10394 25.8908 9.10775 25.8966 9.10772C25.8977 9.10772 25.8988 9.10756 25.9 9.10727C25.9069 9.10533 25.911 9.09813 25.9091 9.09116L25.8846 9.00157L25.9477 9.03461C25.9473 9.03737 25.9469 9.04017 25.9469 9.04309C25.9471 9.06958 25.9687 9.09098 25.9952 9.09083C26.0217 9.0907 26.0431 9.06906 26.043 9.04256C26.0428 9.01604 26.0212 8.99467 25.9947 8.99482C25.981 8.99487 25.9688 9.00076 25.96 9.00997L25.8961 8.97351L25.991 8.94758C25.9979 8.94564 26.002 8.93843 26.0002 8.93146C25.9982 8.92449 25.9911 8.92039 25.984 8.92227L25.8639 8.95517L25.7783 8.90637L25.936 8.86321C25.943 8.86127 25.9471 8.85404 25.9452 8.84708C25.9433 8.84011 25.9363 8.83602 25.9291 8.83789L25.7461 8.888L25.7187 8.87241L25.8765 8.82925C25.8834 8.82728 25.8876 8.82008 25.8856 8.81312C25.8838 8.80615 25.8767 8.80205 25.8695 8.80392L25.6866 8.85401L25.5777 8.79203L25.6858 8.72882L25.8694 8.77693C25.8705 8.77722 25.8717 8.77735 25.8728 8.77735C25.8786 8.77733 25.8838 8.77346 25.8854 8.76757C25.8872 8.76057 25.883 8.75343 25.876 8.75157L25.7179 8.7101L25.745 8.69418L25.9286 8.74229C25.9297 8.74258 25.9309 8.74274 25.932 8.74274C25.9378 8.74271 25.9431 8.73882 25.9446 8.73293C25.9465 8.72593 25.9422 8.71876 25.9353 8.7169L25.7771 8.67546L25.8621 8.62577L25.9826 8.65729C25.9838 8.65757 25.9849 8.65774 25.986 8.65771C25.9918 8.65768 25.9971 8.65382 25.9986 8.64793C26.0005 8.64093 25.9963 8.63378 25.9893 8.63192L25.8941 8.60699L25.9549 8.5715C25.9637 8.58053 25.9759 8.58617 25.9895 8.58609C26.016 8.58596 26.0374 8.56435 26.0372 8.53783C26.0371 8.51132 26.0155 8.48997 25.989 8.49009C25.9625 8.49025 25.9411 8.51185 25.9412 8.53836C25.9412 8.54133 25.9416 8.54417 25.9421 8.54695L25.8823 8.57911L25.9059 8.48924C25.9077 8.48226 25.9035 8.47512 25.8965 8.47326C25.8894 8.47148 25.8823 8.47564 25.8805 8.48259L25.8507 8.59605L25.767 8.64108L25.8053 8.49465C25.8072 8.48765 25.803 8.48047 25.796 8.47864C25.7889 8.47687 25.7818 8.48103 25.78 8.48801L25.7354 8.65801L25.7086 8.6724L25.7462 8.5293C25.748 8.52228 25.7438 8.51507 25.7368 8.51327C25.7297 8.51144 25.7226 8.51566 25.7208 8.52262L25.6771 8.68937L25.5743 8.74452L25.5714 8.63656L25.6973 8.5092C25.7024 8.50409 25.7023 8.49577 25.6972 8.49069C25.6921 8.4856 25.6837 8.48563 25.6787 8.4908L25.5704 8.60028L25.5695 8.56948L25.6969 8.44068C25.702 8.43551 25.702 8.42722 25.6968 8.42216C25.6917 8.41702 25.6833 8.41705 25.6783 8.42224L25.5685 8.5332L25.5659 8.4368L25.6503 8.35142C25.6554 8.34625 25.6554 8.33796 25.6502 8.33287C25.645 8.32779 25.6368 8.32784 25.6317 8.33296L25.5649 8.40053L25.5628 8.3251C25.5826 8.31904 25.5969 8.30086 25.5968 8.27919C25.5966 8.25265 25.575 8.2313 25.5485 8.23145C25.522 8.23158 25.5006 8.25317 25.5007 8.27969C25.5008 8.30139 25.5154 8.31941 25.5352 8.32525L25.5339 8.40068L25.4664 8.33384C25.4613 8.32878 25.453 8.32881 25.4479 8.33397C25.4428 8.33909 25.4428 8.34743 25.448 8.35251L25.5334 8.437L25.5318 8.53336L25.4208 8.42366C25.4157 8.41851 25.4074 8.4186 25.4023 8.42376C25.3972 8.4289 25.3972 8.43719 25.4024 8.44228L25.5312 8.56964L25.5307 8.60047L25.4212 8.49221C25.4161 8.48709 25.4077 8.48715 25.4027 8.49231C25.3976 8.49745 25.3976 8.50574 25.4028 8.51083L25.5301 8.63674L25.5283 8.7448L25.4249 8.69076L25.3794 8.52453C25.3774 8.51758 25.3704 8.51346 25.3632 8.51536C25.3563 8.51724 25.3522 8.52447 25.354 8.53149L25.3932 8.67416L25.3662 8.6601L25.3198 8.49058C25.3179 8.48363 25.3108 8.47954 25.3037 8.48141C25.2967 8.48329 25.2925 8.49052 25.2945 8.4975L25.3344 8.64345L25.2502 8.5994L25.2192 8.48629C25.2173 8.47935 25.2102 8.47525 25.203 8.4771C25.1961 8.47904 25.192 8.48624 25.1939 8.49322L25.2185 8.58278L25.1518 8.54793C25.152 8.5462 25.1523 8.54451 25.1523 8.54276C25.1521 8.51625 25.1305 8.49491 25.104 8.49504Z" fill="#A40700"/>
</g>
<defs>
<clipPath id="clip0_963:132">
<rect width="1.41714" height="1.41714" fill="white" transform="translate(15.1315 5.2948)"/>
</clipPath>
<clipPath id="clip1_963:132">
<rect width="2.14857" height="2.14857" fill="white" transform="translate(19.4286 1.45477)"/>
</clipPath>
<clipPath id="clip2_963:132">
<rect width="1.69143" height="1.69143" fill="white" transform="translate(6.90283 8.35767)"/>
</clipPath>
<clipPath id="clip3_963:132">
<rect width="1.23429" height="1.23429" fill="white" transform="translate(24.9143 8.1748)"/>
</clipPath>
</defs>
</svg>
