<svg width="161" height="192" viewBox="0 0 161 192" fill="none" xmlns="http://www.w3.org/2000/svg">
<path d="M52.2584 177.473C42.2781 146.132 54.6741 113.059 80.5217 95.3639C81.2167 95.9107 82.0738 96.2734 82.9502 96.3916C57.1191 113.252 44.5583 145.918 54.4343 176.71C66.2328 213.705 105.86 234.096 142.855 222.297C179.85 210.499 200.282 170.974 188.443 133.877C178.732 103.492 150.129 84.3132 119.764 85.0217C120.597 84.4476 121.204 83.6098 121.567 82.7527C152.261 82.8573 180.723 102.566 190.558 133.256C202.708 171.411 181.671 212.365 143.517 224.515C105.362 236.665 64.4084 215.628 52.2584 177.473Z" fill="white"/>
<path d="M90.5193 94.6259C61.2571 109.444 46.1989 143.833 56.5501 176.089C67.9558 211.823 106.399 231.629 142.133 220.223C177.867 208.818 197.673 170.375 186.267 134.64C175.916 102.384 143.729 83.1203 111.264 87.9934L118.281 85.7414C118.789 85.5354 119.297 85.3294 119.764 85.0217C150.13 84.3132 178.732 103.492 188.443 133.877C200.242 170.872 179.851 210.499 142.855 222.298C105.86 234.096 66.2331 213.705 54.4346 176.71C44.5586 145.918 57.1194 113.252 82.9505 96.3916C83.7252 96.5511 84.662 96.5264 85.4752 96.1968L90.5193 94.6259Z" fill="white"/>
<path d="M99.9355 60.0394C98.6337 55.9514 94.2851 53.69 90.1971 54.9918C86.1091 56.2936 83.8477 60.6422 85.1495 64.7302C86.1409 67.7605 88.8797 69.8459 91.9566 70.1374L88.0719 71.3568C85.7039 70.1863 83.8002 68.1174 82.9324 65.3921C81.2791 60.1447 84.1862 54.4692 89.4336 52.8159C94.6809 51.1626 100.356 54.0697 102.01 59.3171C102.878 62.0424 102.564 64.7732 101.251 67.0807L97.366 68.3001C99.8827 66.3333 100.866 63.2126 99.9355 60.0394Z" fill="white"/>
<path d="M85.048 64.7715C83.7462 60.6835 86.0076 56.3349 90.0956 55.0331C94.1836 53.7313 98.5322 55.9927 99.834 60.0807C100.825 63.111 99.7812 66.3746 97.4074 68.4018L91.7534 70.2199C88.7782 69.8872 86.0806 67.9034 85.048 64.7715ZM94.1657 67.7037C97.0944 66.7534 98.6688 63.63 97.7598 60.803C96.8507 57.976 93.6861 56.2999 90.8591 57.209C87.9305 58.1592 86.356 61.2827 87.265 64.1096C88.2153 67.0383 91.2371 68.6539 94.1657 67.7037Z" fill="white"/>
<path d="M119.722 79.9501L115.858 67.7878C115.383 66.3234 113.729 65.4551 112.265 65.9303L98.5362 70.3108C99.6929 69.3686 100.666 68.2643 101.352 67.0391L111.298 63.8368C114.125 62.9277 117.146 64.5434 118.014 67.2687L121.815 78.9833C122.208 80.2443 122.153 81.5685 121.669 82.7113C120.834 82.6947 119.999 82.6781 119.103 82.8044C119.752 82.0682 120.032 81.0078 119.722 79.9501Z" fill="white"/>
<path d="M92.1694 72.4176L78.8476 76.6332C77.3833 77.1084 76.515 78.7621 76.9902 80.2264L80.8543 92.3888C81.0411 93.1416 81.6344 93.7295 82.3487 94.0318C81.6783 94.4218 81.0491 94.9135 80.3788 95.3036C79.5409 94.6963 78.9256 93.7622 78.6153 92.7045L74.9983 81.1521C74.0893 78.3251 75.7049 75.3033 78.4303 74.4354L87.969 71.3979C89.2958 72.0437 90.7436 72.4037 92.1694 72.4176Z" fill="white"/>
<path d="M100.683 90.5065C104.263 89.4107 107.824 88.5594 111.406 88.0542L90.661 94.6868C93.749 92.9618 97.1035 91.6023 100.683 90.5065Z" fill="white"/>
<path d="M119.765 85.0222C116.812 85.0356 113.84 85.2935 110.848 85.796L117.864 83.544C118.271 83.3792 118.738 83.0715 119.104 82.8051C119.939 82.8216 120.733 82.7365 121.669 82.7119C121.205 83.6102 120.598 84.4481 119.765 85.0222Z" fill="white"/>
<path d="M84.5487 94.2049L89.6944 92.5928C87.3372 93.7848 85.1228 95.0374 82.9908 96.4932C82.1144 96.375 81.2573 96.0122 80.5623 95.4655C81.1915 94.9738 81.8619 94.5837 82.5322 94.1937C83.0624 94.3339 83.7959 94.3916 84.5487 94.2049Z" fill="white"/>
<path d="M110.846 85.796C113.837 85.2935 116.81 85.0356 119.763 85.0221C119.296 85.3298 118.829 85.6374 118.28 85.7417L111.263 87.9938C107.681 88.4989 104.12 89.3502 100.54 90.446C96.9605 91.5418 93.6472 93.003 90.4163 94.6675L85.2706 96.2796C84.4162 96.5076 83.6223 96.5926 82.7459 96.4744C84.9191 95.1203 87.0923 93.7661 89.4495 92.574L110.846 85.796Z" fill="white"/>
<path d="M92.1692 72.4175C90.7434 72.4037 89.2957 72.0436 88.0705 71.3567L91.8535 70.1785C92.8315 70.2555 93.87 70.1897 94.8865 69.7777C95.9442 69.4674 96.7767 68.8933 97.6092 68.3192L101.392 67.141C100.705 68.3662 99.7739 69.5722 98.576 70.4127L92.1692 72.4175Z" fill="white"/>
<path d="M94.8861 69.778C93.8284 70.0884 92.8311 70.2558 91.8531 70.1788L97.5071 68.3607C96.7158 69.0364 95.8421 69.5089 94.8861 69.778Z" fill="white"/>
<path d="M116.895 81.4503C117.302 81.2855 117.585 80.8158 117.42 80.4092L113.762 68.7551C113.597 68.3485 113.127 68.0655 112.721 68.2302L79.8133 78.7269C79.4066 78.8917 79.1236 79.3615 79.2884 79.7681L83.0483 91.381C83.213 91.7876 83.6828 92.0706 84.0894 91.9058L88.7873 90.3568C86.6334 91.4665 84.5206 92.6778 82.4491 93.9908C81.7348 93.6885 81.2431 93.0594 80.9548 92.3478L77.0906 80.1854C76.6155 78.7211 77.3821 77.1086 78.9481 76.5922L92.2698 72.3766C93.3495 72.4124 94.4896 72.3053 95.6489 71.9538C96.8083 71.6023 97.7836 71.0886 98.6765 70.3717L112.405 65.9912C113.869 65.5161 115.482 66.2827 115.998 67.8487L119.862 80.0111C120.173 81.0688 119.892 82.1292 119.203 82.7637C116.291 82.8788 113.42 83.0956 110.428 83.598L116.895 81.4503Z" fill="white"/>
<path d="M89.6948 92.593L84.5491 94.2051C83.7963 94.3918 83.0628 94.3341 82.4914 94.0923C84.563 92.7793 86.6757 91.568 88.8296 90.4583L110.286 83.5374C113.176 83.0761 116.149 82.8182 119.061 82.7031C118.737 83.0712 118.371 83.3376 117.822 83.442L110.805 85.694C107.121 86.2403 103.561 87.0916 99.8792 88.2286C96.3819 89.5277 92.9257 90.9285 89.6948 92.593Z" fill="white"/>
<path d="M99.9193 88.3306C103.499 87.2348 107.161 86.3423 110.845 85.7959L89.6937 92.5933C92.9246 90.9288 96.3807 89.528 99.9193 88.3306Z" fill="white"/>
<path d="M95.547 71.9951C94.3877 72.3467 93.2476 72.4537 92.1679 72.4179L98.5746 70.413C97.6817 71.13 96.7064 71.6436 95.547 71.9951Z" fill="white"/>
<path d="M91.4395 54.8432L87.5771 52.0296C83.5308 49.054 63.0571 34.7471 55.5291 40.9936C52.952 43.1032 52.3555 46.3037 53.8964 49.2296C58.3351 57.8454 74.1068 59.3826 86.8213 56.0048L91.4395 54.8432ZM59.1688 44.134C62.1991 43.1426 70.4817 46.0582 80.7777 52.7734C67.8738 54.8079 59.7067 50.4252 57.9405 47.2355C57.3857 46.1586 57.5039 45.2822 58.4985 44.5241C58.6606 44.34 58.8639 44.2576 59.1688 44.134Z" fill="white"/>
<path d="M88.1022 55.9586L92.5144 54.2887C104.836 49.6498 116.826 39.228 115.418 29.6208C114.893 26.2829 112.602 24.1343 109.281 23.8236C99.5009 23.0534 91.1965 46.6567 89.5477 51.3489L88.1022 55.9586ZM108.223 28.513C108.528 28.3894 108.772 28.4086 109.017 28.4279C110.239 28.5242 110.833 29.1121 110.981 30.3539C111.486 33.9363 107.389 42.2243 95.6634 48.0418C100.112 36.5341 105.151 29.4028 108.223 28.513Z" fill="white"/>
<path d="M89.4285 54.9443C88.7938 55.147 88.0103 54.4694 87.6785 53.4308C87.3467 52.3922 87.5922 51.3858 88.227 51.1831C88.8617 50.9803 89.6452 51.6579 89.977 52.6965C90.3088 53.7352 90.0632 54.7415 89.4285 54.9443Z" fill="white"/>
<path d="M152.917 146.561C151.661 146.873 150.436 146.284 149.905 145.216L143.339 146.792L149.164 150.451L148.422 151.541L141.455 147.259L138.028 148.056L143.854 151.715L143.111 152.805L136.145 148.523L132.718 149.32L138.543 152.979L137.801 154.07L130.835 149.787L129.375 150.083C129.845 152.458 129.448 154.889 128.302 156.932L129.478 157.64L137.503 155.769L137.814 157.025L131.129 158.55L134.144 160.387L142.169 158.517L142.481 159.772L135.796 161.297L138.81 163.135L146.835 161.264L147.147 162.519L140.462 164.044L146.253 167.619C147.098 166.783 148.507 166.606 149.563 167.264C150.858 168.022 151.256 169.736 150.463 170.946C149.705 172.24 147.991 172.638 146.782 171.845C145.726 171.188 145.295 169.882 145.63 168.76L139.839 165.185L141.364 171.87L140.108 172.182L138.237 164.156L135.223 162.319L136.748 169.004L135.492 169.315L133.622 161.29L130.607 159.452L132.132 166.137L130.877 166.449L129.006 158.424L127.83 157.716C126.531 159.624 124.568 161.11 122.21 161.868L122.556 163.209L129.522 167.491L128.78 168.581L122.955 164.922L123.752 168.35L130.718 172.632L129.975 173.722L124.15 170.063L124.947 173.491L131.913 177.773L131.171 178.863L125.345 175.204L126.921 181.77C128.11 181.782 129.235 182.609 129.546 183.864C129.841 185.323 128.948 186.771 127.523 187.151C126.064 187.447 124.616 186.553 124.236 185.128C123.924 183.873 124.513 182.647 125.581 182.116L124.005 175.55L120.346 181.375L119.256 180.633L123.538 173.667L122.741 170.24L119.082 176.065L117.992 175.323L122.274 168.356L121.477 164.929L117.818 170.754L116.728 170.012L121.01 163.046L120.698 161.79C118.288 162.175 115.858 161.779 113.814 160.633L113.106 161.808L114.977 169.833L113.722 170.145L112.197 163.46L110.359 166.474L112.23 174.5L110.975 174.811L109.45 168.126L107.612 171.141L109.483 179.166L108.227 179.477L106.702 172.792L103.128 178.583C103.964 179.429 104.14 180.838 103.483 181.894C102.724 183.188 101.011 183.586 99.8011 182.794C98.5068 182.035 98.1084 180.322 98.9012 179.112C99.5588 178.056 100.865 177.626 101.987 177.96L105.561 172.169L98.8765 173.694L98.565 172.439L106.59 170.568L108.428 167.553L101.743 169.078L101.431 167.823L109.457 165.952L111.294 162.937L104.609 164.462L104.298 163.207L112.323 161.336L113.031 160.161C111.088 158.777 109.687 156.779 109.013 154.387L107.588 154.768L103.306 161.734L102.131 161.026L105.756 155.116L102.328 155.912L98.046 162.879L96.8708 162.171L100.496 156.261L97.0683 157.057L92.7034 164.551L91.5282 163.843L95.153 157.932L88.5872 159.508C88.5756 160.697 87.7485 161.822 86.493 162.133C85.068 162.513 83.6203 161.62 83.2058 160.11C82.8256 158.685 83.7192 157.237 85.229 156.823C86.4844 156.511 87.71 157.1 88.2414 158.168L94.8072 156.592L88.8971 152.967L89.6051 151.792L96.5713 156.075L99.9985 155.278L94.0884 151.653L94.7964 150.478L101.763 154.76L105.19 153.963L99.2797 150.338L99.9877 149.163L106.954 153.446L108.413 153.15C108.029 150.74 108.46 148.394 109.64 146.436L108.311 145.593L100.286 147.463L99.9742 146.208L106.625 144.598L103.61 142.761L95.585 144.631L95.2736 143.376L101.924 141.766L98.9096 139.929L90.8844 141.799L90.999 140.865L97.6497 139.255L91.8586 135.681C91.0132 136.517 89.6043 136.693 88.5482 136.035C87.2539 135.277 86.8555 133.563 87.6483 132.354C88.4067 131.059 90.1203 130.661 91.3298 131.454C92.3859 132.111 92.8164 133.417 92.4818 134.54L98.2729 138.114L96.663 131.463L97.9185 131.152L99.7894 139.177L102.804 141.015L101.194 134.364L102.45 134.053L104.32 142.078L107.335 143.916L105.725 137.265L106.981 136.953L108.852 144.979L110.265 145.787C111.598 143.964 113.477 142.512 115.784 141.873L115.42 140.244L108.454 135.962L109.162 134.786L115.072 138.411L114.275 134.984L107.309 130.702L108.017 129.526L113.927 133.151L113.181 129.605L106.214 125.322L106.922 124.147L112.748 127.806L111.172 121.241C109.983 121.229 108.859 120.402 108.547 119.146C108.167 117.721 109.061 116.274 110.57 115.859C111.995 115.479 113.443 116.373 113.858 117.882C114.169 119.138 113.58 120.363 112.513 120.895L114.088 127.461L117.713 121.55L118.888 122.259L114.606 129.225L115.318 132.686L118.892 126.895L120.067 127.603L115.785 134.569L116.582 137.997L120.207 132.087L121.382 132.795L117.099 139.761L117.463 141.39C119.874 141.005 122.219 141.436 124.228 142.497L125.072 141.168L123.201 133.143L124.456 132.832L126.066 139.482L127.734 136.536L125.863 128.511L127.119 128.2L128.728 134.85L130.566 131.836L128.695 123.81L129.951 123.499L131.56 130.15L135.135 124.359C134.299 123.513 134.122 122.104 134.78 121.048C135.538 119.754 137.252 119.355 138.462 120.148C139.756 120.907 140.154 122.62 139.362 123.83C138.704 124.886 137.398 125.316 136.276 124.982L132.701 130.773L139.352 129.163L139.663 130.418L131.638 132.289L129.801 135.304L136.451 133.694L136.763 134.95L128.737 136.82L126.9 139.835L133.55 138.225L134.034 139.905L126.008 141.775L125.165 143.104C127.073 144.403 128.441 146.316 129.249 148.554L130.709 148.259L134.991 141.293L136.082 142.035L132.422 147.861L135.934 147.029L140.217 140.063L141.307 140.806L137.648 146.631L141.075 145.834L145.358 138.868L146.448 139.61L142.789 145.436L149.355 143.86C149.366 142.671 150.194 141.546 151.449 141.235C152.908 140.94 154.356 141.833 154.736 143.258C155.32 144.699 154.342 146.181 152.917 146.561ZM128.679 150.069L123.538 151.264C123.643 152.011 123.545 152.742 123.242 153.456L127.739 156.272C128.665 154.417 129.08 152.275 128.679 150.069ZM127.116 157.413L122.619 154.597C122.163 155.177 121.554 155.621 120.791 155.93L121.986 161.071C124.089 160.416 125.917 159.083 127.116 157.413ZM120.731 161.383L119.535 156.242C118.788 156.347 118.023 156.164 117.309 155.861L114.493 160.358C116.382 161.369 118.524 161.783 120.731 161.383ZM113.437 159.7L116.252 155.204C115.673 154.748 115.194 154.054 115.004 153.341L109.863 154.536C110.433 156.674 111.732 158.417 113.437 159.7ZM109.552 153.281L114.693 152.086C114.707 151.389 114.805 150.658 115.142 150.028L110.68 147.297C109.685 148.983 109.27 151.125 109.552 153.281ZM111.388 146.122L115.884 148.938C116.375 148.443 116.899 148.033 117.577 147.758L116.382 142.617C114.245 143.188 112.501 144.486 111.388 146.122ZM117.553 142.34L118.748 147.481C119.41 147.41 120.141 147.509 120.737 147.761L123.552 143.264C121.782 142.304 119.674 141.974 117.553 142.34ZM124.728 143.972L121.996 148.435C122.457 148.84 122.986 149.415 123.227 150.009L128.367 148.813C127.662 146.829 126.363 145.086 124.728 143.972Z" fill="white"/>
</svg>
