<svg width="127" height="148" viewBox="0 0 127 148" fill="none" xmlns="http://www.w3.org/2000/svg">
<circle cx="63.1938" cy="84.8062" r="62.6938" stroke="white"/>
<mask id="mask0_592:2977" style="mask-type:alpha" maskUnits="userSpaceOnUse" x="0" y="23" width="127" height="122">
<ellipse cx="63.1938" cy="83.7482" rx="63.1938" ry="60.5049" fill="white"/>
</mask>
<g mask="url(#mask0_592:2977)">
<path d="M85.661 60.2859C85.6875 60.2859 85.709 60.2644 85.709 60.2379V60.2379C85.709 60.2114 85.6875 60.1899 85.661 60.1899H85.6566C85.6301 60.1899 85.6086 60.2114 85.6086 60.2379V60.2379C85.6086 60.2644 85.6301 60.2859 85.6566 60.2859H85.661Z" fill="white"/>
<path d="M86.6978 60.2859C86.7243 60.2859 86.7458 60.2644 86.7458 60.2379V60.2379C86.7458 60.2114 86.7243 60.1899 86.6978 60.1899H86.6933C86.6668 60.1899 86.6453 60.2114 86.6453 60.2379V60.2379C86.6453 60.2644 86.6668 60.2859 86.6933 60.2859H86.6978Z" fill="white"/>
<path d="M86.18 59.6645C86.2065 59.6645 86.228 59.6431 86.228 59.6165V59.6165C86.228 59.59 86.2065 59.5685 86.18 59.5685H86.1755C86.149 59.5685 86.1275 59.59 86.1275 59.6165V59.6165C86.1275 59.6431 86.149 59.6645 86.1755 59.6645H86.18Z" fill="white"/>
<path d="M69.7834 60.2739C69.8111 60.2739 69.8336 60.2524 69.8336 60.2259C69.8336 60.1994 69.8111 60.1779 69.7834 60.1779C69.7557 60.1779 69.7332 60.1994 69.7332 60.2259C69.7332 60.2524 69.7557 60.2739 69.7834 60.2739Z" fill="white"/>
<path d="M70.8202 60.2739C70.8479 60.2739 70.8704 60.2524 70.8704 60.2259C70.8704 60.1994 70.8479 60.1779 70.8202 60.1779C70.7924 60.1779 70.7699 60.1994 70.7699 60.2259C70.7699 60.2524 70.7924 60.2739 70.8202 60.2739Z" fill="white"/>
<path d="M70.3018 59.6524C70.3295 59.6524 70.3526 59.631 70.3526 59.6045C70.3526 59.578 70.3301 59.5565 70.3023 59.5565C70.2746 59.5565 70.2521 59.578 70.2521 59.6045C70.2521 59.631 70.274 59.6524 70.3018 59.6524Z" fill="white"/>
<path d="M53.3824 87.9115L52.8309 88.8888V98.9871H103.648V88.8888L103.097 87.9115V85.6719L102.588 84.9797V82.8218V81.6002H102.414V78.6277L101.52 78.1798L101.137 76.7139L100.797 78.0169V76.2253V75.8181H88.4968V73.0085V69.3437V66.7784V65.7604H88.2414L86.1772 61.3627L84.113 65.7604H83.9002L83.8951 66.7784L83.889 68.0222L83.8824 69.3437L83.8641 73.0085L83.8577 74.3115L78.2396 68.9365L72.6216 74.3115V69.3437V66.7784V65.7604H72.3663L70.3021 61.3627L68.2379 65.7604H67.9825V66.7784V68.0814V69.3437V73.0085V75.8181H55.6825V76.2253V78.0169L55.342 76.7139L54.959 78.1798L54.0652 78.6277V81.6002H53.8916V82.8218V84.9797L53.3824 85.6719V87.9115Z" fill="white"/>
<path d="M67.9825 75.8181H55.6825M67.9825 75.8181V66.7784M67.9825 75.8181V73.0085V69.3437M55.6825 75.8181V76.2253M55.6825 75.8181V73.8636M55.342 76.7139L54.959 78.1798L54.0652 78.6277V81.6002H53.8916V82.8218V84.9797L53.3824 85.6719V87.9115L52.8309 88.8888V98.9871H103.648V88.8888L103.097 87.9115V85.6719L102.588 84.9797V82.8218V81.6002H102.414V78.6277L101.52 78.1798L101.137 76.7139M55.342 76.7139L55.6825 78.0169V76.2253M55.342 76.7139V76.2253M55.342 75.9402V76.2253M55.6825 76.2253H55.342M55.0441 76.2253H55.342M56.1342 74.3284H55.2305M100.797 75.8181H88.4968V73.0085V69.3437M100.797 75.8181V76.2253M100.797 75.8181V73.8636M101.137 76.7139L100.797 78.0169V76.2253M101.137 76.7139V76.2253M101.137 75.9402V76.2253M100.797 76.2253H101.137M101.435 76.2253H101.137M100.345 74.3284H101.249M67.9825 65.7604H68.2379L70.3021 61.3627M67.9825 65.7604H67.5995M67.9825 65.7604V66.7784M72.6216 65.7604H73.0472M72.6216 65.7604V66.7784V69.3437M72.6216 65.7604H72.3663L70.3021 61.3627M70.3021 61.3627L70.3018 60.2224M88.4968 65.7604H88.2414L86.1772 61.3627L84.113 65.7604H83.9002M88.4968 65.7604H88.9224M88.4968 65.7604V66.7784V69.3437M83.9002 65.7604H83.4746M83.9002 65.7604L83.8951 66.7784L83.889 68.0222L83.8824 69.3437M78.2396 68.9365L83.8577 74.3115L83.8641 73.0085L83.8824 69.3437M78.2396 68.9365L72.6216 74.3115V69.3437M78.2396 68.9365V67.7964M78.2396 67.7964V67.2263M78.2396 67.7964H78.7078M78.2396 67.7964H77.7715M67.9825 69.3437V68.0814V66.7784M67.9825 69.3437H67.5938M83.8824 69.3437H83.4321M73.0047 69.3437H72.6216M88.8798 69.3437H88.4968M86.1772 61.3746V60.2345M86.1772 60.2345V59.6644M86.1772 60.2345H86.6453M86.1772 60.2345H85.709M86.1772 60.2345H86.7458M70.3018 60.2224V59.6524M70.3018 60.2224H70.7699M70.3018 60.2224H69.8336M70.3018 60.2224H70.8704M70.3018 59.6524C70.274 59.6524 70.2521 59.631 70.2521 59.6045C70.2521 59.578 70.2746 59.5565 70.3023 59.5565C70.3301 59.5565 70.3526 59.578 70.3526 59.6045C70.3526 59.631 70.3295 59.6524 70.3018 59.6524ZM70.7699 60.2259C70.7699 60.2524 70.7924 60.2739 70.8202 60.2739C70.8479 60.2739 70.8704 60.2524 70.8704 60.2259C70.8704 60.1994 70.8479 60.1779 70.8202 60.1779C70.7924 60.1779 70.7699 60.1994 70.7699 60.2259ZM69.7332 60.2259C69.7332 60.2524 69.7557 60.2739 69.7834 60.2739C69.8111 60.2739 69.8336 60.2524 69.8336 60.2259C69.8336 60.1994 69.8111 60.1779 69.7834 60.1779C69.7557 60.1779 69.7332 60.1994 69.7332 60.2259ZM86.1275 59.6165V59.6165C86.1275 59.59 86.149 59.5685 86.1755 59.5685H86.18C86.2065 59.5685 86.228 59.59 86.228 59.6165V59.6165C86.228 59.6431 86.2065 59.6645 86.18 59.6645H86.1755C86.149 59.6645 86.1275 59.6431 86.1275 59.6165ZM86.6453 60.2379V60.2379C86.6453 60.2114 86.6668 60.1899 86.6933 60.1899H86.6978C86.7243 60.1899 86.7458 60.2114 86.7458 60.2379V60.2379C86.7458 60.2644 86.7243 60.2859 86.6978 60.2859H86.6933C86.6668 60.2859 86.6453 60.2644 86.6453 60.2379ZM85.6086 60.2379V60.2379C85.6086 60.2114 85.6301 60.1899 85.6566 60.1899H85.661C85.6875 60.1899 85.709 60.2114 85.709 60.2379V60.2379C85.709 60.2644 85.6875 60.2859 85.661 60.2859H85.6566C85.6301 60.2859 85.6086 60.2644 85.6086 60.2379Z" stroke="white" stroke-width="0.1"/>
<path fill-rule="evenodd" clip-rule="evenodd" d="M35.317 89.0152L39.8562 91.9109V99.1824H35.317H17.8828H2.63281L2.125 96.8591H7.2235C6.67579 94.4135 4.90626 92.9869 2.75755 93.1091C2.34392 93.1425 1.94262 93.2372 1.56519 93.3836L1.1875 90.5005H17.8828V85.7016L26.5999 72.593L35.317 85.7016V89.0152ZM12.7427 93.1499C14.9336 92.9053 16.7031 94.332 17.3351 96.8591H8.99302C9.07728 94.9841 10.7625 93.3537 12.7427 93.1499Z" fill="white"/>
<path d="M50.37 67.744H50.6818V66.69H50.37V67.744Z" fill="white"/>
<path d="M41.3264 67.744H41.6382V66.69H41.3264V67.744Z" fill="white"/>
<path d="M45.9522 53.0814H46.0553L46.0553 50.6942H45.9531L45.9522 53.0814Z" fill="white"/>
<path d="M45.0614 51.4464V51.5442H46.9324V51.4464H45.0614Z" fill="white"/>
<path d="M42.8098 59.2877H42.9128L42.9128 58.3083H42.8106L42.8098 59.2877Z" fill="white"/>
<path d="M40.5174 63.7553H40.6205L40.6205 62.7759H40.5183L40.5174 63.7553Z" fill="white"/>
<path d="M52.0852 99.1843V95.3051V83.025L51.1496 79.7426L50.6818 79.7432V69.1542V67.744H50.37H48.9667V60.912V59.6101L48.5481 60.011L46.0553 53.0814H45.9522L43.3765 60.011L43.0416 59.6101L42.9128 59.2877H42.8098L42.1046 61.6436V67.744H41.6382H41.3264V66.69V66.1112L40.6205 63.7553H40.5174L39.8123 66.1112L39.8123 95.3173V99.1965L52.0852 99.1843Z" fill="white"/>
<path d="M104.394 88.1821V99.184H123.822C125 93.5 125.5 90 125.5 84.38L124.378 83.2792L122.504 83.2793L122.505 80.8876L122.754 80.6484H121.006L121.256 80.8876L121.255 83.2793H117.509V80.8876L117.758 80.6484H116.009L116.26 80.8876V83.2793H112.513V80.8876L112.762 80.6484H111.013L111.264 80.8876V83.2793L109.39 83.2792L105.126 87.4645H103.769L104.394 88.3016L104.394 88.1821Z" fill="white"/>
<path d="M18.1172 96.8169H124.497L124 99.1683H18.1172V96.8169Z" fill="white"/>
</g>
<rect x="54.6656" y="12.4319" width="17.0554" height="9.37227" fill="white" fill-opacity="0.08" stroke="white"/>
<rect x="63" width="1" height="12" fill="white"/>
<path d="M30.1452 124.42C29.4326 122.106 28.7778 120.128 28.1808 118.487H28.0219C28.0026 119.04 27.9593 119.911 27.8919 121.101L27.8052 122.76C27.8052 123.064 27.9641 123.217 28.2819 123.217C28.4745 123.217 28.6189 123.207 28.7152 123.189L28.8163 123.286L28.6574 124.281L28.123 124.268C27.6511 124.24 27.213 124.226 26.8086 124.226C26.6063 124.226 26.3271 124.24 25.9708 124.268C25.6241 124.295 25.393 124.318 25.2775 124.337L25.3786 123.3C25.6386 123.263 25.8263 123.18 25.9419 123.051C26.0671 122.912 26.1634 122.673 26.2308 122.331C26.3078 121.695 26.4186 120.676 26.563 119.275C26.7075 117.874 26.7797 117.108 26.7797 116.979C26.7797 116.804 26.7556 116.675 26.7075 116.592C26.6593 116.509 26.563 116.449 26.4186 116.412C26.2838 116.366 26.0671 116.329 25.7686 116.302L25.6675 116.205L25.8119 115.251L26.5052 115.278C27.0252 115.306 27.4393 115.32 27.7474 115.32C28.1615 115.32 28.5948 115.306 29.0474 115.278L29.5674 115.264C29.8659 116.362 30.2174 117.569 30.6219 118.888L31.0841 120.478H31.2285C31.3537 120.073 31.4307 119.837 31.4596 119.773C31.5655 119.432 31.7678 118.8 32.0663 117.878C32.3648 116.947 32.6344 116.09 32.8752 115.306C33.1737 115.306 33.4048 115.311 33.5685 115.32L34.3918 115.334C34.6614 115.334 34.8588 115.329 34.984 115.32C35.2151 115.311 35.687 115.283 36.3996 115.237L36.4862 115.292L36.3851 116.274C35.9807 116.302 35.7062 116.366 35.5618 116.468C35.427 116.569 35.3596 116.749 35.3596 117.007C35.3596 117.348 35.3933 118.072 35.4607 119.178C35.5377 120.275 35.6148 121.202 35.6918 121.958C35.7399 122.447 35.8122 122.779 35.9085 122.954C36.0048 123.12 36.1636 123.203 36.3851 123.203C36.5681 123.203 36.7077 123.194 36.804 123.175L36.8762 123.272L36.7462 124.268C36.1973 124.24 35.6918 124.226 35.2296 124.226C34.9503 124.226 34.5411 124.24 34.0018 124.268C33.4626 124.295 33.087 124.318 32.8752 124.337L33.0196 123.286C33.2892 123.258 33.4818 123.194 33.5974 123.092C33.7226 122.981 33.7852 122.82 33.7852 122.608L33.7274 121.308C33.66 120.331 33.6118 119.39 33.5829 118.487H33.4385C32.7644 120.303 32.1048 122.239 31.4596 124.295L30.1452 124.42Z" fill="white"/>
<path d="M41.179 124.212L41.2368 123.355C41.5161 123.327 41.7087 123.304 41.8146 123.286C41.9205 123.267 41.9879 123.24 42.0168 123.203C42.0553 123.157 42.0746 123.087 42.0746 122.995C42.0746 122.958 42.0698 122.922 42.0601 122.885C42.0505 122.839 42.0409 122.797 42.0313 122.76L41.9013 122.235C41.6894 122.225 41.362 122.221 40.9191 122.221C40.7842 122.221 40.5724 122.23 40.2835 122.248C40.1102 122.267 39.985 122.276 39.908 122.276L39.7346 122.829C39.7057 122.949 39.6913 123.037 39.6913 123.092C39.6913 123.194 39.7154 123.263 39.7635 123.3C39.8213 123.327 39.9368 123.341 40.1102 123.341H40.4857L40.5868 123.438L40.4857 124.281C40.3702 124.272 40.1391 124.263 39.7924 124.254C39.4457 124.245 39.0702 124.24 38.6657 124.24H37.1346L37.2213 123.369C37.3754 123.332 37.5054 123.267 37.6113 123.175C37.7172 123.074 37.8039 122.931 37.8713 122.746L39.8502 117.339L42.5946 117.159L42.7535 117.27C42.869 117.703 43.1098 118.57 43.4757 119.87C43.8512 121.161 44.1305 122.083 44.3135 122.636C44.3905 122.885 44.4868 123.064 44.6023 123.175C44.7179 123.286 44.8816 123.35 45.0935 123.369L45.1657 123.465L45.079 124.254L43.4612 124.24C43.0087 124.24 42.5609 124.245 42.1179 124.254C41.675 124.272 41.3909 124.286 41.2657 124.295L41.179 124.212ZM40.9479 121.031C41.1116 121.031 41.3476 121.022 41.6557 121.004L41.1502 118.985H40.9335L40.2691 121.031H40.9479Z" fill="white"/>
<path d="M49.3181 124.212L49.3758 123.355C49.6551 123.327 49.8477 123.304 49.9536 123.286C50.0595 123.267 50.1269 123.24 50.1558 123.203C50.1944 123.157 50.2136 123.087 50.2136 122.995C50.2136 122.958 50.2088 122.922 50.1992 122.885C50.1895 122.839 50.1799 122.797 50.1703 122.76L50.0403 122.235C49.8284 122.225 49.501 122.221 49.0581 122.221C48.9233 122.221 48.7114 122.23 48.4225 122.248C48.2492 122.267 48.124 122.276 48.047 122.276L47.8736 122.829C47.8447 122.949 47.8303 123.037 47.8303 123.092C47.8303 123.194 47.8544 123.263 47.9025 123.3C47.9603 123.327 48.0759 123.341 48.2492 123.341H48.6247L48.7258 123.438L48.6247 124.281C48.5092 124.272 48.2781 124.263 47.9314 124.254C47.5848 124.245 47.2092 124.24 46.8048 124.24H45.2737L45.3603 123.369C45.5144 123.332 45.6444 123.267 45.7503 123.175C45.8563 123.074 45.9429 122.931 46.0103 122.746L47.9892 117.339L50.7336 117.159L50.8925 117.27C51.008 117.703 51.2488 118.57 51.6147 119.87C51.9903 121.161 52.2695 122.083 52.4525 122.636C52.5295 122.885 52.6258 123.064 52.7414 123.175C52.8569 123.286 53.0206 123.35 53.2325 123.369L53.3047 123.465L53.218 124.254L51.6003 124.24C51.1477 124.24 50.6999 124.245 50.2569 124.254C49.814 124.272 49.5299 124.286 49.4047 124.295L49.3181 124.212ZM49.087 121.031C49.2507 121.031 49.4866 121.022 49.7947 121.004L49.2892 118.985H49.0725L48.4081 121.031H49.087Z" fill="white"/>
<path d="M56.1427 124.351C55.7382 124.351 55.3675 124.318 55.0304 124.254C54.6934 124.189 54.4238 124.125 54.2216 124.06C54.029 123.986 53.9086 123.936 53.8605 123.908L53.7305 123.728C53.7593 123.608 53.8027 123.359 53.8605 122.981C53.9279 122.603 53.9664 122.258 53.976 121.944L55.3049 121.847C55.3049 122.281 55.3916 122.59 55.5649 122.774C55.7478 122.958 56.0367 123.051 56.4315 123.051C56.7301 123.051 56.9612 123.004 57.1249 122.912C57.2982 122.811 57.3849 122.677 57.3849 122.511C57.3849 122.318 57.2789 122.156 57.0671 122.027C56.8649 121.898 56.5375 121.746 56.0849 121.571L55.666 121.405C55.0882 121.165 54.6356 120.898 54.3082 120.603C53.9808 120.298 53.8171 119.902 53.8171 119.413C53.8171 118.971 53.9616 118.579 54.2505 118.238C54.549 117.897 54.963 117.634 55.4927 117.45C56.0223 117.256 56.6338 117.159 57.3271 117.159C57.7026 117.159 58.0541 117.182 58.3815 117.228C58.7089 117.265 58.9689 117.307 59.1615 117.353C59.3541 117.399 59.4745 117.431 59.5226 117.45L59.6526 117.657C59.6237 117.758 59.5708 117.994 59.4937 118.362C59.4263 118.731 59.3734 119.118 59.3348 119.524L58.1215 119.607L57.9771 119.524L57.9915 119.303C57.9915 118.777 57.6689 118.514 57.0238 118.514C56.7638 118.514 56.5471 118.565 56.3738 118.667C56.2101 118.768 56.1282 118.902 56.1282 119.068C56.1282 119.28 56.2438 119.45 56.4749 119.579C56.7156 119.708 57.1104 119.879 57.6593 120.091C58.3045 120.349 58.81 120.626 59.176 120.921C59.5419 121.207 59.7248 121.608 59.7248 122.124C59.7248 122.806 59.4023 123.35 58.7571 123.756C58.1215 124.152 57.25 124.351 56.1427 124.351Z" fill="white"/>
<path d="M61.4979 123.396C61.8445 123.369 62.0997 123.327 62.2634 123.272C62.4271 123.207 62.5379 123.115 62.5956 122.995C62.663 122.866 62.6968 122.677 62.6968 122.428V118.459C62.4079 118.468 62.1912 118.51 62.0468 118.584C61.9119 118.648 61.8156 118.777 61.7579 118.971C61.7001 119.164 61.6471 119.483 61.599 119.925L60.2701 119.994C60.2797 119.828 60.299 119.464 60.3279 118.902C60.3568 118.33 60.376 117.795 60.3857 117.297L60.5301 117.159L61.8879 117.284H65.6289L66.9867 117.159L67.1456 117.297C67.1552 117.805 67.1697 118.33 67.1889 118.874C67.2082 119.418 67.2226 119.768 67.2323 119.925L65.9034 119.994C65.8552 119.515 65.8023 119.178 65.7445 118.985C65.6867 118.782 65.5952 118.648 65.4701 118.584C65.3545 118.51 65.1571 118.468 64.8778 118.459C64.8201 119.51 64.7912 120.884 64.7912 122.58C64.7912 122.848 64.8345 123.037 64.9212 123.147C65.0175 123.258 65.186 123.313 65.4267 123.313C65.5712 123.313 65.6963 123.309 65.8023 123.3C65.9178 123.29 65.9949 123.286 66.0334 123.286L66.0912 123.341L65.9756 124.281C65.7926 124.272 65.4701 124.258 65.0078 124.24C64.5456 124.231 64.1027 124.226 63.679 124.226C63.3708 124.226 62.9567 124.24 62.4368 124.268C61.9168 124.295 61.5749 124.314 61.4112 124.323L61.4979 123.396Z" fill="white"/>
<path d="M73.6455 124.392C73.3278 124.392 73.0629 124.318 72.8511 124.171C72.6392 124.014 72.4563 123.761 72.3022 123.41L71.4644 121.709H70.7422L70.7278 122.567C70.7278 122.797 70.747 122.963 70.7856 123.064C70.8241 123.166 70.8963 123.235 71.0022 123.272C71.1178 123.309 71.3104 123.332 71.58 123.341L71.6378 123.424L71.5222 124.268C71.3778 124.268 71.1178 124.258 70.7422 124.24C70.3763 124.231 70.0248 124.226 69.6878 124.226C69.3411 124.226 68.9608 124.24 68.5467 124.268C68.1326 124.295 67.863 124.314 67.7378 124.323L67.8389 123.396C68.1471 123.35 68.3589 123.263 68.4745 123.134C68.59 123.004 68.6478 122.792 68.6478 122.497V118.653C68.6478 118.468 68.6237 118.344 68.5756 118.279C68.5274 118.206 68.4408 118.169 68.3156 118.169L67.8967 118.183L67.7956 118.072L67.9111 117.27L69.5433 117.284C69.9189 117.284 70.3185 117.274 70.7422 117.256C71.1659 117.238 71.4596 117.224 71.6233 117.214C72.6633 117.214 73.4481 117.38 73.9777 117.712C74.5074 118.044 74.7722 118.538 74.7722 119.192C74.7722 119.616 74.6422 120.003 74.3822 120.354C74.1318 120.695 73.7659 120.99 73.2844 121.239L74.1222 122.456C74.5459 123.083 74.9503 123.396 75.3355 123.396L75.4511 123.548L75.35 124.281L73.6455 124.392ZM71.7389 120.561C71.9989 120.46 72.2011 120.322 72.3455 120.146C72.49 119.971 72.5622 119.727 72.5622 119.413C72.5622 119.081 72.4418 118.837 72.2011 118.68C71.9604 118.524 71.5848 118.445 71.0744 118.445C70.9974 118.445 70.9444 118.464 70.9156 118.501C70.8867 118.528 70.8722 118.593 70.8722 118.694C70.8144 119.303 70.7856 119.888 70.7856 120.451L71.7389 120.561Z" fill="white"/>
<path d="M76.0344 123.424C76.3618 123.359 76.5784 123.272 76.6844 123.161C76.7903 123.041 76.8432 122.834 76.8432 122.539V118.722C76.8432 118.501 76.8144 118.353 76.7566 118.279C76.6988 118.206 76.5881 118.169 76.4244 118.169H76.0777L75.9766 118.044L76.0777 117.27L77.9121 117.284C78.2588 117.284 78.6295 117.279 79.0243 117.27C79.4191 117.251 79.6936 117.238 79.8477 117.228L79.7754 118.127C79.4865 118.164 79.2988 118.219 79.2121 118.293C79.1254 118.358 79.0725 118.491 79.0532 118.694C78.9666 119.985 78.9232 121.29 78.9232 122.608C78.9232 122.903 78.9521 123.101 79.0099 123.203C79.0677 123.304 79.1784 123.355 79.3421 123.355C79.448 123.355 79.5395 123.35 79.6165 123.341C79.6936 123.332 79.7417 123.323 79.761 123.313L79.8477 123.424L79.7465 124.268C79.5925 124.268 79.318 124.258 78.9232 124.24C78.5284 124.231 78.1577 124.226 77.811 124.226C77.5125 124.226 77.1562 124.235 76.7421 124.254C76.3377 124.272 76.0729 124.286 75.9477 124.295L76.0344 123.424Z" fill="white"/>
<path d="M84.084 124.337C82.967 124.337 82.0955 124.037 81.4696 123.438C80.8533 122.829 80.5452 121.981 80.5452 120.893C80.5452 119.704 80.9111 118.786 81.6429 118.141C82.3748 117.486 83.4051 117.159 84.734 117.159C85.0421 117.159 85.3744 117.182 85.7307 117.228C86.0966 117.265 86.4095 117.307 86.6695 117.353C86.9295 117.39 87.098 117.417 87.1751 117.436L87.2617 117.629C87.2521 117.685 87.2232 117.814 87.1751 118.017C87.1366 118.21 87.0932 118.473 87.0451 118.805C86.9969 119.128 86.9584 119.478 86.9295 119.856L85.3118 119.939C85.3118 119.911 85.3118 119.842 85.3118 119.731C85.3214 119.621 85.3262 119.492 85.3262 119.344C85.3262 119.049 85.2492 118.842 85.0951 118.722C84.9507 118.593 84.7003 118.528 84.344 118.528C83.8529 118.528 83.5014 118.68 83.2896 118.985C83.0873 119.28 82.9862 119.791 82.9862 120.52C82.9862 122.142 83.4629 122.954 84.4162 122.954C84.7629 122.954 85.0229 122.857 85.1962 122.663C85.3695 122.461 85.4899 122.124 85.5573 121.654L87.1606 121.543C87.1414 121.681 87.1077 121.986 87.0595 122.456C87.021 122.917 86.9969 123.355 86.9873 123.77L86.8429 123.936C86.7755 123.954 86.6166 123.996 86.3662 124.06C86.1158 124.125 85.7836 124.185 85.3695 124.24C84.9651 124.304 84.5366 124.337 84.084 124.337Z" fill="white"/>
<path d="M88.1512 123.424C88.4786 123.369 88.6953 123.286 88.8012 123.175C88.9071 123.055 88.9601 122.843 88.9601 122.539V118.722C88.9601 118.501 88.9312 118.353 88.8734 118.279C88.8156 118.206 88.7049 118.169 88.5412 118.169H88.209L88.1079 118.044L88.209 117.27L89.7112 117.284C90.1253 117.284 90.549 117.279 90.9823 117.27C91.4252 117.251 91.7286 117.238 91.8923 117.228L91.82 118.127C91.5504 118.164 91.3771 118.219 91.3001 118.293C91.223 118.367 91.1797 118.514 91.1701 118.736L91.0978 120.091L92.2823 120.133C92.7637 120.133 93.1393 120.114 93.4089 120.077L93.4234 118.722C93.4234 118.501 93.3945 118.353 93.3367 118.279C93.2789 118.206 93.1634 118.169 92.99 118.169H92.6578L92.5567 118.044L92.6578 117.27C92.6578 117.279 93.2549 117.284 94.4489 117.284C94.8052 117.284 95.1856 117.279 95.59 117.27C95.9944 117.251 96.2737 117.238 96.4278 117.228L96.3556 118.113C96.0667 118.15 95.8789 118.206 95.7922 118.279C95.7056 118.344 95.6526 118.482 95.6333 118.694C95.5467 119.837 95.5033 121.142 95.5033 122.608C95.5033 122.885 95.537 123.074 95.6045 123.175C95.6815 123.276 95.8067 123.327 95.98 123.327C96.0667 123.327 96.1437 123.323 96.2111 123.313C96.2785 123.304 96.3219 123.3 96.3411 123.3L96.4422 123.41L96.3267 124.24L94.3911 124.226L92.5134 124.24L92.6 123.355C92.8986 123.355 93.1056 123.295 93.2211 123.175C93.3463 123.046 93.4089 122.82 93.4089 122.497V121.336L92.5134 121.322C92.2823 121.331 92.0126 121.35 91.7045 121.377C91.3964 121.396 91.1797 121.409 91.0545 121.419L91.0401 122.608C91.0401 122.903 91.0689 123.101 91.1267 123.203C91.1845 123.304 91.2952 123.355 91.4589 123.355C91.5456 123.355 91.6226 123.35 91.6901 123.341C91.7575 123.332 91.8008 123.323 91.82 123.313L91.8923 123.424L91.7912 124.268C91.6467 124.268 91.3915 124.258 91.0256 124.24C90.6693 124.231 90.3323 124.226 90.0145 124.226C89.6775 124.226 89.3019 124.231 88.8879 124.24C88.4738 124.258 88.1993 124.277 88.0645 124.295L88.1512 123.424Z" fill="white"/>
<path d="M98.0318 123.396C98.3784 123.369 98.6336 123.327 98.7973 123.272C98.961 123.207 99.0718 123.115 99.1295 122.995C99.1969 122.866 99.2306 122.677 99.2306 122.428V118.459C98.9418 118.468 98.7251 118.51 98.5807 118.584C98.4458 118.648 98.3495 118.777 98.2918 118.971C98.234 119.164 98.181 119.483 98.1329 119.925L96.804 119.994C96.8136 119.828 96.8329 119.464 96.8618 118.902C96.8907 118.33 96.9099 117.795 96.9196 117.297L97.064 117.159L98.4218 117.284H102.163L103.521 117.159L103.679 117.297C103.689 117.805 103.704 118.33 103.723 118.874C103.742 119.418 103.757 119.768 103.766 119.925L102.437 119.994C102.389 119.515 102.336 119.178 102.278 118.985C102.221 118.782 102.129 118.648 102.004 118.584C101.888 118.51 101.691 118.468 101.412 118.459C101.354 119.51 101.325 120.884 101.325 122.58C101.325 122.848 101.368 123.037 101.455 123.147C101.551 123.258 101.72 123.313 101.961 123.313C102.105 123.313 102.23 123.309 102.336 123.3C102.452 123.29 102.529 123.286 102.567 123.286L102.625 123.341L102.51 124.281C102.327 124.272 102.004 124.258 101.542 124.24C101.08 124.231 100.637 124.226 100.213 124.226C99.9047 124.226 99.4906 124.24 98.9706 124.268C98.4507 124.295 98.1088 124.314 97.9451 124.323L98.0318 123.396Z" fill="white"/>
<path d="M45.521 113.016C44.871 111.041 44.195 109.099 43.493 107.191H43.389C43.389 107.282 43.3717 107.585 43.337 108.099C43.3024 108.614 43.2721 109.041 43.2461 109.381C43.1421 110.775 43.0901 111.526 43.0901 111.634C43.0901 111.9 43.2287 112.032 43.506 112.032L43.948 112.02L44.026 112.082L43.883 112.866C43.1551 112.833 42.6481 112.817 42.3621 112.817C42.1627 112.817 41.9201 112.829 41.6341 112.854C41.3567 112.879 41.1704 112.9 41.0751 112.916L41.1531 112.107C41.4044 112.082 41.5864 112.007 41.6991 111.883C41.8117 111.75 41.8941 111.526 41.9461 111.211C42.0241 110.564 42.1281 109.597 42.2581 108.311C42.3967 107.025 42.4661 106.319 42.4661 106.195C42.4661 105.971 42.3967 105.817 42.2581 105.734C42.1281 105.651 41.8681 105.593 41.4781 105.56L41.4131 105.485L41.5301 104.763C42.2407 104.805 42.7824 104.826 43.1551 104.826C43.3457 104.826 43.805 104.809 44.533 104.776C44.8797 105.946 45.3607 107.469 45.976 109.344L46.197 109.991H46.301C46.353 109.825 46.4224 109.618 46.509 109.369C46.5957 109.112 46.6867 108.838 46.782 108.547C47.224 107.286 47.6443 106.041 48.043 104.813C48.225 104.813 48.3723 104.817 48.485 104.826L49.174 104.838L49.577 104.826C49.759 104.826 49.993 104.817 50.279 104.801C50.565 104.784 50.773 104.768 50.903 104.751L50.955 104.801L50.877 105.548C50.5043 105.581 50.2486 105.643 50.11 105.734C49.98 105.826 49.915 105.983 49.915 106.207C49.915 106.465 49.9496 107.12 50.019 108.174C50.0883 109.219 50.1576 110.124 50.227 110.887C50.279 111.344 50.344 111.651 50.422 111.808C50.5086 111.958 50.656 112.032 50.864 112.032C50.9593 112.032 51.0373 112.028 51.098 112.02C51.1673 112.012 51.2106 112.007 51.228 112.007L51.28 112.07L51.163 112.854C51.033 112.854 50.916 112.85 50.812 112.841C50.4306 112.825 50.11 112.817 49.85 112.817C49.5986 112.817 49.265 112.829 48.849 112.854C48.4417 112.879 48.16 112.9 48.004 112.916L48.095 112.107C48.355 112.074 48.5413 112.012 48.654 111.92C48.7667 111.821 48.823 111.676 48.823 111.485C48.823 111.452 48.7883 110.937 48.719 109.941C48.6237 108.639 48.5673 107.722 48.55 107.191H48.433C47.705 109.132 47.029 111.037 46.405 112.904L45.521 113.016Z" fill="white"/>
<path d="M56.4676 112.966C56.0863 112.966 55.783 112.887 55.5576 112.729C55.341 112.563 55.211 112.323 55.1676 112.007L55.0636 111.97C54.7863 112.244 54.5176 112.472 54.2576 112.655C53.9976 112.829 53.7896 112.916 53.6337 112.916C53.1223 112.916 52.6977 112.746 52.3597 112.406C52.0217 112.057 51.8527 111.626 51.8527 111.111C51.8527 110.854 51.922 110.634 52.0607 110.452C52.1993 110.261 52.3813 110.136 52.6067 110.078L55.1156 109.518L55.1286 109.219C55.1286 108.863 55.029 108.585 54.8296 108.385C54.6303 108.186 54.3573 108.087 54.0106 108.087C53.7766 108.087 53.521 108.145 53.2437 108.261C52.975 108.369 52.7237 108.506 52.4897 108.672L52.3727 108.622L52.1517 107.875C52.585 107.643 53.04 107.427 53.5167 107.228C53.9933 107.029 54.3313 106.929 54.5306 106.929C55.25 106.929 55.7873 107.087 56.1426 107.402C56.5066 107.709 56.6886 108.116 56.6886 108.622C56.6886 108.805 56.6496 109.178 56.5716 109.742C56.4763 110.547 56.4286 111.028 56.4286 111.186C56.4286 111.344 56.472 111.468 56.5586 111.559C56.6453 111.651 56.758 111.696 56.8966 111.696C57.0006 111.696 57.1089 111.676 57.2216 111.634C57.3429 111.584 57.4426 111.535 57.5206 111.485L57.7156 111.746C57.5596 112.012 57.3646 112.269 57.1306 112.518C56.9053 112.758 56.6843 112.908 56.4676 112.966ZM54.1146 111.734C54.2446 111.734 54.3963 111.7 54.5696 111.634C54.7516 111.568 54.912 111.481 55.0506 111.373L55.0896 110.19L53.6987 110.564C53.4907 110.613 53.3867 110.75 53.3867 110.974C53.3867 111.19 53.4517 111.373 53.5817 111.522C53.7203 111.663 53.898 111.734 54.1146 111.734Z" fill="white"/>
<path d="M64.1687 107.639C63.7094 107.68 63.3887 107.705 63.2067 107.713L63.1547 107.788C63.5014 108.145 63.6747 108.556 63.6747 109.02C63.6747 109.435 63.5534 109.813 63.3107 110.153C63.0681 110.493 62.7344 110.759 62.3097 110.95C61.8851 111.14 61.4084 111.236 60.8798 111.236C60.5938 111.236 60.3121 111.203 60.0348 111.136C59.9221 111.227 59.8398 111.306 59.7878 111.373C59.7444 111.431 59.7228 111.493 59.7228 111.559C59.7228 111.717 59.8484 111.829 60.0998 111.895C60.3511 111.962 60.7498 112.024 61.2957 112.082C61.8764 112.14 62.3531 112.207 62.7257 112.281C63.0984 112.356 63.4191 112.493 63.6877 112.692C63.9651 112.883 64.1037 113.157 64.1037 113.514C64.1037 113.904 63.9391 114.277 63.6097 114.634C63.2804 114.991 62.8514 115.277 62.3227 115.493C61.7941 115.717 61.2394 115.829 60.6588 115.829C59.9654 115.829 59.4108 115.667 58.9948 115.343C58.5788 115.028 58.3708 114.605 58.3708 114.074C58.5961 113.85 59.0294 113.547 59.6708 113.165V113.078C59.2548 113.012 58.9298 112.87 58.6958 112.655C58.4704 112.431 58.3491 112.149 58.3318 111.808C58.6438 111.501 58.9991 111.223 59.3978 110.974V110.9C59.0858 110.725 58.8431 110.493 58.6698 110.203C58.4964 109.912 58.4098 109.585 58.4098 109.219C58.4098 108.788 58.5268 108.398 58.7608 108.049C58.9948 107.693 59.3154 107.415 59.7228 107.215C60.1301 107.016 60.5894 106.917 61.1008 106.917C61.3174 106.917 61.5731 106.942 61.8677 106.991C62.1451 107.025 62.3357 107.041 62.4397 107.041C62.7517 107.025 63.3584 106.888 64.2597 106.631L64.3377 106.68L64.1687 107.639ZM61.1138 110.414C61.4257 110.414 61.6641 110.311 61.8287 110.103C62.0021 109.896 62.0887 109.597 62.0887 109.207C62.0887 108.792 61.9891 108.46 61.7897 108.211C61.5991 107.962 61.3261 107.838 60.9708 107.838C60.6674 107.838 60.4291 107.942 60.2558 108.149C60.0911 108.348 60.0088 108.651 60.0088 109.058C60.0088 109.464 60.1041 109.792 60.2948 110.041C60.4941 110.29 60.7671 110.414 61.1138 110.414ZM60.4768 113.24C60.3208 113.364 60.1994 113.505 60.1128 113.663C60.0261 113.821 59.9828 113.978 59.9828 114.136C59.9828 114.377 60.0824 114.563 60.2818 114.696C60.4898 114.837 60.7801 114.908 61.1528 114.908C61.5774 114.908 61.9327 114.816 62.2187 114.634C62.5134 114.459 62.6607 114.244 62.6607 113.987C62.6607 113.854 62.6087 113.746 62.5047 113.663C62.4007 113.588 62.1971 113.518 61.8937 113.451C61.5991 113.393 61.1268 113.323 60.4768 113.24Z" fill="white"/>
<path d="M64.8677 112.169C65.119 112.128 65.301 112.049 65.4137 111.933C65.535 111.808 65.5957 111.63 65.5957 111.398V108.709C65.5957 108.444 65.5567 108.261 65.4787 108.161C65.4007 108.062 65.2577 108.012 65.0497 108.012C64.989 108.012 64.9283 108.016 64.8677 108.025C64.807 108.033 64.768 108.041 64.7507 108.049L64.8287 107.34C65.314 107.274 65.808 107.199 66.3106 107.116C66.8133 107.025 67.1383 106.962 67.2856 106.929L67.4026 107.128C67.3073 107.311 67.2293 107.813 67.1686 108.634C67.1166 109.448 67.0906 110.406 67.0906 111.51C67.0906 111.709 67.121 111.85 67.1816 111.933C67.2423 112.016 67.3463 112.057 67.4936 112.057C67.5716 112.057 67.6453 112.053 67.7146 112.045C67.7926 112.037 67.8446 112.032 67.8706 112.032L67.9096 112.095L67.7796 112.854C67.6843 112.846 67.4936 112.837 67.2076 112.829C66.9303 112.821 66.6443 112.817 66.3496 112.817C66.081 112.817 65.7733 112.833 65.4267 112.866C65.0887 112.908 64.8677 112.937 64.7637 112.953L64.8677 112.169ZM66.2327 105.859C65.9467 105.859 65.7257 105.78 65.5697 105.622C65.4137 105.465 65.3357 105.253 65.3357 104.988C65.3357 104.689 65.4267 104.448 65.6087 104.266C65.7993 104.083 66.0507 103.992 66.3627 103.992C66.64 103.992 66.8566 104.075 67.0126 104.241C67.1686 104.398 67.2466 104.61 67.2466 104.876C67.2466 105.166 67.1513 105.402 66.9606 105.585C66.7786 105.768 66.536 105.859 66.2327 105.859Z" fill="white"/>
<path d="M70.4185 112.966C70.1065 112.966 69.8205 112.941 69.5605 112.891C69.3092 112.841 69.1099 112.792 68.9625 112.742C68.8152 112.684 68.7242 112.646 68.6895 112.63L68.6115 112.505C68.6462 112.281 68.6765 112.02 68.7025 111.721C68.7372 111.422 68.7632 111.136 68.7805 110.862L69.4955 110.8C69.5042 111.638 69.8898 112.057 70.6525 112.057C70.9038 112.057 71.1118 112.007 71.2765 111.908C71.4412 111.8 71.5235 111.667 71.5235 111.51C71.5235 111.344 71.4368 111.194 71.2635 111.062C71.0902 110.92 70.7435 110.73 70.2235 110.489C69.7035 110.257 69.3265 110.012 69.0925 109.755C68.8585 109.489 68.7415 109.182 68.7415 108.834C68.7415 108.46 68.8542 108.132 69.0795 107.85C69.3048 107.56 69.6212 107.336 70.0285 107.178C70.4358 107.012 70.8995 106.929 71.4195 106.929C71.6708 106.929 71.9048 106.946 72.1215 106.979C72.3382 107.012 72.5071 107.05 72.6285 107.091C72.7585 107.124 72.8408 107.145 72.8755 107.153L72.9405 107.278C72.9231 107.369 72.8841 107.576 72.8235 107.9C72.7715 108.215 72.7281 108.543 72.6935 108.883L71.9655 108.933L71.9785 108.709C71.9785 108.419 71.9048 108.207 71.7575 108.074C71.6102 107.933 71.3805 107.863 71.0685 107.863C70.8432 107.863 70.6525 107.917 70.4965 108.025C70.3405 108.124 70.2625 108.253 70.2625 108.41C70.2625 108.568 70.3318 108.713 70.4705 108.846C70.6092 108.979 70.8388 109.12 71.1595 109.269C71.6708 109.502 72.0608 109.709 72.3295 109.892C72.6068 110.074 72.7975 110.261 72.9015 110.452C73.0141 110.634 73.0705 110.854 73.0705 111.111C73.0705 111.452 72.9535 111.763 72.7195 112.045C72.4855 112.327 72.1648 112.551 71.7575 112.717C71.3502 112.883 70.9038 112.966 70.4185 112.966Z" fill="white"/>
<path d="M76.7131 112.966C75.8291 112.966 75.1314 112.713 74.6201 112.207C74.1088 111.692 73.8531 110.991 73.8531 110.103C73.8531 109.489 73.9874 108.941 74.2561 108.46C74.5248 107.979 74.8974 107.605 75.3741 107.34C75.8594 107.066 76.4054 106.929 77.0121 106.929C77.2981 106.929 77.5624 106.95 77.8051 106.991C78.0564 107.025 78.2514 107.062 78.3901 107.103C78.5374 107.137 78.6284 107.162 78.6631 107.178L78.7151 107.29C78.7064 107.34 78.6804 107.456 78.6371 107.639C78.6024 107.813 78.5634 108.041 78.5201 108.323C78.4767 108.605 78.4464 108.9 78.4291 109.207L77.5971 109.257V108.846C77.5971 108.564 77.5234 108.348 77.3761 108.199C77.2374 108.041 77.0381 107.962 76.7781 107.962C76.3707 107.962 76.0588 108.108 75.8421 108.398C75.6341 108.68 75.5301 109.087 75.5301 109.618C75.5301 110.298 75.6558 110.821 75.9071 111.186C76.1584 111.551 76.5137 111.734 76.9731 111.734C77.1897 111.734 77.3977 111.709 77.5971 111.659C77.8051 111.601 77.9741 111.543 78.1041 111.485C78.2427 111.427 78.3294 111.389 78.3641 111.373L78.4551 111.41L78.6631 112.045C78.6024 112.095 78.4637 112.194 78.2471 112.344C78.0304 112.485 77.7791 112.626 77.4931 112.767C77.2071 112.9 76.9471 112.966 76.7131 112.966Z" fill="white"/>
<path d="M79.3882 112.095C79.6135 112.07 79.7695 112.012 79.8562 111.92C79.9515 111.821 79.9992 111.655 79.9992 111.422V105.373C79.9992 105.108 79.9602 104.925 79.8822 104.826C79.8042 104.726 79.6612 104.676 79.4532 104.676H79.1542L79.1022 104.627L79.1802 103.979C80.1162 103.855 80.9915 103.722 81.8062 103.581L81.8972 103.818C81.8105 103.909 81.7368 104.324 81.6762 105.062C81.6155 105.792 81.5679 106.772 81.5332 108C81.8105 107.742 82.1268 107.502 82.4822 107.278C82.8462 107.045 83.1105 106.929 83.2752 106.929C83.8992 106.929 84.3802 107.07 84.7182 107.352C85.0561 107.626 85.2251 108.02 85.2251 108.535C85.2251 108.734 85.1861 109.17 85.1081 109.842C85.0215 110.688 84.9781 111.232 84.9781 111.472C84.9781 111.688 85.0085 111.842 85.0691 111.933C85.1385 112.024 85.2468 112.07 85.3941 112.07L85.7841 112.045L85.8101 112.095L85.6931 112.854L85.3941 112.841C84.8915 112.825 84.5232 112.817 84.2892 112.817C83.9685 112.817 83.4875 112.85 82.8462 112.916L82.9112 112.144C83.1278 112.103 83.2838 112.028 83.3792 111.92C83.4745 111.812 83.5222 111.655 83.5222 111.447L83.5742 109.294C83.5828 108.572 83.3012 108.211 82.7292 108.211C82.5818 108.211 82.3912 108.261 82.1572 108.361C81.9318 108.452 81.7195 108.576 81.5202 108.734C81.5029 109.215 81.4942 110.136 81.4942 111.497C81.4942 111.705 81.5245 111.85 81.5852 111.933C81.6458 112.016 81.7455 112.057 81.8842 112.057L82.2222 112.045L82.2482 112.107L82.1182 112.854C82.0055 112.854 81.9188 112.85 81.8582 112.841C81.3555 112.825 80.9742 112.817 80.7142 112.817C80.2115 112.817 79.7305 112.829 79.2712 112.854L79.3882 112.095Z" fill="white"/>
<path d="M39.671 135.86C39.7082 135.38 39.7811 134.32 39.8896 132.682C40.007 131.047 40.108 129.44 40.1924 127.862C40.2113 127.582 40.1441 127.35 39.991 127.166C39.8414 126.973 39.5929 126.808 39.2456 126.671L39.2393 126.609L39.5557 126.088C39.6726 126.131 39.885 126.219 40.1929 126.352C40.5132 126.479 40.8173 126.595 41.1051 126.701C41.4018 126.809 41.7819 126.929 42.2454 127.059C42.7212 127.184 43.0346 127.265 43.1854 127.3L43.1897 127.405L42.9344 127.889C42.435 127.746 42.0905 127.679 41.9011 127.688C41.7207 127.701 41.5926 127.802 41.5169 127.992C41.4481 128.164 41.3284 129.147 41.158 130.94C40.991 132.725 40.8804 133.943 40.8262 134.595L40.9476 134.639C43.9137 131.501 45.4518 129.794 45.5619 129.518C45.6342 129.338 45.6139 129.182 45.501 129.052C45.3915 128.913 45.1704 128.783 44.8376 128.661L44.1361 128.404L44.1298 128.342L44.4328 127.816C44.5462 127.868 44.7957 127.979 45.181 128.15C45.5754 128.324 45.957 128.479 46.3257 128.614C46.6585 128.736 46.9659 128.843 47.2482 128.937C47.5394 129.034 47.7317 129.094 47.8251 129.119L47.4745 129.686C47.1923 129.593 46.9817 129.565 46.8428 129.603C46.7039 129.641 46.5351 129.766 46.3363 129.98L40.648 135.892L39.671 135.86Z" fill="white"/>
<path d="M46.4923 137.304C46.7797 137.344 46.9886 137.303 47.1191 137.182C47.2518 137.052 47.3725 136.777 47.4811 136.356L48.2436 133.402C48.3199 133.107 48.3321 132.887 48.2803 132.741C48.2285 132.596 48.1091 132.501 47.9222 132.457C47.8474 132.439 47.7808 132.428 47.7224 132.424C47.6733 132.422 47.6383 132.423 47.6173 132.428L47.5715 132.317L47.721 131.911C48.0924 131.932 48.4859 131.945 48.9017 131.948C49.3268 131.954 49.5988 131.956 49.718 131.956L49.7953 132.06C49.7558 132.136 49.6793 132.317 49.5656 132.604C49.4543 132.881 49.3698 133.151 49.3121 133.413L49.3578 133.466C49.7469 133.112 50.163 132.845 50.6063 132.665C51.0588 132.487 51.4254 132.431 51.7058 132.498C51.8367 132.529 51.9325 132.561 51.9934 132.594C52.0658 132.621 52.1103 132.641 52.1266 132.654L52.1548 132.718C52.1038 132.839 51.9924 133.097 51.8207 133.494C51.6606 133.883 51.532 134.247 51.4349 134.585L50.8776 134.496C50.9723 134.129 51.0067 133.88 50.9806 133.751C50.9662 133.614 50.8842 133.529 50.7347 133.493C50.529 133.444 50.2874 133.478 50.0098 133.592C49.7345 133.698 49.4629 133.866 49.1949 134.097C49.1186 134.355 48.989 134.78 48.8061 135.373C48.6232 135.966 48.4798 136.445 48.3757 136.81C48.2971 137.114 48.2907 137.331 48.3565 137.461C48.4222 137.59 48.586 137.686 48.8477 137.748C48.9693 137.776 49.0919 137.801 49.2158 137.821C49.3396 137.84 49.4249 137.856 49.4717 137.867L49.4718 137.924L49.1931 138.485C49.0996 138.463 48.9138 138.414 48.6357 138.339C48.3575 138.263 48.0689 138.19 47.7698 138.119C47.4239 138.038 47.1096 137.968 46.8268 137.911C46.5417 137.862 46.3607 137.833 46.2836 137.825L46.4923 137.304Z" fill="white"/>
<path d="M52.6903 138.739C52.9877 138.709 53.2093 138.634 53.3552 138.516C53.5027 138.389 53.5957 138.207 53.6342 137.97L54.1995 134.499C54.2797 134.007 54.1437 133.735 53.7917 133.683C53.7251 133.673 53.6522 133.671 53.5731 133.678C53.4955 133.676 53.4465 133.678 53.426 133.684L53.5654 133.187C53.9739 133.192 54.3949 133.18 54.8284 133.152C55.2714 133.124 55.5569 133.106 55.6851 133.097L55.7297 133.272C55.6129 133.451 55.4411 134.027 55.2143 135.001C54.9889 135.966 54.7887 136.985 54.6136 138.06C54.5706 138.325 54.5767 138.526 54.6321 138.665C54.6889 138.795 54.8077 138.873 54.9885 138.9C55.0932 138.916 55.1938 138.926 55.2904 138.931C55.3871 138.936 55.4544 138.942 55.4925 138.947L55.5121 139.006L55.3022 139.577C55.2181 139.555 55.0578 139.522 54.8214 139.477C54.5851 139.432 54.3242 139.389 54.0387 139.346C53.7913 139.309 53.5022 139.289 53.1713 139.287C52.8499 139.285 52.6401 139.287 52.542 139.291L52.6903 138.739ZM55.1199 131.361C54.9011 131.329 54.741 131.235 54.6395 131.08C54.5381 130.925 54.503 130.751 54.5341 130.56C54.5697 130.342 54.681 130.167 54.868 130.036C55.0565 129.896 55.2696 129.844 55.5075 129.88C55.7263 129.912 55.8864 130.006 55.9879 130.161C56.0893 130.316 56.1244 130.49 56.0933 130.681C56.0577 130.9 55.9456 131.079 55.7572 131.219C55.5702 131.349 55.3578 131.397 55.1199 131.361Z" fill="white"/>
<path d="M59.4595 131.585C59.2483 131.569 59.0811 131.491 58.9578 131.352C58.8441 131.213 58.7964 131.038 58.8145 130.827C58.8343 130.597 58.9324 130.411 59.109 130.267C59.2856 130.124 59.4939 130.062 59.7338 130.081C59.9353 130.097 60.0974 130.179 60.2199 130.327C60.3432 130.466 60.3961 130.637 60.3787 130.839C60.359 131.069 60.2608 131.255 60.0842 131.399C59.9077 131.542 59.6994 131.604 59.4595 131.585ZM56.957 142.822L56.9953 142.714C57.4419 142.352 57.7581 141.933 57.944 141.457C58.1394 140.982 58.2778 140.271 58.3592 139.325L58.7266 135.052C58.7511 134.767 58.7245 134.571 58.6468 134.463C58.5795 134.347 58.4355 134.28 58.2148 134.263C58.1284 134.256 58.0464 134.254 57.9688 134.257C57.9009 134.261 57.8521 134.266 57.8225 134.273L57.9239 133.768C58.2926 133.751 58.7016 133.714 59.151 133.656C59.6003 133.599 59.8934 133.562 60.0301 133.545L60.0879 133.716C59.9018 133.97 59.6361 136.105 59.2909 140.12C59.234 140.782 59.0239 141.371 58.6606 141.888C58.2972 142.405 57.8082 142.811 57.1936 143.105L56.957 142.822Z" fill="white"/>
<path d="M64.5467 140.271C63.8919 140.268 63.4302 140.142 63.1617 139.892C62.8931 139.633 62.7602 139.199 62.7628 138.59L62.7774 135.188C62.7785 134.939 62.7214 134.764 62.6063 134.662C62.4912 134.56 62.2748 134.504 61.957 134.494L61.8996 134.41L61.9736 133.996C62.2534 133.868 62.5237 133.712 62.7845 133.529C63.055 133.336 63.2723 133.171 63.4366 133.033C63.6106 132.887 63.7218 132.79 63.7701 132.744L64.0585 132.856C64.0487 132.902 64.0338 133.013 64.0137 133.188C63.9937 133.363 63.9687 133.598 63.9385 133.893L66.062 133.86L66.1051 133.901L65.972 134.634L63.8778 134.584C63.806 135.598 63.7674 136.75 63.7618 138.041C63.7598 138.511 63.8402 138.844 64.0031 139.038C64.1756 139.232 64.4689 139.33 64.8829 139.332C65.0274 139.332 65.1719 139.314 65.3165 139.278C65.4611 139.242 65.5816 139.205 65.6781 139.169C65.7746 139.123 65.8373 139.096 65.8662 139.087L66.0091 139.447C65.9511 139.493 65.8256 139.58 65.6324 139.708C65.4489 139.836 65.2462 139.965 65.0241 140.093C64.8118 140.212 64.6526 140.271 64.5467 140.271Z" fill="white"/>
<path d="M67.8945 139.552C68.1691 139.496 68.3531 139.408 68.4462 139.287C68.549 139.166 68.5862 138.976 68.5578 138.72L67.7493 131.403C67.7219 131.156 67.6591 130.981 67.5607 130.88C67.4614 130.769 67.3207 130.723 67.1388 130.742L66.8371 130.772L66.7751 130.737L66.7839 130.291C67.1055 130.221 67.4681 130.129 67.8717 130.014C68.2744 129.89 68.6057 129.777 68.8657 129.677L68.9717 129.847C68.9158 129.955 68.903 130.452 68.9332 131.339C68.973 132.225 69.0447 133.312 69.1482 134.599C70.1609 133.773 70.8396 133.343 71.1843 133.308C71.8068 133.245 72.3076 133.352 72.6868 133.629C73.066 133.906 73.2865 134.324 73.3483 134.883C73.3685 135.066 73.3816 135.491 73.3875 136.158C73.4199 137.24 73.4503 137.909 73.4786 138.166C73.508 138.431 73.5681 138.625 73.6589 138.745C73.7487 138.857 73.8845 138.903 74.0665 138.885L74.5662 138.806L74.601 138.858L74.5514 139.462C73.9164 139.498 73.4887 139.527 73.2685 139.55C72.8854 139.589 72.3983 139.694 71.8072 139.865L71.8023 139.295C72.0815 139.193 72.2758 139.066 72.385 138.916C72.4933 138.757 72.5343 138.558 72.5079 138.32L72.2932 135.588C72.2425 135.129 72.0982 134.787 71.8602 134.561C71.6317 134.334 71.326 134.239 70.9429 134.278C70.7035 134.302 70.4148 134.406 70.0767 134.588C69.7481 134.77 69.4567 134.98 69.2023 135.219C69.287 136.249 69.3958 137.365 69.5285 138.566C69.5599 138.85 69.6205 139.048 69.7103 139.159C69.799 139.262 69.9392 139.303 70.1307 139.284L70.6304 139.205L70.6652 139.257L70.6013 139.862C69.9375 139.901 69.5003 139.931 69.2896 139.953C68.8778 139.995 68.4048 140.052 67.8706 140.124L67.8945 139.552Z" fill="white"/>
<path d="M79.4472 138.604C78.9132 138.726 78.4089 138.707 77.9344 138.55C77.46 138.392 77.0501 138.116 76.7048 137.72C76.3666 137.314 76.1254 136.819 75.981 136.236C75.8256 135.608 75.824 135.002 75.9763 134.418C76.1357 133.822 76.4271 133.32 76.8504 132.912C77.2715 132.494 77.7865 132.216 78.3956 132.078C78.9203 131.959 79.4199 131.978 79.8944 132.136C80.3782 132.291 80.7892 132.572 81.1273 132.979C81.4726 133.374 81.7174 133.863 81.8618 134.446C82.0173 135.074 82.0153 135.686 81.8559 136.281C81.7036 136.865 81.4169 137.366 80.9958 137.784C80.5725 138.193 80.0563 138.466 79.4472 138.604ZM79.6775 137.856C80.2023 137.737 80.5692 137.44 80.7785 136.966C80.9856 136.483 81.0025 135.892 80.8292 135.192C80.6982 134.663 80.4973 134.211 80.2264 133.837C79.9534 133.453 79.6334 133.18 79.2665 133.017C78.9089 132.852 78.538 132.813 78.1538 132.9C77.6291 133.019 77.2632 133.32 77.0562 133.803C76.8492 134.286 76.8334 134.882 77.0088 135.59C77.1398 136.12 77.3408 136.571 77.6116 136.946C77.8824 137.32 78.1966 137.59 78.5542 137.755C78.9096 137.912 79.284 137.945 79.6775 137.856Z" fill="white"/>
<path d="M84.6688 136.565C85.161 136.321 85.3257 135.978 85.1628 135.534L83.869 132.011C83.7832 131.806 83.6701 131.692 83.5297 131.671C83.3951 131.638 83.1566 131.67 82.8141 131.766L82.7308 131.706L82.6633 131.23L83.4282 130.811L83.409 130.759C83.1343 130.011 83.0219 129.316 83.0718 128.674C83.1308 128.028 83.3376 127.48 83.6923 127.028C84.056 126.573 84.5559 126.239 85.1918 126.025C85.4643 125.933 85.7205 125.866 85.9604 125.825C86.2094 125.78 86.4054 125.758 86.5486 125.758C86.6976 125.747 86.7935 125.744 86.8362 125.75L86.9066 125.858C86.8953 125.91 86.8746 126.035 86.8445 126.231C86.8202 126.415 86.8039 126.62 86.7956 126.848L86.6601 126.938C86.6142 126.924 86.5042 126.902 86.3301 126.873C86.1651 126.84 85.9517 126.829 85.69 126.839C85.4373 126.846 85.1792 126.894 84.9158 126.983C84.398 127.157 84.0854 127.487 83.978 127.973C83.8674 128.45 83.9531 129.1 84.2352 129.924L84.4564 130.568C84.9288 130.409 85.3314 130.268 85.6644 130.146C85.9973 130.024 86.2167 129.941 86.3225 129.895L86.3777 129.921L86.4954 130.658C86.3923 130.683 86.1756 130.746 85.8454 130.848C85.5243 130.946 85.1366 131.072 84.6824 131.225L86.0702 135.17C86.1596 135.413 86.2812 135.578 86.435 135.663C86.5946 135.736 86.7925 135.733 87.0287 135.653C87.2467 135.58 87.4222 135.516 87.5553 135.461C87.6975 135.404 87.7913 135.367 87.8367 135.352L87.8831 135.395L87.9938 135.988C87.8666 136.031 87.6333 136.105 87.294 136.209C86.9547 136.314 86.6215 136.421 86.2945 136.531C85.9766 136.638 85.6647 136.748 85.3591 136.861C85.0657 136.979 84.8752 137.058 84.7875 137.097L84.6688 136.565Z" fill="white"/>
<path d="M9.74994 71.4257L9.95262 72.0229H10.6085L10.0779 72.392L10.2806 72.9893L9.74994 72.6202L9.2193 72.9893L9.42199 72.392L8.89135 72.0229H9.54725L9.74994 71.4257Z" fill="white"/>
<path d="M36.8336 66.2394L37.0362 66.8366H37.6921L37.1615 67.2058L37.3642 67.803L36.8336 67.4339L36.3029 67.803L36.5056 67.2058L35.975 66.8366H36.6309L36.8336 66.2394Z" fill="white"/>
<path d="M93.1656 32.0107L93.3683 32.608H94.0242L93.4935 32.9771L93.6962 33.5744L93.1656 33.2053L92.635 33.5744L92.8376 32.9771L92.307 32.608H92.9629L93.1656 32.0107Z" fill="white"/>
<path d="M18.7775 45.4948L18.9802 46.092H19.6361L19.1055 46.4611L19.3082 47.0584L18.7775 46.6893L18.2469 47.0584L18.4496 46.4611L17.9189 46.092H18.5748L18.7775 45.4948Z" fill="white"/>
<path d="M40.4439 35.1227L40.6466 35.7199H41.3025L40.7719 36.0891L40.9745 36.6863L40.4439 36.3172L39.9133 36.6863L40.116 36.0891L39.5853 35.7199H40.2412L40.4439 35.1227Z" fill="white"/>
<path d="M49.8325 48.9525L50.0351 49.5498H50.691L50.1604 49.9189L50.3631 50.5161L49.8325 50.147L49.3018 50.5161L49.5045 49.9189L48.9739 49.5498H49.6298L49.8325 48.9525Z" fill="white"/>
<path d="M65.7214 28.2079L65.9241 28.8051H66.58L66.0493 29.1743L66.252 29.7715L65.7214 29.4024L65.1907 29.7715L65.3934 29.1743L64.8628 28.8051H65.5187L65.7214 28.2079Z" fill="white"/>
<path d="M114.471 57.5962L114.674 58.1934H115.329L114.799 58.5626L115.002 59.1598L114.471 58.7907L113.94 59.1598L114.143 58.5626L113.612 58.1934H114.268L114.471 57.5962Z" fill="white"/>
<path d="M108.693 43.0748L108.896 43.6721H109.552L109.021 44.0412L109.224 44.6385L108.693 44.2693L108.163 44.6385L108.365 44.0412L107.835 43.6721H108.491L108.693 43.0748Z" fill="white"/>
<path d="M101.832 66.2394L102.035 66.8366H102.691L102.16 67.2058L102.363 67.803L101.832 67.4339L101.302 67.803L101.505 67.2058L100.974 66.8366H101.63L101.832 66.2394Z" fill="white"/>
<path d="M123.498 73.1542L123.701 73.7514H124.357L123.826 74.1206L124.029 74.7178L123.498 74.3487L122.968 74.7178L123.171 74.1206L122.64 73.7514H123.296L123.498 73.1542Z" fill="white"/>
<path d="M76.5541 47.2235L76.7568 47.8208H77.4127L76.8821 48.1899L77.0848 48.7871L76.5541 48.418L76.0235 48.7871L76.2262 48.1899L75.6956 47.8208H76.3515L76.5541 47.2235Z" fill="white"/>
<path d="M92.8045 54.1383L93.0072 54.7356H93.6631L93.1325 55.1047L93.3351 55.7019L92.8045 55.3328L92.2739 55.7019L92.4766 55.1047L91.9459 54.7356H92.6018L92.8045 54.1383Z" fill="white"/>
<path d="M65.3608 58.1146L65.5635 58.7119H66.2194L65.6887 59.081L65.8914 59.6783L65.3608 59.3091L64.8301 59.6783L65.0328 59.081L64.5022 58.7119H65.1581L65.3608 58.1146Z" fill="white"/>
<path d="M16.9726 61.0531L17.5806 62.8449L19.5483 62.8449L17.9564 63.9522L18.5645 65.744L16.9726 64.6366L15.3807 65.744L15.9887 63.9522L14.3968 62.8449L16.3645 62.8449L16.9726 61.0531Z" fill="white"/>
<path d="M91.9016 40.309L92.307 41.5035H93.6188L92.5575 42.2417L92.9629 43.4362L91.9016 42.698L90.8403 43.4362L91.2457 42.2417L90.1844 41.5035H91.4962L91.9016 40.309Z" fill="white"/>
<path d="M27.4445 33.5667L27.8498 34.7612H29.1616L28.1004 35.4994L28.5057 36.6939L27.4445 35.9557L26.3832 36.6939L26.7886 35.4994L25.7273 34.7612H27.0391L27.4445 33.5667Z" fill="white"/>
<path d="M51.0962 28.2079L51.7043 29.9997L53.672 29.9997L52.0801 31.107L52.6881 32.8988L51.0962 31.7914L49.5043 32.8988L50.1124 31.107L48.5205 29.9997L50.4882 29.9997L51.0962 28.2079Z" fill="white"/>
<g clip-path="url(#clip0_592:2977)">
<path d="M60.6234 42.3907C60.5032 42.3914 60.4062 42.4852 60.4069 42.6003C60.4075 42.7154 60.5055 42.8082 60.6257 42.8075C60.6931 42.8072 60.7523 42.7769 60.792 42.7308L61.0901 42.8936L60.6598 43.0063C60.6282 43.0147 60.6096 43.046 60.6183 43.0762C60.6255 43.1017 60.6495 43.1183 60.6758 43.1181C60.6809 43.118 60.6862 43.1174 60.6913 43.116L61.2362 42.9733L61.6243 43.1852L60.909 43.3727C60.8773 43.3811 60.8588 43.4124 60.8676 43.4427C60.8747 43.468 60.8988 43.4847 60.9251 43.4846C60.9301 43.4846 60.9353 43.4838 60.9404 43.4825L61.7704 43.2649L61.8945 43.3328L61.1792 43.5201C61.1475 43.5286 61.1289 43.56 61.1376 43.5901C61.1448 43.6155 61.169 43.6321 61.1953 43.632C61.2004 43.632 61.2057 43.6313 61.2107 43.6299L62.0404 43.4124L62.5338 43.6816L62.0434 43.956L61.2113 43.7472C61.179 43.7394 61.147 43.7576 61.1386 43.7879C61.1303 43.8182 61.1494 43.8493 61.1811 43.8574L61.8983 44.0373L61.7751 44.1063L60.9428 43.8976C60.9105 43.8896 60.8785 43.9079 60.8703 43.9381C60.8618 43.9685 60.8808 43.9997 60.9126 44.0078L61.6299 44.1877L61.2442 44.4034L60.6978 44.2665C60.6655 44.2587 60.6335 44.2768 60.6251 44.3072C60.6168 44.3377 60.6359 44.3686 60.6675 44.3768L61.099 44.4848L60.7992 44.6526C60.759 44.6094 60.701 44.5816 60.6359 44.582C60.5156 44.5827 60.4186 44.6765 60.4193 44.7917C60.4199 44.9066 60.5179 44.9995 60.6383 44.999C60.7584 44.9982 60.8554 44.9045 60.8547 44.7893C60.8547 44.7796 60.853 44.7703 60.8516 44.761L61.1527 44.606L61.0459 44.9959C61.0376 45.0264 61.0566 45.0574 61.0883 45.0655C61.0936 45.0668 61.0988 45.0673 61.1037 45.0673C61.1301 45.0672 61.154 45.0503 61.1609 45.0248L61.2959 44.5321L61.676 44.3367L61.502 44.9726C61.4938 45.0031 61.5126 45.0341 61.5443 45.042C61.5496 45.0433 61.5549 45.044 61.5598 45.044C61.5861 45.0438 61.61 45.027 61.617 45.0014L61.8191 44.2632L61.9405 44.2007L61.7705 44.8221C61.7621 44.8527 61.7812 44.8837 61.8129 44.8918C61.8179 44.8929 61.8233 44.8936 61.8283 44.8936C61.8547 44.8935 61.8785 44.8766 61.8854 44.851L62.0837 44.1271L62.5495 43.8876L62.563 44.3564L61.9919 44.9091C61.9689 44.9314 61.9691 44.9674 61.9924 44.9897C62.0041 45.0007 62.0193 45.0062 62.0346 45.0059C62.0498 45.0059 62.065 45.0004 62.0765 44.9892L62.5676 44.5139L62.5714 44.6477L61.9936 45.2069C61.9706 45.2291 61.9709 45.2652 61.9941 45.2874C62.0059 45.2985 62.0211 45.3038 62.0363 45.3037C62.0516 45.3036 62.0667 45.298 62.0783 45.2868L62.576 44.8051L62.5879 45.2235L62.205 45.5944C62.1818 45.6166 62.182 45.6526 62.2055 45.6747C62.217 45.6858 62.2324 45.6912 62.2475 45.6912C62.2628 45.6911 62.278 45.6854 62.2895 45.6741L62.5923 45.381L62.601 45.681C62.5121 45.7076 62.4472 45.7862 62.4477 45.8802C62.4485 45.9954 62.5465 46.0882 62.6668 46.0875C62.7869 46.0869 62.8839 45.9931 62.8832 45.8779C62.8828 45.7839 62.8171 45.706 62.7278 45.6804L62.7329 45.3803L63.0391 45.6703C63.0624 45.6924 63.1 45.6923 63.1232 45.6699C63.1463 45.6476 63.1462 45.6115 63.1227 45.5895L62.7357 45.2227L62.7427 44.804L63.246 45.2805C63.2693 45.3026 63.307 45.3025 63.3301 45.2801C63.3531 45.2578 63.3529 45.2219 63.3296 45.1997L62.7454 44.6464L62.7476 44.5127L63.2443 44.9828C63.2674 45.005 63.3053 45.0046 63.3283 44.9822C63.3514 44.96 63.3512 44.9239 63.3278 44.9019L62.7504 44.3551L62.7584 43.8863L63.227 44.1209L63.4335 44.8427C63.4407 44.8681 63.4648 44.8848 63.4911 44.8847C63.4963 44.8846 63.5013 44.8837 63.5066 44.8826C63.5381 44.8743 63.5568 44.8431 63.5482 44.8126L63.371 44.193L63.493 44.2542L63.7036 44.9902C63.7108 45.0157 63.735 45.0322 63.7613 45.0322C63.7663 45.0321 63.7715 45.0314 63.7767 45.03C63.8084 45.0218 63.827 44.9906 63.8184 44.9603L63.6367 44.3263L64.0191 44.5178L64.1596 45.0091C64.1669 45.0344 64.191 45.0509 64.2173 45.0508C64.2223 45.0508 64.2275 45.0501 64.2328 45.0489C64.2644 45.0405 64.2829 45.0092 64.2744 44.9789L64.1631 44.5899L64.4494 44.7334C64.4472 44.7454 64.4456 44.7575 64.4457 44.7702C64.4464 44.8852 64.5443 44.9781 64.6646 44.9775C64.7849 44.9769 64.8818 44.883 64.8812 44.7679C64.8805 44.6528 64.7826 44.56 64.6622 44.5606C64.6002 44.5609 64.5448 44.5864 64.5052 44.6264L64.2152 44.4681L64.6454 44.3555C64.677 44.3471 64.6956 44.3158 64.6871 44.2855C64.6784 44.2553 64.6463 44.2375 64.614 44.2456L64.0692 44.3885L63.681 44.1766L64.3963 43.9892C64.4278 43.9808 64.4466 43.9494 64.4379 43.9192C64.4293 43.8889 64.3973 43.8711 64.3648 43.8793L63.535 44.0969L63.411 44.0291L64.1261 43.8417C64.1578 43.8332 64.1766 43.8019 64.1677 43.7717C64.1593 43.7415 64.1271 43.7237 64.0948 43.7318L63.265 43.9493L62.7716 43.6801L63.2617 43.4057L64.094 43.6146C64.0991 43.6158 64.1044 43.6164 64.1094 43.6164C64.1359 43.6163 64.1597 43.5995 64.1667 43.574C64.175 43.5436 64.156 43.5125 64.1243 43.5045L63.407 43.3245L63.5303 43.2553L64.3625 43.4642C64.3678 43.4654 64.3729 43.4661 64.378 43.4661C64.4043 43.466 64.4282 43.4491 64.4352 43.4236C64.4436 43.3932 64.4245 43.362 64.3928 43.354L63.6755 43.174L64.0611 42.9583L64.6077 43.0951C64.6129 43.0964 64.618 43.0971 64.6231 43.097C64.6493 43.0968 64.6733 43.0801 64.6803 43.0545C64.6886 43.0241 64.6695 42.9931 64.6378 42.985L64.2063 42.8768L64.4817 42.7227C64.5216 42.7619 64.5771 42.7864 64.6388 42.786C64.7589 42.7854 64.8559 42.6916 64.8553 42.5765C64.8547 42.4614 64.7567 42.3687 64.6364 42.3692C64.5162 42.3699 64.4192 42.4637 64.4198 42.5788C64.42 42.5917 64.4216 42.604 64.4239 42.6161L64.1528 42.7557L64.2596 42.3655C64.2678 42.3352 64.2489 42.3042 64.2172 42.2961C64.1849 42.2884 64.1528 42.3065 64.1445 42.3366L64.0096 42.8292L63.6297 43.0248L63.8037 42.389C63.8119 42.3586 63.793 42.3274 63.7613 42.3195C63.7289 42.3118 63.6969 42.3299 63.6887 42.3602L63.4867 43.0983L63.365 43.1607L63.5353 42.5394C63.5435 42.5089 63.5245 42.4777 63.4927 42.4698C63.4606 42.4619 63.4285 42.4802 63.4202 42.5104L63.2221 43.2344L62.756 43.4739L62.7426 43.0052L63.3136 42.4522C63.3368 42.43 63.3365 42.3939 63.3131 42.3718C63.29 42.3497 63.2521 42.3498 63.2292 42.3723L62.7381 42.8476L62.7342 42.7139L63.312 42.1547C63.3352 42.1322 63.3349 42.0962 63.3115 42.0743C63.2883 42.052 63.2505 42.0521 63.2275 42.0746L62.7298 42.5563L62.7178 42.1378L63.1008 41.7671C63.1239 41.7447 63.1236 41.7087 63.1002 41.6866C63.0768 41.6645 63.0393 41.6648 63.0164 41.687L62.7134 41.9803L62.704 41.6529C62.7934 41.6265 62.8584 41.5476 62.8578 41.4535C62.8572 41.3383 62.7591 41.2456 62.6389 41.2462C62.5187 41.2468 62.4218 41.3406 62.4223 41.4557C62.4229 41.5499 62.4889 41.6281 62.5785 41.6535L62.5729 41.981L62.2666 41.6908C62.2434 41.6688 62.2057 41.6689 62.1827 41.6914C62.1596 41.7136 62.1598 41.7498 62.1831 41.7719L62.5703 42.1387L62.5632 42.5571L62.06 42.0808C62.0366 42.0584 61.999 42.0588 61.9759 42.0812C61.9528 42.1035 61.9531 42.1395 61.9763 42.1616L62.5605 42.7146L62.5582 42.8484L62.0617 42.3784C62.0384 42.3562 62.0007 42.3564 61.9776 42.3789C61.9546 42.4012 61.9548 42.4372 61.9781 42.4592L62.5555 43.0059L62.5474 43.4751L62.0787 43.2405L61.872 42.5187C61.8633 42.4886 61.8314 42.4707 61.7989 42.4789C61.7673 42.4871 61.7486 42.5185 61.7572 42.5489L61.9345 43.1684L61.8122 43.1073L61.6018 42.3713C61.5932 42.3412 61.561 42.3234 61.5287 42.3315C61.497 42.3397 61.4783 42.3711 61.4871 42.4013L61.6682 43.0351L61.2861 42.8438L61.1456 42.3527C61.1369 42.3226 61.105 42.3048 61.0724 42.3128C61.0408 42.3212 61.0222 42.3525 61.0309 42.3828L61.1423 42.7717L60.8399 42.6203C60.8409 42.6128 60.8423 42.6055 60.8423 42.5979C60.8416 42.4828 60.7436 42.3901 60.6234 42.3907Z" fill="white"/>
</g>
<g clip-path="url(#clip1_592:2977)">
<path d="M78.04 28.587C77.8577 28.588 77.7107 28.7302 77.7117 28.9047C77.7126 29.0793 77.8613 29.22 78.0435 29.2189C78.1457 29.2184 78.2355 29.1725 78.2955 29.1026L78.7476 29.3494L78.0952 29.5203C78.0473 29.533 78.019 29.5805 78.0322 29.6263C78.0431 29.6649 78.0796 29.6902 78.1195 29.6898C78.1271 29.6896 78.1351 29.6888 78.143 29.6867L78.9691 29.4703L79.5574 29.7915L78.473 30.0758C78.425 30.0886 78.3968 30.136 78.4101 30.182C78.421 30.2204 78.4575 30.2456 78.4974 30.2454C78.505 30.2454 78.5129 30.2442 78.5206 30.2423L79.7789 29.9124L79.9671 30.0153L78.8827 30.2994C78.8346 30.3121 78.8064 30.3597 78.8196 30.4054C78.8305 30.444 78.8672 30.4691 78.9071 30.4689C78.9147 30.4689 78.9228 30.4679 78.9304 30.4658L80.1884 30.1361L80.9365 30.5441L80.1929 30.9602L78.9312 30.6437C78.8823 30.6318 78.8338 30.6594 78.8211 30.7054C78.8084 30.7513 78.8375 30.7985 78.8854 30.8107L79.9729 31.0835L79.7861 31.1881L78.5242 30.8716C78.4753 30.8596 78.4267 30.8873 78.4142 30.9331C78.4015 30.9792 78.4303 31.0264 78.4784 31.0387L79.566 31.3114L78.9812 31.6386L78.1528 31.4309C78.1038 31.4192 78.0553 31.4466 78.0425 31.4926C78.0299 31.5388 78.0589 31.5857 78.1068 31.5981L78.7611 31.7619L78.3064 32.0163C78.2455 31.9508 78.1576 31.9087 78.0589 31.9093C77.8765 31.9103 77.7295 32.0526 77.7305 32.2272C77.7314 32.4014 77.8801 32.5423 78.0625 32.5415C78.2446 32.5403 78.3917 32.3982 78.3906 32.2236C78.3906 32.2089 78.3881 32.1948 78.3859 32.1807L78.8425 31.9456L78.6806 32.5368C78.668 32.583 78.6968 32.6301 78.7448 32.6423C78.7528 32.6444 78.7607 32.6451 78.7682 32.6451C78.8082 32.6449 78.8444 32.6193 78.855 32.5807L79.0596 31.8337L79.6359 31.5374L79.372 32.5014C79.3595 32.5477 79.3882 32.5947 79.4362 32.6068C79.4442 32.6086 79.4522 32.6097 79.4597 32.6097C79.4996 32.6094 79.5358 32.5839 79.5464 32.5452L79.8529 31.426L80.0368 31.3312L79.7791 32.2734C79.7663 32.3196 79.7953 32.3667 79.8433 32.3789C79.851 32.3807 79.8591 32.3817 79.8668 32.3817C79.9068 32.3815 79.9428 32.3559 79.9534 32.3171L80.2539 31.2195L80.9601 30.8565L80.9807 31.5673L80.1148 32.4053C80.0799 32.4391 80.0802 32.4936 80.1156 32.5275C80.1333 32.5441 80.1564 32.5524 80.1795 32.552C80.2026 32.552 80.2256 32.5436 80.2431 32.5266L80.9876 31.8061L80.9934 32.0088L80.1174 32.8567C80.0825 32.8903 80.083 32.9451 80.1182 32.9787C80.136 32.9955 80.159 33.0036 80.1821 33.0035C80.2053 33.0033 80.2282 32.9949 80.2458 32.9778L81.0003 32.2475L81.0183 32.8819L80.4378 33.4443C80.4027 33.4779 80.403 33.5325 80.4386 33.566C80.4561 33.5828 80.4794 33.5911 80.5024 33.5911C80.5255 33.5909 80.5486 33.5821 80.566 33.5651L81.0251 33.1207L81.0383 33.5755C80.9034 33.6158 80.8052 33.7351 80.8059 33.8776C80.807 34.0521 80.9556 34.1928 81.138 34.1919C81.3201 34.191 81.4672 34.0486 81.4661 33.8741C81.4655 33.7316 81.3659 33.6134 81.2305 33.5745L81.2382 33.1195L81.7025 33.5594C81.7379 33.5928 81.7948 33.5927 81.83 33.5586C81.8651 33.5248 81.8648 33.4701 81.8293 33.4368L81.2424 32.8806L81.2531 32.2459L82.0161 32.9684C82.0515 33.0019 82.1086 33.0017 82.1436 32.9677C82.1786 32.9338 82.1783 32.8794 82.1429 32.8458L81.2572 32.007L81.2606 31.8043L82.0135 32.517C82.0487 32.5506 82.106 32.5501 82.1409 32.5161C82.176 32.4824 82.1756 32.4277 82.1402 32.3944L81.2648 31.5654L81.2769 30.8546L81.9874 31.2103L82.3004 32.3045C82.3114 32.3431 82.3478 32.3684 82.3878 32.3682C82.3956 32.368 82.4032 32.3668 82.4113 32.3651C82.459 32.3525 82.4873 32.3051 82.4743 32.2589L82.2056 31.3195L82.3906 31.4123L82.7099 32.5282C82.7209 32.5668 82.7575 32.5919 82.7974 32.5919C82.8051 32.5917 82.8129 32.5906 82.8207 32.5886C82.8688 32.5761 82.897 32.5287 82.884 32.4828L82.6086 31.5216L83.1882 31.812L83.4013 32.5568C83.4124 32.5952 83.449 32.6203 83.4888 32.6201C83.4964 32.6201 83.5043 32.619 83.5123 32.6171C83.5602 32.6044 83.5883 32.557 83.5753 32.5111L83.4065 31.9213L83.8407 32.1388C83.8374 32.157 83.8349 32.1754 83.835 32.1946C83.8361 32.369 83.9846 32.5099 84.167 32.5089C84.3493 32.508 84.4962 32.3656 84.4954 32.1911C84.4943 32.0166 84.3458 31.8759 84.1634 31.8769C84.0693 31.8772 83.9853 31.916 83.9253 31.9766L83.4856 31.7366L84.1378 31.5659C84.1858 31.5531 84.2139 31.5057 84.2011 31.4598C84.1879 31.4139 84.1391 31.387 84.0902 31.3993L83.2642 31.6159L82.6757 31.2946L83.7602 31.0105C83.8079 30.9978 83.8364 30.9502 83.8232 30.9044C83.8102 30.8585 83.7617 30.8315 83.7124 30.8438L82.4543 31.1737L82.2663 31.0711L83.3506 30.787C83.3985 30.774 83.4271 30.7266 83.4136 30.6808C83.4009 30.6349 83.352 30.6079 83.303 30.6203L82.045 30.95L81.2969 30.542L82.04 30.1259L83.3019 30.4426C83.3097 30.4445 83.3177 30.4454 83.3252 30.4454C83.3653 30.4452 83.4014 30.4197 83.4121 30.381C83.4246 30.3349 83.3958 30.2879 83.3478 30.2756L82.2603 30.0027L82.4472 29.8979L83.709 30.2146C83.717 30.2164 83.7246 30.2175 83.7324 30.2175C83.7724 30.2173 83.8086 30.1917 83.8191 30.1529C83.8319 30.1069 83.8029 30.0596 83.7549 30.0474L82.6673 29.7746L83.2519 29.4475L84.0807 29.655C84.0885 29.6569 84.0963 29.658 84.104 29.6578C84.1437 29.6576 84.1801 29.6321 84.1907 29.5934C84.2033 29.5473 84.1744 29.5003 84.1263 29.488L83.4721 29.3239L83.8897 29.0903C83.9501 29.1497 84.0343 29.1869 84.1279 29.1863C84.3099 29.1855 84.457 29.0432 84.4561 28.8687C84.4552 28.6941 84.3065 28.5536 84.1241 28.5544C83.942 28.5555 83.7948 28.6976 83.7959 28.8722C83.7961 28.8917 83.7985 28.9104 83.802 28.9287L83.391 29.1404L83.5529 28.5488C83.5654 28.5029 83.5367 28.4558 83.4886 28.4436C83.4397 28.4319 83.391 28.4593 83.3785 28.505L83.1739 29.2519L82.5979 29.5483L82.8617 28.5844C82.8742 28.5383 82.8454 28.4911 82.7974 28.479C82.7484 28.4673 82.6998 28.4947 82.6874 28.5407L82.381 29.6597L82.1966 29.7545L82.4548 28.8125C82.4672 28.7663 82.4384 28.7189 82.3902 28.707C82.3416 28.6949 82.2929 28.7227 82.2803 28.7685L81.9799 29.8662L81.2733 30.2292L81.253 29.5186L82.1187 28.6802C82.1539 28.6465 82.1534 28.5918 82.118 28.5583C82.0828 28.5248 82.0255 28.525 81.9907 28.559L81.2461 29.2797L81.2403 29.077L82.1162 28.2291C82.1514 28.1951 82.151 28.1406 82.1155 28.1072C82.0803 28.0734 82.0229 28.0736 81.9882 28.1078L81.2336 28.8381L81.2154 28.2036L81.796 27.6415C81.831 27.6075 81.8307 27.553 81.7951 27.5195C81.7596 27.486 81.7028 27.4864 81.668 27.52L81.2087 27.9648L81.1945 27.4683C81.33 27.4284 81.4286 27.3088 81.4276 27.1661C81.4267 26.9914 81.2779 26.8508 81.0957 26.8518C80.9135 26.8527 80.7665 26.9948 80.7674 27.1694C80.7682 27.3123 80.8684 27.4308 81.0042 27.4693L80.9957 27.9658L80.5313 27.5258C80.4961 27.4925 80.439 27.4927 80.4041 27.5267C80.369 27.5604 80.3694 27.6153 80.4047 27.6488L80.9918 28.2049L80.9809 28.8392L80.218 28.1171C80.1825 28.0832 80.1255 28.0838 80.0906 28.1178C80.0556 28.1516 80.056 28.2062 80.0912 28.2397L80.9768 29.078L80.9734 29.281L80.2206 28.5683C80.1853 28.5347 80.1281 28.535 80.0932 28.569C80.0583 28.6029 80.0586 28.6574 80.0939 28.6909L80.9693 29.5197L80.9571 30.2311L80.2464 29.8754L79.933 28.7811C79.9198 28.7354 79.8714 28.7082 79.8222 28.7207C79.7742 28.7331 79.7459 28.7807 79.759 28.8269L80.0278 29.7661L79.8424 29.6735L79.5233 28.5576C79.5102 28.5119 79.4616 28.4849 79.4125 28.4972C79.3644 28.5097 79.336 28.5572 79.3494 28.6031L79.624 29.5639L79.0447 29.2739L78.8316 28.5294C78.8185 28.4837 78.7702 28.4567 78.7208 28.4689C78.6728 28.4816 78.6447 28.529 78.6577 28.575L78.8267 29.1646L78.3683 28.9351C78.3697 28.9238 78.3718 28.9126 78.3718 28.9011C78.3708 28.7266 78.2221 28.5861 78.04 28.587Z" fill="white"/>
</g>
<g clip-path="url(#clip2_592:2977)">
<path d="M28.291 54.242C28.1474 54.2428 28.0317 54.3547 28.0325 54.4921C28.0332 54.6295 28.1502 54.7403 28.2937 54.7395C28.3741 54.739 28.4448 54.7029 28.4921 54.6479L28.848 54.8422L28.3344 54.9767C28.2967 54.9867 28.2744 55.0241 28.2848 55.0602C28.2934 55.0906 28.3221 55.1104 28.3535 55.1102C28.3595 55.11 28.3658 55.1093 28.372 55.1077L29.0224 54.9373L29.4855 55.1902L28.6318 55.414C28.594 55.4241 28.5718 55.4614 28.5823 55.4976C28.5909 55.5278 28.6196 55.5477 28.651 55.5476C28.657 55.5476 28.6632 55.5466 28.6693 55.5451L29.6599 55.2854L29.808 55.3664L28.9543 55.59C28.9165 55.6001 28.8943 55.6375 28.9047 55.6735C28.9133 55.7039 28.9421 55.7236 28.9735 55.7235C28.9796 55.7235 28.9859 55.7227 28.9919 55.721L29.9822 55.4615L30.5711 55.7827L29.9857 56.1102L28.9926 55.8611C28.954 55.8517 28.9158 55.8734 28.9059 55.9096C28.8959 55.9458 28.9188 55.9829 28.9565 55.9926L29.8126 56.2073L29.6655 56.2897L28.6721 56.0405C28.6336 56.031 28.5954 56.0529 28.5856 56.0889C28.5755 56.1252 28.5982 56.1624 28.6361 56.172L29.4923 56.3867L29.0319 56.6443L28.3797 56.4808C28.3412 56.4716 28.303 56.4932 28.2929 56.5294C28.283 56.5658 28.3059 56.6027 28.3435 56.6124L28.8586 56.7413L28.5007 56.9417C28.4528 56.8901 28.3835 56.857 28.3058 56.8574C28.1623 56.8582 28.0465 56.9702 28.0473 57.1077C28.048 57.2448 28.1651 57.3557 28.3086 57.3551C28.452 57.3541 28.5678 57.2423 28.567 57.1048C28.567 57.0933 28.565 57.0822 28.5632 57.0711L28.9227 56.886L28.7952 57.3514C28.7853 57.3878 28.808 57.4248 28.8458 57.4345C28.8521 57.4361 28.8583 57.4366 28.8642 57.4366C28.8957 57.4365 28.9242 57.4163 28.9325 57.386L29.0936 56.7979L29.5473 56.5646L29.3396 57.3235C29.3297 57.36 29.3523 57.397 29.3901 57.4065C29.3964 57.408 29.4027 57.4088 29.4086 57.4088C29.44 57.4085 29.4685 57.3885 29.4769 57.358L29.7181 56.4769L29.8629 56.4023L29.66 57.144C29.65 57.1804 29.6728 57.2175 29.7106 57.2271C29.7166 57.2285 29.723 57.2293 29.729 57.2293C29.7605 57.2291 29.7889 57.209 29.7972 57.1785L30.0338 56.3144L30.5898 56.0286L30.6059 56.5882L29.9243 57.2478C29.8968 57.2745 29.8971 57.3174 29.9249 57.3441C29.9388 57.3571 29.957 57.3637 29.9752 57.3634C29.9935 57.3634 30.0115 57.3568 30.0253 57.3434L30.6114 56.7761L30.616 56.9358L29.9264 57.6032C29.8989 57.6297 29.8993 57.6728 29.9269 57.6993C29.941 57.7125 29.9591 57.7189 29.9773 57.7188C29.9955 57.7186 30.0136 57.712 30.0274 57.6986L30.6214 57.1236L30.6356 57.623L30.1786 58.0658C30.1509 58.0923 30.1512 58.1352 30.1792 58.1616C30.193 58.1749 30.2113 58.1813 30.2294 58.1813C30.2476 58.1812 30.2658 58.1743 30.2795 58.1609L30.6409 57.8111L30.6513 58.1691C30.5451 58.2008 30.4678 58.2947 30.4684 58.4069C30.4692 58.5443 30.5862 58.6551 30.7298 58.6543C30.8731 58.6536 30.9889 58.5416 30.9881 58.4042C30.9876 58.292 30.9092 58.1989 30.8026 58.1683L30.8087 57.8101L31.1742 58.1564C31.202 58.1827 31.2469 58.1826 31.2746 58.1558C31.3022 58.1292 31.3019 58.0861 31.274 58.0599L30.812 57.6221L30.8204 57.1224L31.4211 57.6911C31.4489 57.7175 31.4939 57.7174 31.5214 57.6906C31.549 57.6639 31.5488 57.6211 31.5209 57.5946L30.8236 56.9343L30.8263 56.7747L31.419 57.3358C31.4467 57.3623 31.4919 57.3618 31.5193 57.3351C31.5469 57.3086 31.5466 57.2655 31.5187 57.2393L30.8296 56.5866L30.8392 56.0271L31.3985 56.3071L31.6449 57.1686C31.6535 57.1989 31.6822 57.2188 31.7137 57.2187C31.7198 57.2185 31.7258 57.2175 31.7321 57.2162C31.7697 57.2063 31.792 57.169 31.7818 57.1326L31.5703 56.3931L31.7159 56.4662L31.9673 57.3446C31.9759 57.375 32.0047 57.3947 32.0361 57.3947C32.0422 57.3946 32.0483 57.3938 32.0545 57.3921C32.0924 57.3824 32.1145 57.3451 32.1043 57.3089L31.8875 56.5522L32.3438 56.7808L32.5116 57.3671C32.5203 57.3973 32.5491 57.4171 32.5804 57.417C32.5864 57.417 32.5926 57.4161 32.5989 57.4146C32.6366 57.4046 32.6587 57.3673 32.6485 57.3311L32.5157 56.8669L32.8575 57.0381C32.8548 57.0524 32.8529 57.0669 32.853 57.082C32.8538 57.2193 32.9707 57.3302 33.1143 57.3294C33.2579 57.3287 33.3735 57.2166 33.3728 57.0793C33.372 56.9419 33.2551 56.8311 33.1115 56.8319C33.0374 56.8322 32.9713 56.8627 32.9241 56.9104L32.5779 56.7215L33.0914 56.5871C33.1291 56.577 33.1513 56.5397 33.1411 56.5036C33.1308 56.4674 33.0924 56.4462 33.0538 56.4559L32.4036 56.6264L31.9403 56.3735L32.794 56.1499C32.8316 56.1398 32.8541 56.1024 32.8437 56.0663C32.8335 56.0302 32.7953 56.0089 32.7565 56.0186L31.7661 56.2784L31.6181 56.1975L32.4716 55.9739C32.5094 55.9637 32.5318 55.9264 32.5212 55.8903C32.5112 55.8542 32.4727 55.8329 32.4342 55.8426L31.4439 56.1022L30.8549 55.781L31.4399 55.4535L32.4333 55.7028C32.4394 55.7042 32.4457 55.7049 32.4517 55.7049C32.4832 55.7048 32.5116 55.6848 32.5201 55.6543C32.5299 55.618 32.5072 55.581 32.4694 55.5713L31.6133 55.3565L31.7604 55.2739L32.7537 55.5232C32.7601 55.5247 32.7661 55.5256 32.7722 55.5256C32.8037 55.5254 32.8321 55.5053 32.8404 55.4747C32.8505 55.4385 32.8277 55.4013 32.7899 55.3917L31.9337 55.1769L32.3939 54.9194L33.0464 55.0828C33.0525 55.0842 33.0587 55.0851 33.0647 55.0849C33.096 55.0848 33.1246 55.0648 33.133 55.0343C33.1429 54.998 33.1201 54.9609 33.0823 54.9513L32.5673 54.8221L32.896 54.6382C32.9436 54.685 33.0099 54.7142 33.0835 54.7138C33.2268 54.7131 33.3427 54.6011 33.3419 54.4637C33.3412 54.3263 33.2242 54.2157 33.0806 54.2163C32.9372 54.2172 32.8214 54.3291 32.8222 54.4665C32.8223 54.4819 32.8242 54.4965 32.827 54.511L32.5034 54.6776L32.6308 54.2119C32.6407 54.1758 32.6181 54.1387 32.5803 54.1291C32.5418 54.1199 32.5034 54.1415 32.4936 54.1774L32.3325 54.7654L31.8791 54.9988L32.0867 54.2399C32.0966 54.2037 32.0739 54.1665 32.0361 54.157C31.9975 54.1478 31.9593 54.1694 31.9495 54.2056L31.7084 55.0865L31.5631 55.1611L31.7664 54.4195C31.7762 54.3831 31.7535 54.3458 31.7155 54.3364C31.6773 54.3269 31.639 54.3488 31.6291 54.3849L31.3925 55.249L30.8363 55.5348L30.8203 54.9754L31.5018 54.3153C31.5295 54.2888 31.5292 54.2458 31.5013 54.2194C31.4736 54.193 31.4284 54.1932 31.4011 54.22L30.8149 54.7873L30.8103 54.6277L31.4999 53.9602C31.5275 53.9335 31.5272 53.8905 31.4994 53.8643C31.4716 53.8377 31.4265 53.8378 31.3991 53.8647L30.805 54.4397L30.7907 53.9401L31.2478 53.4977C31.2754 53.4709 31.2751 53.428 31.2471 53.4016C31.2191 53.3752 31.1744 53.3755 31.147 53.402L30.7854 53.7522L30.7743 53.3613C30.8809 53.3299 30.9585 53.2357 30.9578 53.1234C30.9571 52.9858 30.84 52.8752 30.6965 52.876C30.5531 52.8767 30.4374 52.9886 30.438 53.126C30.4387 53.2385 30.5175 53.3318 30.6244 53.3621L30.6177 53.753L30.2522 53.4066C30.2245 53.3804 30.1795 53.3805 30.152 53.4073C30.1244 53.4338 30.1247 53.477 30.1525 53.5034L30.6147 53.9412L30.6061 54.4405L30.0056 53.872C29.9776 53.8454 29.9327 53.8458 29.9052 53.8726C29.8777 53.8992 29.878 53.9422 29.9057 53.9685L30.6029 54.6285L30.6002 54.7883L30.0076 54.2273C29.9798 54.2008 29.9348 54.2011 29.9073 54.2278C29.8798 54.2545 29.88 54.2974 29.9079 54.3238L30.597 54.9763L30.5874 55.5363L30.0279 55.2562L29.7811 54.3948C29.7708 54.3588 29.7327 54.3374 29.6939 54.3473C29.6562 54.357 29.6339 54.3945 29.6442 54.4308L29.8558 55.1702L29.7099 55.0973L29.4586 54.2188C29.4484 54.1829 29.41 54.1616 29.3714 54.1713C29.3336 54.1811 29.3112 54.2186 29.3217 54.2547L29.5379 55.0111L29.0819 54.7828L28.9142 54.1966C28.9038 54.1606 28.8658 54.1394 28.8269 54.149C28.7891 54.159 28.767 54.1963 28.7772 54.2325L28.9103 54.6967L28.5494 54.516C28.5505 54.5071 28.5522 54.4983 28.5522 54.4892C28.5513 54.3519 28.4343 54.2413 28.291 54.242Z" fill="white"/>
</g>
<g clip-path="url(#clip3_592:2977)">
<path d="M99.1516 53.1024C99.0469 53.103 98.9625 53.1847 98.963 53.2849C98.9636 53.3852 99.0489 53.466 99.1536 53.4654C99.2123 53.4651 99.2639 53.4388 99.2984 53.3986L99.5581 53.5404L99.1834 53.6385C99.1558 53.6459 99.1396 53.6731 99.1471 53.6995C99.1534 53.7216 99.1744 53.7361 99.1973 53.7359C99.2017 53.7358 99.2063 53.7353 99.2108 53.7341L99.6854 53.6098L100.023 53.7944L99.4004 53.9577C99.3728 53.965 99.3566 53.9922 99.3643 54.0187C99.3705 54.0407 99.3915 54.0552 99.4144 54.0551C99.4187 54.0551 99.4233 54.0544 99.4277 54.0533L100.151 53.8638L100.259 53.9229L99.6357 54.0861C99.6081 54.0934 99.5919 54.1208 99.5995 54.147C99.6058 54.1692 99.6268 54.1836 99.6497 54.1835C99.6541 54.1835 99.6587 54.1829 99.6631 54.1817L100.386 53.9923L100.816 54.2267L100.388 54.4657L99.6636 54.2839C99.6355 54.2771 99.6076 54.2929 99.6003 54.3193C99.5931 54.3457 99.6098 54.3728 99.6373 54.3799L100.262 54.5366L100.155 54.5967L99.4298 54.4148C99.4017 54.4079 99.3738 54.4239 99.3666 54.4502C99.3593 54.4766 99.3758 54.5038 99.4035 54.5108L100.028 54.6675L99.6923 54.8554L99.2164 54.7361C99.1883 54.7294 99.1604 54.7452 99.1531 54.7716C99.1459 54.7981 99.1625 54.8251 99.19 54.8322L99.5658 54.9263L99.3047 55.0724C99.2697 55.0348 99.2192 55.0106 99.1625 55.0109C99.0577 55.0116 98.9732 55.0933 98.9738 55.1936C98.9744 55.2937 99.0598 55.3746 99.1645 55.3741C99.2692 55.3734 99.3537 55.2918 99.3531 55.1915C99.3531 55.1831 99.3516 55.175 99.3503 55.1669L99.6126 55.0318L99.5196 55.3714C99.5124 55.398 99.5289 55.425 99.5565 55.432C99.5611 55.4332 99.5656 55.4336 99.57 55.4336C99.593 55.4335 99.6137 55.4188 99.6198 55.3967L99.7373 54.9675L100.068 54.7973L99.9168 55.3511C99.9097 55.3777 99.9261 55.4047 99.9537 55.4116C99.9583 55.4127 99.9629 55.4133 99.9672 55.4133C99.9901 55.4131 100.011 55.3985 100.017 55.3762L100.193 54.7333L100.299 54.6789L100.151 55.2201C100.143 55.2467 100.16 55.2737 100.188 55.2807C100.192 55.2818 100.197 55.2823 100.201 55.2823C100.224 55.2822 100.245 55.2675 100.251 55.2452L100.423 54.6147L100.829 54.4062L100.841 54.8145L100.344 55.2959C100.324 55.3153 100.324 55.3466 100.344 55.3661C100.354 55.3756 100.367 55.3804 100.381 55.3802C100.394 55.3802 100.407 55.3754 100.417 55.3656L100.845 54.9517L100.848 55.0681L100.345 55.5552C100.325 55.5745 100.325 55.606 100.345 55.6253C100.356 55.635 100.369 55.6396 100.382 55.6395C100.395 55.6394 100.409 55.6346 100.419 55.6248L100.852 55.2052L100.863 55.5697L100.529 55.8927C100.509 55.9121 100.509 55.9434 100.53 55.9627C100.54 55.9724 100.553 55.9771 100.566 55.9771C100.579 55.977 100.593 55.9719 100.603 55.9621L100.866 55.7069L100.874 55.9681C100.797 55.9913 100.74 56.0598 100.741 56.1417C100.741 56.2419 100.827 56.3228 100.931 56.3222C101.036 56.3217 101.12 56.2399 101.12 56.1397C101.119 56.0578 101.062 55.9899 100.984 55.9676L100.989 55.7062L101.256 55.9589C101.276 55.9781 101.309 55.978 101.329 55.9585C101.349 55.939 101.349 55.9076 101.328 55.8884L100.991 55.5689L100.997 55.2043L101.436 55.6194C101.456 55.6386 101.489 55.6385 101.509 55.619C101.529 55.5995 101.529 55.5683 101.509 55.5489L101 55.0671L101.002 54.9506L101.434 55.36C101.454 55.3794 101.487 55.3791 101.507 55.3595C101.528 55.3402 101.527 55.3087 101.507 55.2896L101.004 54.8134L101.011 54.405L101.419 54.6094L101.599 55.238C101.605 55.2602 101.626 55.2747 101.649 55.2746C101.654 55.2745 101.658 55.2738 101.663 55.2728C101.69 55.2656 101.706 55.2383 101.699 55.2118L101.545 54.6722L101.651 54.7255L101.834 55.3665C101.841 55.3887 101.862 55.4031 101.885 55.4031C101.889 55.403 101.894 55.4024 101.898 55.4012C101.926 55.394 101.942 55.3668 101.934 55.3404L101.776 54.7882L102.109 54.955L102.232 55.3829C102.238 55.405 102.259 55.4194 102.282 55.4193C102.286 55.4193 102.291 55.4187 102.295 55.4176C102.323 55.4103 102.339 55.383 102.331 55.3567L102.235 55.0179L102.484 55.1428C102.482 55.1532 102.481 55.1638 102.481 55.1749C102.481 55.275 102.567 55.356 102.671 55.3554C102.776 55.3549 102.861 55.2731 102.86 55.1729C102.859 55.0726 102.774 54.9918 102.669 54.9923C102.615 54.9925 102.567 55.0148 102.533 55.0496L102.28 54.9117L102.655 54.8137C102.682 54.8063 102.698 54.7791 102.691 54.7527C102.683 54.7264 102.655 54.7109 102.627 54.718L102.153 54.8424L101.815 54.6579L102.438 54.4946C102.465 54.4873 102.481 54.46 102.474 54.4337C102.466 54.4073 102.439 54.3918 102.41 54.3989L101.688 54.5884L101.58 54.5294L102.202 54.3662C102.23 54.3588 102.246 54.3315 102.239 54.3052C102.231 54.2789 102.203 54.2634 102.175 54.2705L101.452 54.4599L101.023 54.2255L101.45 53.9865L102.174 54.1684C102.179 54.1695 102.183 54.17 102.188 54.17C102.211 54.1699 102.232 54.1553 102.238 54.133C102.245 54.1065 102.228 54.0795 102.201 54.0725L101.576 53.9157L101.683 53.8555L102.408 54.0374C102.413 54.0385 102.417 54.0391 102.422 54.0391C102.445 54.039 102.465 54.0243 102.472 54.002C102.479 53.9755 102.462 53.9484 102.435 53.9414L101.81 53.7847L102.146 53.5967L102.622 53.7159C102.626 53.717 102.631 53.7176 102.635 53.7175C102.658 53.7174 102.679 53.7028 102.685 53.6805C102.692 53.6541 102.676 53.6271 102.648 53.62L102.272 53.5258L102.512 53.3915C102.547 53.4257 102.595 53.447 102.649 53.4467C102.753 53.4462 102.838 53.3645 102.837 53.2642C102.837 53.1639 102.752 53.0832 102.647 53.0837C102.542 53.0843 102.458 53.1659 102.458 53.2662C102.458 53.2774 102.46 53.2882 102.462 53.2987L102.226 53.4203L102.319 53.0804C102.326 53.0541 102.309 53.027 102.282 53.02C102.254 53.0133 102.226 53.029 102.218 53.0553L102.101 53.4844L101.77 53.6546L101.922 53.1009C101.929 53.0744 101.912 53.0473 101.885 53.0404C101.856 53.0337 101.829 53.0494 101.821 53.0758L101.645 53.7187L101.539 53.7731L101.688 53.232C101.695 53.2054 101.678 53.1781 101.651 53.1713C101.623 53.1644 101.595 53.1804 101.588 53.2067L101.415 53.8372L101.009 54.0458L100.997 53.6376L101.495 53.1559C101.515 53.1366 101.515 53.1052 101.494 53.0859C101.474 53.0667 101.441 53.0668 101.421 53.0863L100.993 53.5004L100.99 53.3839L101.493 52.8968C101.513 52.8773 101.513 52.8459 101.493 52.8268C101.473 52.8074 101.44 52.8075 101.42 52.8271L100.986 53.2467L100.976 52.8821L101.309 52.5593C101.329 52.5397 101.329 52.5084 101.309 52.4892C101.288 52.4699 101.256 52.4701 101.236 52.4895L100.972 52.745L100.964 52.4598C101.042 52.4368 101.098 52.3681 101.098 52.2861C101.097 52.1858 101.012 52.105 100.907 52.1056C100.802 52.1061 100.718 52.1878 100.718 52.288C100.719 52.3701 100.776 52.4382 100.854 52.4603L100.85 52.7456L100.583 52.4928C100.563 52.4737 100.53 52.4738 100.51 52.4933C100.49 52.5126 100.49 52.5442 100.51 52.5634L100.847 52.8829L100.841 53.2473L100.403 52.8324C100.382 52.813 100.35 52.8133 100.33 52.8329C100.31 52.8523 100.31 52.8836 100.33 52.9029L100.839 53.3845L100.837 53.5011L100.404 53.0917C100.384 53.0723 100.351 53.0725 100.331 53.0921C100.311 53.1115 100.311 53.1429 100.332 53.1621L100.834 53.6382L100.827 54.0469L100.419 53.8425L100.239 53.2139C100.232 53.1876 100.204 53.172 100.175 53.1792C100.148 53.1864 100.132 53.2137 100.139 53.2402L100.294 53.7797L100.187 53.7266L100.004 53.0855C99.9962 53.0593 99.9683 53.0438 99.9401 53.0508C99.9125 53.058 99.8962 53.0853 99.9038 53.1117L100.062 53.6636L99.7288 53.497L99.6064 53.0693C99.5988 53.043 99.5711 53.0276 99.5427 53.0345C99.5152 53.0419 99.499 53.0691 99.5065 53.0955L99.6036 53.4342L99.3402 53.3024C99.341 53.2959 99.3422 53.2895 99.3422 53.2828C99.3417 53.1826 99.2563 53.1019 99.1516 53.1024Z" fill="white"/>
</g>
<defs>
<clipPath id="clip0_592:2977">
<rect width="5.59716" height="5.35901" fill="white" transform="translate(59.7629 41.0002)"/>
</clipPath>
<clipPath id="clip1_592:2977">
<rect width="8.48602" height="8.12495" fill="white" transform="translate(76.7355 26.4788)"/>
</clipPath>
<clipPath id="clip2_592:2977">
<rect width="6.68048" height="6.39623" fill="white" transform="translate(27.2638 52.5824)"/>
</clipPath>
<clipPath id="clip3_592:2977">
<rect width="4.87495" height="4.66752" fill="white" transform="translate(98.4022 51.8912)"/>
</clipPath>
</defs>
</svg>
