<svg width="60" height="84" viewBox="0 0 60 84" fill="none" xmlns="http://www.w3.org/2000/svg">
<path d="M59.9983 54.2126C60.141 40.5583 51.2339 28.9425 38.8773 25.0682C38.669 25.3698 38.3744 25.6182 38.0425 25.7719C50.2913 29.3167 59.2142 40.7511 59.0462 54.1746C58.8708 70.2943 45.6886 83.2139 29.6431 83.0378C13.5975 82.8616 0.733338 69.6639 0.912639 53.4988C1.06488 40.2567 10.0389 29.1612 22.1205 25.7437C21.7221 25.6173 21.3806 25.3587 21.1334 25.0627C9.02009 28.8432 0.165778 40.132 0.00168428 53.5102C-0.171968 70.1328 13.1042 83.8238 29.6504 83.9983C46.1966 84.1728 59.8247 70.8353 59.9983 54.2126Z" fill="white"/>
<path d="M34.8381 25.993C48.1949 28.3097 58.3132 40.1234 58.135 54.1859C57.9619 69.7574 45.1765 82.3005 29.6767 82.1266C14.1769 81.9527 1.69148 69.1082 1.86458 53.5368C2.04278 39.4742 12.4227 27.9081 25.8386 25.8877L22.7937 25.8486C22.5679 25.8287 22.3424 25.8089 22.1205 25.7437C10.0389 29.1612 1.06488 40.2567 0.912639 53.4988C0.737289 69.6185 13.5975 82.8616 29.6431 83.0378C45.6886 83.2139 58.8708 70.2943 59.0462 54.1746C59.2142 40.7511 50.2913 29.3167 38.0425 25.7719C37.7558 25.9295 37.3825 26.0338 37.0213 26.0021L34.8381 25.993Z" fill="white"/>
<path d="M26.9247 13.4134C26.9433 11.6324 28.3871 10.2052 30.1599 10.2239C31.9327 10.2426 33.3533 11.693 33.3347 13.474C33.3105 14.7974 32.4814 15.9587 31.3012 16.4492L32.9837 16.4599C33.7772 15.7069 34.2784 14.654 34.2908 13.4666C34.3077 11.1827 32.4711 9.28435 30.1977 9.26737C27.9242 9.25038 26.0346 11.0955 26.0177 13.3794C26.0053 14.5667 26.4602 15.6123 27.2589 16.3681L28.9414 16.3789C27.7087 15.9049 26.9417 14.7862 26.9247 13.4134Z" fill="white"/>
<path d="M33.3797 13.478C33.3984 11.697 31.9777 10.2466 30.2049 10.2279C28.4321 10.2092 26.9884 11.6364 26.9698 13.4174C26.9455 14.7408 27.7537 15.9089 28.9373 16.4243L31.3914 16.4571C32.5264 15.9627 33.3515 14.8468 33.3797 13.478ZM30.1333 15.7524C28.8611 15.732 27.8604 14.6841 27.8768 13.4514C27.8931 12.2187 28.9401 11.168 30.1671 11.1845C31.4393 11.2049 32.44 12.2527 32.4236 13.4854C32.4033 14.7634 31.4055 15.7727 30.1333 15.7524Z" fill="white"/>
<path d="M21.5223 23.7258L21.5742 18.4281C21.5843 17.7891 22.1323 17.2431 22.7684 17.2533L28.7229 17.3195C28.1518 17.0865 27.6336 16.7667 27.2137 16.3641L22.8965 16.3046C21.6695 16.2882 20.6717 17.2975 20.6593 18.4848L20.578 23.5971C20.5758 24.1454 20.7581 24.6642 21.0877 25.0588C21.4156 24.9505 21.7435 24.8422 22.1127 24.7833C21.7673 24.5701 21.5279 24.1834 21.5223 23.7258Z" fill="white"/>
<path d="M31.4935 17.3801L37.2674 17.4305C37.9035 17.4407 38.4471 17.9912 38.4369 18.6303L38.385 23.9279C38.4025 24.2494 38.2394 24.555 37.9939 24.762C38.306 24.8351 38.6142 24.9536 38.9263 25.0268C39.1837 24.6837 39.3135 24.238 39.3079 23.7805L39.336 18.755C39.3524 17.5223 38.3477 16.5198 37.1658 16.5074L33.0293 16.4638C32.5834 16.8816 32.0551 17.2009 31.4935 17.3801Z" fill="white"/>
<path d="M30.3234 25.5961C28.7763 25.5973 27.2665 25.6931 25.79 25.929L34.7895 26.0344C33.3605 25.7259 31.8704 25.595 30.3234 25.5961Z" fill="white"/>
<path d="M22.12 25.7439C23.2883 25.3895 24.4939 25.1298 25.7367 24.9648L22.6917 24.9257C22.5111 24.9098 22.2893 24.8445 22.1127 24.7833C21.7848 24.8916 21.4608 24.9545 21.0877 25.0588C21.3801 25.3588 21.7215 25.6175 22.12 25.7439Z" fill="white"/>
<path d="M37.1459 25.0987L34.9176 25.0857C35.9934 25.2717 37.02 25.499 38.0388 25.8171C38.3706 25.6635 38.6653 25.4151 38.8735 25.1134C38.5654 24.9949 38.2532 24.9218 37.9411 24.8487C37.7487 24.9689 37.4659 25.0811 37.1459 25.0987Z" fill="white"/>
<path d="M25.7376 24.9645C24.4948 25.1295 23.2889 25.3893 22.1205 25.7437C22.3424 25.8089 22.5639 25.8741 22.7937 25.8486L25.8386 25.8877C27.3151 25.6518 28.8255 25.5559 30.3725 25.5547C31.9196 25.5536 33.4057 25.7299 34.8839 25.9969L37.1121 26.01C37.4773 25.9963 37.8013 25.9334 38.1332 25.7797C37.1104 25.507 36.0877 25.2343 35.012 25.0483L25.7376 24.9645Z" fill="white"/>
<path d="M31.4935 17.3801C32.0551 17.2009 32.583 16.8818 32.9837 16.4599L31.3469 16.453C30.9699 16.6027 30.5517 16.7031 30.1001 16.6634C29.6446 16.6691 29.2462 16.5426 28.8477 16.4162L27.2104 16.4094C27.6303 16.812 28.1445 17.1771 28.7196 17.3648L31.4935 17.3801Z" fill="white"/>
<path d="M30.1001 16.6634C30.5556 16.6577 30.9699 16.6027 31.3469 16.453L28.893 16.4202C29.2875 16.592 29.6898 16.673 30.1001 16.6634Z" fill="white"/>
<path d="M22.8209 23.9768C22.6402 23.961 22.4715 23.809 22.4873 23.6275L22.5194 18.5567C22.5352 18.3753 22.6865 18.2057 22.8671 18.2216L37.1398 18.3791C37.3204 18.395 37.4892 18.5469 37.4734 18.7284L37.3961 23.7952C37.3803 23.9767 37.2291 24.1462 37.0485 24.1303L35.0047 24.0878C35.9902 24.2659 36.9717 24.4892 37.9493 24.758C38.1948 24.551 38.3127 24.2414 38.3404 23.9239L38.3923 18.6263C38.4024 17.9873 37.904 17.4407 37.2228 17.4265L31.4489 17.3761C31.0267 17.5218 30.5633 17.6182 30.0627 17.6199C29.5621 17.6216 29.1145 17.5366 28.6748 17.3608L22.7203 17.2945C22.0842 17.2843 21.5401 17.785 21.526 18.4694L21.4742 23.767C21.4798 24.2246 21.7191 24.6113 22.0685 24.7792C23.2329 24.4701 24.3933 24.2065 25.6361 24.0414L22.8209 23.9768Z" fill="white"/>
<path d="M34.9176 25.0857L37.1459 25.0987C37.4659 25.0811 37.7485 24.969 37.9449 24.8034C36.9674 24.5347 35.9859 24.3113 35.0004 24.1332L25.6848 24.0001C24.4872 24.1691 23.2816 24.4288 22.1172 24.7378C22.2899 24.8444 22.4666 24.9057 22.6963 24.8801L25.7413 24.9192C27.2629 24.6873 28.7727 24.5915 30.3649 24.5943C31.9041 24.6838 33.4394 24.8187 34.9176 25.0857Z" fill="white"/>
<path d="M30.3614 24.6395C28.8143 24.6406 27.2592 24.7326 25.7376 24.9645L34.9176 25.0857C33.4394 24.8187 31.9045 24.6837 30.3614 24.6395Z" fill="white"/>
<path d="M30.108 17.6238C30.6086 17.6221 31.072 17.5257 31.4941 17.38L28.7196 17.3648C29.1593 17.5406 29.6073 17.6255 30.108 17.6238Z" fill="white"/>
<path d="M29.6517 10.3163L30.8364 8.72917C32.0741 7.05533 38.4276 -1.11659 42.1589 0.445501C43.4328 0.968843 44.0565 2.16637 43.8025 3.51531C43.0937 7.47536 37.0494 10.0066 31.617 10.2147L29.6517 10.3163ZM41.1018 2.13522C39.7845 2.11085 36.8659 4.27689 33.6127 8.19614C38.9571 7.43175 41.6521 4.69756 41.9631 3.21651C42.0517 2.72151 41.8988 2.3881 41.4139 2.20836C41.3276 2.15506 41.2373 2.14713 41.1018 2.13522Z" fill="white"/>
<path d="M31.1049 10.3525L29.1594 10.2272C23.7292 9.88702 17.7289 7.21134 17.1205 3.22693C16.9229 1.83831 17.5674 0.706534 18.8419 0.178628C22.6121 -1.31834 28.7546 7.03771 29.9749 8.69905L31.1049 10.3525ZM19.8285 1.91085C19.693 1.89895 19.5988 1.93637 19.5045 1.97379C19.0332 2.16091 18.8701 2.46654 18.9621 2.97742C19.1969 4.46073 21.8203 7.25099 27.1579 8.1315C24.0051 4.10629 21.1497 1.88986 19.8285 1.91085Z" fill="white"/>
<path d="M30.458 10.1115C30.7334 10.1147 30.9607 9.75029 30.9659 9.29766C30.971 8.84504 30.752 8.47555 30.4767 8.4724C30.2013 8.46924 29.974 8.8336 29.9688 9.28623C29.9637 9.73885 30.1827 10.1083 30.458 10.1115Z" fill="white"/>
<path d="M16.186 55.5369C16.7206 55.5357 17.1527 55.1749 17.2585 54.6913L20.0487 54.6635L18.0809 56.7247L18.488 57.0889L20.8504 54.6617L22.3043 54.6369L20.3366 56.6981L20.7436 57.0623L23.1061 54.6351L24.5599 54.6103L22.5922 56.6714L22.9993 57.0357L25.3617 54.6084L25.9764 54.5802C26.0267 55.5842 26.4297 56.5231 27.0942 57.2304L26.6942 57.634L23.2894 57.6901L23.2906 58.2271L26.1234 58.167L25.0995 59.2111L21.6947 59.2672L21.6959 59.8042L24.5288 59.744L23.5048 60.7881L20.1001 60.8442L20.1013 61.3812L22.9341 61.321L20.9716 63.3446C20.5488 63.0932 19.9663 63.1643 19.609 63.5357C19.1664 63.9716 19.1787 64.7019 19.6179 65.109C20.0519 65.5537 20.7788 65.5413 21.1841 65.1001C21.5414 64.7287 21.5828 64.1594 21.336 63.7411L23.2985 61.7176L23.3584 64.5635L23.8929 64.5623L23.8371 61.1418L24.861 60.0976L24.9209 62.9436L25.4554 62.9424L25.3995 59.5218L26.4235 58.4777L26.4834 61.3237L27.0179 61.3224L26.962 57.9019L27.362 57.4983C28.0744 58.1357 29.0107 58.5363 30.0318 58.6037L30.0278 59.1783L27.6653 61.6056L28.0724 61.9698L30.0401 59.9086L30.0648 61.3692L27.7023 63.7964L28.1094 64.1607L30.0771 62.0995L30.1018 63.56L27.7393 65.9873L28.1464 66.3515L30.1141 64.2903L30.1419 67.0934C29.6664 67.218 29.2986 67.6645 29.2998 68.2015C29.3279 68.819 29.8315 69.3119 30.4409 69.3212C31.0555 69.293 31.5461 68.7871 31.5554 68.1749C31.5542 67.6379 31.1951 67.2037 30.7138 67.0974L30.6861 64.2944L32.7378 66.2712L33.1003 65.8623L30.6843 63.4889L30.6596 62.0283L32.7113 64.0052L33.0738 63.5962L30.6578 61.2229L30.6331 59.7623L32.6848 61.7391L33.0473 61.3302L30.6313 58.9568L30.63 58.4198C31.6348 58.3316 32.5693 57.9267 33.2733 57.2592L33.6751 57.6611L33.731 61.0816L34.2655 61.0804L34.2056 58.2344L35.2449 59.2631L35.3007 62.6836L35.8353 62.6824L35.7754 59.8365L36.8147 60.8651L36.8705 64.2857L37.405 64.2844L37.3451 61.4385L39.3594 63.41C39.1091 63.8348 39.18 64.42 39.5496 64.7789C39.9836 65.2237 40.7105 65.2113 41.1157 64.77C41.5584 64.334 41.5461 63.6037 41.1068 63.1966C40.7372 62.8377 40.1705 62.796 39.7541 63.044L37.7399 61.0724L40.5727 61.0123L40.5715 60.4753L37.1667 60.5314L36.1274 59.5027L38.9602 59.4426L38.959 58.9056L35.5542 58.9617L34.5149 57.933L37.3478 57.8729L37.3466 57.3359L33.9418 57.392L33.54 56.9901C34.1797 56.2369 34.541 55.2909 34.5708 54.2598L35.1802 54.2692L37.5962 56.6426L37.9962 56.2389L35.9498 54.2245L37.4036 54.1997L39.8197 56.5731L40.2197 56.1694L38.1732 54.155L39.6271 54.1302L42.1291 56.7074L42.5291 56.3038L40.4827 54.2893L43.2728 54.2615C43.3969 54.7391 43.8414 55.1086 44.3759 55.1074C44.9853 55.1168 45.4759 54.6109 45.4904 53.9611C45.4997 53.3489 44.9962 52.856 44.3494 52.8414C43.8148 52.8426 43.3827 53.2034 43.2769 53.6869L40.4867 53.7147L42.4919 51.6588L42.0901 51.257L39.7276 53.6842L38.2738 53.709L40.279 51.6532L39.8772 51.2513L37.5147 53.6786L36.0608 53.7034L38.066 51.6475L37.6642 51.2456L35.3018 53.6729L34.6871 53.7011C34.5993 52.6918 34.191 51.7905 33.5214 51.1208L33.9693 50.6473L37.3741 50.5912L37.3729 50.0542L34.5453 50.0767L35.5692 49.0326L38.974 48.9765L38.9728 48.4395L36.1452 48.4621L37.1691 47.418L40.5739 47.3619L40.4341 46.9971L37.6065 47.0196L39.569 44.996C39.9919 45.2475 40.5743 45.1763 40.9316 44.805C41.3743 44.369 41.362 43.6387 40.9227 43.2316C40.4888 42.7869 39.7618 42.7993 39.3566 43.2406C38.9993 43.6119 38.9578 44.1812 39.2047 44.5995L37.2422 46.6231L37.2197 43.7824L36.6852 43.7836L36.741 47.2042L35.7171 48.2483L35.6947 45.4076L35.1601 45.4088L35.216 48.8294L34.192 49.8735L34.1696 47.0328L33.6351 47.034L33.6909 50.4546L33.2055 50.9229C32.4879 50.3231 31.589 49.9277 30.6001 49.9031L30.5825 49.2105L32.945 46.7832L32.5432 46.3814L30.538 48.4373L30.5133 46.9767L32.8758 44.5495L32.474 44.1477L30.4688 46.2036L30.412 44.7001L32.7744 42.2729L32.3726 41.871L30.4049 43.9322L30.3772 41.1292C30.8526 41.0046 31.2204 40.558 31.2192 40.021C31.2285 39.4089 30.7249 38.916 30.0781 38.9013C29.4688 38.892 28.9781 39.3979 28.9636 40.0477C28.9648 40.5847 29.3239 41.0188 29.8052 41.1251L29.8329 43.9282L27.7865 41.9137L27.3865 42.3174L29.8026 44.6908L29.8647 46.1566L27.8504 44.1851L27.4504 44.5887L29.8665 46.9621L29.8912 48.4227L27.8448 46.4082L27.4448 46.8119L29.8608 49.1853L29.8784 49.8779C28.8737 49.9662 27.9767 50.3763 27.2779 51.0062L26.8065 50.5562L26.7506 47.1357L26.2161 47.1369L26.2386 49.9775L25.2741 48.9594L25.2183 45.5389L24.6838 45.5401L24.7062 48.3808L23.6669 47.3521L23.6111 43.9316L23.0765 43.9328L23.099 46.7735L21.0847 44.8019C21.335 44.3771 21.2642 43.792 20.8946 43.433C20.4606 42.9883 19.7337 43.0007 19.3284 43.442C18.8858 43.8779 18.8981 44.6082 19.3373 45.0153C19.707 45.3743 20.2736 45.416 20.69 45.168L22.7043 47.1395L19.8767 47.1621L19.8779 47.6991L23.2827 47.643L24.322 48.6716L21.4944 48.6942L21.4956 49.2312L24.9004 49.1751L25.9397 50.2038L23.1122 50.2263L23.0871 50.9513L26.4919 50.8952L26.9633 51.3452C26.3288 52.0609 25.9727 52.9692 25.8734 53.9521L25.2587 53.9804L22.8427 51.607L22.4801 52.0159L24.5318 53.9928L23.0405 54.0123L20.6245 51.6389L20.2619 52.0479L22.3136 54.0247L20.8598 54.0495L18.4437 51.6761L18.0811 52.0851L20.1328 54.0619L17.3427 54.0897C17.2187 53.6121 16.7742 53.2426 16.2396 53.2438C15.625 53.272 15.1344 53.7779 15.1251 54.3901C15.0357 55.0294 15.5767 55.5275 16.186 55.5369ZM26.2541 54.5044L28.4349 54.4672C28.4677 54.7785 28.5806 55.0629 28.7736 55.3202L27.2538 56.9078C26.6964 56.254 26.315 55.4332 26.2541 54.5044ZM27.6182 57.3044L29.138 55.7168C29.3789 55.9042 29.6678 56.0216 30.0047 56.0692L30.0417 58.26C29.1329 58.2084 28.2662 57.856 27.6182 57.3044ZM30.5762 58.2588L30.5392 56.068C30.8492 56.035 31.1375 55.884 31.3936 55.6901L32.9739 57.217C32.3178 57.8145 31.5008 58.1977 30.5762 58.2588ZM33.3312 56.8456L31.7509 55.3188C31.9374 55.0767 32.0596 54.7489 32.0643 54.4428L34.2451 54.4056C34.2311 55.3239 33.8855 56.157 33.3312 56.8456ZM34.2438 53.8686L32.0631 53.9058C31.9876 53.6267 31.8747 53.3424 31.6764 53.1227L33.191 51.5727C33.7589 52.1513 34.1403 52.972 34.2438 53.8686ZM32.7892 51.1708L31.2694 52.7584C31.0232 52.6086 30.7717 52.4964 30.4722 52.4542L30.4352 50.2633C31.3493 50.2773 32.1786 50.6245 32.7892 51.1708ZM29.9381 50.2698L29.9752 52.4607C29.7026 52.4989 29.4196 52.6123 29.2061 52.7739L27.6258 51.247C28.2393 50.6818 29.051 50.3363 29.9381 50.2698ZM27.2259 51.6507L28.7687 53.1722C28.6249 53.382 28.4705 53.667 28.4337 53.9302L26.2529 53.9674C26.3365 53.0972 26.682 52.2641 27.2259 51.6507Z" fill="white"/>
</svg>
