<svg width="24" height="24" viewBox="0 0 24 24" fill="none" xmlns="http://www.w3.org/2000/svg">
<path d="M21.1008 0.299927H2.90078C1.47078 0.299927 0.300781 1.46993 0.300781 2.89993V21.0999C0.300781 22.5312 1.47078 23.6999 2.90078 23.6999H21.1008C22.5308 23.6999 23.7008 22.5312 23.7008 21.0999V2.89993C23.7008 1.46993 22.5308 0.299927 21.1008 0.299927ZM11.98 19.1798C13.8895 19.1795 15.7207 18.4207 17.0708 17.0703C18.4209 15.72 19.1794 13.8886 19.1794 11.9791C19.1794 11.5397 19.1235 11.1159 19.0455 10.6999H21.1008V20.0807C21.1008 20.1989 21.0775 20.3158 21.0321 20.4249C20.9868 20.534 20.9204 20.633 20.8367 20.7164C20.753 20.7997 20.6536 20.8657 20.5443 20.9106C20.4351 20.9554 20.318 20.9782 20.1999 20.9777H3.80168C3.68356 20.9782 3.5665 20.9554 3.45722 20.9106C3.34794 20.8657 3.24859 20.7997 3.16488 20.7164C3.08118 20.633 3.01475 20.534 2.96943 20.4249C2.92411 20.3158 2.90078 20.1989 2.90078 20.0807V10.6999H4.91448C4.83518 11.1159 4.77928 11.5397 4.77928 11.9791C4.77963 13.8888 5.53838 15.7201 6.8887 17.0704C8.23902 18.4207 10.0703 19.1795 11.98 19.1798ZM7.48068 11.9791C7.48068 11.3883 7.59706 10.8032 7.82317 10.2573C8.04928 9.71144 8.3807 9.21544 8.7985 8.79764C9.21629 8.37984 9.71229 8.04843 10.2582 7.82232C10.8041 7.5962 11.3891 7.47983 11.98 7.47983C12.5708 7.47983 13.1559 7.5962 13.7018 7.82232C14.2477 8.04843 14.7437 8.37984 15.1615 8.79764C15.5793 9.21544 15.9107 9.71144 16.1368 10.2573C16.3629 10.8032 16.4793 11.3883 16.4793 11.9791C16.4793 13.1724 16.0052 14.3168 15.1615 15.1606C14.3177 16.0044 13.1733 16.4784 11.98 16.4784C10.7867 16.4784 9.64228 16.0044 8.7985 15.1606C7.95471 14.3168 7.48068 13.1724 7.48068 11.9791ZM20.1999 6.79993H18.1004C17.862 6.79924 17.6336 6.70424 17.465 6.53568C17.2965 6.36712 17.2015 6.1387 17.2008 5.90033V3.79823C17.2008 3.30163 17.6038 2.89993 18.0991 2.89993H20.1986C20.6978 2.89993 21.1008 3.30163 21.1008 3.79823V5.89903C21.1008 6.39433 20.6978 6.79993 20.1999 6.79993Z" fill="white"/>
</svg>
